<?xml version="1.0" encoding="UTF-8" standalone="no"?>
<!DOCTYPE svg PUBLIC "-//W3C//DTD SVG 1.0//EN" "http://www.w3.org/TR/2001/PR-SVG-20010719/DTD/svg10.dtd">
<svg width="12cm" height="14cm" viewBox="242 245 228 279" xmlns="http://www.w3.org/2000/svg" xmlns:xlink="http://www.w3.org/1999/xlink">
  <g>
    <rect style="fill: #ffffff" x="244" y="266" width="225" height="256"/>
    <rect style="fill: none; fill-opacity:0; stroke-width: 2; stroke: #000000" x="244" y="266" width="225" height="256"/>
    <rect style="fill: #ffffff" x="244" y="246" width="88.7" height="20"/>
    <rect style="fill: none; fill-opacity:0; stroke-width: 2; stroke: #000000" x="244" y="246" width="88.7" height="20"/>
    <text font-size="12.7998" style="fill: #000000;text-anchor:start;font-family:monospace;font-style:normal;font-weight:normal" x="246" y="261">  numData  </text>
  </g>
  <g>
    <rect style="fill: #ffffff" x="288.002" y="286.8" width="133.1" height="86"/>
    <rect style="fill: none; fill-opacity:0; stroke-width: 2; stroke: #000000" x="288.002" y="286.8" width="133.1" height="86"/>
    <rect style="fill: #ffffff" x="268.002" y="308.8" width="40" height="14"/>
    <rect style="fill: none; fill-opacity:0; stroke-width: 2; stroke: #000000" x="268.002" y="308.8" width="40" height="14"/>
    <rect style="fill: #ffffff" x="268.002" y="336.8" width="40" height="14"/>
    <rect style="fill: none; fill-opacity:0; stroke-width: 2; stroke: #000000" x="268.002" y="336.8" width="40" height="14"/>
    <text font-size="12.8" style="fill: #000000;text-anchor:start;font-family:sans-serif;font-style:normal;font-weight:normal" x="316.002" y="312.7">&lt;&lt;file&gt;&gt;</text>
    <text font-size="12.8" style="fill: #000000;text-anchor:start;font-family:sans-serif;font-style:normal;font-weight:normal" x="316.002" y="328.7">
      <tspan x="316.002" y="328.7">run/numData.h</tspan>
    </text>
  </g>
  <g>
    <rect style="fill: #ffffff" x="281.002" y="414.8" width="148.35" height="86"/>
    <rect style="fill: none; fill-opacity:0; stroke-width: 2; stroke: #000000" x="281.002" y="414.8" width="148.35" height="86"/>
    <rect style="fill: #ffffff" x="261.002" y="436.8" width="40" height="14"/>
    <rect style="fill: none; fill-opacity:0; stroke-width: 2; stroke: #000000" x="261.002" y="436.8" width="40" height="14"/>
    <rect style="fill: #ffffff" x="261.002" y="464.8" width="40" height="14"/>
    <rect style="fill: none; fill-opacity:0; stroke-width: 2; stroke: #000000" x="261.002" y="464.8" width="40" height="14"/>
    <text font-size="12.8" style="fill: #000000;text-anchor:start;font-family:sans-serif;font-style:normal;font-weight:normal" x="309.002" y="440.7">&lt;&lt;file&gt;&gt;</text>
    <text font-size="12.8" style="fill: #000000;text-anchor:start;font-family:sans-serif;font-style:normal;font-weight:normal" x="309.002" y="456.7">
      <tspan x="309.002" y="456.7">run/numData.cpp</tspan>
    </text>
  </g>
  <g>
    <polyline style="fill: none; fill-opacity:0; stroke-width: 2; stroke-dasharray: 8; stroke: #000000" points="355.177,414.8 355.177,397.8 354.552,397.8 354.552,379.505 "/>
    <polyline style="fill: none; fill-opacity:0; stroke-width: 2; stroke: #000000" points="359.552,392.153 354.552,376.153 349.552,392.153 "/>
  </g>
</svg>
