<?xml version="1.0" encoding="UTF-8" standalone="no"?>
<!DOCTYPE svg PUBLIC "-//W3C//DTD SVG 1.0//EN" "http://www.w3.org/TR/2001/PR-SVG-20010719/DTD/svg10.dtd">
<svg width="25cm" height="24cm" viewBox="248 245 491 469" xmlns="http://www.w3.org/2000/svg" xmlns:xlink="http://www.w3.org/1999/xlink">
  <g>
    <rect style="fill: #ffffff" x="249.002" y="266" width="488.998" height="447"/>
    <rect style="fill: none; fill-opacity:0; stroke-width: 2; stroke: #000000" x="249.002" y="266" width="488.998" height="447"/>
    <rect style="fill: #ffffff" x="249.002" y="246" width="165.7" height="20"/>
    <rect style="fill: none; fill-opacity:0; stroke-width: 2; stroke: #000000" x="249.002" y="246" width="165.7" height="20"/>
    <text font-size="12.7998" style="fill: #000000;text-anchor:start;font-family:monospace;font-style:normal;font-weight:normal" x="251.002" y="261">  operatorLogicNode  </text>
  </g>
  <g>
    <rect style="fill: #ffffff" x="288.002" y="286.8" width="196.05" height="86"/>
    <rect style="fill: none; fill-opacity:0; stroke-width: 2; stroke: #000000" x="288.002" y="286.8" width="196.05" height="86"/>
    <rect style="fill: #ffffff" x="268.002" y="308.8" width="40" height="14"/>
    <rect style="fill: none; fill-opacity:0; stroke-width: 2; stroke: #000000" x="268.002" y="308.8" width="40" height="14"/>
    <rect style="fill: #ffffff" x="268.002" y="336.8" width="40" height="14"/>
    <rect style="fill: none; fill-opacity:0; stroke-width: 2; stroke: #000000" x="268.002" y="336.8" width="40" height="14"/>
    <text font-size="12.8" style="fill: #000000;text-anchor:start;font-family:sans-serif;font-style:normal;font-weight:normal" x="316.002" y="312.7">&lt;&lt;file&gt;&gt;</text>
    <text font-size="12.8" style="fill: #000000;text-anchor:start;font-family:sans-serif;font-style:normal;font-weight:normal" x="316.002" y="328.7">
      <tspan x="316.002" y="328.7">run/operatorLogicNode.h</tspan>
    </text>
  </g>
  <g>
    <rect style="fill: #ffffff" x="283.002" y="475.8" width="211.3" height="86"/>
    <rect style="fill: none; fill-opacity:0; stroke-width: 2; stroke: #000000" x="283.002" y="475.8" width="211.3" height="86"/>
    <rect style="fill: #ffffff" x="263.002" y="497.8" width="40" height="14"/>
    <rect style="fill: none; fill-opacity:0; stroke-width: 2; stroke: #000000" x="263.002" y="497.8" width="40" height="14"/>
    <rect style="fill: #ffffff" x="263.002" y="525.8" width="40" height="14"/>
    <rect style="fill: none; fill-opacity:0; stroke-width: 2; stroke: #000000" x="263.002" y="525.8" width="40" height="14"/>
    <text font-size="12.8" style="fill: #000000;text-anchor:start;font-family:sans-serif;font-style:normal;font-weight:normal" x="311.002" y="501.7">&lt;&lt;file&gt;&gt;</text>
    <text font-size="12.8" style="fill: #000000;text-anchor:start;font-family:sans-serif;font-style:normal;font-weight:normal" x="311.002" y="517.7">
      <tspan x="311.002" y="517.7">run/operatorLogicNode.cpp</tspan>
    </text>
  </g>
  <g>
    <polyline style="fill: none; fill-opacity:0; stroke-width: 2; stroke-dasharray: 8; stroke: #000000" points="388.652,475.8 388.652,428.3 386.027,428.3 386.027,379.505 "/>
    <polyline style="fill: none; fill-opacity:0; stroke-width: 2; stroke: #000000" points="391.027,392.153 386.027,376.153 381.027,392.153 "/>
  </g>
  <g>
    <rect style="fill: #ffffff" x="591.002" y="281.8" width="130.85" height="86"/>
    <rect style="fill: none; fill-opacity:0; stroke-width: 2; stroke: #000000" x="591.002" y="281.8" width="130.85" height="86"/>
    <rect style="fill: #ffffff" x="571.002" y="303.8" width="40" height="14"/>
    <rect style="fill: none; fill-opacity:0; stroke-width: 2; stroke: #000000" x="571.002" y="303.8" width="40" height="14"/>
    <rect style="fill: #ffffff" x="571.002" y="331.8" width="40" height="14"/>
    <rect style="fill: none; fill-opacity:0; stroke-width: 2; stroke: #000000" x="571.002" y="331.8" width="40" height="14"/>
    <text font-size="12.8" style="fill: #000000;text-anchor:start;font-family:sans-serif;font-style:normal;font-weight:normal" x="619.002" y="307.7">&lt;&lt;file&gt;&gt;</text>
    <text font-size="12.8" style="fill: #000000;text-anchor:start;font-family:sans-serif;font-style:normal;font-weight:normal" x="619.002" y="323.7">
      <tspan x="619.002" y="323.7">run/expNode.h</tspan>
    </text>
  </g>
  <g>
    <polyline style="fill: none; fill-opacity:0; stroke-width: 2; stroke-dasharray: 8; stroke: #000000" points="484.052,329.8 523.527,329.8 523.527,310.8 564.297,310.8 "/>
    <polyline style="fill: none; fill-opacity:0; stroke-width: 2; stroke: #000000" points="551.649,315.8 567.649,310.8 551.649,305.8 "/>
  </g>
  <g>
    <rect style="fill: #ffffff" x="591.002" y="382.8" width="122" height="86"/>
    <rect style="fill: none; fill-opacity:0; stroke-width: 2; stroke: #000000" x="591.002" y="382.8" width="122" height="86"/>
    <rect style="fill: #ffffff" x="571.002" y="404.8" width="40" height="14"/>
    <rect style="fill: none; fill-opacity:0; stroke-width: 2; stroke: #000000" x="571.002" y="404.8" width="40" height="14"/>
    <rect style="fill: #ffffff" x="571.002" y="432.8" width="40" height="14"/>
    <rect style="fill: none; fill-opacity:0; stroke-width: 2; stroke: #000000" x="571.002" y="432.8" width="40" height="14"/>
    <text font-size="12.8" style="fill: #000000;text-anchor:start;font-family:sans-serif;font-style:normal;font-weight:normal" x="619.002" y="408.7">&lt;&lt;file&gt;&gt;</text>
    <text font-size="12.8" style="fill: #000000;text-anchor:start;font-family:sans-serif;font-style:normal;font-weight:normal" x="619.002" y="424.7">
      <tspan x="619.002" y="424.7">run/runTree.h</tspan>
    </text>
  </g>
  <g>
    <polyline style="fill: none; fill-opacity:0; stroke-width: 2; stroke-dasharray: 8; stroke: #000000" points="484.052,329.8 523.527,329.8 523.527,411.8 564.297,411.8 "/>
    <polyline style="fill: none; fill-opacity:0; stroke-width: 2; stroke: #000000" points="551.649,416.8 567.649,411.8 551.649,406.8 "/>
  </g>
  <g>
    <rect style="fill: #ffffff" x="589" y="489.8" width="98.5" height="86"/>
    <rect style="fill: none; fill-opacity:0; stroke-width: 2; stroke: #000000" x="589" y="489.8" width="98.5" height="86"/>
    <rect style="fill: #ffffff" x="569" y="511.8" width="40" height="14"/>
    <rect style="fill: none; fill-opacity:0; stroke-width: 2; stroke: #000000" x="569" y="511.8" width="40" height="14"/>
    <rect style="fill: #ffffff" x="569" y="539.8" width="40" height="14"/>
    <rect style="fill: none; fill-opacity:0; stroke-width: 2; stroke: #000000" x="569" y="539.8" width="40" height="14"/>
    <text font-size="12.8" style="fill: #000000;text-anchor:start;font-family:sans-serif;font-style:normal;font-weight:normal" x="617" y="515.7">&lt;&lt;file&gt;&gt;</text>
    <text font-size="12.8" style="fill: #000000;text-anchor:start;font-family:sans-serif;font-style:normal;font-weight:normal" x="617" y="531.7">
      <tspan x="617" y="531.7">error.h</tspan>
    </text>
  </g>
  <g>
    <polyline style="fill: none; fill-opacity:0; stroke-width: 2; stroke-dasharray: 8; stroke: #000000" points="494.302,518.8 495.302,518.8 560,518.8 562.295,518.8 "/>
    <polyline style="fill: none; fill-opacity:0; stroke-width: 2; stroke: #000000" points="549.647,523.8 565.647,518.8 549.647,513.8 "/>
  </g>
</svg>
