<?xml version="1.0" encoding="UTF-8" standalone="no"?>
<!DOCTYPE svg PUBLIC "-//W3C//DTD SVG 1.0//EN" "http://www.w3.org/TR/2001/PR-SVG-20010719/DTD/svg10.dtd">
<svg width="29cm" height="14cm" viewBox="68 245 573 279" xmlns="http://www.w3.org/2000/svg" xmlns:xlink="http://www.w3.org/1999/xlink">
  <g>
    <rect style="fill: #ffffff" x="69" y="266" width="570.002" height="256"/>
    <rect style="fill: none; fill-opacity:0; stroke-width: 2; stroke: #000000" x="69" y="266" width="570.002" height="256"/>
    <rect style="fill: #ffffff" x="69" y="246" width="81" height="20"/>
    <rect style="fill: none; fill-opacity:0; stroke-width: 2; stroke: #000000" x="69" y="246" width="81" height="20"/>
    <text font-size="12.7998" style="fill: #000000;text-anchor:start;font-family:monospace;font-style:normal;font-weight:normal" x="71" y="261">  sTable  </text>
  </g>
  <g>
    <rect style="fill: #ffffff" x="288.002" y="286.8" width="113.7" height="86"/>
    <rect style="fill: none; fill-opacity:0; stroke-width: 2; stroke: #000000" x="288.002" y="286.8" width="113.7" height="86"/>
    <rect style="fill: #ffffff" x="268.002" y="308.8" width="40" height="14"/>
    <rect style="fill: none; fill-opacity:0; stroke-width: 2; stroke: #000000" x="268.002" y="308.8" width="40" height="14"/>
    <rect style="fill: #ffffff" x="268.002" y="336.8" width="40" height="14"/>
    <rect style="fill: none; fill-opacity:0; stroke-width: 2; stroke: #000000" x="268.002" y="336.8" width="40" height="14"/>
    <text font-size="12.8" style="fill: #000000;text-anchor:start;font-family:sans-serif;font-style:normal;font-weight:normal" x="316.002" y="312.7">&lt;&lt;file&gt;&gt;</text>
    <text font-size="12.8" style="fill: #000000;text-anchor:start;font-family:sans-serif;font-style:normal;font-weight:normal" x="316.002" y="328.7">
      <tspan x="316.002" y="328.7">run/sTable.h</tspan>
    </text>
  </g>
  <g>
    <rect style="fill: #ffffff" x="280.002" y="417.8" width="128.95" height="86"/>
    <rect style="fill: none; fill-opacity:0; stroke-width: 2; stroke: #000000" x="280.002" y="417.8" width="128.95" height="86"/>
    <rect style="fill: #ffffff" x="260.002" y="439.8" width="40" height="14"/>
    <rect style="fill: none; fill-opacity:0; stroke-width: 2; stroke: #000000" x="260.002" y="439.8" width="40" height="14"/>
    <rect style="fill: #ffffff" x="260.002" y="467.8" width="40" height="14"/>
    <rect style="fill: none; fill-opacity:0; stroke-width: 2; stroke: #000000" x="260.002" y="467.8" width="40" height="14"/>
    <text font-size="12.8" style="fill: #000000;text-anchor:start;font-family:sans-serif;font-style:normal;font-weight:normal" x="308.002" y="443.7">&lt;&lt;file&gt;&gt;</text>
    <text font-size="12.8" style="fill: #000000;text-anchor:start;font-family:sans-serif;font-style:normal;font-weight:normal" x="308.002" y="459.7">
      <tspan x="308.002" y="459.7">run/sTable.cpp</tspan>
    </text>
  </g>
  <g>
    <polyline style="fill: none; fill-opacity:0; stroke-width: 2; stroke-dasharray: 8; stroke: #000000" points="344.477,417.8 344.477,399.3 344.852,399.3 344.852,379.505 "/>
    <polyline style="fill: none; fill-opacity:0; stroke-width: 2; stroke: #000000" points="349.852,392.153 344.852,376.153 339.852,392.153 "/>
  </g>
  <g>
    <rect style="fill: #ffffff" x="491.002" y="281.8" width="130.85" height="86"/>
    <rect style="fill: none; fill-opacity:0; stroke-width: 2; stroke: #000000" x="491.002" y="281.8" width="130.85" height="86"/>
    <rect style="fill: #ffffff" x="471.002" y="303.8" width="40" height="14"/>
    <rect style="fill: none; fill-opacity:0; stroke-width: 2; stroke: #000000" x="471.002" y="303.8" width="40" height="14"/>
    <rect style="fill: #ffffff" x="471.002" y="331.8" width="40" height="14"/>
    <rect style="fill: none; fill-opacity:0; stroke-width: 2; stroke: #000000" x="471.002" y="331.8" width="40" height="14"/>
    <text font-size="12.8" style="fill: #000000;text-anchor:start;font-family:sans-serif;font-style:normal;font-weight:normal" x="519.002" y="307.7">&lt;&lt;file&gt;&gt;</text>
    <text font-size="12.8" style="fill: #000000;text-anchor:start;font-family:sans-serif;font-style:normal;font-weight:normal" x="519.002" y="323.7">
      <tspan x="519.002" y="323.7">run/expNode.h</tspan>
    </text>
  </g>
  <g>
    <polyline style="fill: none; fill-opacity:0; stroke-width: 2; stroke-dasharray: 8; stroke: #000000" points="401.702,329.8 432.352,329.8 432.352,310.8 464.297,310.8 "/>
    <polyline style="fill: none; fill-opacity:0; stroke-width: 2; stroke: #000000" points="451.649,315.8 467.649,310.8 451.649,305.8 "/>
  </g>
  <g>
    <rect style="fill: #ffffff" x="491.002" y="382.8" width="122" height="86"/>
    <rect style="fill: none; fill-opacity:0; stroke-width: 2; stroke: #000000" x="491.002" y="382.8" width="122" height="86"/>
    <rect style="fill: #ffffff" x="471.002" y="404.8" width="40" height="14"/>
    <rect style="fill: none; fill-opacity:0; stroke-width: 2; stroke: #000000" x="471.002" y="404.8" width="40" height="14"/>
    <rect style="fill: #ffffff" x="471.002" y="432.8" width="40" height="14"/>
    <rect style="fill: none; fill-opacity:0; stroke-width: 2; stroke: #000000" x="471.002" y="432.8" width="40" height="14"/>
    <text font-size="12.8" style="fill: #000000;text-anchor:start;font-family:sans-serif;font-style:normal;font-weight:normal" x="519.002" y="408.7">&lt;&lt;file&gt;&gt;</text>
    <text font-size="12.8" style="fill: #000000;text-anchor:start;font-family:sans-serif;font-style:normal;font-weight:normal" x="519.002" y="424.7">
      <tspan x="519.002" y="424.7">run/runTree.h</tspan>
    </text>
  </g>
  <g>
    <polyline style="fill: none; fill-opacity:0; stroke-width: 2; stroke-dasharray: 8; stroke: #000000" points="401.702,329.8 432.352,329.8 432.352,411.8 464.297,411.8 "/>
    <polyline style="fill: none; fill-opacity:0; stroke-width: 2; stroke: #000000" points="451.649,416.8 467.649,411.8 451.649,406.8 "/>
  </g>
  <g>
    <rect style="fill: #ffffff" x="104" y="286.8" width="126.8" height="86"/>
    <rect style="fill: none; fill-opacity:0; stroke-width: 2; stroke: #000000" x="104" y="286.8" width="126.8" height="86"/>
    <rect style="fill: #ffffff" x="84" y="308.8" width="40" height="14"/>
    <rect style="fill: none; fill-opacity:0; stroke-width: 2; stroke: #000000" x="84" y="308.8" width="40" height="14"/>
    <rect style="fill: #ffffff" x="84" y="336.8" width="40" height="14"/>
    <rect style="fill: none; fill-opacity:0; stroke-width: 2; stroke: #000000" x="84" y="336.8" width="40" height="14"/>
    <text font-size="12.8" style="fill: #000000;text-anchor:start;font-family:sans-serif;font-style:normal;font-weight:normal" x="132" y="312.7">&lt;&lt;file&gt;&gt;</text>
    <text font-size="12.8" style="fill: #000000;text-anchor:start;font-family:sans-serif;font-style:normal;font-weight:normal" x="132" y="328.7">
      <tspan x="132" y="328.7">run/symbols.h</tspan>
    </text>
  </g>
  <g>
    <polyline style="fill: none; fill-opacity:0; stroke-width: 2; stroke-dasharray: 8; stroke: #000000" points="268.002,315.8 253.401,315.8 253.401,329.8 237.505,329.8 "/>
    <polyline style="fill: none; fill-opacity:0; stroke-width: 2; stroke: #000000" points="250.153,324.8 234.153,329.8 250.153,334.8 "/>
  </g>
  <g>
    <rect style="fill: #ffffff" x="96" y="415.8" width="142.05" height="86"/>
    <rect style="fill: none; fill-opacity:0; stroke-width: 2; stroke: #000000" x="96" y="415.8" width="142.05" height="86"/>
    <rect style="fill: #ffffff" x="76" y="437.8" width="40" height="14"/>
    <rect style="fill: none; fill-opacity:0; stroke-width: 2; stroke: #000000" x="76" y="437.8" width="40" height="14"/>
    <rect style="fill: #ffffff" x="76" y="465.8" width="40" height="14"/>
    <rect style="fill: none; fill-opacity:0; stroke-width: 2; stroke: #000000" x="76" y="465.8" width="40" height="14"/>
    <text font-size="12.8" style="fill: #000000;text-anchor:start;font-family:sans-serif;font-style:normal;font-weight:normal" x="124" y="441.7">&lt;&lt;file&gt;&gt;</text>
    <text font-size="12.8" style="fill: #000000;text-anchor:start;font-family:sans-serif;font-style:normal;font-weight:normal" x="124" y="457.7">
      <tspan x="124" y="457.7">run/symbols.cpp</tspan>
    </text>
  </g>
  <g>
    <polyline style="fill: none; fill-opacity:0; stroke-width: 2; stroke-dasharray: 8; stroke: #000000" points="167.025,415.8 167.025,398.3 167.4,398.3 167.4,379.505 "/>
    <polyline style="fill: none; fill-opacity:0; stroke-width: 2; stroke: #000000" points="172.4,392.153 167.4,376.153 162.4,392.153 "/>
  </g>
</svg>
