<?xml version="1.0" encoding="UTF-8" standalone="no"?>
<!DOCTYPE svg PUBLIC "-//W3C//DTD SVG 1.0//EN" "http://www.w3.org/TR/2001/PR-SVG-20010719/DTD/svg10.dtd">
<svg width="30cm" height="21cm" viewBox="286 -799 592 414" xmlns="http://www.w3.org/2000/svg" xmlns:xlink="http://www.w3.org/1999/xlink">
  <g>
    <rect style="fill: #ffffff" x="287" y="-734" width="589" height="348"/>
    <rect style="fill: none; fill-opacity:0; stroke-width: 2; stroke: #000000" x="287" y="-734" width="589" height="348"/>
    <rect style="fill: #ffffff" x="287" y="-754" width="50.2" height="20"/>
    <rect style="fill: none; fill-opacity:0; stroke-width: 2; stroke: #000000" x="287" y="-754" width="50.2" height="20"/>
    <text font-size="12.7998" style="fill: #000000;text-anchor:start;font-family:monospace;font-style:normal;font-weight:normal" x="289" y="-739"> flow </text>
  </g>
  <g>
    <rect style="fill: #ffffff" x="464" y="-581" width="94.35" height="28"/>
    <rect style="fill: none; fill-opacity:0; stroke-width: 2; stroke: #000000" x="464" y="-581" width="94.35" height="28"/>
    <text font-size="16" style="fill: #000000;text-anchor:middle;font-family:sans-serif;font-style:normal;font-weight:700" x="511.175" y="-562">flowNode</text>
  </g>
  <g>
    <rect style="fill: #ffffff" x="620" y="-660" width="157.2" height="28"/>
    <rect style="fill: none; fill-opacity:0; stroke-width: 2; stroke: #000000" x="620" y="-660" width="157.2" height="28"/>
    <text font-size="16" style="fill: #000000;text-anchor:middle;font-family:sans-serif;font-style:normal;font-weight:700" x="698.6" y="-641">emptyStmtNode</text>
  </g>
  <g>
    <rect style="fill: #ffffff" x="620" y="-621" width="98.15" height="28"/>
    <rect style="fill: none; fill-opacity:0; stroke-width: 2; stroke: #000000" x="620" y="-621" width="98.15" height="28"/>
    <text font-size="16" style="fill: #000000;text-anchor:middle;font-family:sans-serif;font-style:normal;font-weight:700" x="669.075" y="-602">stmtNode</text>
  </g>
  <g>
    <polyline style="fill: none; fill-opacity:0; stroke-width: 2; stroke: #000000" points="743.322,-607 840,-607 840,-682 348.7,-682 348.7,-581 "/>
    <polygon style="fill: #ffffff" points="718.15,-607 732.15,-611.8 746.15,-607 732.15,-602.2 "/>
    <polygon style="fill: none; fill-opacity:0; stroke-width: 2; stroke: #000000" points="718.15,-607 732.15,-611.8 746.15,-607 732.15,-602.2 "/>
    <text font-size="12.7998" style="fill: #000000;text-anchor:middle;font-family:monospace;font-style:normal;font-weight:normal" x="594.35" y="-685"/>
    <text font-size="12.7998" style="fill: #000000;text-anchor:start;font-family:monospace;font-style:normal;font-weight:normal" x="750.15" y="-610"/>
    <text font-size="12.7998" style="fill: #000000;text-anchor:start;font-family:monospace;font-style:normal;font-weight:normal" x="352.7" y="-585">1,2</text>
  </g>
  <g>
    <rect style="fill: #ffffff" x="305" y="-581" width="87.4" height="28"/>
    <rect style="fill: none; fill-opacity:0; stroke-width: 2; stroke: #000000" x="305" y="-581" width="87.4" height="28"/>
    <text font-size="16" style="fill: #000000;text-anchor:middle;font-family:sans-serif;font-style:normal;font-weight:700" x="348.7" y="-562">runNode</text>
  </g>
  <g>
    <polyline style="fill: none; fill-opacity:0; stroke-width: 2; stroke: #000000" points="410.636,-567 409.4,-567 463,-567 464,-567 "/>
    <polygon style="fill: #ffffff" points="410.636,-575 394.636,-567 410.636,-559 "/>
    <polygon style="fill: none; fill-opacity:0; stroke-width: 2; stroke: #000000" points="410.636,-575 394.636,-567 410.636,-559 "/>
  </g>
  <g>
    <polyline style="fill: none; fill-opacity:0; stroke-width: 2; stroke: #000000" points="576.586,-567 597.175,-567 597.175,-646 620,-646 "/>
    <polygon style="fill: #ffffff" points="576.586,-575 560.586,-567 576.586,-559 "/>
    <polygon style="fill: none; fill-opacity:0; stroke-width: 2; stroke: #000000" points="576.586,-575 560.586,-567 576.586,-559 "/>
  </g>
  <g>
    <polyline style="fill: none; fill-opacity:0; stroke-width: 2; stroke: #000000" points="576.586,-567 597.175,-567 597.175,-607 620,-607 "/>
    <polygon style="fill: #ffffff" points="576.586,-575 560.586,-567 576.586,-559 "/>
    <polygon style="fill: none; fill-opacity:0; stroke-width: 2; stroke: #000000" points="576.586,-575 560.586,-567 576.586,-559 "/>
  </g>
  <g>
    <rect style="fill: #ffffff" x="623" y="-581" width="122.3" height="28"/>
    <rect style="fill: none; fill-opacity:0; stroke-width: 2; stroke: #000000" x="623" y="-581" width="122.3" height="28"/>
    <text font-size="16" style="fill: #000000;text-anchor:middle;font-family:sans-serif;font-style:normal;font-weight:700" x="684.15" y="-562">includeNode</text>
  </g>
  <g>
    <polyline style="fill: none; fill-opacity:0; stroke-width: 2; stroke: #000000" points="576.586,-567 597,-567 597,-567 623,-567 "/>
    <polygon style="fill: #ffffff" points="576.586,-575 560.586,-567 576.586,-559 "/>
    <polygon style="fill: none; fill-opacity:0; stroke-width: 2; stroke: #000000" points="576.586,-575 560.586,-567 576.586,-559 "/>
  </g>
  <g>
    <polyline style="fill: none; fill-opacity:0; stroke-width: 2; stroke: #000000" points="770.472,-567 861,-567 861,-713 305,-713 305,-581 "/>
    <polygon style="fill: #ffffff" points="745.3,-567 759.3,-571.8 773.3,-567 759.3,-562.2 "/>
    <polygon style="fill: none; fill-opacity:0; stroke-width: 2; stroke: #000000" points="745.3,-567 759.3,-571.8 773.3,-567 759.3,-562.2 "/>
    <text font-size="12.7998" style="fill: #000000;text-anchor:middle;font-family:monospace;font-style:normal;font-weight:normal" x="583" y="-716"/>
    <text font-size="12.7998" style="fill: #000000;text-anchor:start;font-family:monospace;font-style:normal;font-weight:normal" x="777.3" y="-570"/>
    <text font-size="12.7998" style="fill: #000000;text-anchor:start;font-family:monospace;font-style:normal;font-weight:normal" x="309" y="-585">1</text>
  </g>
  <g>
    <polygon style="fill: #ffffff" points="695,-798 862.7,-798 874.7,-786 874.7,-748 695,-748 "/>
    <polygon style="fill: none; fill-opacity:0; stroke-width: 2; stroke: #000000" points="695,-798 862.7,-798 874.7,-786 874.7,-748 695,-748 "/>
    <polyline style="fill: none; fill-opacity:0; stroke-width: 1; stroke: #000000" points="862.7,-798 862.7,-786 874.7,-786 "/>
    <text font-size="12.8" style="fill: #000000;text-anchor:start;font-family:monospace;font-style:normal;font-weight:normal" x="702" y="-773.1">
      <tspan x="702" y="-773.1">Categorizar printNode</tspan>
      <tspan x="702" y="-757.1">Categorizar inputNode</tspan>
    </text>
  </g>
  <g>
    <rect style="fill: #ffffff" x="624" y="-538" width="91" height="28"/>
    <rect style="fill: none; fill-opacity:0; stroke-width: 2; stroke: #000000" x="624" y="-538" width="91" height="28"/>
    <text font-size="16" style="fill: #000000;text-anchor:middle;font-family:sans-serif;font-style:normal;font-weight:700" x="669.5" y="-519">exitNode</text>
  </g>
  <g>
    <polyline style="fill: none; fill-opacity:0; stroke-width: 2; stroke: #000000" points="576.586,-567 597,-567 597,-524 624,-524 "/>
    <polygon style="fill: #ffffff" points="576.586,-575 560.586,-567 576.586,-559 "/>
    <polygon style="fill: none; fill-opacity:0; stroke-width: 2; stroke: #000000" points="576.586,-575 560.586,-567 576.586,-559 "/>
  </g>
  <g>
    <rect style="fill: #ffffff" x="624" y="-494" width="97.8" height="28"/>
    <rect style="fill: none; fill-opacity:0; stroke-width: 2; stroke: #000000" x="624" y="-494" width="97.8" height="28"/>
    <text font-size="16" style="fill: #000000;text-anchor:middle;font-family:sans-serif;font-style:normal;font-weight:700" x="672.9" y="-475">gotoNode</text>
  </g>
  <g>
    <polyline style="fill: none; fill-opacity:0; stroke-width: 2; stroke: #000000" points="746.972,-480 859,-480 859,-414 348.7,-414 348.7,-553 "/>
    <polygon style="fill: #ffffff" points="721.8,-480 735.8,-484.8 749.8,-480 735.8,-475.2 "/>
    <polygon style="fill: none; fill-opacity:0; stroke-width: 2; stroke: #000000" points="721.8,-480 735.8,-484.8 749.8,-480 735.8,-475.2 "/>
    <text font-size="12.7998" style="fill: #000000;text-anchor:middle;font-family:monospace;font-style:normal;font-weight:normal" x="603.85" y="-417"/>
    <text font-size="12.7998" style="fill: #000000;text-anchor:start;font-family:monospace;font-style:normal;font-weight:normal" x="753.8" y="-483"/>
    <text font-size="12.7998" style="fill: #000000;text-anchor:start;font-family:monospace;font-style:normal;font-weight:normal" x="352.7" y="-541">1</text>
  </g>
  <g>
    <polyline style="fill: none; fill-opacity:0; stroke-width: 2; stroke: #000000" points="576.586,-567 597,-567 597,-480 624,-480 "/>
    <polygon style="fill: #ffffff" points="576.586,-575 560.586,-567 576.586,-559 "/>
    <polygon style="fill: none; fill-opacity:0; stroke-width: 2; stroke: #000000" points="576.586,-575 560.586,-567 576.586,-559 "/>
  </g>
</svg>
