<?xml version="1.0" encoding="UTF-8" standalone="no"?>
<!DOCTYPE svg PUBLIC "-//W3C//DTD SVG 1.0//EN" "http://www.w3.org/TR/2001/PR-SVG-20010719/DTD/svg10.dtd">
<svg width="15cm" height="8cm" viewBox="622 -449 294 156" xmlns="http://www.w3.org/2000/svg" xmlns:xlink="http://www.w3.org/1999/xlink">
  <g>
    <rect style="fill: #ffffff" x="623" y="-427" width="292" height="134"/>
    <rect style="fill: none; fill-opacity:0; stroke-width: 2; stroke: #000000" x="623" y="-427" width="292" height="134"/>
    <rect style="fill: #ffffff" x="623" y="-447" width="50.2" height="20"/>
    <rect style="fill: none; fill-opacity:0; stroke-width: 2; stroke: #000000" x="623" y="-447" width="50.2" height="20"/>
    <text font-size="12.7998" style="fill: #000000;text-anchor:start;font-family:monospace;font-style:normal;font-weight:normal" x="625" y="-432"> exit </text>
  </g>
  <g>
    <rect style="fill: #ffffff" x="784.352" y="-410.2" width="94.35" height="28"/>
    <rect style="fill: none; fill-opacity:0; stroke-width: 2; stroke: #000000" x="784.352" y="-410.2" width="94.35" height="28"/>
    <text font-size="16" style="fill: #000000;text-anchor:middle;font-family:sans-serif;font-style:normal;font-weight:700" x="831.527" y="-391.2">flowNode</text>
  </g>
  <g>
    <rect style="fill: #ffffff" x="637.352" y="-410.2" width="87.4" height="28"/>
    <rect style="fill: none; fill-opacity:0; stroke-width: 2; stroke: #000000" x="637.352" y="-410.2" width="87.4" height="28"/>
    <text font-size="16" style="fill: #000000;text-anchor:middle;font-family:sans-serif;font-style:normal;font-weight:700" x="681.052" y="-391.2">runNode</text>
  </g>
  <g>
    <polyline style="fill: none; fill-opacity:0; stroke-width: 2; stroke: #000000" points="742.988,-396.2 741.752,-396.2 783.352,-396.2 784.352,-396.2 "/>
    <polygon style="fill: #ffffff" points="742.988,-404.2 726.988,-396.2 742.988,-388.2 "/>
    <polygon style="fill: none; fill-opacity:0; stroke-width: 2; stroke: #000000" points="742.988,-404.2 726.988,-396.2 742.988,-388.2 "/>
  </g>
  <g>
    <rect style="fill: #ffffff" x="787.352" y="-342.2" width="91" height="28"/>
    <rect style="fill: none; fill-opacity:0; stroke-width: 2; stroke: #000000" x="787.352" y="-342.2" width="91" height="28"/>
    <text font-size="16" style="fill: #000000;text-anchor:middle;font-family:sans-serif;font-style:normal;font-weight:700" x="832.852" y="-323.2">exitNode</text>
  </g>
  <g>
    <polyline style="fill: none; fill-opacity:0; stroke-width: 2; stroke: #000000" points="831.526,-363.964 831.526,-342.2 832.852,-342.2 "/>
    <polygon style="fill: #ffffff" points="839.526,-363.964 831.526,-379.964 823.526,-363.964 "/>
    <polygon style="fill: none; fill-opacity:0; stroke-width: 2; stroke: #000000" points="839.526,-363.964 831.526,-379.964 823.526,-363.964 "/>
  </g>
</svg>
