<?xml version="1.0" encoding="UTF-8" standalone="no"?>
<!DOCTYPE svg PUBLIC "-//W3C//DTD SVG 1.0//EN" "http://www.w3.org/TR/2001/PR-SVG-20010719/DTD/svg10.dtd">
<svg width="50cm" height="52cm" viewBox="170 -782 989 1029" xmlns="http://www.w3.org/2000/svg" xmlns:xlink="http://www.w3.org/1999/xlink">
  <g>
    <rect style="fill: #ffffff" x="711" y="-761" width="447" height="142"/>
    <rect style="fill: none; fill-opacity:0; stroke-width: 2; stroke: #000000" x="711" y="-761" width="447" height="142"/>
    <rect style="fill: #ffffff" x="711" y="-781" width="50.2" height="20"/>
    <rect style="fill: none; fill-opacity:0; stroke-width: 2; stroke: #000000" x="711" y="-781" width="50.2" height="20"/>
    <text font-size="12.7998" style="fill: #000000;text-anchor:start;font-family:monospace;font-style:normal;font-weight:normal" x="713" y="-766"> stmt </text>
  </g>
  <g>
    <rect style="fill: #ffffff" x="864" y="-680.2" width="94.35" height="28"/>
    <rect style="fill: none; fill-opacity:0; stroke-width: 2; stroke: #000000" x="864" y="-680.2" width="94.35" height="28"/>
    <text font-size="16" style="fill: #000000;text-anchor:middle;font-family:sans-serif;font-style:normal;font-weight:700" x="911.175" y="-661.2">flowNode</text>
  </g>
  <g>
    <rect style="fill: #ffffff" x="996" y="-680.2" width="98.15" height="28"/>
    <rect style="fill: none; fill-opacity:0; stroke-width: 2; stroke: #000000" x="996" y="-680.2" width="98.15" height="28"/>
    <text font-size="16" style="fill: #000000;text-anchor:middle;font-family:sans-serif;font-style:normal;font-weight:700" x="1045.07" y="-661.2">stmtNode</text>
  </g>
  <g>
    <rect style="fill: #ffffff" x="731" y="-680.2" width="87.4" height="28"/>
    <rect style="fill: none; fill-opacity:0; stroke-width: 2; stroke: #000000" x="731" y="-680.2" width="87.4" height="28"/>
    <text font-size="16" style="fill: #000000;text-anchor:middle;font-family:sans-serif;font-style:normal;font-weight:700" x="774.7" y="-661.2">runNode</text>
  </g>
  <g>
    <polyline style="fill: none; fill-opacity:0; stroke-width: 2; stroke: #000000" points="836.636,-666.2 835.4,-666.2 863,-666.2 864,-666.2 "/>
    <polygon style="fill: #ffffff" points="836.636,-674.2 820.636,-666.2 836.636,-658.2 "/>
    <polygon style="fill: none; fill-opacity:0; stroke-width: 2; stroke: #000000" points="836.636,-674.2 820.636,-666.2 836.636,-658.2 "/>
  </g>
  <g>
    <polyline style="fill: none; fill-opacity:0; stroke-width: 2; stroke: #000000" points="976.586,-666.2 996,-666.2 996,-666.2 "/>
    <polygon style="fill: #ffffff" points="976.586,-674.2 960.586,-666.2 976.586,-658.2 "/>
    <polygon style="fill: none; fill-opacity:0; stroke-width: 2; stroke: #000000" points="976.586,-674.2 960.586,-666.2 976.586,-658.2 "/>
  </g>
  <g>
    <polyline style="fill: none; fill-opacity:0; stroke-width: 2; stroke: #000000" points="1119.32,-666.2 1131,-666.2 1131,-720.2 774.7,-720.2 774.7,-680.2 "/>
    <polygon style="fill: #ffffff" points="1094.15,-666.2 1108.15,-671 1122.15,-666.2 1108.15,-661.4 "/>
    <polygon style="fill: none; fill-opacity:0; stroke-width: 2; stroke: #000000" points="1094.15,-666.2 1108.15,-671 1122.15,-666.2 1108.15,-661.4 "/>
    <text font-size="12.7998" style="fill: #000000;text-anchor:middle;font-family:monospace;font-style:normal;font-weight:normal" x="952.85" y="-723.2"/>
    <text font-size="12.7998" style="fill: #000000;text-anchor:start;font-family:monospace;font-style:normal;font-weight:normal" x="1126.15" y="-669.2"/>
    <text font-size="12.7998" style="fill: #000000;text-anchor:start;font-family:monospace;font-style:normal;font-weight:normal" x="778.7" y="-684.2">1,2</text>
  </g>
  <g>
    <rect style="fill: #ffffff" x="172" y="103.8" width="447" height="142"/>
    <rect style="fill: none; fill-opacity:0; stroke-width: 2; stroke: #000000" x="172" y="103.8" width="447" height="142"/>
    <rect style="fill: #ffffff" x="172" y="83.8" width="50.2" height="20"/>
    <rect style="fill: none; fill-opacity:0; stroke-width: 2; stroke: #000000" x="172" y="83.8" width="50.2" height="20"/>
    <text font-size="12.7998" style="fill: #000000;text-anchor:start;font-family:monospace;font-style:normal;font-weight:normal" x="174" y="98.8"> stmt </text>
  </g>
  <g>
    <rect style="fill: #ffffff" x="325" y="184.6" width="94.35" height="28"/>
    <rect style="fill: none; fill-opacity:0; stroke-width: 2; stroke: #000000" x="325" y="184.6" width="94.35" height="28"/>
    <text font-size="16" style="fill: #000000;text-anchor:middle;font-family:sans-serif;font-style:normal;font-weight:700" x="372.175" y="203.6">flowNode</text>
  </g>
  <g>
    <rect style="fill: #ffffff" x="457" y="184.6" width="98.15" height="28"/>
    <rect style="fill: none; fill-opacity:0; stroke-width: 2; stroke: #000000" x="457" y="184.6" width="98.15" height="28"/>
    <text font-size="16" style="fill: #000000;text-anchor:middle;font-family:sans-serif;font-style:normal;font-weight:700" x="506.075" y="203.6">stmtNode</text>
  </g>
  <g>
    <rect style="fill: #ffffff" x="192" y="184.6" width="87.4" height="28"/>
    <rect style="fill: none; fill-opacity:0; stroke-width: 2; stroke: #000000" x="192" y="184.6" width="87.4" height="28"/>
    <text font-size="16" style="fill: #000000;text-anchor:middle;font-family:sans-serif;font-style:normal;font-weight:700" x="235.7" y="203.6">runNode</text>
  </g>
  <g>
    <polyline style="fill: none; fill-opacity:0; stroke-width: 2; stroke: #000000" points="297.636,198.6 296.4,198.6 324,198.6 325,198.6 "/>
    <polygon style="fill: #ffffff" points="297.636,190.6 281.636,198.6 297.636,206.6 "/>
    <polygon style="fill: none; fill-opacity:0; stroke-width: 2; stroke: #000000" points="297.636,190.6 281.636,198.6 297.636,206.6 "/>
  </g>
  <g>
    <polyline style="fill: none; fill-opacity:0; stroke-width: 2; stroke: #000000" points="437.586,198.6 457,198.6 457,198.6 "/>
    <polygon style="fill: #ffffff" points="437.586,190.6 421.586,198.6 437.586,206.6 "/>
    <polygon style="fill: none; fill-opacity:0; stroke-width: 2; stroke: #000000" points="437.586,190.6 421.586,198.6 437.586,206.6 "/>
  </g>
  <g>
    <polyline style="fill: none; fill-opacity:0; stroke-width: 2; stroke: #000000" points="580.322,198.6 592,198.6 592,144.6 235.7,144.6 235.7,184.6 "/>
    <polygon style="fill: #ffffff" points="555.15,198.6 569.15,193.8 583.15,198.6 569.15,203.4 "/>
    <polygon style="fill: none; fill-opacity:0; stroke-width: 2; stroke: #000000" points="555.15,198.6 569.15,193.8 583.15,198.6 569.15,203.4 "/>
    <text font-size="12.7998" style="fill: #000000;text-anchor:middle;font-family:monospace;font-style:normal;font-weight:normal" x="413.85" y="141.6"/>
    <text font-size="12.7998" style="fill: #000000;text-anchor:start;font-family:monospace;font-style:normal;font-weight:normal" x="587.15" y="195.6"/>
    <text font-size="12.7998" style="fill: #000000;text-anchor:start;font-family:monospace;font-style:normal;font-weight:normal" x="239.7" y="180.6">1,2</text>
  </g>
</svg>
