<?xml version="1.0" encoding="UTF-8" standalone="no"?>
<!DOCTYPE svg PUBLIC "-//W3C//DTD SVG 1.0//EN" "http://www.w3.org/TR/2001/PR-SVG-20010719/DTD/svg10.dtd">
<svg width="16cm" height="14cm" viewBox="391 45 313 266" xmlns="http://www.w3.org/2000/svg" xmlns:xlink="http://www.w3.org/1999/xlink">
  <g>
    <rect style="fill: #ffffff" x="392" y="66" width="311" height="244"/>
    <rect style="fill: none; fill-opacity:0; stroke-width: 2; stroke: #000000" x="392" y="66" width="311" height="244"/>
    <rect style="fill: #ffffff" x="392" y="46" width="142.6" height="20"/>
    <rect style="fill: none; fill-opacity:0; stroke-width: 2; stroke: #000000" x="392" y="46" width="142.6" height="20"/>
    <text font-size="12.7998" style="fill: #000000;text-anchor:start;font-family:monospace;font-style:normal;font-weight:normal" x="394" y="61"> bindtextdomain   </text>
  </g>
  <g>
    <rect style="fill: #ffffff" x="405" y="117.8" width="145.15" height="28"/>
    <rect style="fill: none; fill-opacity:0; stroke-width: 2; stroke: #000000" x="405" y="117.8" width="145.15" height="28"/>
    <text font-size="16" style="fill: #000000;text-anchor:middle;font-family:sans-serif;font-style:normal;font-weight:700" x="477.575" y="136.8">extensionNode</text>
  </g>
  <g>
    <rect style="fill: #ffffff" x="539" y="83" width="87.4" height="28"/>
    <rect style="fill: none; fill-opacity:0; stroke-width: 2; stroke: #000000" x="539" y="83" width="87.4" height="28"/>
    <text font-size="16" style="fill: #000000;text-anchor:middle;font-family:sans-serif;font-style:normal;font-weight:700" x="582.7" y="102">runNode</text>
  </g>
  <g>
    <rect style="fill: #ffffff" x="528" y="157" width="110.1" height="28"/>
    <rect style="fill: none; fill-opacity:0; stroke-width: 2; stroke: #000000" x="528" y="157" width="110.1" height="28"/>
    <text font-size="16" style="fill: #000000;text-anchor:middle;font-family:sans-serif;font-style:normal;font-weight:700" x="583.05" y="176">stringNode</text>
  </g>
  <g>
    <rect style="fill: #ffffff" x="483" y="250" width="199.75" height="28"/>
    <rect style="fill: none; fill-opacity:0; stroke-width: 2; stroke: #000000" x="483" y="250" width="199.75" height="28"/>
    <text font-size="16" style="fill: #000000;text-anchor:middle;font-family:sans-serif;font-style:normal;font-weight:700" x="582.875" y="269">bindtextdomainNode</text>
  </g>
  <g>
    <polyline style="fill: none; fill-opacity:0; stroke-width: 2; stroke: #000000" points="583.05,203.236 583.05,225.5 582.875,225.5 582.875,250 "/>
    <polygon style="fill: #ffffff" points="591.05,203.236 583.05,187.236 575.05,203.236 "/>
    <polygon style="fill: none; fill-opacity:0; stroke-width: 2; stroke: #000000" points="591.05,203.236 583.05,187.236 575.05,203.236 "/>
  </g>
  <g>
    <polyline style="fill: none; fill-opacity:0; stroke-width: 2; stroke: #000000" points="477.575,164.036 477.575,182.8 457.575,182.8 457.575,264 483,264 "/>
    <polygon style="fill: #ffffff" points="485.575,164.036 477.575,148.036 469.575,164.036 "/>
    <polygon style="fill: none; fill-opacity:0; stroke-width: 2; stroke: #000000" points="485.575,164.036 477.575,148.036 469.575,164.036 "/>
  </g>
  <g>
    <polyline style="fill: none; fill-opacity:0; stroke-width: 2; stroke: #000000" points="582.7,129.236 582.7,142 583.05,142 583.05,157 "/>
    <polygon style="fill: #ffffff" points="590.7,129.236 582.7,113.236 574.7,129.236 "/>
    <polygon style="fill: none; fill-opacity:0; stroke-width: 2; stroke: #000000" points="590.7,129.236 582.7,113.236 574.7,129.236 "/>
  </g>
</svg>
