<?xml version="1.0" encoding="UTF-8" standalone="no"?>
<!DOCTYPE svg PUBLIC "-//W3C//DTD SVG 1.0//EN" "http://www.w3.org/TR/2001/PR-SVG-20010719/DTD/svg10.dtd">
<svg width="15cm" height="14cm" viewBox="391 45 290 266" xmlns="http://www.w3.org/2000/svg" xmlns:xlink="http://www.w3.org/1999/xlink">
  <g>
    <rect style="fill: #ffffff" x="392" y="66" width="288" height="244"/>
    <rect style="fill: none; fill-opacity:0; stroke-width: 2; stroke: #000000" x="392" y="66" width="288" height="244"/>
    <rect style="fill: #ffffff" x="392" y="46" width="88.7" height="20"/>
    <rect style="fill: none; fill-opacity:0; stroke-width: 2; stroke: #000000" x="392" y="46" width="88.7" height="20"/>
    <text font-size="12.7998" style="fill: #000000;text-anchor:start;font-family:monospace;font-style:normal;font-weight:normal" x="394" y="61"> dgettext  </text>
  </g>
  <g>
    <rect style="fill: #ffffff" x="412" y="195.8" width="145.15" height="28"/>
    <rect style="fill: none; fill-opacity:0; stroke-width: 2; stroke: #000000" x="412" y="195.8" width="145.15" height="28"/>
    <text font-size="16" style="fill: #000000;text-anchor:middle;font-family:sans-serif;font-style:normal;font-weight:700" x="484.575" y="214.8">extensionNode</text>
  </g>
  <g>
    <rect style="fill: #ffffff" x="539" y="83" width="87.4" height="28"/>
    <rect style="fill: none; fill-opacity:0; stroke-width: 2; stroke: #000000" x="539" y="83" width="87.4" height="28"/>
    <text font-size="16" style="fill: #000000;text-anchor:middle;font-family:sans-serif;font-style:normal;font-weight:700" x="582.7" y="102">runNode</text>
  </g>
  <g>
    <rect style="fill: #ffffff" x="528" y="157" width="110.1" height="28"/>
    <rect style="fill: none; fill-opacity:0; stroke-width: 2; stroke: #000000" x="528" y="157" width="110.1" height="28"/>
    <text font-size="16" style="fill: #000000;text-anchor:middle;font-family:sans-serif;font-style:normal;font-weight:700" x="583.05" y="176">stringNode</text>
  </g>
  <g>
    <rect style="fill: #ffffff" x="516" y="251" width="134.55" height="28"/>
    <rect style="fill: none; fill-opacity:0; stroke-width: 2; stroke: #000000" x="516" y="251" width="134.55" height="28"/>
    <text font-size="16" style="fill: #000000;text-anchor:middle;font-family:sans-serif;font-style:normal;font-weight:700" x="583.275" y="270">dgettextNode</text>
  </g>
  <g>
    <polyline style="fill: none; fill-opacity:0; stroke-width: 2; stroke: #000000" points="583.05,203.236 583.05,226 583.275,226 583.275,251 "/>
    <polygon style="fill: #ffffff" points="591.05,203.236 583.05,187.236 575.05,203.236 "/>
    <polygon style="fill: none; fill-opacity:0; stroke-width: 2; stroke: #000000" points="591.05,203.236 583.05,187.236 575.05,203.236 "/>
  </g>
  <g>
    <polyline style="fill: none; fill-opacity:0; stroke-width: 2; stroke: #000000" points="484.575,242.036 484.575,265 516,265 "/>
    <polygon style="fill: #ffffff" points="492.575,242.036 484.575,226.036 476.575,242.036 "/>
    <polygon style="fill: none; fill-opacity:0; stroke-width: 2; stroke: #000000" points="492.575,242.036 484.575,226.036 476.575,242.036 "/>
  </g>
  <g>
    <polyline style="fill: none; fill-opacity:0; stroke-width: 2; stroke: #000000" points="582.7,129.236 582.7,142 583.05,142 583.05,157 "/>
    <polygon style="fill: #ffffff" points="590.7,129.236 582.7,113.236 574.7,129.236 "/>
    <polygon style="fill: none; fill-opacity:0; stroke-width: 2; stroke: #000000" points="590.7,129.236 582.7,113.236 574.7,129.236 "/>
  </g>
</svg>
