<?xml version="1.0" encoding="UTF-8" standalone="no"?>
<!DOCTYPE svg PUBLIC "-//W3C//DTD SVG 1.0//EN" "http://www.w3.org/TR/2001/PR-SVG-20010719/DTD/svg10.dtd">
<svg width="16cm" height="14cm" viewBox="391 45 313 266" xmlns="http://www.w3.org/2000/svg" xmlns:xlink="http://www.w3.org/1999/xlink">
  <g>
    <rect style="fill: #ffffff" x="392" y="66" width="311" height="244"/>
    <rect style="fill: none; fill-opacity:0; stroke-width: 2; stroke: #000000" x="392" y="66" width="311" height="244"/>
    <rect style="fill: #ffffff" x="392" y="46" width="96.4" height="20"/>
    <rect style="fill: none; fill-opacity:0; stroke-width: 2; stroke: #000000" x="392" y="46" width="96.4" height="20"/>
    <text font-size="12.7998" style="fill: #000000;text-anchor:start;font-family:monospace;font-style:normal;font-weight:normal" x="394" y="61"> textdomain </text>
  </g>
  <g>
    <rect style="fill: #ffffff" x="408" y="195.8" width="145.15" height="28"/>
    <rect style="fill: none; fill-opacity:0; stroke-width: 2; stroke: #000000" x="408" y="195.8" width="145.15" height="28"/>
    <text font-size="16" style="fill: #000000;text-anchor:middle;font-family:sans-serif;font-style:normal;font-weight:700" x="480.575" y="214.8">extensionNode</text>
  </g>
  <g>
    <rect style="fill: #ffffff" x="550" y="83" width="87.4" height="28"/>
    <rect style="fill: none; fill-opacity:0; stroke-width: 2; stroke: #000000" x="550" y="83" width="87.4" height="28"/>
    <text font-size="16" style="fill: #000000;text-anchor:middle;font-family:sans-serif;font-style:normal;font-weight:700" x="593.7" y="102">runNode</text>
  </g>
  <g>
    <rect style="fill: #ffffff" x="539" y="157" width="110.1" height="28"/>
    <rect style="fill: none; fill-opacity:0; stroke-width: 2; stroke: #000000" x="539" y="157" width="110.1" height="28"/>
    <text font-size="16" style="fill: #000000;text-anchor:middle;font-family:sans-serif;font-style:normal;font-weight:700" x="594.05" y="176">stringNode</text>
  </g>
  <g>
    <rect style="fill: #ffffff" x="514" y="248" width="159.95" height="28"/>
    <rect style="fill: none; fill-opacity:0; stroke-width: 2; stroke: #000000" x="514" y="248" width="159.95" height="28"/>
    <text font-size="16" style="fill: #000000;text-anchor:middle;font-family:sans-serif;font-style:normal;font-weight:700" x="593.975" y="267">textdomainNode</text>
  </g>
  <g>
    <polyline style="fill: none; fill-opacity:0; stroke-width: 2; stroke: #000000" points="594.05,203.236 594.05,224.5 593.975,224.5 593.975,248 "/>
    <polygon style="fill: #ffffff" points="602.05,203.236 594.05,187.236 586.05,203.236 "/>
    <polygon style="fill: none; fill-opacity:0; stroke-width: 2; stroke: #000000" points="602.05,203.236 594.05,187.236 586.05,203.236 "/>
  </g>
  <g>
    <polyline style="fill: none; fill-opacity:0; stroke-width: 2; stroke: #000000" points="480.575,242.036 480.575,262 514,262 "/>
    <polygon style="fill: #ffffff" points="488.575,242.036 480.575,226.036 472.575,242.036 "/>
    <polygon style="fill: none; fill-opacity:0; stroke-width: 2; stroke: #000000" points="488.575,242.036 480.575,226.036 472.575,242.036 "/>
  </g>
  <g>
    <polyline style="fill: none; fill-opacity:0; stroke-width: 2; stroke: #000000" points="593.7,129.236 593.7,142 594.05,142 594.05,157 "/>
    <polygon style="fill: #ffffff" points="601.7,129.236 593.7,113.236 585.7,129.236 "/>
    <polygon style="fill: none; fill-opacity:0; stroke-width: 2; stroke: #000000" points="601.7,129.236 593.7,113.236 585.7,129.236 "/>
  </g>
</svg>
