<?xml version="1.0" encoding="UTF-8" standalone="no"?>
<!DOCTYPE svg PUBLIC "-//W3C//DTD SVG 1.0//EN" "http://www.w3.org/TR/2001/PR-SVG-20010719/DTD/svg10.dtd">
<svg width="16cm" height="13cm" viewBox="461 404 319 241" xmlns="http://www.w3.org/2000/svg" xmlns:xlink="http://www.w3.org/1999/xlink">
  <g>
    <rect style="fill: #ffffff" x="463" y="425" width="317" height="219"/>
    <rect style="fill: none; fill-opacity:0; stroke-width: 2; stroke: #000000" x="463" y="425" width="317" height="219"/>
    <rect style="fill: #ffffff" x="463" y="405" width="65.6" height="20"/>
    <rect style="fill: none; fill-opacity:0; stroke-width: 2; stroke: #000000" x="463" y="405" width="65.6" height="20"/>
    <text font-size="12.7998" style="fill: #000000;text-anchor:start;font-family:monospace;font-style:normal;font-weight:normal" x="465" y="420"> search </text>
  </g>
  <g>
    <rect style="fill: #ffffff" x="499" y="443" width="87.4" height="28"/>
    <rect style="fill: none; fill-opacity:0; stroke-width: 2; stroke: #000000" x="499" y="443" width="87.4" height="28"/>
    <text font-size="16" style="fill: #000000;text-anchor:middle;font-family:sans-serif;font-style:normal;font-weight:700" x="542.7" y="462">runNode</text>
  </g>
  <g>
    <rect style="fill: #ffffff" x="493" y="511" width="100.7" height="28"/>
    <rect style="fill: none; fill-opacity:0; stroke-width: 2; stroke: #000000" x="493" y="511" width="100.7" height="28"/>
    <text font-size="16" style="fill: #000000;text-anchor:middle;font-family:sans-serif;font-style:normal;font-weight:700" x="543.35" y="530">nexpNode</text>
  </g>
  <g>
    <polyline style="fill: none; fill-opacity:0; stroke-width: 2; stroke: #000000" points="542.7,489.236 542.7,499 543.35,499 543.35,511 "/>
    <polygon style="fill: #ffffff" points="550.7,489.236 542.7,473.236 534.7,489.236 "/>
    <polygon style="fill: none; fill-opacity:0; stroke-width: 2; stroke: #000000" points="550.7,489.236 542.7,473.236 534.7,489.236 "/>
  </g>
  <g>
    <rect style="fill: #ffffff" x="485" y="588" width="116.65" height="28"/>
    <rect style="fill: none; fill-opacity:0; stroke-width: 2; stroke: #000000" x="485" y="588" width="116.65" height="28"/>
    <text font-size="16" style="fill: #000000;text-anchor:middle;font-family:sans-serif;font-style:normal;font-weight:700" x="543.325" y="607">searchNode</text>
  </g>
  <g>
    <polyline style="fill: none; fill-opacity:0; stroke-width: 2; stroke: #000000" points="543.35,557.236 543.35,571.5 543.325,571.5 543.325,588 "/>
    <polygon style="fill: #ffffff" points="551.35,557.236 543.35,541.236 535.35,557.236 "/>
    <polygon style="fill: none; fill-opacity:0; stroke-width: 2; stroke: #000000" points="551.35,557.236 543.35,541.236 535.35,557.236 "/>
  </g>
  <g>
    <polyline style="fill: none; fill-opacity:0; stroke-width: 2; stroke: #000000" points="626.822,588 645,588 645,471 586.4,471 586.4,471 "/>
    <polygon style="fill: #ffffff" points="601.65,588 615.65,583.2 629.65,588 615.65,592.8 "/>
    <polygon style="fill: none; fill-opacity:0; stroke-width: 2; stroke: #000000" points="601.65,588 615.65,583.2 629.65,588 615.65,592.8 "/>
    <text font-size="12.7998" style="fill: #000000;text-anchor:start;font-family:monospace;font-style:normal;font-weight:normal" x="647" y="526.5">regexp</text>
    <text font-size="12.7998" style="fill: #000000;text-anchor:start;font-family:monospace;font-style:normal;font-weight:normal" x="633.65" y="585"/>
    <text font-size="12.7998" style="fill: #000000;text-anchor:start;font-family:monospace;font-style:normal;font-weight:normal" x="590.4" y="468">1</text>
  </g>
  <g>
    <polyline style="fill: none; fill-opacity:0; stroke-width: 2; stroke: #000000" points="626.822,602 697,602 697,457 586.4,457 "/>
    <polygon style="fill: #ffffff" points="601.65,602 615.65,597.2 629.65,602 615.65,606.8 "/>
    <polygon style="fill: none; fill-opacity:0; stroke-width: 2; stroke: #000000" points="601.65,602 615.65,597.2 629.65,602 615.65,606.8 "/>
    <text font-size="12.7998" style="fill: #000000;text-anchor:start;font-family:monospace;font-style:normal;font-weight:normal" x="699" y="526.5">str</text>
    <text font-size="12.7998" style="fill: #000000;text-anchor:start;font-family:monospace;font-style:normal;font-weight:normal" x="633.65" y="599"/>
    <text font-size="12.7998" style="fill: #000000;text-anchor:start;font-family:monospace;font-style:normal;font-weight:normal" x="590.4" y="454">1</text>
  </g>
  <g>
    <polyline style="fill: none; fill-opacity:0; stroke-width: 2; stroke: #000000" points="626.822,616 734,616 734,443 586.4,443 "/>
    <polygon style="fill: #ffffff" points="601.65,616 615.65,611.2 629.65,616 615.65,620.8 "/>
    <polygon style="fill: none; fill-opacity:0; stroke-width: 2; stroke: #000000" points="601.65,616 615.65,611.2 629.65,616 615.65,620.8 "/>
    <text font-size="12.7998" style="fill: #000000;text-anchor:start;font-family:monospace;font-style:normal;font-weight:normal" x="736" y="526.5">keys</text>
    <text font-size="12.7998" style="fill: #000000;text-anchor:start;font-family:monospace;font-style:normal;font-weight:normal" x="633.65" y="613"/>
    <text font-size="12.7998" style="fill: #000000;text-anchor:start;font-family:monospace;font-style:normal;font-weight:normal" x="590.4" y="440">0,1</text>
  </g>
</svg>
