<?xml version="1.0" encoding="UTF-8" standalone="no"?>
<!DOCTYPE svg PUBLIC "-//W3C//DTD SVG 1.0//EN" "http://www.w3.org/TR/2001/PR-SVG-20010719/DTD/svg10.dtd">
<svg width="12cm" height="8cm" viewBox="171 82 223 159" xmlns="http://www.w3.org/2000/svg" xmlns:xlink="http://www.w3.org/1999/xlink">
  <g>
    <rect style="fill: #ffffff" x="172" y="103.8" width="221" height="136.2"/>
    <rect style="fill: none; fill-opacity:0; stroke-width: 2; stroke: #000000" x="172" y="103.8" width="221" height="136.2"/>
    <rect style="fill: #ffffff" x="172" y="83.8" width="65.6" height="20"/>
    <rect style="fill: none; fill-opacity:0; stroke-width: 2; stroke: #000000" x="172" y="83.8" width="65.6" height="20"/>
    <text font-size="12.7998" style="fill: #000000;text-anchor:start;font-family:monospace;font-style:normal;font-weight:normal" x="174" y="98.8"> convOp </text>
  </g>
  <g>
    <rect style="fill: #ffffff" x="185.26" y="133.7" width="89" height="28"/>
    <rect style="fill: none; fill-opacity:0; stroke-width: 2; stroke: #000000" x="185.26" y="133.7" width="89" height="28"/>
    <rect style="fill: #ffffff" x="185.26" y="115.7" width="30" height="18"/>
    <rect style="fill: none; fill-opacity:0; stroke-width: 2; stroke: #000000" x="185.26" y="115.7" width="30" height="18"/>
    <text font-size="12.8" style="fill: #000000;text-anchor:start;font-family:monospace;font-style:normal;font-weight:normal" x="191.26" y="151.6">
      <tspan x="191.26" y="151.6"> boolConv </tspan>
    </text>
  </g>
  <g>
    <rect style="fill: #ffffff" x="287.26" y="133.7" width="81.3" height="28"/>
    <rect style="fill: none; fill-opacity:0; stroke-width: 2; stroke: #000000" x="287.26" y="133.7" width="81.3" height="28"/>
    <rect style="fill: #ffffff" x="287.26" y="115.7" width="30" height="18"/>
    <rect style="fill: none; fill-opacity:0; stroke-width: 2; stroke: #000000" x="287.26" y="115.7" width="30" height="18"/>
    <text font-size="12.8" style="fill: #000000;text-anchor:start;font-family:monospace;font-style:normal;font-weight:normal" x="293.26" y="151.6">
      <tspan x="293.26" y="151.6"> intConv </tspan>
    </text>
  </g>
  <g>
    <rect style="fill: #ffffff" x="187.26" y="192.2" width="96.7" height="28"/>
    <rect style="fill: none; fill-opacity:0; stroke-width: 2; stroke: #000000" x="187.26" y="192.2" width="96.7" height="28"/>
    <rect style="fill: #ffffff" x="187.26" y="174.2" width="30" height="18"/>
    <rect style="fill: none; fill-opacity:0; stroke-width: 2; stroke: #000000" x="187.26" y="174.2" width="30" height="18"/>
    <text font-size="12.8" style="fill: #000000;text-anchor:start;font-family:monospace;font-style:normal;font-weight:normal" x="193.26" y="210.1">
      <tspan x="193.26" y="210.1"> floatConv </tspan>
    </text>
  </g>
  <g>
    <rect style="fill: #ffffff" x="297.26" y="192.2" width="81.3" height="28"/>
    <rect style="fill: none; fill-opacity:0; stroke-width: 2; stroke: #000000" x="297.26" y="192.2" width="81.3" height="28"/>
    <rect style="fill: #ffffff" x="297.26" y="174.2" width="30" height="18"/>
    <rect style="fill: none; fill-opacity:0; stroke-width: 2; stroke: #000000" x="297.26" y="174.2" width="30" height="18"/>
    <text font-size="12.8" style="fill: #000000;text-anchor:start;font-family:monospace;font-style:normal;font-weight:normal" x="303.26" y="210.1">
      <tspan x="303.26" y="210.1"> strConv </tspan>
    </text>
  </g>
</svg>
