<?xml version="1.0" encoding="UTF-8" standalone="no"?>
<!DOCTYPE svg PUBLIC "-//W3C//DTD SVG 1.0//EN" "http://www.w3.org/TR/2001/PR-SVG-20010719/DTD/svg10.dtd">
<svg width="18cm" height="9cm" viewBox="171 82 360 162" xmlns="http://www.w3.org/2000/svg" xmlns:xlink="http://www.w3.org/1999/xlink">
  <g>
    <rect style="fill: #ffffff" x="172" y="103.8" width="358" height="139.2"/>
    <rect style="fill: none; fill-opacity:0; stroke-width: 2; stroke: #000000" x="172" y="103.8" width="358" height="139.2"/>
    <rect style="fill: #ffffff" x="172" y="83.8" width="104.1" height="20"/>
    <rect style="fill: none; fill-opacity:0; stroke-width: 2; stroke: #000000" x="172" y="83.8" width="104.1" height="20"/>
    <text font-size="12.7998" style="fill: #000000;text-anchor:start;font-family:monospace;font-style:normal;font-weight:normal" x="174" y="98.8"> gettext-ext </text>
  </g>
  <g>
    <rect style="fill: #ffffff" x="187.22" y="137.606" width="81.3" height="28"/>
    <rect style="fill: none; fill-opacity:0; stroke-width: 2; stroke: #000000" x="187.22" y="137.606" width="81.3" height="28"/>
    <rect style="fill: #ffffff" x="187.22" y="119.606" width="30" height="18"/>
    <rect style="fill: none; fill-opacity:0; stroke-width: 2; stroke: #000000" x="187.22" y="119.606" width="30" height="18"/>
    <text font-size="12.8" style="fill: #000000;text-anchor:start;font-family:monospace;font-style:normal;font-weight:normal" x="193.22" y="155.506">
      <tspan x="193.22" y="155.506"> gettext </tspan>
    </text>
  </g>
  <g>
    <rect style="fill: #ffffff" x="280.3" y="139.874" width="89" height="28"/>
    <rect style="fill: none; fill-opacity:0; stroke-width: 2; stroke: #000000" x="280.3" y="139.874" width="89" height="28"/>
    <rect style="fill: #ffffff" x="280.3" y="121.874" width="30" height="18"/>
    <rect style="fill: none; fill-opacity:0; stroke-width: 2; stroke: #000000" x="280.3" y="121.874" width="30" height="18"/>
    <text font-size="12.8" style="fill: #000000;text-anchor:start;font-family:monospace;font-style:normal;font-weight:normal" x="286.3" y="157.774">
      <tspan x="286.3" y="157.774"> dgettext </tspan>
    </text>
  </g>
  <g>
    <rect style="fill: #ffffff" x="383.3" y="141.394" width="135.2" height="28"/>
    <rect style="fill: none; fill-opacity:0; stroke-width: 2; stroke: #000000" x="383.3" y="141.394" width="135.2" height="28"/>
    <rect style="fill: #ffffff" x="383.3" y="123.394" width="30" height="18"/>
    <rect style="fill: none; fill-opacity:0; stroke-width: 2; stroke: #000000" x="383.3" y="123.394" width="30" height="18"/>
    <text font-size="12.8" style="fill: #000000;text-anchor:start;font-family:monospace;font-style:normal;font-weight:normal" x="389.3" y="159.294">
      <tspan x="389.3" y="159.294"> bindtextdomain </tspan>
    </text>
  </g>
  <g>
    <rect style="fill: #ffffff" x="187.3" y="196.454" width="96.7" height="28"/>
    <rect style="fill: none; fill-opacity:0; stroke-width: 2; stroke: #000000" x="187.3" y="196.454" width="96.7" height="28"/>
    <rect style="fill: #ffffff" x="187.3" y="178.454" width="30" height="18"/>
    <rect style="fill: none; fill-opacity:0; stroke-width: 2; stroke: #000000" x="187.3" y="178.454" width="30" height="18"/>
    <text font-size="12.8" style="fill: #000000;text-anchor:start;font-family:monospace;font-style:normal;font-weight:normal" x="193.3" y="214.354">
      <tspan x="193.3" y="214.354"> setlocale </tspan>
    </text>
  </g>
  <g>
    <rect style="fill: #ffffff" x="300.76" y="196.058" width="104.4" height="28"/>
    <rect style="fill: none; fill-opacity:0; stroke-width: 2; stroke: #000000" x="300.76" y="196.058" width="104.4" height="28"/>
    <rect style="fill: #ffffff" x="300.76" y="178.058" width="30" height="18"/>
    <rect style="fill: none; fill-opacity:0; stroke-width: 2; stroke: #000000" x="300.76" y="178.058" width="30" height="18"/>
    <text font-size="12.8" style="fill: #000000;text-anchor:start;font-family:monospace;font-style:normal;font-weight:normal" x="306.76" y="213.958">
      <tspan x="306.76" y="213.958"> textdomain </tspan>
    </text>
  </g>
</svg>
