<?xml version="1.0" encoding="UTF-8" standalone="no"?>
<!DOCTYPE svg PUBLIC "-//W3C//DTD SVG 1.0//EN" "http://www.w3.org/TR/2001/PR-SVG-20010719/DTD/svg10.dtd">
<svg width="42cm" height="58cm" viewBox="736 11 828 1158" xmlns="http://www.w3.org/2000/svg" xmlns:xlink="http://www.w3.org/1999/xlink">
  <g>
    <rect style="fill: #ffffff" x="737.318" y="32.0494" width="825.515" height="1135.22"/>
    <rect style="fill: none; fill-opacity:0; stroke-width: 2; stroke: #000000" x="737.318" y="32.0494" width="825.515" height="1135.22"/>
    <rect style="fill: #ffffff" x="737.318" y="12.0494" width="119.5" height="20"/>
    <rect style="fill: none; fill-opacity:0; stroke-width: 2; stroke: #000000" x="737.318" y="12.0494" width="119.5" height="20"/>
    <text font-size="12.7998" style="fill: #000000;text-anchor:start;font-family:monospace;font-style:normal;font-weight:normal" x="739.318" y="27.0494">  interpreter  </text>
  </g>
  <g>
    <rect style="fill: #ffffff" x="925" y="50.3841" width="115.95" height="86"/>
    <rect style="fill: none; fill-opacity:0; stroke-width: 2; stroke: #000000" x="925" y="50.3841" width="115.95" height="86"/>
    <rect style="fill: #ffffff" x="905" y="72.3841" width="40" height="14"/>
    <rect style="fill: none; fill-opacity:0; stroke-width: 2; stroke: #000000" x="905" y="72.3841" width="40" height="14"/>
    <rect style="fill: #ffffff" x="905" y="100.384" width="40" height="14"/>
    <rect style="fill: none; fill-opacity:0; stroke-width: 2; stroke: #000000" x="905" y="100.384" width="40" height="14"/>
    <text font-size="12.7998" style="fill: #000000;text-anchor:start;font-family:sans-serif;font-style:normal;font-weight:normal" x="953" y="76.2841">&lt;&lt;file&gt;&gt;</text>
    <text font-size="12.7998" style="fill: #000000;text-anchor:start;font-family:sans-serif;font-style:normal;font-weight:normal" x="953" y="92.2841">
      <tspan x="953" y="92.2841">interpreter.h</tspan>
    </text>
  </g>
  <g>
    <rect style="fill: #ffffff" x="917" y="183.184" width="131.2" height="86"/>
    <rect style="fill: none; fill-opacity:0; stroke-width: 2; stroke: #000000" x="917" y="183.184" width="131.2" height="86"/>
    <rect style="fill: #ffffff" x="897" y="205.184" width="40" height="14"/>
    <rect style="fill: none; fill-opacity:0; stroke-width: 2; stroke: #000000" x="897" y="205.184" width="40" height="14"/>
    <rect style="fill: #ffffff" x="897" y="233.184" width="40" height="14"/>
    <rect style="fill: none; fill-opacity:0; stroke-width: 2; stroke: #000000" x="897" y="233.184" width="40" height="14"/>
    <text font-size="12.7998" style="fill: #000000;text-anchor:start;font-family:sans-serif;font-style:normal;font-weight:normal" x="945" y="209.084">&lt;&lt;file&gt;&gt;</text>
    <text font-size="12.7998" style="fill: #000000;text-anchor:start;font-family:sans-serif;font-style:normal;font-weight:normal" x="945" y="225.084">
      <tspan x="945" y="225.084">interpreter.cpp</tspan>
    </text>
  </g>
  <g>
    <polyline style="fill: none; fill-opacity:0; stroke-width: 2; stroke-dasharray: 8; stroke: #000000" points="982.6,183.184 982.6,163.784 982.975,163.784 982.975,143.089 "/>
    <polyline style="fill: none; fill-opacity:0; stroke-width: 2; stroke: #000000" points="987.975,155.737 982.975,139.737 977.975,155.737 "/>
  </g>
  <g>
    <rect style="fill: #ffffff" x="1128" y="50.1841" width="105.35" height="86"/>
    <rect style="fill: none; fill-opacity:0; stroke-width: 2; stroke: #000000" x="1128" y="50.1841" width="105.35" height="86"/>
    <rect style="fill: #ffffff" x="1108" y="72.1841" width="40" height="14"/>
    <rect style="fill: none; fill-opacity:0; stroke-width: 2; stroke: #000000" x="1108" y="72.1841" width="40" height="14"/>
    <rect style="fill: #ffffff" x="1108" y="100.184" width="40" height="14"/>
    <rect style="fill: none; fill-opacity:0; stroke-width: 2; stroke: #000000" x="1108" y="100.184" width="40" height="14"/>
    <text font-size="12.7998" style="fill: #000000;text-anchor:start;font-family:sans-serif;font-style:normal;font-weight:normal" x="1156" y="76.0841">&lt;&lt;file&gt;&gt;</text>
    <text font-size="12.7998" style="fill: #000000;text-anchor:start;font-family:sans-serif;font-style:normal;font-weight:normal" x="1156" y="92.0841">
      <tspan x="1156" y="92.0841">lshParser.h</tspan>
    </text>
  </g>
  <g>
    <polyline style="fill: none; fill-opacity:0; stroke-width: 2; stroke-dasharray: 8; stroke: #000000" points="1040.95,93.3841 1070.47,93.3841 1070.47,79.1841 1101.29,79.1841 "/>
    <polyline style="fill: none; fill-opacity:0; stroke-width: 2; stroke: #000000" points="1088.65,84.1841 1104.65,79.1841 1088.65,74.1841 "/>
  </g>
  <g>
    <rect style="fill: #ffffff" x="1129" y="180.184" width="104.3" height="86"/>
    <rect style="fill: none; fill-opacity:0; stroke-width: 2; stroke: #000000" x="1129" y="180.184" width="104.3" height="86"/>
    <rect style="fill: #ffffff" x="1109" y="202.184" width="40" height="14"/>
    <rect style="fill: none; fill-opacity:0; stroke-width: 2; stroke: #000000" x="1109" y="202.184" width="40" height="14"/>
    <rect style="fill: #ffffff" x="1109" y="230.184" width="40" height="14"/>
    <rect style="fill: none; fill-opacity:0; stroke-width: 2; stroke: #000000" x="1109" y="230.184" width="40" height="14"/>
    <text font-size="12.7998" style="fill: #000000;text-anchor:start;font-family:sans-serif;font-style:normal;font-weight:normal" x="1157" y="206.084">&lt;&lt;file&gt;&gt;</text>
    <text font-size="12.7998" style="fill: #000000;text-anchor:start;font-family:sans-serif;font-style:normal;font-weight:normal" x="1157" y="222.084">
      <tspan x="1157" y="222.084">lshParser.c</tspan>
    </text>
  </g>
  <g>
    <polyline style="fill: none; fill-opacity:0; stroke-width: 2; stroke-dasharray: 8; stroke: #000000" points="1181.15,180.184 1181.15,162.184 1180.67,162.184 1180.67,142.889 "/>
    <polyline style="fill: none; fill-opacity:0; stroke-width: 2; stroke: #000000" points="1185.67,155.537 1180.67,139.537 1175.67,155.537 "/>
  </g>
  <g>
    <rect style="fill: #ffffff" x="1124.33" y="314.407" width="116.65" height="86"/>
    <rect style="fill: none; fill-opacity:0; stroke-width: 2; stroke: #000000" x="1124.33" y="314.407" width="116.65" height="86"/>
    <rect style="fill: #ffffff" x="1104.33" y="336.407" width="40" height="14"/>
    <rect style="fill: none; fill-opacity:0; stroke-width: 2; stroke: #000000" x="1104.33" y="336.407" width="40" height="14"/>
    <rect style="fill: #ffffff" x="1104.33" y="364.407" width="40" height="14"/>
    <rect style="fill: none; fill-opacity:0; stroke-width: 2; stroke: #000000" x="1104.33" y="364.407" width="40" height="14"/>
    <text font-size="12.7998" style="fill: #000000;text-anchor:start;font-family:sans-serif;font-style:normal;font-weight:normal" x="1152.33" y="340.307">&lt;&lt;file&gt;&gt;</text>
    <text font-size="12.7998" style="fill: #000000;text-anchor:start;font-family:sans-serif;font-style:normal;font-weight:normal" x="1152.33" y="356.307">
      <tspan x="1152.33" y="356.307">lshScanner.c</tspan>
    </text>
  </g>
  <g>
    <rect style="fill: #ffffff" x="933.038" y="316.365" width="98.5" height="86"/>
    <rect style="fill: none; fill-opacity:0; stroke-width: 2; stroke: #000000" x="933.038" y="316.365" width="98.5" height="86"/>
    <rect style="fill: #ffffff" x="913.038" y="338.365" width="40" height="14"/>
    <rect style="fill: none; fill-opacity:0; stroke-width: 2; stroke: #000000" x="913.038" y="338.365" width="40" height="14"/>
    <rect style="fill: #ffffff" x="913.038" y="366.365" width="40" height="14"/>
    <rect style="fill: none; fill-opacity:0; stroke-width: 2; stroke: #000000" x="913.038" y="366.365" width="40" height="14"/>
    <text font-size="12.7998" style="fill: #000000;text-anchor:start;font-family:sans-serif;font-style:normal;font-weight:normal" x="961.038" y="342.265">&lt;&lt;file&gt;&gt;</text>
    <text font-size="12.7998" style="fill: #000000;text-anchor:start;font-family:sans-serif;font-style:normal;font-weight:normal" x="961.038" y="358.265">
      <tspan x="961.038" y="358.265">plugins.h</tspan>
    </text>
  </g>
  <g>
    <polyline style="fill: none; fill-opacity:0; stroke-width: 2; stroke-dasharray: 8; stroke: #000000" points="982.6,269.184 982.6,288.775 982.288,288.775 982.288,309.66 "/>
    <polyline style="fill: none; fill-opacity:0; stroke-width: 2; stroke: #000000" points="977.288,297.012 982.288,313.012 987.288,297.012 "/>
  </g>
  <g>
    <rect style="fill: #ffffff" x="1334.11" y="232.272" width="136.5" height="86"/>
    <rect style="fill: none; fill-opacity:0; stroke-width: 2; stroke: #000000" x="1334.11" y="232.272" width="136.5" height="86"/>
    <rect style="fill: #ffffff" x="1314.11" y="254.272" width="40" height="14"/>
    <rect style="fill: none; fill-opacity:0; stroke-width: 2; stroke: #000000" x="1314.11" y="254.272" width="40" height="14"/>
    <rect style="fill: #ffffff" x="1314.11" y="282.272" width="40" height="14"/>
    <rect style="fill: none; fill-opacity:0; stroke-width: 2; stroke: #000000" x="1314.11" y="282.272" width="40" height="14"/>
    <text font-size="12.7998" style="fill: #000000;text-anchor:start;font-family:sans-serif;font-style:normal;font-weight:normal" x="1362.11" y="258.172">&lt;&lt;file&gt;&gt;</text>
    <text font-size="12.7998" style="fill: #000000;text-anchor:start;font-family:sans-serif;font-style:normal;font-weight:normal" x="1362.11" y="274.172">
      <tspan x="1362.11" y="274.172">run/stmtNode.h</tspan>
    </text>
  </g>
  <g>
    <rect style="fill: #ffffff" x="1334.11" y="48.7955" width="113.7" height="86"/>
    <rect style="fill: none; fill-opacity:0; stroke-width: 2; stroke: #000000" x="1334.11" y="48.7955" width="113.7" height="86"/>
    <rect style="fill: #ffffff" x="1314.11" y="70.7955" width="40" height="14"/>
    <rect style="fill: none; fill-opacity:0; stroke-width: 2; stroke: #000000" x="1314.11" y="70.7955" width="40" height="14"/>
    <rect style="fill: #ffffff" x="1314.11" y="98.7955" width="40" height="14"/>
    <rect style="fill: none; fill-opacity:0; stroke-width: 2; stroke: #000000" x="1314.11" y="98.7955" width="40" height="14"/>
    <text font-size="12.7998" style="fill: #000000;text-anchor:start;font-family:sans-serif;font-style:normal;font-weight:normal" x="1362.11" y="74.6955">&lt;&lt;file&gt;&gt;</text>
    <text font-size="12.7998" style="fill: #000000;text-anchor:start;font-family:sans-serif;font-style:normal;font-weight:normal" x="1362.11" y="90.6955">
      <tspan x="1362.11" y="90.6955">run/sTable.h</tspan>
    </text>
  </g>
  <g>
    <rect style="fill: #ffffff" x="1334.11" y="140.398" width="136.05" height="86"/>
    <rect style="fill: none; fill-opacity:0; stroke-width: 2; stroke: #000000" x="1334.11" y="140.398" width="136.05" height="86"/>
    <rect style="fill: #ffffff" x="1314.11" y="162.398" width="40" height="14"/>
    <rect style="fill: none; fill-opacity:0; stroke-width: 2; stroke: #000000" x="1314.11" y="162.398" width="40" height="14"/>
    <rect style="fill: #ffffff" x="1314.11" y="190.398" width="40" height="14"/>
    <rect style="fill: none; fill-opacity:0; stroke-width: 2; stroke: #000000" x="1314.11" y="190.398" width="40" height="14"/>
    <text font-size="12.7998" style="fill: #000000;text-anchor:start;font-family:sans-serif;font-style:normal;font-weight:normal" x="1362.11" y="166.298">&lt;&lt;file&gt;&gt;</text>
    <text font-size="12.7998" style="fill: #000000;text-anchor:start;font-family:sans-serif;font-style:normal;font-weight:normal" x="1362.11" y="182.298">
      <tspan x="1362.11" y="182.298">run/typeNode.h</tspan>
    </text>
  </g>
  <text font-size="12.7998" style="fill: #000000;text-anchor:start;font-family:sans-serif;font-style:normal;font-weight:normal" x="274.002" y="73">
    <tspan x="274.002" y="73"></tspan>
  </text>
  <text font-size="12.7998" style="fill: #000000;text-anchor:start;font-family:sans-serif;font-style:normal;font-weight:normal" x="423.002" y="47">
    <tspan x="423.002" y="47"></tspan>
  </text>
  <g>
    <polyline style="fill: none; fill-opacity:0; stroke-width: 2; stroke-dasharray: 8; stroke: #000000" points="1233.3,223.184 1269.7,223.184 1269.7,169.398 1307.4,169.398 "/>
    <polyline style="fill: none; fill-opacity:0; stroke-width: 2; stroke: #000000" points="1294.75,174.398 1310.75,169.398 1294.75,164.398 "/>
  </g>
  <g>
    <rect style="fill: #ffffff" x="1334.11" y="323.997" width="193.7" height="86"/>
    <rect style="fill: none; fill-opacity:0; stroke-width: 2; stroke: #000000" x="1334.11" y="323.997" width="193.7" height="86"/>
    <rect style="fill: #ffffff" x="1314.11" y="345.997" width="40" height="14"/>
    <rect style="fill: none; fill-opacity:0; stroke-width: 2; stroke: #000000" x="1314.11" y="345.997" width="40" height="14"/>
    <rect style="fill: #ffffff" x="1314.11" y="373.997" width="40" height="14"/>
    <rect style="fill: none; fill-opacity:0; stroke-width: 2; stroke: #000000" x="1314.11" y="373.997" width="40" height="14"/>
    <text font-size="12.7998" style="fill: #000000;text-anchor:start;font-family:sans-serif;font-style:normal;font-weight:normal" x="1362.11" y="349.897">&lt;&lt;file&gt;&gt;</text>
    <text font-size="12.7998" style="fill: #000000;text-anchor:start;font-family:sans-serif;font-style:normal;font-weight:normal" x="1362.11" y="365.897">
      <tspan x="1362.11" y="365.897">run/operatorBaseNode.h</tspan>
    </text>
  </g>
  <g>
    <rect style="fill: #ffffff" x="1334.11" y="416.69" width="196.05" height="86"/>
    <rect style="fill: none; fill-opacity:0; stroke-width: 2; stroke: #000000" x="1334.11" y="416.69" width="196.05" height="86"/>
    <rect style="fill: #ffffff" x="1314.11" y="438.69" width="40" height="14"/>
    <rect style="fill: none; fill-opacity:0; stroke-width: 2; stroke: #000000" x="1314.11" y="438.69" width="40" height="14"/>
    <rect style="fill: #ffffff" x="1314.11" y="466.69" width="40" height="14"/>
    <rect style="fill: none; fill-opacity:0; stroke-width: 2; stroke: #000000" x="1314.11" y="466.69" width="40" height="14"/>
    <text font-size="12.7998" style="fill: #000000;text-anchor:start;font-family:sans-serif;font-style:normal;font-weight:normal" x="1362.11" y="442.59">&lt;&lt;file&gt;&gt;</text>
    <text font-size="12.7998" style="fill: #000000;text-anchor:start;font-family:sans-serif;font-style:normal;font-weight:normal" x="1362.11" y="458.59">
      <tspan x="1362.11" y="458.59">run/operatorLogicNode.h</tspan>
    </text>
  </g>
  <g>
    <rect style="fill: #ffffff" x="1334.11" y="508.293" width="193.15" height="86"/>
    <rect style="fill: none; fill-opacity:0; stroke-width: 2; stroke: #000000" x="1334.11" y="508.293" width="193.15" height="86"/>
    <rect style="fill: #ffffff" x="1314.11" y="530.293" width="40" height="14"/>
    <rect style="fill: none; fill-opacity:0; stroke-width: 2; stroke: #000000" x="1314.11" y="530.293" width="40" height="14"/>
    <rect style="fill: #ffffff" x="1314.11" y="558.293" width="40" height="14"/>
    <rect style="fill: none; fill-opacity:0; stroke-width: 2; stroke: #000000" x="1314.11" y="558.293" width="40" height="14"/>
    <text font-size="12.7998" style="fill: #000000;text-anchor:start;font-family:sans-serif;font-style:normal;font-weight:normal" x="1362.11" y="534.193">&lt;&lt;file&gt;&gt;</text>
    <text font-size="12.7998" style="fill: #000000;text-anchor:start;font-family:sans-serif;font-style:normal;font-weight:normal" x="1362.11" y="550.193">
      <tspan x="1362.11" y="550.193">run/operatorArithNode.h</tspan>
    </text>
  </g>
  <g>
    <rect style="fill: #ffffff" x="1334.11" y="600.986" width="180.9" height="86"/>
    <rect style="fill: none; fill-opacity:0; stroke-width: 2; stroke: #000000" x="1334.11" y="600.986" width="180.9" height="86"/>
    <rect style="fill: #ffffff" x="1314.11" y="622.986" width="40" height="14"/>
    <rect style="fill: none; fill-opacity:0; stroke-width: 2; stroke: #000000" x="1314.11" y="622.986" width="40" height="14"/>
    <rect style="fill: #ffffff" x="1314.11" y="650.986" width="40" height="14"/>
    <rect style="fill: none; fill-opacity:0; stroke-width: 2; stroke: #000000" x="1314.11" y="650.986" width="40" height="14"/>
    <text font-size="12.7998" style="fill: #000000;text-anchor:start;font-family:sans-serif;font-style:normal;font-weight:normal" x="1362.11" y="626.886">&lt;&lt;file&gt;&gt;</text>
    <text font-size="12.7998" style="fill: #000000;text-anchor:start;font-family:sans-serif;font-style:normal;font-weight:normal" x="1362.11" y="642.886">
      <tspan x="1362.11" y="642.886">run/operatorStrNode.h</tspan>
    </text>
  </g>
  <g>
    <polyline style="fill: none; fill-opacity:0; stroke-width: 2; stroke-dasharray: 8; stroke: #000000" points="1233.3,223.184 1269.7,223.184 1269.7,77.7955 1307.4,77.7955 "/>
    <polyline style="fill: none; fill-opacity:0; stroke-width: 2; stroke: #000000" points="1294.75,82.7955 1310.75,77.7955 1294.75,72.7955 "/>
  </g>
  <g>
    <polyline style="fill: none; fill-opacity:0; stroke-width: 2; stroke-dasharray: 8; stroke: #000000" points="1233.3,223.184 1269.7,223.184 1269.7,261.272 1307.4,261.272 "/>
    <polyline style="fill: none; fill-opacity:0; stroke-width: 2; stroke: #000000" points="1294.75,266.272 1310.75,261.272 1294.75,256.272 "/>
  </g>
  <g>
    <rect style="fill: #ffffff" x="1334.11" y="693.461" width="197" height="86"/>
    <rect style="fill: none; fill-opacity:0; stroke-width: 2; stroke: #000000" x="1334.11" y="693.461" width="197" height="86"/>
    <rect style="fill: #ffffff" x="1314.11" y="715.461" width="40" height="14"/>
    <rect style="fill: none; fill-opacity:0; stroke-width: 2; stroke: #000000" x="1314.11" y="715.461" width="40" height="14"/>
    <rect style="fill: #ffffff" x="1314.11" y="743.461" width="40" height="14"/>
    <rect style="fill: none; fill-opacity:0; stroke-width: 2; stroke: #000000" x="1314.11" y="743.461" width="40" height="14"/>
    <text font-size="12.7998" style="fill: #000000;text-anchor:start;font-family:sans-serif;font-style:normal;font-weight:normal" x="1362.11" y="719.361">&lt;&lt;file&gt;&gt;</text>
    <text font-size="12.7998" style="fill: #000000;text-anchor:start;font-family:sans-serif;font-style:normal;font-weight:normal" x="1362.11" y="735.361">
      <tspan x="1362.11" y="735.361">run/operatorArrayNode.h</tspan>
    </text>
  </g>
  <g>
    <rect style="fill: #ffffff" x="1334.11" y="785.282" width="210.35" height="86"/>
    <rect style="fill: none; fill-opacity:0; stroke-width: 2; stroke: #000000" x="1334.11" y="785.282" width="210.35" height="86"/>
    <rect style="fill: #ffffff" x="1314.11" y="807.282" width="40" height="14"/>
    <rect style="fill: none; fill-opacity:0; stroke-width: 2; stroke: #000000" x="1314.11" y="807.282" width="40" height="14"/>
    <rect style="fill: #ffffff" x="1314.11" y="835.282" width="40" height="14"/>
    <rect style="fill: none; fill-opacity:0; stroke-width: 2; stroke: #000000" x="1314.11" y="835.282" width="40" height="14"/>
    <text font-size="12.7998" style="fill: #000000;text-anchor:start;font-family:sans-serif;font-style:normal;font-weight:normal" x="1362.11" y="811.182">&lt;&lt;file&gt;&gt;</text>
    <text font-size="12.7998" style="fill: #000000;text-anchor:start;font-family:sans-serif;font-style:normal;font-weight:normal" x="1362.11" y="827.182">
      <tspan x="1362.11" y="827.182">run/operatorRegexpNode.h</tspan>
    </text>
  </g>
  <g>
    <rect style="fill: #ffffff" x="1334.11" y="877.975" width="193.1" height="86"/>
    <rect style="fill: none; fill-opacity:0; stroke-width: 2; stroke: #000000" x="1334.11" y="877.975" width="193.1" height="86"/>
    <rect style="fill: #ffffff" x="1314.11" y="899.975" width="40" height="14"/>
    <rect style="fill: none; fill-opacity:0; stroke-width: 2; stroke: #000000" x="1314.11" y="899.975" width="40" height="14"/>
    <rect style="fill: #ffffff" x="1314.11" y="927.975" width="40" height="14"/>
    <rect style="fill: none; fill-opacity:0; stroke-width: 2; stroke: #000000" x="1314.11" y="927.975" width="40" height="14"/>
    <text font-size="12.7998" style="fill: #000000;text-anchor:start;font-family:sans-serif;font-style:normal;font-weight:normal" x="1362.11" y="903.875">&lt;&lt;file&gt;&gt;</text>
    <text font-size="12.7998" style="fill: #000000;text-anchor:start;font-family:sans-serif;font-style:normal;font-weight:normal" x="1362.11" y="919.875">
      <tspan x="1362.11" y="919.875">run/operatorDateNode.h</tspan>
    </text>
  </g>
  <g>
    <rect style="fill: #ffffff" x="1334.11" y="1063.36" width="211.05" height="86"/>
    <rect style="fill: none; fill-opacity:0; stroke-width: 2; stroke: #000000" x="1334.11" y="1063.36" width="211.05" height="86"/>
    <rect style="fill: #ffffff" x="1314.11" y="1085.36" width="40" height="14"/>
    <rect style="fill: none; fill-opacity:0; stroke-width: 2; stroke: #000000" x="1314.11" y="1085.36" width="40" height="14"/>
    <rect style="fill: #ffffff" x="1314.11" y="1113.36" width="40" height="14"/>
    <rect style="fill: none; fill-opacity:0; stroke-width: 2; stroke: #000000" x="1314.11" y="1113.36" width="40" height="14"/>
    <text font-size="12.7998" style="fill: #000000;text-anchor:start;font-family:sans-serif;font-style:normal;font-weight:normal" x="1362.11" y="1089.26">&lt;&lt;file&gt;&gt;</text>
    <text font-size="12.7998" style="fill: #000000;text-anchor:start;font-family:sans-serif;font-style:normal;font-weight:normal" x="1362.11" y="1105.26">
      <tspan x="1362.11" y="1105.26">run/operatorProcessNode.h</tspan>
    </text>
  </g>
  <g>
    <rect style="fill: #ffffff" x="1334.11" y="970.45" width="183.9" height="86"/>
    <rect style="fill: none; fill-opacity:0; stroke-width: 2; stroke: #000000" x="1334.11" y="970.45" width="183.9" height="86"/>
    <rect style="fill: #ffffff" x="1314.11" y="992.45" width="40" height="14"/>
    <rect style="fill: none; fill-opacity:0; stroke-width: 2; stroke: #000000" x="1314.11" y="992.45" width="40" height="14"/>
    <rect style="fill: #ffffff" x="1314.11" y="1020.45" width="40" height="14"/>
    <rect style="fill: none; fill-opacity:0; stroke-width: 2; stroke: #000000" x="1314.11" y="1020.45" width="40" height="14"/>
    <text font-size="12.7998" style="fill: #000000;text-anchor:start;font-family:sans-serif;font-style:normal;font-weight:normal" x="1362.11" y="996.35">&lt;&lt;file&gt;&gt;</text>
    <text font-size="12.7998" style="fill: #000000;text-anchor:start;font-family:sans-serif;font-style:normal;font-weight:normal" x="1362.11" y="1012.35">
      <tspan x="1362.11" y="1012.35">run/operatorFileNode.h</tspan>
    </text>
  </g>
  <g>
    <polyline style="fill: none; fill-opacity:0; stroke-width: 2; stroke-dasharray: 8; stroke: #000000" points="1233.3,223.184 1269.7,223.184 1269.7,352.997 1307.4,352.997 "/>
    <polyline style="fill: none; fill-opacity:0; stroke-width: 2; stroke: #000000" points="1294.75,357.997 1310.75,352.997 1294.75,347.997 "/>
  </g>
  <g>
    <polyline style="fill: none; fill-opacity:0; stroke-width: 2; stroke-dasharray: 8; stroke: #000000" points="1233.3,223.184 1269.49,223.184 1269.49,445.69 1307.4,445.69 "/>
    <polyline style="fill: none; fill-opacity:0; stroke-width: 2; stroke: #000000" points="1294.75,450.69 1310.75,445.69 1294.75,440.69 "/>
  </g>
  <g>
    <polyline style="fill: none; fill-opacity:0; stroke-width: 2; stroke-dasharray: 8; stroke: #000000" points="1233.3,223.184 1269.7,223.184 1269.7,537.293 1307.4,537.293 "/>
    <polyline style="fill: none; fill-opacity:0; stroke-width: 2; stroke: #000000" points="1294.75,542.293 1310.75,537.293 1294.75,532.293 "/>
  </g>
  <g>
    <polyline style="fill: none; fill-opacity:0; stroke-width: 2; stroke-dasharray: 8; stroke: #000000" points="1233.3,223.184 1269.7,223.184 1269.7,629.986 1307.4,629.986 "/>
    <polyline style="fill: none; fill-opacity:0; stroke-width: 2; stroke: #000000" points="1294.75,634.986 1310.75,629.986 1294.75,624.986 "/>
  </g>
  <g>
    <polyline style="fill: none; fill-opacity:0; stroke-width: 2; stroke-dasharray: 8; stroke: #000000" points="1233.3,223.184 1269.7,223.184 1269.7,722.461 1307.4,722.461 "/>
    <polyline style="fill: none; fill-opacity:0; stroke-width: 2; stroke: #000000" points="1294.75,727.461 1310.75,722.461 1294.75,717.461 "/>
  </g>
  <g>
    <polyline style="fill: none; fill-opacity:0; stroke-width: 2; stroke-dasharray: 8; stroke: #000000" points="1233.3,223.184 1269.7,223.184 1269.7,814.282 1307.4,814.282 "/>
    <polyline style="fill: none; fill-opacity:0; stroke-width: 2; stroke: #000000" points="1294.75,819.282 1310.75,814.282 1294.75,809.282 "/>
  </g>
  <g>
    <polyline style="fill: none; fill-opacity:0; stroke-width: 2; stroke-dasharray: 8; stroke: #000000" points="1233.3,223.184 1269.7,223.184 1269.7,906.975 1307.4,906.975 "/>
    <polyline style="fill: none; fill-opacity:0; stroke-width: 2; stroke: #000000" points="1294.75,911.975 1310.75,906.975 1294.75,901.975 "/>
  </g>
  <g>
    <polyline style="fill: none; fill-opacity:0; stroke-width: 2; stroke-dasharray: 8; stroke: #000000" points="1233.3,223.184 1269.7,223.184 1269.7,999.45 1307.4,999.45 "/>
    <polyline style="fill: none; fill-opacity:0; stroke-width: 2; stroke: #000000" points="1294.75,1004.45 1310.75,999.45 1294.75,994.45 "/>
  </g>
  <g>
    <polyline style="fill: none; fill-opacity:0; stroke-width: 2; stroke-dasharray: 8; stroke: #000000" points="1233.3,223.184 1269.7,223.184 1269.7,1092.36 1307.4,1092.36 "/>
    <polyline style="fill: none; fill-opacity:0; stroke-width: 2; stroke: #000000" points="1294.75,1097.36 1310.75,1092.36 1294.75,1087.36 "/>
  </g>
  <g>
    <polyline style="fill: none; fill-opacity:0; stroke-width: 2; stroke-dasharray: 8; stroke: #000000" points="1181.15,266.184 1181.15,286.296 1182.66,286.296 1182.66,307.702 "/>
    <polyline style="fill: none; fill-opacity:0; stroke-width: 2; stroke: #000000" points="1177.66,295.054 1182.66,311.054 1187.66,295.054 "/>
  </g>
  <g>
    <rect style="fill: #ffffff" x="772.495" y="319.635" width="98.5" height="86"/>
    <rect style="fill: none; fill-opacity:0; stroke-width: 2; stroke: #000000" x="772.495" y="319.635" width="98.5" height="86"/>
    <rect style="fill: #ffffff" x="752.495" y="341.635" width="40" height="14"/>
    <rect style="fill: none; fill-opacity:0; stroke-width: 2; stroke: #000000" x="752.495" y="341.635" width="40" height="14"/>
    <rect style="fill: #ffffff" x="752.495" y="369.635" width="40" height="14"/>
    <rect style="fill: none; fill-opacity:0; stroke-width: 2; stroke: #000000" x="752.495" y="369.635" width="40" height="14"/>
    <text font-size="12.7998" style="fill: #000000;text-anchor:start;font-family:sans-serif;font-style:normal;font-weight:normal" x="800.495" y="345.535">&lt;&lt;file&gt;&gt;</text>
    <text font-size="12.7998" style="fill: #000000;text-anchor:start;font-family:sans-serif;font-style:normal;font-weight:normal" x="800.495" y="361.535">
      <tspan x="800.495" y="361.535">error.h</tspan>
    </text>
  </g>
  <g>
    <polyline style="fill: none; fill-opacity:0; stroke-width: 2; stroke-dasharray: 8; stroke: #000000" points="897,240.184 821.745,240.184 821.745,312.93 "/>
    <polyline style="fill: none; fill-opacity:0; stroke-width: 2; stroke: #000000" points="816.745,300.282 821.745,316.282 826.745,300.282 "/>
  </g>
</svg>
