<?xml version="1.0" encoding="UTF-8" standalone="no"?>
<!DOCTYPE svg PUBLIC "-//W3C//DTD SVG 1.0//EN" "http://www.w3.org/TR/2001/PR-SVG-20010719/DTD/svg10.dtd">
<svg width="16cm" height="9cm" viewBox="160 52 305 169" xmlns="http://www.w3.org/2000/svg" xmlns:xlink="http://www.w3.org/1999/xlink">
  <g>
    <rect style="fill: #ffffff" x="162" y="73.4" width="303" height="146"/>
    <rect style="fill: none; fill-opacity:0; stroke-width: 2; stroke: #000000" x="162" y="73.4" width="303" height="146"/>
    <rect style="fill: #ffffff" x="162" y="53.4" width="42.5" height="20"/>
    <rect style="fill: none; fill-opacity:0; stroke-width: 2; stroke: #000000" x="162" y="53.4" width="42.5" height="20"/>
    <text font-size="12.7998" style="fill: #000000;text-anchor:start;font-family:monospace;font-style:normal;font-weight:normal" x="164" y="68.4"> var </text>
  </g>
  <g>
    <ellipse style="fill: #ffffff" cx="234.85" cy="115.8" rx="62.85" ry="32"/>
    <ellipse style="fill: none; fill-opacity:0; stroke-width: 2; stroke: #000000" cx="234.85" cy="115.8" rx="62.85" ry="32"/>
    <text font-size="12.8" style="fill: #000000;text-anchor:middle;font-family:sans-serif;font-style:normal;font-weight:normal" x="234.85" y="111.7">
      <tspan x="234.85" y="111.7">Expresión</tspan>
      <tspan x="234.85" y="127.7">Valorar</tspan>
    </text>
  </g>
  <line style="fill: none; fill-opacity:0; stroke-width: 2; stroke: #000000" x1="172" y1="115.8" x2="297.7" y2="115.8"/>
  <g>
    <ellipse style="fill: #ffffff" cx="409.85" cy="180" rx="49.85" ry="20"/>
    <ellipse style="fill: none; fill-opacity:0; stroke-width: 2; stroke: #000000" cx="409.85" cy="180" rx="49.85" ry="20"/>
    <text font-size="12.7998" style="fill: #000000;text-anchor:middle;font-family:sans-serif;font-style:normal;font-weight:normal" x="409.85" y="183.9">
      <tspan x="409.85" y="183.9">variable</tspan>
    </text>
  </g>
  <g>
    <polyline style="fill: none; fill-opacity:0; stroke-width: 2; stroke-dasharray: 8; stroke: #000000" points="360,180 332.85,180 332.85,115.8 304.405,115.8 "/>
    <polyline style="fill: none; fill-opacity:0; stroke-width: 2; stroke: #000000" points="317.053,110.8 301.053,115.8 317.053,120.8 "/>
    <text font-size="12.7998" style="fill: #000000;text-anchor:start;font-family:monospace;font-style:normal;font-weight:normal" x="334.85" y="147.9">&lt;&lt;extend&gt;&gt;</text>
  </g>
</svg>
