<?xml version="1.0" encoding="UTF-8" standalone="no"?>
<!DOCTYPE svg PUBLIC "-//W3C//DTD SVG 1.0//EN" "http://www.w3.org/TR/2001/PR-SVG-20010719/DTD/svg10.dtd">
<svg width="22cm" height="71cm" viewBox="170 82 424 1410" xmlns="http://www.w3.org/2000/svg" xmlns:xlink="http://www.w3.org/1999/xlink">
  <g>
    <rect style="fill: #ffffff" x="172" y="103.8" width="421.815" height="1387.53"/>
    <rect style="fill: none; fill-opacity:0; stroke-width: 2; stroke: #000000" x="172" y="103.8" width="421.815" height="1387.53"/>
    <rect style="fill: #ffffff" x="172" y="83.8" width="42.5" height="20"/>
    <rect style="fill: none; fill-opacity:0; stroke-width: 2; stroke: #000000" x="172" y="83.8" width="42.5" height="20"/>
    <text font-size="12.7998" style="fill: #000000;text-anchor:start;font-family:monospace;font-style:normal;font-weight:normal" x="174" y="98.8"> omi </text>
  </g>
  <g>
    <rect style="fill: #ffffff" x="230.338" y="151.647" width="96.7" height="28"/>
    <rect style="fill: none; fill-opacity:0; stroke-width: 2; stroke: #000000" x="230.338" y="151.647" width="96.7" height="28"/>
    <rect style="fill: #ffffff" x="230.338" y="133.647" width="30" height="18"/>
    <rect style="fill: none; fill-opacity:0; stroke-width: 2; stroke: #000000" x="230.338" y="133.647" width="30" height="18"/>
    <text font-size="12.8" style="fill: #000000;text-anchor:start;font-family:monospace;font-style:normal;font-weight:normal" x="236.338" y="169.547">
      <tspan x="236.338" y="169.547">interpreter</tspan>
    </text>
  </g>
  <g>
    <rect style="fill: #ffffff" x="246" y="219.901" width="65.9" height="28"/>
    <rect style="fill: none; fill-opacity:0; stroke-width: 2; stroke: #000000" x="246" y="219.901" width="65.9" height="28"/>
    <rect style="fill: #ffffff" x="246" y="201.901" width="30" height="18"/>
    <rect style="fill: none; fill-opacity:0; stroke-width: 2; stroke: #000000" x="246" y="201.901" width="30" height="18"/>
    <text font-size="12.8" style="fill: #000000;text-anchor:start;font-family:monospace;font-style:normal;font-weight:normal" x="252" y="237.801">
      <tspan x="252" y="237.801">runNode</tspan>
    </text>
  </g>
  <g>
    <rect style="fill: #ffffff" x="437.878" y="368.051" width="65.9" height="28"/>
    <rect style="fill: none; fill-opacity:0; stroke-width: 2; stroke: #000000" x="437.878" y="368.051" width="65.9" height="28"/>
    <rect style="fill: #ffffff" x="437.878" y="350.051" width="30" height="18"/>
    <rect style="fill: none; fill-opacity:0; stroke-width: 2; stroke: #000000" x="437.878" y="350.051" width="30" height="18"/>
    <text font-size="12.8" style="fill: #000000;text-anchor:start;font-family:monospace;font-style:normal;font-weight:normal" x="443.878" y="385.951">
      <tspan x="443.878" y="385.951">arithOp</tspan>
    </text>
  </g>
  <g>
    <rect style="fill: #ffffff" x="439.928" y="444.051" width="65.9" height="28"/>
    <rect style="fill: none; fill-opacity:0; stroke-width: 2; stroke: #000000" x="439.928" y="444.051" width="65.9" height="28"/>
    <rect style="fill: #ffffff" x="439.928" y="426.051" width="30" height="18"/>
    <rect style="fill: none; fill-opacity:0; stroke-width: 2; stroke: #000000" x="439.928" y="426.051" width="30" height="18"/>
    <text font-size="12.8" style="fill: #000000;text-anchor:start;font-family:monospace;font-style:normal;font-weight:normal" x="445.928" y="461.951">
      <tspan x="445.928" y="461.951">logicOp</tspan>
    </text>
  </g>
  <g>
    <rect style="fill: #ffffff" x="439.636" y="522.691" width="73.6" height="28"/>
    <rect style="fill: none; fill-opacity:0; stroke-width: 2; stroke: #000000" x="439.636" y="522.691" width="73.6" height="28"/>
    <rect style="fill: #ffffff" x="439.636" y="504.691" width="30" height="18"/>
    <rect style="fill: none; fill-opacity:0; stroke-width: 2; stroke: #000000" x="439.636" y="504.691" width="30" height="18"/>
    <text font-size="12.8" style="fill: #000000;text-anchor:start;font-family:monospace;font-style:normal;font-weight:normal" x="445.636" y="540.591">
      <tspan x="445.636" y="540.591">stringOp</tspan>
    </text>
  </g>
  <g>
    <rect style="fill: #ffffff" x="440.344" y="595.913" width="65.9" height="28"/>
    <rect style="fill: none; fill-opacity:0; stroke-width: 2; stroke: #000000" x="440.344" y="595.913" width="65.9" height="28"/>
    <rect style="fill: #ffffff" x="440.344" y="577.913" width="30" height="18"/>
    <rect style="fill: none; fill-opacity:0; stroke-width: 2; stroke: #000000" x="440.344" y="577.913" width="30" height="18"/>
    <text font-size="12.8" style="fill: #000000;text-anchor:start;font-family:monospace;font-style:normal;font-weight:normal" x="446.344" y="613.813">
      <tspan x="446.344" y="613.813">arrayOp</tspan>
    </text>
  </g>
  <g>
    <rect style="fill: #ffffff" x="241.294" y="299.249" width="73.6" height="28"/>
    <rect style="fill: none; fill-opacity:0; stroke-width: 2; stroke: #000000" x="241.294" y="299.249" width="73.6" height="28"/>
    <rect style="fill: #ffffff" x="241.294" y="281.249" width="30" height="18"/>
    <rect style="fill: none; fill-opacity:0; stroke-width: 2; stroke: #000000" x="241.294" y="281.249" width="30" height="18"/>
    <text font-size="12.8" style="fill: #000000;text-anchor:start;font-family:monospace;font-style:normal;font-weight:normal" x="247.294" y="317.149">
      <tspan x="247.294" y="317.149">typeData</tspan>
    </text>
  </g>
  <g>
    <rect style="fill: #ffffff" x="438.294" y="222.231" width="96.7" height="28"/>
    <rect style="fill: none; fill-opacity:0; stroke-width: 2; stroke: #000000" x="438.294" y="222.231" width="96.7" height="28"/>
    <rect style="fill: #ffffff" x="438.294" y="204.231" width="30" height="18"/>
    <rect style="fill: none; fill-opacity:0; stroke-width: 2; stroke: #000000" x="438.294" y="204.231" width="30" height="18"/>
    <text font-size="12.8" style="fill: #000000;text-anchor:start;font-family:monospace;font-style:normal;font-weight:normal" x="444.294" y="240.131">
      <tspan x="444.294" y="240.131">definitions</tspan>
    </text>
  </g>
  <g>
    <rect style="fill: #ffffff" x="439.174" y="147.517" width="81.3" height="28"/>
    <rect style="fill: none; fill-opacity:0; stroke-width: 2; stroke: #000000" x="439.174" y="147.517" width="81.3" height="28"/>
    <rect style="fill: #ffffff" x="439.174" y="129.517" width="30" height="18"/>
    <rect style="fill: none; fill-opacity:0; stroke-width: 2; stroke: #000000" x="439.174" y="129.517" width="30" height="18"/>
    <text font-size="12.8" style="fill: #000000;text-anchor:start;font-family:monospace;font-style:normal;font-weight:normal" x="445.174" y="165.417">
      <tspan x="445.174" y="165.417">flowstmts</tspan>
    </text>
  </g>
  <g>
    <rect style="fill: #ffffff" x="436.536" y="1126.38" width="81.3" height="28"/>
    <rect style="fill: none; fill-opacity:0; stroke-width: 2; stroke: #000000" x="436.536" y="1126.38" width="81.3" height="28"/>
    <rect style="fill: #ffffff" x="436.536" y="1108.38" width="30" height="18"/>
    <rect style="fill: none; fill-opacity:0; stroke-width: 2; stroke: #000000" x="436.536" y="1108.38" width="30" height="18"/>
    <text font-size="12.8" style="fill: #000000;text-anchor:start;font-family:monospace;font-style:normal;font-weight:normal" x="442.536" y="1144.28">
      <tspan x="442.536" y="1144.28">processOp</tspan>
    </text>
  </g>
  <g>
    <rect style="fill: #ffffff" x="439.694" y="670.009" width="73.6" height="28"/>
    <rect style="fill: none; fill-opacity:0; stroke-width: 2; stroke: #000000" x="439.694" y="670.009" width="73.6" height="28"/>
    <rect style="fill: #ffffff" x="439.694" y="652.009" width="30" height="18"/>
    <rect style="fill: none; fill-opacity:0; stroke-width: 2; stroke: #000000" x="439.694" y="652.009" width="30" height="18"/>
    <text font-size="12.8" style="fill: #000000;text-anchor:start;font-family:monospace;font-style:normal;font-weight:normal" x="445.694" y="687.909">
      <tspan x="445.694" y="687.909">regexpOp</tspan>
    </text>
  </g>
  <g>
    <rect style="fill: #ffffff" x="437.012" y="1198.1" width="58.2" height="28"/>
    <rect style="fill: none; fill-opacity:0; stroke-width: 2; stroke: #000000" x="437.012" y="1198.1" width="58.2" height="28"/>
    <rect style="fill: #ffffff" x="437.012" y="1180.1" width="30" height="18"/>
    <rect style="fill: none; fill-opacity:0; stroke-width: 2; stroke: #000000" x="437.012" y="1180.1" width="30" height="18"/>
    <text font-size="12.8" style="fill: #000000;text-anchor:start;font-family:monospace;font-style:normal;font-weight:normal" x="443.012" y="1216">
      <tspan x="443.012" y="1216">fileOp</tspan>
    </text>
  </g>
  <g>
    <rect style="fill: #ffffff" x="437.1" y="297.701" width="96.7" height="28"/>
    <rect style="fill: none; fill-opacity:0; stroke-width: 2; stroke: #000000" x="437.1" y="297.701" width="96.7" height="28"/>
    <rect style="fill: #ffffff" x="437.1" y="279.701" width="30" height="18"/>
    <rect style="fill: none; fill-opacity:0; stroke-width: 2; stroke: #000000" x="437.1" y="279.701" width="30" height="18"/>
    <text font-size="12.8" style="fill: #000000;text-anchor:start;font-family:monospace;font-style:normal;font-weight:normal" x="443.1" y="315.601">
      <tspan x="443.1" y="315.601">assignation</tspan>
    </text>
  </g>
  <g>
    <rect style="fill: #ffffff" x="434" y="984.701" width="50" height="28"/>
    <rect style="fill: none; fill-opacity:0; stroke-width: 2; stroke: #000000" x="434" y="984.701" width="50" height="28"/>
    <rect style="fill: #ffffff" x="434" y="966.701" width="30" height="18"/>
    <rect style="fill: none; fill-opacity:0; stroke-width: 2; stroke: #000000" x="434" y="966.701" width="30" height="18"/>
    <text font-size="12.8" style="fill: #000000;text-anchor:start;font-family:monospace;font-style:normal;font-weight:normal" x="440" y="1002.6">
      <tspan x="440" y="1002.6">ioOp</tspan>
    </text>
  </g>
  <g>
    <rect style="fill: #ffffff" x="437" y="1056.7" width="58.2" height="28"/>
    <rect style="fill: none; fill-opacity:0; stroke-width: 2; stroke: #000000" x="437" y="1056.7" width="58.2" height="28"/>
    <rect style="fill: #ffffff" x="437" y="1038.7" width="30" height="18"/>
    <rect style="fill: none; fill-opacity:0; stroke-width: 2; stroke: #000000" x="437" y="1038.7" width="30" height="18"/>
    <text font-size="12.8" style="fill: #000000;text-anchor:start;font-family:monospace;font-style:normal;font-weight:normal" x="443" y="1074.6">
      <tspan x="443" y="1074.6">infoOp</tspan>
    </text>
  </g>
  <g>
    <rect style="fill: #ffffff" x="434" y="1346.31" width="50.5" height="28"/>
    <rect style="fill: none; fill-opacity:0; stroke-width: 2; stroke: #000000" x="434" y="1346.31" width="50.5" height="28"/>
    <rect style="fill: #ffffff" x="434" y="1328.31" width="30" height="18"/>
    <rect style="fill: none; fill-opacity:0; stroke-width: 2; stroke: #000000" x="434" y="1328.31" width="30" height="18"/>
    <text font-size="12.8" style="fill: #000000;text-anchor:start;font-family:monospace;font-style:normal;font-weight:normal" x="440" y="1364.21">
      <tspan x="440" y="1364.21">error</tspan>
    </text>
  </g>
  <g>
    <rect style="fill: #ffffff" x="438.966" y="746.541" width="58.2" height="28"/>
    <rect style="fill: none; fill-opacity:0; stroke-width: 2; stroke: #000000" x="438.966" y="746.541" width="58.2" height="28"/>
    <rect style="fill: #ffffff" x="438.966" y="728.541" width="30" height="18"/>
    <rect style="fill: none; fill-opacity:0; stroke-width: 2; stroke: #000000" x="438.966" y="728.541" width="30" height="18"/>
    <text font-size="12.8" style="fill: #000000;text-anchor:start;font-family:monospace;font-style:normal;font-weight:normal" x="444.966" y="764.441">
      <tspan x="444.966" y="764.441">convOp</tspan>
    </text>
  </g>
  <g>
    <rect style="fill: #ffffff" x="439.966" y="825.541" width="73.6" height="28"/>
    <rect style="fill: none; fill-opacity:0; stroke-width: 2; stroke: #000000" x="439.966" y="825.541" width="73.6" height="28"/>
    <rect style="fill: #ffffff" x="439.966" y="807.541" width="30" height="18"/>
    <rect style="fill: none; fill-opacity:0; stroke-width: 2; stroke: #000000" x="439.966" y="807.541" width="30" height="18"/>
    <text font-size="12.8" style="fill: #000000;text-anchor:start;font-family:monospace;font-style:normal;font-weight:normal" x="445.966" y="843.441">
      <tspan x="445.966" y="843.441">accessOp</tspan>
    </text>
  </g>
  <g>
    <rect style="fill: #ffffff" x="435.89" y="905.541" width="58.2" height="28"/>
    <rect style="fill: none; fill-opacity:0; stroke-width: 2; stroke: #000000" x="435.89" y="905.541" width="58.2" height="28"/>
    <rect style="fill: #ffffff" x="435.89" y="887.541" width="30" height="18"/>
    <rect style="fill: none; fill-opacity:0; stroke-width: 2; stroke: #000000" x="435.89" y="887.541" width="30" height="18"/>
    <text font-size="12.8" style="fill: #000000;text-anchor:start;font-family:monospace;font-style:normal;font-weight:normal" x="441.89" y="923.441">
      <tspan x="441.89" y="923.441">condOp</tspan>
    </text>
  </g>
  <g>
    <rect style="fill: #ffffff" x="434.458" y="1423.36" width="89" height="28"/>
    <rect style="fill: none; fill-opacity:0; stroke-width: 2; stroke: #000000" x="434.458" y="1423.36" width="89" height="28"/>
    <rect style="fill: #ffffff" x="434.458" y="1405.36" width="30" height="18"/>
    <rect style="fill: none; fill-opacity:0; stroke-width: 2; stroke: #000000" x="434.458" y="1405.36" width="30" height="18"/>
    <text font-size="12.8" style="fill: #000000;text-anchor:start;font-family:monospace;font-style:normal;font-weight:normal" x="440.458" y="1441.26">
      <tspan x="440.458" y="1441.26">extensions</tspan>
    </text>
  </g>
  <g>
    <rect style="fill: #ffffff" x="437.19" y="1276.2" width="58.2" height="28"/>
    <rect style="fill: none; fill-opacity:0; stroke-width: 2; stroke: #000000" x="437.19" y="1276.2" width="58.2" height="28"/>
    <rect style="fill: #ffffff" x="437.19" y="1258.2" width="30" height="18"/>
    <rect style="fill: none; fill-opacity:0; stroke-width: 2; stroke: #000000" x="437.19" y="1258.2" width="30" height="18"/>
    <text font-size="12.8" style="fill: #000000;text-anchor:start;font-family:monospace;font-style:normal;font-weight:normal" x="443.19" y="1294.1">
      <tspan x="443.19" y="1294.1">dateOp</tspan>
    </text>
  </g>
  <g>
    <line style="fill: none; fill-opacity:0; stroke-width: 2; stroke-dasharray: 8; stroke: #000000" x1="278.839" y1="202.901" x2="278.688" y2="179.647"/>
    <polygon style="fill: #000000" points="273.839,202.934 278.943,218.901 283.839,202.869 "/>
    <polygon style="fill: none; fill-opacity:0; stroke-width: 2; stroke: #000000" points="273.839,202.934 278.943,218.901 283.839,202.869 "/>
    <text font-size="12.7998" style="fill: #000000;text-anchor:middle;font-family:sans-serif;font-style:normal;font-weight:normal" x="225.5" y="194.827">&lt;&lt;merge&gt;&gt;</text>
  </g>
  <g>
    <line style="fill: none; fill-opacity:0; stroke-width: 2; stroke-dasharray: 8; stroke: #000000" x1="278.377" y1="282.251" x2="278.95" y2="247.901"/>
    <polygon style="fill: #000000" points="273.378,282.168 278.111,298.249 283.377,282.335 "/>
    <polygon style="fill: none; fill-opacity:0; stroke-width: 2; stroke: #000000" points="273.378,282.168 278.111,298.249 283.377,282.335 "/>
    <text font-size="12.7998" style="fill: #000000;text-anchor:middle;font-family:sans-serif;font-style:normal;font-weight:normal" x="230.5" y="266.827">&lt;&lt;merge&gt;&gt;</text>
  </g>
  <g>
    <line style="fill: none; fill-opacity:0; stroke-width: 2; stroke-dasharray: 8; stroke: #000000" x1="428.402" y1="174.668" x2="314.894" y2="313.249"/>
    <polygon style="fill: #000000" points="432.27,177.837 438.54,162.291 424.534,171.5 "/>
    <polygon style="fill: none; fill-opacity:0; stroke-width: 2; stroke: #000000" points="432.27,177.837 438.54,162.291 424.534,171.5 "/>
    <text font-size="12.7998" style="fill: #000000;text-anchor:middle;font-family:sans-serif;font-style:normal;font-weight:normal" x="460" y="196.327">&lt;&lt;merge&gt;&gt;</text>
  </g>
  <g>
    <line style="fill: none; fill-opacity:0; stroke-width: 2; stroke-dasharray: 8; stroke: #000000" x1="423.872" y1="245.232" x2="314.894" y2="313.249"/>
    <polygon style="fill: #000000" points="426.52,249.474 437.446,236.76 421.225,240.99 "/>
    <polygon style="fill: none; fill-opacity:0; stroke-width: 2; stroke: #000000" points="426.52,249.474 437.446,236.76 421.225,240.99 "/>
    <text font-size="12.7998" style="fill: #000000;text-anchor:middle;font-family:sans-serif;font-style:normal;font-weight:normal" x="451" y="268.327">&lt;&lt;merge&gt;&gt;</text>
  </g>
  <g>
    <line style="fill: none; fill-opacity:0; stroke-width: 2; stroke-dasharray: 8; stroke: #000000" x1="420.101" y1="311.867" x2="315.866" y2="312.881"/>
    <polygon style="fill: #000000" points="420.149,316.866 436.1,311.711 420.052,306.867 "/>
    <polygon style="fill: none; fill-opacity:0; stroke-width: 2; stroke: #000000" points="420.149,316.866 436.1,311.711 420.052,306.867 "/>
    <text font-size="12.7998" style="fill: #000000;text-anchor:middle;font-family:sans-serif;font-style:normal;font-weight:normal" x="380" y="305.327">&lt;&lt;merge&gt;&gt;</text>
  </g>
  <g>
    <line style="fill: none; fill-opacity:0; stroke-width: 2; stroke-dasharray: 8; stroke: #000000" x1="423.042" y1="373.751" x2="314.894" y2="313.249"/>
    <polygon style="fill: #000000" points="420.601,378.115 437.005,381.563 425.483,369.388 "/>
    <polygon style="fill: none; fill-opacity:0; stroke-width: 2; stroke: #000000" points="420.601,378.115 437.005,381.563 425.483,369.388 "/>
    <text font-size="12.7998" style="fill: #000000;text-anchor:middle;font-family:sans-serif;font-style:normal;font-weight:normal" x="453" y="342.327">&lt;&lt;merge&gt;&gt;</text>
  </g>
  <g>
    <line style="fill: none; fill-opacity:0; stroke-width: 2; stroke-dasharray: 8; stroke: #000000" x1="428.818" y1="445.184" x2="314.894" y2="313.249"/>
    <polygon style="fill: #000000" points="425.033,448.452 439.274,457.294 432.602,441.916 "/>
    <polygon style="fill: none; fill-opacity:0; stroke-width: 2; stroke: #000000" points="425.033,448.452 439.274,457.294 432.602,441.916 "/>
    <text font-size="12.7998" style="fill: #000000;text-anchor:middle;font-family:sans-serif;font-style:normal;font-weight:normal" x="463" y="415.327">&lt;&lt;merge&gt;&gt;</text>
  </g>
  <g>
    <line style="fill: none; fill-opacity:0; stroke-width: 2; stroke-dasharray: 8; stroke: #000000" x1="431.349" y1="521.848" x2="314.894" y2="313.249"/>
    <polygon style="fill: #000000" points="426.984,524.285 439.149,535.818 435.715,519.41 "/>
    <polygon style="fill: none; fill-opacity:0; stroke-width: 2; stroke: #000000" points="426.984,524.285 439.149,535.818 435.715,519.41 "/>
    <text font-size="12.7998" style="fill: #000000;text-anchor:middle;font-family:sans-serif;font-style:normal;font-weight:normal" x="462" y="491.327">&lt;&lt;merge&gt;&gt;</text>
  </g>
  <g>
    <line style="fill: none; fill-opacity:0; stroke-width: 2; stroke-dasharray: 8; stroke: #000000" x1="433.723" y1="594.255" x2="314.894" y2="313.249"/>
    <polygon style="fill: #000000" points="429.118,596.203 439.955,608.992 438.328,592.308 "/>
    <polygon style="fill: none; fill-opacity:0; stroke-width: 2; stroke: #000000" points="429.118,596.203 439.955,608.992 438.328,592.308 "/>
    <text font-size="12.7998" style="fill: #000000;text-anchor:middle;font-family:sans-serif;font-style:normal;font-weight:normal" x="468" y="567.327">&lt;&lt;merge&gt;&gt;</text>
  </g>
  <g>
    <line style="fill: none; fill-opacity:0; stroke-width: 2; stroke-dasharray: 8; stroke: #000000" x1="434.271" y1="667.897" x2="314.894" y2="313.249"/>
    <polygon style="fill: #000000" points="429.532,669.492 439.375,683.061 439.009,666.302 "/>
    <polygon style="fill: none; fill-opacity:0; stroke-width: 2; stroke: #000000" points="429.532,669.492 439.375,683.061 439.009,666.302 "/>
    <text font-size="12.7998" style="fill: #000000;text-anchor:middle;font-family:sans-serif;font-style:normal;font-weight:normal" x="472" y="641.327">&lt;&lt;merge&gt;&gt;</text>
  </g>
  <g>
    <line style="fill: none; fill-opacity:0; stroke-width: 2; stroke-dasharray: 8; stroke: #000000" x1="434.422" y1="744.16" x2="314.894" y2="313.249"/>
    <polygon style="fill: #000000" points="429.604,745.496 438.699,759.577 439.24,742.823 "/>
    <polygon style="fill: none; fill-opacity:0; stroke-width: 2; stroke: #000000" points="429.604,745.496 438.699,759.577 439.24,742.823 "/>
    <text font-size="12.7998" style="fill: #000000;text-anchor:middle;font-family:sans-serif;font-style:normal;font-weight:normal" x="473" y="717.327">&lt;&lt;merge&gt;&gt;</text>
  </g>
  <g>
    <line style="fill: none; fill-opacity:0; stroke-width: 2; stroke-dasharray: 8; stroke: #000000" x1="436.035" y1="823.002" x2="314.894" y2="313.249"/>
    <polygon style="fill: #000000" points="431.171,824.158 439.735,838.568 440.9,821.846 "/>
    <polygon style="fill: none; fill-opacity:0; stroke-width: 2; stroke: #000000" points="431.171,824.158 439.735,838.568 440.9,821.846 "/>
    <text font-size="12.7998" style="fill: #000000;text-anchor:middle;font-family:sans-serif;font-style:normal;font-weight:normal" x="475" y="794.327">&lt;&lt;merge&gt;&gt;</text>
  </g>
  <g>
    <line style="fill: none; fill-opacity:0; stroke-width: 2; stroke-dasharray: 8; stroke: #000000" x1="432.563" y1="902.87" x2="314.894" y2="313.249"/>
    <polygon style="fill: #000000" points="427.66,903.848 435.694,918.56 437.466,901.891 "/>
    <polygon style="fill: none; fill-opacity:0; stroke-width: 2; stroke: #000000" points="427.66,903.848 435.694,918.56 437.466,901.891 "/>
    <text font-size="12.7998" style="fill: #000000;text-anchor:middle;font-family:sans-serif;font-style:normal;font-weight:normal" x="477" y="874.327">&lt;&lt;merge&gt;&gt;</text>
  </g>
  <g>
    <line style="fill: none; fill-opacity:0; stroke-width: 2; stroke-dasharray: 8; stroke: #000000" x1="431.09" y1="981.952" x2="314.894" y2="313.249"/>
    <polygon style="fill: #000000" points="426.163,982.808 433.829,997.716 436.016,981.096 "/>
    <polygon style="fill: none; fill-opacity:0; stroke-width: 2; stroke: #000000" points="426.163,982.808 433.829,997.716 436.016,981.096 "/>
    <text font-size="12.7998" style="fill: #000000;text-anchor:middle;font-family:sans-serif;font-style:normal;font-weight:normal" x="473.5" y="954.827">&lt;&lt;merge&gt;&gt;</text>
  </g>
  <g>
    <line style="fill: none; fill-opacity:0; stroke-width: 2; stroke-dasharray: 8; stroke: #000000" x1="434.294" y1="1053.92" x2="314.894" y2="313.249"/>
    <polygon style="fill: #000000" points="429.358,1054.71 436.841,1069.71 439.231,1053.12 "/>
    <polygon style="fill: none; fill-opacity:0; stroke-width: 2; stroke: #000000" points="429.358,1054.71 436.841,1069.71 439.231,1053.12 "/>
    <text font-size="12.7998" style="fill: #000000;text-anchor:middle;font-family:sans-serif;font-style:normal;font-weight:normal" x="477" y="1031.33">&lt;&lt;merge&gt;&gt;</text>
  </g>
  <g>
    <line style="fill: none; fill-opacity:0; stroke-width: 2; stroke-dasharray: 8; stroke: #000000" x1="434.063" y1="1123.56" x2="314.894" y2="313.249"/>
    <polygon style="fill: #000000" points="429.116,1124.29 436.391,1139.39 439.009,1122.83 "/>
    <polygon style="fill: none; fill-opacity:0; stroke-width: 2; stroke: #000000" points="429.116,1124.29 436.391,1139.39 439.009,1122.83 "/>
    <text font-size="12.7998" style="fill: #000000;text-anchor:middle;font-family:sans-serif;font-style:normal;font-weight:normal" x="475" y="1099.33">&lt;&lt;merge&gt;&gt;</text>
  </g>
  <g>
    <line style="fill: none; fill-opacity:0; stroke-width: 2; stroke-dasharray: 8; stroke: #000000" x1="434.723" y1="1195.25" x2="314.894" y2="313.249"/>
    <polygon style="fill: #000000" points="429.769,1195.92 436.877,1211.11 439.678,1194.58 "/>
    <polygon style="fill: none; fill-opacity:0; stroke-width: 2; stroke: #000000" points="429.769,1195.92 436.877,1211.11 439.678,1194.58 "/>
    <text font-size="12.7998" style="fill: #000000;text-anchor:middle;font-family:sans-serif;font-style:normal;font-weight:normal" x="475" y="1171.33">&lt;&lt;merge&gt;&gt;</text>
  </g>
  <g>
    <line style="fill: none; fill-opacity:0; stroke-width: 2; stroke-dasharray: 8; stroke: #000000" x1="435.078" y1="1273.33" x2="314.894" y2="313.249"/>
    <polygon style="fill: #000000" points="430.117,1273.95 437.066,1289.21 440.04,1272.71 "/>
    <polygon style="fill: none; fill-opacity:0; stroke-width: 2; stroke: #000000" points="430.117,1273.95 437.066,1289.21 440.04,1272.71 "/>
    <text font-size="12.7998" style="fill: #000000;text-anchor:middle;font-family:sans-serif;font-style:normal;font-weight:normal" x="477" y="1246.33">&lt;&lt;merge&gt;&gt;</text>
  </g>
  <g>
    <line style="fill: none; fill-opacity:0; stroke-width: 2; stroke-dasharray: 8; stroke: #000000" x1="432.079" y1="1343.41" x2="314.894" y2="313.249"/>
    <polygon style="fill: #000000" points="427.111,1343.98 433.887,1359.31 437.047,1342.85 "/>
    <polygon style="fill: none; fill-opacity:0; stroke-width: 2; stroke: #000000" points="427.111,1343.98 433.887,1359.31 437.047,1342.85 "/>
    <text font-size="12.7998" style="fill: #000000;text-anchor:middle;font-family:sans-serif;font-style:normal;font-weight:normal" x="474" y="1320.33">&lt;&lt;merge&gt;&gt;</text>
  </g>
  <g>
    <line style="fill: none; fill-opacity:0; stroke-width: 2; stroke-dasharray: 8; stroke: #000000" x1="432.703" y1="1420.45" x2="318" y2="315.327"/>
    <polygon style="fill: #000000" points="427.73,1420.97 434.355,1436.37 437.676,1419.94 "/>
    <polygon style="fill: none; fill-opacity:0; stroke-width: 2; stroke: #000000" points="427.73,1420.97 434.355,1436.37 437.676,1419.94 "/>
    <text font-size="12.7998" style="fill: #000000;text-anchor:middle;font-family:sans-serif;font-style:normal;font-weight:normal" x="476" y="1394.33">&lt;&lt;merge&gt;&gt;</text>
  </g>
</svg>
