<?xml version="1.0" encoding="UTF-8" standalone="no"?>
<!-- Created with Inkscape (http://www.inkscape.org/) -->

<svg
   xmlns:dc="http://purl.org/dc/elements/1.1/"
   xmlns:cc="http://creativecommons.org/ns#"
   xmlns:rdf="http://www.w3.org/1999/02/22-rdf-syntax-ns#"
   xmlns:svg="http://www.w3.org/2000/svg"
   xmlns="http://www.w3.org/2000/svg"
   xmlns:sodipodi="http://sodipodi.sourceforge.net/DTD/sodipodi-0.dtd"
   xmlns:inkscape="http://www.inkscape.org/namespaces/inkscape"
   width="20mm"
   height="15mm"
   viewBox="0 0 70.866141 53.1496"
   id="svg3492"
   version="1.1"
   inkscape:version="0.91 r13725"
   sodipodi:docname="404.svg">
  <defs
     id="defs3494" />
  <sodipodi:namedview
     id="base"
     pagecolor="#ffffff"
     bordercolor="#666666"
     borderopacity="1.0"
     inkscape:pageopacity="0.0"
     inkscape:pageshadow="2"
     inkscape:zoom="5.6"
     inkscape:cx="19.323087"
     inkscape:cy="-6.2493495"
     inkscape:document-units="px"
     inkscape:current-layer="layer1"
     showgrid="false"
     inkscape:window-width="1920"
     inkscape:window-height="992"
     inkscape:window-x="0"
     inkscape:window-y="32"
     inkscape:window-maximized="1" />
  <metadata
     id="metadata3497">
    <rdf:RDF>
      <cc:Work
         rdf:about="">
        <dc:format>image/svg+xml</dc:format>
        <dc:type
           rdf:resource="http://purl.org/dc/dcmitype/StillImage" />
        <dc:title></dc:title>
      </cc:Work>
    </rdf:RDF>
  </metadata>
  <g
     inkscape:label="Capa 1"
     inkscape:groupmode="layer"
     id="layer1"
     transform="translate(0,-999.21259)">
    <path
       inkscape:connector-curvature="0"
       style="fill:#e50647"
       d="m 16.726478,1020.4507 c -1.37397,1.8445 -4.09244,2.3134 -6.01715,0.8797 l 0,0 c -1.8445205,-1.3739 -2.3134305,-4.0924 -0.8797305,-6.0171 l 10.1553805,-13.6334 c 1.37397,-1.84451 4.09244,-2.31341 6.01715,-0.8797 l 0,0 c 1.84452,1.374 2.31343,4.0925 0.87973,6.0172 l -10.15538,13.6333 z"
       id="path71" />
    <circle
       style="fill:#575756"
       cx="6.2339029"
       cy="1046.6599"
       r="4.3000002"
       id="circle73" />
    <path
       inkscape:connector-curvature="0"
       style="fill:#1199d6"
       d="m 44.024838,1021.5198 c -1.37009,-1.8474 -1.03536,-4.5856 0.89235,-6.0153 l 0,0 c 1.8474,-1.3701 4.58564,-1.0354 6.0153,0.8924 l 10.12673,13.6546 c 1.37009,1.8474 1.03536,4.5856 -0.89235,6.0153 l 0,0 c -1.8474,1.3701 -4.58564,1.0353 -6.0153,-0.8924 l -10.12673,-13.6546 z"
       id="path75" />
    <circle
       style="fill:#575756"
       cx="65.421524"
       cy="1027.0614"
       r="4.3000002"
       id="circle77" />
    <path
       inkscape:connector-curvature="0"
       style="fill:#d0c83d"
       d="m 35.487748,1022.7596 c -1.16526,1.9829 -3.81663,2.7447 -5.88582,1.5287 l 0,0 c -1.98297,-1.1652 -2.74469,-3.8166 -1.52877,-5.8858 l 4.30639,-7.3283 c 1.16526,-1.983 3.81663,-2.7447 5.88582,-1.5288 l 0,0 c 1.98297,1.1652 2.74469,3.8166 1.52877,5.8858 l -4.30639,7.3284 z"
       id="path81" />
    <path
       inkscape:connector-curvature="0"
       style="fill:#fac934"
       d="m 38.378778,1038.3986 c 1.85797,1.3558 2.35364,4.0695 0.93898,6.0082 l 0,0 c -1.35573,1.858 -4.06945,2.3536 -6.0082,0.939 l -6.86638,-5.0103 c -1.85795,-1.3557 -2.35362,-4.0694 -0.93896,-6.0082 l 0,0 c 1.35572,-1.8579 4.06945,-2.3536 6.00819,-0.939 l 6.86638,5.0103 z"
       id="path79"
       inkscape:transform-center-x="-16.258223"
       inkscape:transform-center-y="-31.278368" />
    <text
       xml:space="preserve"
       style="font-style:normal;font-variant:normal;font-weight:bold;font-stretch:normal;font-size:24.49880409px;line-height:125%;font-family:Dosis;-inkscape-font-specification:'Dosis, Bold';text-align:start;letter-spacing:0px;word-spacing:0px;writing-mode:lr-tb;text-anchor:start;fill:#000000;fill-opacity:1;stroke:none;stroke-width:1px;stroke-linecap:butt;stroke-linejoin:miter;stroke-opacity:1"
       x="7.6447473"
       y="1189.283"
       id="text3529"
       sodipodi:linespacing="125%"
       transform="scale(1.1502845,0.86935014)"><tspan
         sodipodi:role="line"
         id="tspan3531"
         x="7.6447473"
         y="1189.283">404</tspan></text>
  </g>
</svg>
