<?xml version="1.0" encoding="UTF-8" standalone="no"?>
<!-- Created with Inkscape (http://www.inkscape.org/) -->

<svg
   xmlns:dc="http://purl.org/dc/elements/1.1/"
   xmlns:cc="http://creativecommons.org/ns#"
   xmlns:rdf="http://www.w3.org/1999/02/22-rdf-syntax-ns#"
   xmlns:svg="http://www.w3.org/2000/svg"
   xmlns="http://www.w3.org/2000/svg"
   xmlns:sodipodi="http://sodipodi.sourceforge.net/DTD/sodipodi-0.dtd"
   xmlns:inkscape="http://www.inkscape.org/namespaces/inkscape"
   width="210mm"
   height="297mm"
   viewBox="0 0 744.09448819 1052.3622047"
   id="svg3521"
   version="1.1"
   inkscape:version="0.91 r13725"
   inkscape:export-filename="/home/franj/text83.png"
   inkscape:export-xdpi="108"
   inkscape:export-ydpi="108"
   sodipodi:docname="logoHead.svg">
  <defs
     id="defs3523" />
  <sodipodi:namedview
     id="base"
     pagecolor="#ffffff"
     bordercolor="#666666"
     borderopacity="1.0"
     inkscape:pageopacity="0.0"
     inkscape:pageshadow="2"
     inkscape:zoom="1.4"
     inkscape:cx="-1.3115856"
     inkscape:cy="887.41909"
     inkscape:document-units="px"
     inkscape:current-layer="layer1"
     showgrid="false"
     inkscape:window-width="1920"
     inkscape:window-height="992"
     inkscape:window-x="0"
     inkscape:window-y="32"
     inkscape:window-maximized="1" />
  <metadata
     id="metadata3526">
    <rdf:RDF>
      <cc:Work
         rdf:about="">
        <dc:format>image/svg+xml</dc:format>
        <dc:type
           rdf:resource="http://purl.org/dc/dcmitype/StillImage" />
        <dc:title></dc:title>
      </cc:Work>
    </rdf:RDF>
  </metadata>
  <g
     inkscape:label="Capa 1"
     inkscape:groupmode="layer"
     id="layer1">
    <text
       y="55.184578"
       x="67.856155"
       style="font-style:normal;font-variant:normal;font-weight:normal;font-stretch:normal;font-size:48.00000381px;line-height:125%;font-family:Dosis-Bold;-inkscape-font-specification:'Dosis-Bold, Normal';text-align:start;writing-mode:lr-tb;text-anchor:start;fill:#000000;"
       id="text83"
       sodipodi:linespacing="125%">OMI</text>
    <text
       transform="scale(0.94252412,1.0609808)"
       style="font-size:11.31028938px;font-family:Dosis-Medium;fill:#000000;"
       id="text85"
       x="21.902073"
       y="69.679558">Open Modular Interpreter</text>
    <path
       inkscape:connector-curvature="0"
       style="fill:#e50647"
       d="m 29.025629,38.171077 c 0,2.3 -1.9,4.3 -4.3,4.3 l 0,0 c -2.3,0 -4.3,-1.9 -4.3,-4.3 l 0,-17 c 0,-2.3 1.9,-4.3 4.3,-4.3 l 0,0 c 2.3,0 4.3,1.9 4.3,4.3 l 0,17 z"
       id="path87" />
    <circle
       style="fill:#575756"
       cx="24.82564"
       cy="50.971085"
       r="4.3000002"
       id="circle89" />
    <path
       inkscape:connector-curvature="0"
       style="fill:#1199d6"
       d="m 46.125629,33.971077 c 0,-2.3 1.9,-4.3 4.3,-4.3 l 0,0 c 2.3,0 4.3,1.9 4.3,4.3 l 0,17 c 0,2.3 -1.9,4.3 -4.3,4.3 l 0,0 c -2.3,0 -4.3,-1.9 -4.3,-4.3 l 0,-17 z"
       id="path91" />
    <circle
       style="fill:#575756"
       cx="50.325642"
       cy="21.17108"
       r="4.3000002"
       id="circle93" />
    <path
       inkscape:connector-curvature="0"
       style="fill:#ffde00"
       d="m 41.825629,50.971077 c 0,2.3 -1.9,4.3 -4.3,4.3 l 0,0 c -2.3,0 -4.3,-1.9 -4.3,-4.3 l 0,-8.5 c 0,-2.3 1.9,-4.3 4.3,-4.3 l 0,0 c 2.3,0 4.3,1.9 4.3,4.3 l 0,8.5 z"
       id="path95" />
    <path
       inkscape:connector-curvature="0"
       style="fill:#d0c83d"
       d="m 41.825629,29.671077 c 0,2.3 -1.9,4.3 -4.3,4.3 l 0,0 c -2.3,0 -4.3,-1.9 -4.3,-4.3 l 0,-8.5 c 0,-2.3 1.9,-4.3 4.3,-4.3 l 0,0 c 2.3,0 4.3,1.9 4.3,4.3 l 0,8.5 z"
       id="path97" />
  </g>
</svg>
