<?xml version="1.0" encoding="UTF-8" standalone="no"?>
<!-- Created by diasvg.py -->
<svg width="19.443cm" height="22.675cm" viewBox="11.900 2.350 31.343 25.025"
 xmlns="http://www.w3.org/2000/svg"
 xmlns:xlink="http://www.w3.org/1999/xlink">
<line x1="13.773" y1="8.500" x2="13.773" y2="10.250" stroke="#000000" stroke-width="0.050" stroke-dasharray="0.40,0.40"/>
<line x1="13.773" y1="20.750" x2="13.773" y2="25.000" stroke="#000000" stroke-width="0.050" stroke-dasharray="0.40,0.40"/>
<rect x="13.423" y="10.250" width="0.700" height="10.500" fill="#FFFFFF" stroke="none" stroke-width="0"/>
<rect x="13.423" y="10.250" width="0.700" height="10.500" fill="none" stroke="#000000" stroke-width="0.100" />
<rect x="11.950" y="6.700" width="3.645" height="1.800" fill="#FFFFFF" stroke="none" stroke-width="0"/>
<rect x="11.950" y="6.700" width="3.645" height="1.800" fill="none" stroke="#000000" stroke-width="0.100" />
<text x="13.772" y="7.795"  fill="#000000" text-anchor="middle" font-size="0.80" font-family="sans" font-style="normal" font-weight="400">
:Usuario</text>
<line x1="12.450" y1="7.945" x2="15.095" y2="7.945" stroke="#000000" stroke-width="0.050" />
<ellipse cx="13.850" cy="3.300" rx="0.300" ry="0.300" fill="#FFFFFF" stroke="none"  /><ellipse cx="13.850" cy="3.300" rx="0.300" ry="0.300" fill="none" stroke="#000000"  stroke-width="0.100" /><line x1="12.650" y1="3.900" x2="15.050" y2="3.900" stroke="#000000" stroke-width="0.100" />
<line x1="13.850" y1="3.600" x2="13.850" y2="5.100" stroke="#000000" stroke-width="0.100" />
<line x1="13.850" y1="5.100" x2="12.650" y2="6.400" stroke="#000000" stroke-width="0.100" />
<line x1="13.850" y1="5.100" x2="15.050" y2="6.400" stroke="#000000" stroke-width="0.100" />
<rect x="27.500" y="6.700" width="3.793" height="1.800" fill="#FFFFFF" stroke="none" stroke-width="0"/>
<rect x="27.500" y="6.700" width="3.793" height="1.800" fill="none" stroke="#000000" stroke-width="0.100" />
<text x="29.396" y="7.795"  fill="#000000" text-anchor="middle" font-size="0.80" font-family="sans" font-style="normal" font-weight="400">
:Sistema</text>
<line x1="28.000" y1="7.945" x2="30.793" y2="7.945" stroke="#000000" stroke-width="0.050" />
<line x1="29.396" y1="8.500" x2="29.396" y2="10.250" stroke="#000000" stroke-width="0.050" stroke-dasharray="0.40,0.40"/>
<line x1="29.396" y1="20.750" x2="29.396" y2="25.000" stroke="#000000" stroke-width="0.050" stroke-dasharray="0.40,0.40"/>
<rect x="29.046" y="10.250" width="0.700" height="10.500" fill="#FFFFFF" stroke="none" stroke-width="0"/>
<rect x="29.046" y="10.250" width="0.700" height="10.500" fill="none" stroke="#000000" stroke-width="0.100" />
<line x1="28.196" y1="12.000" x2="14.123" y2="12.000" stroke="#000000" stroke-width="0.100" />
<polygon fill="#000000" stroke="none" stroke-width="0.100" points="28.196,12.250 28.996,12.000 28.196,11.750 "/>
<polygon fill="none" stroke="#000000" stroke-width="0.100"  points="28.196,12.250 28.996,12.000 28.196,11.750 "/>
<text x="22.000" y="11.750"  fill="#000000" text-anchor="middle" font-size="0.80" font-family="sans" font-style="normal" font-weight="400">
ver_ayuda ()</text>
<line x1="14.973" y1="19.000" x2="29.046" y2="19.000" stroke="#000000" stroke-width="0.100" stroke-dasharray="0.40,0.40"/>
<polygon fill="#000000" stroke="none" stroke-width="0.100" points="14.973,18.750 14.173,19.000 14.973,19.250 "/>
<polygon fill="none" stroke="#000000" stroke-width="0.100"  points="14.973,18.750 14.173,19.000 14.973,19.250 "/>
<text x="21.950" y="18.650"  fill="#000000" text-anchor="middle" font-size="0.80" font-family="sans" font-style="normal" font-weight="400">
ayuda</text>
</svg>