<?xml version="1.0" encoding="UTF-8" standalone="no"?>
<!DOCTYPE svg PUBLIC "-//W3C//DTD SVG 1.0//EN" "http://www.w3.org/TR/2001/PR-SVG-20010719/DTD/svg10.dtd">
<svg width="8cm" height="11cm" viewBox="162 82 155 215" xmlns="http://www.w3.org/2000/svg" xmlns:xlink="http://www.w3.org/1999/xlink">
  <g>
    <rect style="fill: #ffffff" x="163" y="103.8" width="152" height="192.2"/>
    <rect style="fill: none; fill-opacity:0; stroke-width: 2; stroke: #000000" x="163" y="103.8" width="152" height="192.2"/>
    <rect style="fill: #ffffff" x="163" y="83.8" width="73.3" height="20"/>
    <rect style="fill: none; fill-opacity:0; stroke-width: 2; stroke: #000000" x="163" y="83.8" width="73.3" height="20"/>
    <text font-size="12.7998" style="fill: #000000;text-anchor:start;font-family:monospace;font-style:normal;font-weight:normal" x="165" y="98.8"> getppid </text>
  </g>
  <g>
    <rect style="fill: #ffffff" x="195" y="114.8" width="87.4" height="28"/>
    <rect style="fill: none; fill-opacity:0; stroke-width: 2; stroke: #000000" x="195" y="114.8" width="87.4" height="28"/>
    <text font-size="16" style="fill: #000000;text-anchor:middle;font-family:sans-serif;font-style:normal;font-weight:700" x="238.7" y="133.8">runNode</text>
  </g>
  <g>
    <rect style="fill: #ffffff" x="189" y="185.8" width="99.95" height="28"/>
    <rect style="fill: none; fill-opacity:0; stroke-width: 2; stroke: #000000" x="189" y="185.8" width="99.95" height="28"/>
    <text font-size="16" style="fill: #000000;text-anchor:middle;font-family:sans-serif;font-style:normal;font-weight:700" x="238.975" y="204.8">arithNode</text>
  </g>
  <g>
    <polyline style="fill: none; fill-opacity:0; stroke-width: 2; stroke: #000000" points="238.7,161.036 238.7,172.3 238.975,172.3 238.975,185.8 "/>
    <polygon style="fill: #ffffff" points="246.7,161.036 238.7,145.036 230.7,161.036 "/>
    <polygon style="fill: none; fill-opacity:0; stroke-width: 2; stroke: #000000" points="246.7,161.036 238.7,145.036 230.7,161.036 "/>
  </g>
  <g>
    <rect style="fill: #ffffff" x="176" y="252.8" width="126.5" height="28"/>
    <rect style="fill: none; fill-opacity:0; stroke-width: 2; stroke: #000000" x="176" y="252.8" width="126.5" height="28"/>
    <text font-size="16" style="fill: #000000;text-anchor:middle;font-family:sans-serif;font-style:normal;font-weight:700" x="239.25" y="271.8">getppidNode</text>
  </g>
  <g>
    <polyline style="fill: none; fill-opacity:0; stroke-width: 2; stroke: #000000" points="238.975,232.036 238.975,241.3 239.25,241.3 239.25,252.8 "/>
    <polygon style="fill: #ffffff" points="246.975,232.036 238.975,216.036 230.975,232.036 "/>
    <polygon style="fill: none; fill-opacity:0; stroke-width: 2; stroke: #000000" points="246.975,232.036 238.975,216.036 230.975,232.036 "/>
  </g>
</svg>
