<?xml version="1.0" encoding="UTF-8" standalone="no"?>
<!DOCTYPE svg PUBLIC "-//W3C//DTD SVG 1.0//EN" "http://www.w3.org/TR/2001/PR-SVG-20010719/DTD/svg10.dtd">
<svg width="27cm" height="10cm" viewBox="187 31 524 188" xmlns="http://www.w3.org/2000/svg" xmlns:xlink="http://www.w3.org/1999/xlink">
  <g>
    <rect style="fill: #ffffff" x="189" y="52" width="522" height="166"/>
    <rect style="fill: none; fill-opacity:0; stroke-width: 2; stroke: #000000" x="189" y="52" width="522" height="166"/>
    <rect style="fill: #ffffff" x="189" y="32" width="73.3" height="20"/>
    <rect style="fill: none; fill-opacity:0; stroke-width: 2; stroke: #000000" x="189" y="32" width="73.3" height="20"/>
    <text font-size="12.7998" style="fill: #000000;text-anchor:start;font-family:monospace;font-style:normal;font-weight:normal" x="191" y="47"> dowhile </text>
  </g>
  <g>
    <rect style="fill: #ffffff" x="522" y="170" width="127.2" height="28"/>
    <rect style="fill: none; fill-opacity:0; stroke-width: 2; stroke: #000000" x="522" y="170" width="127.2" height="28"/>
    <text font-size="16" style="fill: #000000;text-anchor:middle;font-family:sans-serif;font-style:normal;font-weight:700" x="585.6" y="189">dowhileNode</text>
  </g>
  <g>
    <rect style="fill: #ffffff" x="367" y="169.8" width="94.35" height="28"/>
    <rect style="fill: none; fill-opacity:0; stroke-width: 2; stroke: #000000" x="367" y="169.8" width="94.35" height="28"/>
    <text font-size="16" style="fill: #000000;text-anchor:middle;font-family:sans-serif;font-style:normal;font-weight:700" x="414.175" y="188.8">flowNode</text>
  </g>
  <g>
    <rect style="fill: #ffffff" x="208" y="169.8" width="87.4" height="28"/>
    <rect style="fill: none; fill-opacity:0; stroke-width: 2; stroke: #000000" x="208" y="169.8" width="87.4" height="28"/>
    <text font-size="16" style="fill: #000000;text-anchor:middle;font-family:sans-serif;font-style:normal;font-weight:700" x="251.7" y="188.8">runNode</text>
  </g>
  <g>
    <polyline style="fill: none; fill-opacity:0; stroke-width: 2; stroke: #000000" points="313.636,183.8 312.4,183.8 366,183.8 367,183.8 "/>
    <polygon style="fill: #ffffff" points="313.636,175.8 297.636,183.8 313.636,191.8 "/>
    <polygon style="fill: none; fill-opacity:0; stroke-width: 2; stroke: #000000" points="313.636,175.8 297.636,183.8 313.636,191.8 "/>
  </g>
  <g>
    <polyline style="fill: none; fill-opacity:0; stroke-width: 2; stroke: #000000" points="480.592,183.8 500.178,183.8 500.178,184 522,184 "/>
    <polygon style="fill: #ffffff" points="480.592,175.8 464.592,183.8 480.592,191.8 "/>
    <polygon style="fill: none; fill-opacity:0; stroke-width: 2; stroke: #000000" points="480.592,175.8 464.592,183.8 480.592,191.8 "/>
  </g>
  <g>
    <polyline style="fill: none; fill-opacity:0; stroke-width: 2; stroke: #000000" points="674.372,184 682,184 682,104 279,104 279,104 251.7,104 251.7,169.8 "/>
    <polygon style="fill: #ffffff" points="649.2,184 663.2,179.2 677.2,184 663.2,188.8 "/>
    <polygon style="fill: none; fill-opacity:0; stroke-width: 2; stroke: #000000" points="649.2,184 663.2,179.2 677.2,184 663.2,188.8 "/>
    <text font-size="12.7998" style="fill: #000000;text-anchor:middle;font-family:monospace;font-style:normal;font-weight:normal" x="480.5" y="101">do</text>
    <text font-size="12.7998" style="fill: #000000;text-anchor:start;font-family:monospace;font-style:normal;font-weight:normal" x="681.2" y="181"/>
    <text font-size="12.7998" style="fill: #000000;text-anchor:start;font-family:monospace;font-style:normal;font-weight:normal" x="255.7" y="165.8">1</text>
  </g>
  <g>
    <polyline style="fill: none; fill-opacity:0; stroke-width: 2; stroke: #000000" points="674.372,198 694,198 694,81 257,81 257,81 208,81 208,169.8 "/>
    <polygon style="fill: #ffffff" points="649.2,198 663.2,193.2 677.2,198 663.2,202.8 "/>
    <polygon style="fill: none; fill-opacity:0; stroke-width: 2; stroke: #000000" points="649.2,198 663.2,193.2 677.2,198 663.2,202.8 "/>
    <text font-size="12.7998" style="fill: #000000;text-anchor:middle;font-family:monospace;font-style:normal;font-weight:normal" x="475.5" y="78">cond</text>
    <text font-size="12.7998" style="fill: #000000;text-anchor:start;font-family:monospace;font-style:normal;font-weight:normal" x="681.2" y="195"/>
    <text font-size="12.7998" style="fill: #000000;text-anchor:start;font-family:monospace;font-style:normal;font-weight:normal" x="212" y="165.8">1</text>
  </g>
</svg>
