<?xml version="1.0" encoding="UTF-8" standalone="no"?>
<!DOCTYPE svg PUBLIC "-//W3C//DTD SVG 1.0//EN" "http://www.w3.org/TR/2001/PR-SVG-20010719/DTD/svg10.dtd">
<svg width="27cm" height="18cm" viewBox="505 181 539 358" xmlns="http://www.w3.org/2000/svg" xmlns:xlink="http://www.w3.org/1999/xlink">
  <g>
    <rect style="fill: #ffffff" x="615" y="245" width="86.9" height="36"/>
    <rect style="fill: none; fill-opacity:0; stroke-width: 2; stroke: #000000" x="615" y="245" width="86.9" height="36"/>
    <text font-size="12.7998" style="fill: #000000;text-anchor:middle;font-family:sans-serif;font-style:normal;font-weight:normal" x="658.45" y="266.9">
      <tspan x="658.45" y="266.9">:stmtNode</tspan>
    </text>
    <line style="fill: none; fill-opacity:0; stroke-width: 1; stroke: #000000" x1="625" y1="269.9" x2="691.9" y2="269.9"/>
  </g>
  <g>
    <rect style="fill: #ffffff" x="736" y="312" width="81.95" height="36"/>
    <rect style="fill: none; fill-opacity:0; stroke-width: 2; stroke: #000000" x="736" y="312" width="81.95" height="36"/>
    <text font-size="12.7998" style="fill: #000000;text-anchor:middle;font-family:sans-serif;font-style:normal;font-weight:normal" x="776.975" y="333.9">
      <tspan x="776.975" y="333.9">:addNode</tspan>
    </text>
    <line style="fill: none; fill-opacity:0; stroke-width: 1; stroke: #000000" x1="746" y1="336.9" x2="807.95" y2="336.9"/>
  </g>
  <g>
    <polygon style="fill: #ffffff" points="699,182 851.3,182 863.3,194 863.3,216 699,216 "/>
    <polygon style="fill: none; fill-opacity:0; stroke-width: 2; stroke: #000000" points="699,182 851.3,182 863.3,194 863.3,216 699,216 "/>
    <polyline style="fill: none; fill-opacity:0; stroke-width: 1; stroke: #000000" points="851.3,182 851.3,194 863.3,194 "/>
    <text font-size="12.7998" style="fill: #000000;text-anchor:start;font-family:monospace;font-style:normal;font-weight:normal" x="706" y="206.9">
      <tspan x="706" y="206.9"> 8 * 3 + 4 / 2 - 1;</tspan>
    </text>
  </g>
  <line style="fill: none; fill-opacity:0; stroke-width: 2; stroke: #000000" x1="701.9" y1="245" x2="781.15" y2="216"/>
  <line style="fill: none; fill-opacity:0; stroke-width: 2; stroke: #000000" x1="701.9" y1="281" x2="776.975" y2="312"/>
  <g>
    <polygon style="fill: #ffffff" points="778,390 791.7,390 803.7,402 803.7,424 778,424 "/>
    <polygon style="fill: none; fill-opacity:0; stroke-width: 2; stroke: #000000" points="778,390 791.7,390 803.7,402 803.7,424 778,424 "/>
    <polyline style="fill: none; fill-opacity:0; stroke-width: 1; stroke: #000000" points="791.7,390 791.7,402 803.7,402 "/>
    <text font-size="12.7998" style="fill: #000000;text-anchor:start;font-family:monospace;font-style:normal;font-weight:normal" x="785" y="414.9">
      <tspan x="785" y="414.9">2</tspan>
    </text>
  </g>
  <g>
    <rect style="fill: #ffffff" x="607" y="368" width="86.9" height="36"/>
    <rect style="fill: none; fill-opacity:0; stroke-width: 2; stroke: #000000" x="607" y="368" width="86.9" height="36"/>
    <text font-size="12.7998" style="fill: #000000;text-anchor:middle;font-family:sans-serif;font-style:normal;font-weight:normal" x="650.45" y="389.9">
      <tspan x="650.45" y="389.9">:prodNode</tspan>
    </text>
    <line style="fill: none; fill-opacity:0; stroke-width: 1; stroke: #000000" x1="617" y1="392.9" x2="683.9" y2="392.9"/>
  </g>
  <g>
    <rect style="fill: #ffffff" x="507" y="431.9" width="104.2" height="36"/>
    <rect style="fill: none; fill-opacity:0; stroke-width: 2; stroke: #000000" x="507" y="431.9" width="104.2" height="36"/>
    <text font-size="12.7998" style="fill: #000000;text-anchor:middle;font-family:sans-serif;font-style:normal;font-weight:normal" x="559.1" y="453.8">
      <tspan x="559.1" y="453.8">N8:numNode</tspan>
    </text>
    <line style="fill: none; fill-opacity:0; stroke-width: 1; stroke: #000000" x1="517" y1="456.8" x2="601.2" y2="456.8"/>
  </g>
  <g>
    <rect style="fill: #ffffff" x="652" y="431.9" width="104.2" height="36"/>
    <rect style="fill: none; fill-opacity:0; stroke-width: 2; stroke: #000000" x="652" y="431.9" width="104.2" height="36"/>
    <text font-size="12.7998" style="fill: #000000;text-anchor:middle;font-family:sans-serif;font-style:normal;font-weight:normal" x="704.1" y="453.8">
      <tspan x="704.1" y="453.8">N3:numNode</tspan>
    </text>
    <line style="fill: none; fill-opacity:0; stroke-width: 1; stroke: #000000" x1="662" y1="456.8" x2="746.2" y2="456.8"/>
  </g>
  <g>
    <rect style="fill: #ffffff" x="880" y="368" width="80.7" height="36"/>
    <rect style="fill: none; fill-opacity:0; stroke-width: 2; stroke: #000000" x="880" y="368" width="80.7" height="36"/>
    <text font-size="12.7998" style="fill: #000000;text-anchor:middle;font-family:sans-serif;font-style:normal;font-weight:normal" x="920.35" y="389.9">
      <tspan x="920.35" y="389.9">:subNode</tspan>
    </text>
    <line style="fill: none; fill-opacity:0; stroke-width: 1; stroke: #000000" x1="890" y1="392.9" x2="950.7" y2="392.9"/>
  </g>
  <g>
    <rect style="fill: #ffffff" x="814" y="431.9" width="77.1" height="36"/>
    <rect style="fill: none; fill-opacity:0; stroke-width: 2; stroke: #000000" x="814" y="431.9" width="77.1" height="36"/>
    <text font-size="12.7998" style="fill: #000000;text-anchor:middle;font-family:sans-serif;font-style:normal;font-weight:normal" x="852.55" y="453.8">
      <tspan x="852.55" y="453.8">:divNode</tspan>
    </text>
    <line style="fill: none; fill-opacity:0; stroke-width: 1; stroke: #000000" x1="824" y1="456.8" x2="881.1" y2="456.8"/>
  </g>
  <g>
    <rect style="fill: #ffffff" x="730" y="501.5" width="104.2" height="36"/>
    <rect style="fill: none; fill-opacity:0; stroke-width: 2; stroke: #000000" x="730" y="501.5" width="104.2" height="36"/>
    <text font-size="12.7998" style="fill: #000000;text-anchor:middle;font-family:sans-serif;font-style:normal;font-weight:normal" x="782.1" y="523.4">
      <tspan x="782.1" y="523.4">N4:numNode</tspan>
    </text>
    <line style="fill: none; fill-opacity:0; stroke-width: 1; stroke: #000000" x1="740" y1="526.4" x2="824.2" y2="526.4"/>
  </g>
  <g>
    <rect style="fill: #ffffff" x="871" y="501.5" width="104.2" height="36"/>
    <rect style="fill: none; fill-opacity:0; stroke-width: 2; stroke: #000000" x="871" y="501.5" width="104.2" height="36"/>
    <text font-size="12.7998" style="fill: #000000;text-anchor:middle;font-family:sans-serif;font-style:normal;font-weight:normal" x="923.1" y="523.4">
      <tspan x="923.1" y="523.4">N2:numNode</tspan>
    </text>
    <line style="fill: none; fill-opacity:0; stroke-width: 1; stroke: #000000" x1="881" y1="526.4" x2="965.2" y2="526.4"/>
  </g>
  <g>
    <rect style="fill: #ffffff" x="939" y="431.9" width="104.2" height="36"/>
    <rect style="fill: none; fill-opacity:0; stroke-width: 2; stroke: #000000" x="939" y="431.9" width="104.2" height="36"/>
    <text font-size="12.7998" style="fill: #000000;text-anchor:middle;font-family:sans-serif;font-style:normal;font-weight:normal" x="991.1" y="453.8">
      <tspan x="991.1" y="453.8">N1:numNode</tspan>
    </text>
    <line style="fill: none; fill-opacity:0; stroke-width: 1; stroke: #000000" x1="949" y1="456.8" x2="1033.2" y2="456.8"/>
  </g>
  <line style="fill: none; fill-opacity:0; stroke-width: 2; stroke: #000000" x1="776.975" y1="348" x2="650.45" y2="368"/>
  <line style="fill: none; fill-opacity:0; stroke-width: 2; stroke: #000000" x1="776.975" y1="348" x2="920.35" y2="368"/>
  <line style="fill: none; fill-opacity:0; stroke-width: 2; stroke: #000000" x1="650.45" y1="404" x2="559.1" y2="431.9"/>
  <line style="fill: none; fill-opacity:0; stroke-width: 2; stroke: #000000" x1="650.45" y1="404" x2="704.1" y2="431.9"/>
  <line style="fill: none; fill-opacity:0; stroke-width: 2; stroke: #000000" x1="920.35" y1="404" x2="852.55" y2="431.9"/>
  <line style="fill: none; fill-opacity:0; stroke-width: 2; stroke: #000000" x1="852.55" y1="467.9" x2="782.1" y2="501.5"/>
  <line style="fill: none; fill-opacity:0; stroke-width: 2; stroke: #000000" x1="852.55" y1="467.9" x2="923.1" y2="501.5"/>
  <line style="fill: none; fill-opacity:0; stroke-width: 2; stroke: #000000" x1="920.35" y1="404" x2="991.1" y2="431.9"/>
  <g>
    <line style="fill: none; fill-opacity:0; stroke-width: 2; stroke: #000000" x1="745.465" y1="284.096" x2="725" y2="275"/>
    <polygon style="fill: #000000" points="743.435,288.665 760.086,290.594 747.496,279.527 "/>
    <polygon style="fill: none; fill-opacity:0; stroke-width: 2; stroke: #000000" points="743.435,288.665 760.086,290.594 747.496,279.527 "/>
    <text font-size="12.7998" style="fill: #000000;text-anchor:middle;font-family:sans-serif;font-style:normal;font-weight:normal" x="751" y="272">run()</text>
  </g>
  <g>
    <line style="fill: none; fill-opacity:0; stroke-width: 2; stroke: #000000" x1="691.733" y1="348.997" x2="714" y2="345"/>
    <polygon style="fill: #000000" points="690.849,344.075 675.984,351.823 692.616,353.918 "/>
    <polygon style="fill: none; fill-opacity:0; stroke-width: 2; stroke: #000000" points="690.849,344.075 675.984,351.823 692.616,353.918 "/>
    <text font-size="12.7998" style="fill: #000000;text-anchor:middle;font-family:sans-serif;font-style:normal;font-weight:normal" x="684.5" y="338.5">1: run()</text>
  </g>
  <g>
    <line style="fill: none; fill-opacity:0; stroke-width: 2; stroke: #000000" x1="576.9" y1="414.984" x2="598" y2="407"/>
    <polygon style="fill: #000000" points="575.13,410.307 561.935,420.646 578.669,419.66 "/>
    <polygon style="fill: none; fill-opacity:0; stroke-width: 2; stroke: #000000" points="575.13,410.307 561.935,420.646 578.669,419.66 "/>
    <text font-size="12.7998" style="fill: #000000;text-anchor:middle;font-family:sans-serif;font-style:normal;font-weight:normal" x="565" y="404">2: run()</text>
  </g>
  <g>
    <line style="fill: none; fill-opacity:0; stroke-width: 2; stroke: #000000" x1="705.9" y1="417.19" x2="692" y2="410"/>
    <polygon style="fill: #000000" points="703.603,421.631 720.112,424.541 708.197,412.749 "/>
    <polygon style="fill: none; fill-opacity:0; stroke-width: 2; stroke: #000000" points="703.603,421.631 720.112,424.541 708.197,412.749 "/>
    <text font-size="12.7998" style="fill: #000000;text-anchor:middle;font-family:sans-serif;font-style:normal;font-weight:normal" x="734" y="411">3: run()</text>
  </g>
  <g>
    <line style="fill: none; fill-opacity:0; stroke-width: 2; stroke: #000000" x1="858.244" y1="348.128" x2="840" y2="345"/>
    <polygon style="fill: #000000" points="857.4,353.056 874.014,350.831 859.089,343.2 "/>
    <polygon style="fill: none; fill-opacity:0; stroke-width: 2; stroke: #000000" points="857.4,353.056 874.014,350.831 859.089,343.2 "/>
    <text font-size="12.7998" style="fill: #000000;text-anchor:middle;font-family:sans-serif;font-style:normal;font-weight:normal" x="865" y="336">4: run()</text>
  </g>
  <g>
    <line style="fill: none; fill-opacity:0; stroke-width: 2; stroke: #000000" x1="860.895" y1="414.971" x2="874" y2="410"/>
    <polygon style="fill: #000000" points="859.122,410.296 845.935,420.645 862.668,419.646 "/>
    <polygon style="fill: none; fill-opacity:0; stroke-width: 2; stroke: #000000" points="859.122,410.296 845.935,420.645 862.668,419.646 "/>
    <text font-size="12.7998" style="fill: #000000;text-anchor:middle;font-family:sans-serif;font-style:normal;font-weight:normal" x="844" y="407">5: run()</text>
  </g>
  <g>
    <line style="fill: none; fill-opacity:0; stroke-width: 2; stroke: #000000" x1="804.145" y1="482.57" x2="814" y2="476"/>
    <polygon style="fill: #000000" points="801.371,478.41 790.832,491.445 806.918,486.73 "/>
    <polygon style="fill: none; fill-opacity:0; stroke-width: 2; stroke: #000000" points="801.371,478.41 790.832,491.445 806.918,486.73 "/>
    <text font-size="12.7998" style="fill: #000000;text-anchor:middle;font-family:sans-serif;font-style:normal;font-weight:normal" x="768" y="486">6: run()</text>
  </g>
  <g>
    <line style="fill: none; fill-opacity:0; stroke-width: 2; stroke: #000000" x1="907.584" y1="481.99" x2="898" y2="476"/>
    <polygon style="fill: #000000" points="904.934,486.23 921.152,490.47 910.234,477.75 "/>
    <polygon style="fill: none; fill-opacity:0; stroke-width: 2; stroke: #000000" points="904.934,486.23 921.152,490.47 910.234,477.75 "/>
    <text font-size="12.7998" style="fill: #000000;text-anchor:middle;font-family:sans-serif;font-style:normal;font-weight:normal" x="947" y="486">7: run()</text>
  </g>
  <g>
    <line style="fill: none; fill-opacity:0; stroke-width: 2; stroke: #000000" x1="986.908" y1="415.175" x2="975" y2="409"/>
    <polygon style="fill: #000000" points="984.607,419.613 1001.11,422.54 989.21,410.736 "/>
    <polygon style="fill: none; fill-opacity:0; stroke-width: 2; stroke: #000000" points="984.607,419.613 1001.11,422.54 989.21,410.736 "/>
    <text font-size="12.7998" style="fill: #000000;text-anchor:middle;font-family:sans-serif;font-style:normal;font-weight:normal" x="1012" y="408">8: run()</text>
  </g>
  <g>
    <polygon style="fill: #ffffff" points="563,329 584.4,329 596.4,341 596.4,363 563,363 "/>
    <polygon style="fill: none; fill-opacity:0; stroke-width: 2; stroke: #000000" points="563,329 584.4,329 596.4,341 596.4,363 563,363 "/>
    <polyline style="fill: none; fill-opacity:0; stroke-width: 1; stroke: #000000" points="584.4,329 584.4,341 596.4,341 "/>
    <text font-size="12.7998" style="fill: #000000;text-anchor:start;font-family:monospace;font-style:normal;font-weight:normal" x="570" y="353.9">
      <tspan x="570" y="353.9">24</tspan>
    </text>
  </g>
  <line style="fill: none; fill-opacity:0; stroke-width: 2; stroke: #000000" x1="596.4" y1="363" x2="607" y2="368"/>
  <line style="fill: none; fill-opacity:0; stroke-width: 2; stroke: #000000" x1="803.7" y1="424" x2="814" y2="431.9"/>
  <g>
    <polygon style="fill: #ffffff" points="973,323 986.7,323 998.7,335 998.7,357 973,357 "/>
    <polygon style="fill: none; fill-opacity:0; stroke-width: 2; stroke: #000000" points="973,323 986.7,323 998.7,335 998.7,357 973,357 "/>
    <polyline style="fill: none; fill-opacity:0; stroke-width: 1; stroke: #000000" points="986.7,323 986.7,335 998.7,335 "/>
    <text font-size="12.7998" style="fill: #000000;text-anchor:start;font-family:monospace;font-style:normal;font-weight:normal" x="980" y="347.9">
      <tspan x="980" y="347.9">1</tspan>
    </text>
  </g>
  <line style="fill: none; fill-opacity:0; stroke-width: 2; stroke: #000000" x1="960.7" y1="368" x2="973" y2="357"/>
  <g>
    <polygon style="fill: #ffffff" points="828,265 849.4,265 861.4,277 861.4,299 828,299 "/>
    <polygon style="fill: none; fill-opacity:0; stroke-width: 2; stroke: #000000" points="828,265 849.4,265 861.4,277 861.4,299 828,299 "/>
    <polyline style="fill: none; fill-opacity:0; stroke-width: 1; stroke: #000000" points="849.4,265 849.4,277 861.4,277 "/>
    <text font-size="12.7998" style="fill: #000000;text-anchor:start;font-family:monospace;font-style:normal;font-weight:normal" x="835" y="289.9">
      <tspan x="835" y="289.9">25</tspan>
    </text>
  </g>
  <line style="fill: none; fill-opacity:0; stroke-width: 2; stroke: #000000" x1="828" y1="299" x2="817.95" y2="312"/>
</svg>
