<?xml version="1.0" encoding="UTF-8" standalone="no"?>
<!DOCTYPE svg PUBLIC "-//W3C//DTD SVG 1.0//EN" "http://www.w3.org/TR/2001/PR-SVG-20010719/DTD/svg10.dtd">
<svg width="32cm" height="18cm" viewBox="325 139 637 347" xmlns="http://www.w3.org/2000/svg" xmlns:xlink="http://www.w3.org/1999/xlink">
  <g>
    <rect style="fill: #ffffff" x="356" y="265" width="86.9" height="36"/>
    <rect style="fill: none; fill-opacity:0; stroke-width: 2; stroke: #000000" x="356" y="265" width="86.9" height="36"/>
    <text font-size="12.7998" style="fill: #000000;text-anchor:middle;font-family:sans-serif;font-style:normal;font-weight:normal" x="399.45" y="286.9">
      <tspan x="399.45" y="286.9">:stmtNode</tspan>
    </text>
    <line style="fill: none; fill-opacity:0; stroke-width: 1; stroke: #000000" x1="366" y1="289.9" x2="432.9" y2="289.9"/>
  </g>
  <g>
    <rect style="fill: #ffffff" x="472" y="323" width="79.7" height="36"/>
    <rect style="fill: none; fill-opacity:0; stroke-width: 2; stroke: #000000" x="472" y="323" width="79.7" height="36"/>
    <text font-size="12.7998" style="fill: #000000;text-anchor:middle;font-family:sans-serif;font-style:normal;font-weight:normal" x="511.85" y="344.9">
      <tspan x="511.85" y="344.9">asigNode</tspan>
    </text>
    <line style="fill: none; fill-opacity:0; stroke-width: 1; stroke: #000000" x1="482" y1="347.9" x2="541.7" y2="347.9"/>
  </g>
  <line style="fill: none; fill-opacity:0; stroke-width: 2; stroke: #000000" x1="442.9" y1="301" x2="472" y2="323"/>
  <g>
    <rect style="fill: #ffffff" x="594" y="373" width="77.35" height="36"/>
    <rect style="fill: none; fill-opacity:0; stroke-width: 2; stroke: #000000" x="594" y="373" width="77.35" height="36"/>
    <text font-size="12.7998" style="fill: #000000;text-anchor:middle;font-family:sans-serif;font-style:normal;font-weight:normal" x="632.675" y="394.9">
      <tspan x="632.675" y="394.9">a:idNode</tspan>
    </text>
    <line style="fill: none; fill-opacity:0; stroke-width: 1; stroke: #000000" x1="604" y1="397.9" x2="661.35" y2="397.9"/>
  </g>
  <line style="fill: none; fill-opacity:0; stroke-width: 2; stroke: #000000" x1="551.7" y1="341" x2="594" y2="391"/>
  <g>
    <rect style="fill: #ffffff" x="609" y="236" width="109.15" height="36"/>
    <rect style="fill: none; fill-opacity:0; stroke-width: 2; stroke: #000000" x="609" y="236" width="109.15" height="36"/>
    <text font-size="12.7998" style="fill: #000000;text-anchor:middle;font-family:sans-serif;font-style:normal;font-weight:normal" x="663.575" y="257.9">
      <tspan x="663.575" y="257.9">sum:addNode</tspan>
    </text>
    <line style="fill: none; fill-opacity:0; stroke-width: 1; stroke: #000000" x1="619" y1="260.9" x2="708.15" y2="260.9"/>
  </g>
  <line style="fill: none; fill-opacity:0; stroke-width: 2; stroke: #000000" x1="551.7" y1="341" x2="609" y2="254"/>
  <g>
    <rect style="fill: #ffffff" x="777" y="189" width="114.2" height="36"/>
    <rect style="fill: none; fill-opacity:0; stroke-width: 2; stroke: #000000" x="777" y="189" width="114.2" height="36"/>
    <text font-size="12.7998" style="fill: #000000;text-anchor:middle;font-family:sans-serif;font-style:normal;font-weight:normal" x="834.1" y="210.9">
      <tspan x="834.1" y="210.9">N(4):numNode</tspan>
    </text>
    <line style="fill: none; fill-opacity:0; stroke-width: 1; stroke: #000000" x1="787" y1="213.9" x2="881.2" y2="213.9"/>
  </g>
  <g>
    <rect style="fill: #ffffff" x="786" y="272.8" width="114.2" height="36"/>
    <rect style="fill: none; fill-opacity:0; stroke-width: 2; stroke: #000000" x="786" y="272.8" width="114.2" height="36"/>
    <text font-size="12.7998" style="fill: #000000;text-anchor:middle;font-family:sans-serif;font-style:normal;font-weight:normal" x="843.1" y="294.7">
      <tspan x="843.1" y="294.7">N(6):numNode</tspan>
    </text>
    <line style="fill: none; fill-opacity:0; stroke-width: 1; stroke: #000000" x1="796" y1="297.7" x2="890.2" y2="297.7"/>
  </g>
  <line style="fill: none; fill-opacity:0; stroke-width: 2; stroke: #000000" x1="718.15" y1="254" x2="777" y2="207"/>
  <line style="fill: none; fill-opacity:0; stroke-width: 2; stroke: #000000" x1="718.15" y1="254" x2="786" y2="290.8"/>
  <g>
    <rect style="fill: #ffffff" x="835" y="371.841" width="72.6" height="36"/>
    <rect style="fill: none; fill-opacity:0; stroke-width: 2; stroke: #000000" x="835" y="371.841" width="72.6" height="36"/>
    <text font-size="12.7998" style="fill: #000000;text-anchor:middle;font-family:sans-serif;font-style:normal;font-weight:normal" x="871.3" y="393.741">
      <tspan x="871.3" y="393.741">:context</tspan>
    </text>
    <line style="fill: none; fill-opacity:0; stroke-width: 1; stroke: #000000" x1="845" y1="396.741" x2="897.6" y2="396.741"/>
  </g>
  <g>
    <rect style="fill: #ffffff" x="822" y="449" width="99.4" height="36"/>
    <rect style="fill: none; fill-opacity:0; stroke-width: 2; stroke: #000000" x="822" y="449" width="99.4" height="36"/>
    <text font-size="12.7998" style="fill: #000000;text-anchor:middle;font-family:sans-serif;font-style:normal;font-weight:normal" x="871.7" y="470.9">
      <tspan x="871.7" y="470.9">:varSymbols</tspan>
    </text>
    <line style="fill: none; fill-opacity:0; stroke-width: 1; stroke: #000000" x1="832" y1="473.9" x2="911.4" y2="473.9"/>
  </g>
  <g>
    <rect style="fill: #ffffff" x="732" y="376.42" width="45.45" height="28"/>
    <rect style="fill: none; fill-opacity:0; stroke-width: 2; stroke: #000000" x="732" y="376.42" width="45.45" height="28"/>
    <text font-size="16" style="fill: #000000;text-anchor:middle;font-family:sans-serif;font-style:normal;font-weight:700" x="754.725" y="395.42">OMI</text>
  </g>
  <g>
    <line style="fill: none; fill-opacity:0; stroke-width: 2; stroke: #000000" x1="578.064" y1="279.782" x2="571.382" y2="289.377"/>
    <polygon style="fill: #000000" points="582.167,282.64 587.208,266.653 573.961,276.925 "/>
    <polygon style="fill: none; fill-opacity:0; stroke-width: 2; stroke: #000000" points="582.167,282.64 587.208,266.653 573.961,276.925 "/>
    <text font-size="12.7998" style="fill: #000000;text-anchor:middle;font-family:sans-serif;font-style:normal;font-weight:normal" x="543.581" y="279.104">1: run()</text>
  </g>
  <g>
    <rect style="fill: #ffffff" x="583.466" y="140.58" width="159.15" height="36"/>
    <rect style="fill: none; fill-opacity:0; stroke-width: 2; stroke: #000000" x="583.466" y="140.58" width="159.15" height="36"/>
    <text font-size="12.7998" style="fill: #000000;text-anchor:middle;font-family:sans-serif;font-style:normal;font-weight:normal" x="663.041" y="162.48">
      <tspan x="663.041" y="162.48">N10:numNode {new}</tspan>
    </text>
    <line style="fill: none; fill-opacity:0; stroke-width: 1; stroke: #000000" x1="593.466" y1="165.48" x2="732.616" y2="165.48"/>
  </g>
  <g>
    <line style="fill: none; fill-opacity:0; stroke-width: 2; stroke: #000000" x1="741.314" y1="222.5" x2="729.891" y2="231.776"/>
    <polygon style="fill: #000000" points="744.466,226.382 753.735,212.414 738.162,218.619 "/>
    <polygon style="fill: none; fill-opacity:0; stroke-width: 2; stroke: #000000" points="744.466,226.382 753.735,212.414 738.162,218.619 "/>
    <text font-size="12.7998" style="fill: #000000;text-anchor:middle;font-family:sans-serif;font-style:normal;font-weight:normal" x="708.701" y="220.28">2: run()</text>
  </g>
  <g>
    <line style="fill: none; fill-opacity:0; stroke-width: 2; stroke: #000000" x1="746.889" y1="282.552" x2="733.42" y2="274.375"/>
    <polygon style="fill: #000000" points="744.294,286.826 760.566,290.856 749.484,278.279 "/>
    <polygon style="fill: none; fill-opacity:0; stroke-width: 2; stroke: #000000" points="744.294,286.826 760.566,290.856 749.484,278.279 "/>
    <text font-size="12.7998" style="fill: #000000;text-anchor:middle;font-family:sans-serif;font-style:normal;font-weight:normal" x="721.42" y="300.875">3: run()</text>
  </g>
  <line style="fill: none; fill-opacity:0; stroke-width: 2; stroke: #000000" x1="663.575" y1="236" x2="663.041" y2="176.58"/>
  <g>
    <line style="fill: none; fill-opacity:0; stroke-width: 2; stroke: #000000" x1="648" y1="201" x2="648" y2="221"/>
    <polygon style="fill: #000000" points="653,201 648,185 643,201 "/>
    <polygon style="fill: none; fill-opacity:0; stroke-width: 2; stroke: #000000" points="653,201 648,185 643,201 "/>
    <text font-size="12.7998" style="fill: #000000;text-anchor:middle;font-family:sans-serif;font-style:normal;font-weight:normal" x="594" y="209">5: create (10)</text>
  </g>
  <g>
    <line style="fill: none; fill-opacity:0; stroke-width: 2; stroke: #000000" x1="565.769" y1="381.319" x2="557.204" y2="371.898"/>
    <polygon style="fill: #000000" points="562.069,384.682 576.532,393.158 569.469,377.955 "/>
    <polygon style="fill: none; fill-opacity:0; stroke-width: 2; stroke: #000000" points="562.069,384.682 576.532,393.158 569.469,377.955 "/>
    <text font-size="12.7998" style="fill: #000000;text-anchor:middle;font-family:sans-serif;font-style:normal;font-weight:normal" x="533.204" y="388.398">6: run()</text>
  </g>
  <line style="fill: none; fill-opacity:0; stroke-width: 2; stroke: #000000" x1="672.353" y1="390.768" x2="732" y2="390.42"/>
  <g>
    <line style="fill: none; fill-opacity:0; stroke-width: 2; stroke: #000000" x1="697.441" y1="378.552" x2="685.744" y2="378.932"/>
    <polygon style="fill: #000000" points="697.603,383.549 713.432,378.032 697.279,373.555 "/>
    <polygon style="fill: none; fill-opacity:0; stroke-width: 2; stroke: #000000" points="697.603,383.549 713.432,378.032 697.279,373.555 "/>
    <text font-size="12.7998" style="fill: #000000;text-anchor:middle;font-family:sans-serif;font-style:normal;font-weight:normal" x="705.088" y="363.966">7: getVar("a")</text>
  </g>
  <line style="fill: none; fill-opacity:0; stroke-width: 2; stroke: #000000" x1="777.45" y1="390.42" x2="835" y2="389.841"/>
  <g>
    <line style="fill: none; fill-opacity:0; stroke-width: 2; stroke: #000000" x1="807.032" y1="377.297" x2="794.219" y2="377.671"/>
    <polygon style="fill: #000000" points="807.178,382.294 823.025,376.829 806.886,372.299 "/>
    <polygon style="fill: none; fill-opacity:0; stroke-width: 2; stroke: #000000" points="807.178,382.294 823.025,376.829 806.886,372.299 "/>
    <text font-size="12.7998" style="fill: #000000;text-anchor:middle;font-family:sans-serif;font-style:normal;font-weight:normal" x="814.122" y="362.735">8: getVar("a")</text>
  </g>
  <line style="fill: none; fill-opacity:0; stroke-width: 2; stroke: #000000" x1="871.3" y1="407.841" x2="871.7" y2="449"/>
  <polyline style="fill: none; fill-opacity:0; stroke-width: 2; stroke: #000000" points="632.675,409 632.675,453 326,453 326,158.58 583.466,158.58 "/>
  <g>
    <line style="fill: none; fill-opacity:0; stroke-width: 2; stroke: #000000" x1="883.957" y1="426.216" x2="884.039" y2="412.988"/>
    <polygon style="fill: #000000" points="878.957,426.185 883.859,442.216 888.957,426.247 "/>
    <polygon style="fill: none; fill-opacity:0; stroke-width: 2; stroke: #000000" points="878.957,426.185 883.859,442.216 888.957,426.247 "/>
    <text font-size="12.7998" style="fill: #000000;text-anchor:middle;font-family:sans-serif;font-style:normal;font-weight:normal" x="928.186" y="431.909">9: get("a")</text>
  </g>
  <text font-size="12.7998" style="fill: #000000;text-anchor:start;font-family:sans-serif;font-style:normal;font-weight:normal" x="491.497" y="404.159">
    <tspan x="491.497" y="404.159">10: ref (N10)</tspan>
  </text>
  <g>
    <line style="fill: none; fill-opacity:0; stroke-width: 2; stroke: #000000" x1="445.429" y1="443.881" x2="460.804" y2="443.681"/>
    <polygon style="fill: #000000" points="445.364,438.881 429.43,444.089 445.494,448.88 "/>
    <polygon style="fill: none; fill-opacity:0; stroke-width: 2; stroke: #000000" points="445.364,438.881 429.43,444.089 445.494,448.88 "/>
    <text font-size="12.7998" style="fill: #000000;text-anchor:middle;font-family:sans-serif;font-style:normal;font-weight:normal" x="454.918" y="435.272">11: addRef()</text>
  </g>
  <g>
    <polygon style="fill: #ffffff" points="618.472,283.911 639.872,283.911 651.872,295.911 651.872,317.911 618.472,317.911 "/>
    <polygon style="fill: none; fill-opacity:0; stroke-width: 2; stroke: #000000" points="618.472,283.911 639.872,283.911 651.872,295.911 651.872,317.911 618.472,317.911 "/>
    <polyline style="fill: none; fill-opacity:0; stroke-width: 1; stroke: #000000" points="639.872,283.911 639.872,295.911 651.872,295.911 "/>
    <text font-size="12.7998" style="fill: #000000;text-anchor:start;font-family:monospace;font-style:normal;font-weight:normal" x="625.472" y="308.811">
      <tspan x="625.472" y="308.811">10</tspan>
    </text>
  </g>
  <line style="fill: none; fill-opacity:0; stroke-width: 2; stroke: #000000" x1="609" y1="272" x2="618.472" y2="283.911"/>
  <g>
    <polygon style="fill: #ffffff" points="408.249,214.537 491.249,214.537 503.249,226.537 503.249,248.537 408.249,248.537 "/>
    <polygon style="fill: none; fill-opacity:0; stroke-width: 2; stroke: #000000" points="408.249,214.537 491.249,214.537 503.249,226.537 503.249,248.537 408.249,248.537 "/>
    <polyline style="fill: none; fill-opacity:0; stroke-width: 1; stroke: #000000" points="491.249,214.537 491.249,226.537 503.249,226.537 "/>
    <text font-size="12.7998" style="fill: #000000;text-anchor:start;font-family:monospace;font-style:normal;font-weight:normal" x="415.249" y="239.437">
      <tspan x="415.249" y="239.437">a = 4 + 6;</tspan>
    </text>
  </g>
  <line style="fill: none; fill-opacity:0; stroke-width: 2; stroke: #000000" x1="442.9" y1="265" x2="455.749" y2="248.537"/>
  <text font-size="12.7998" style="fill: #000000;text-anchor:start;font-family:sans-serif;font-style:normal;font-weight:normal" x="506.633" y="294.002">
    <tspan x="506.633" y="294.002">4: clone()</tspan>
  </text>
  <g>
    <line style="fill: none; fill-opacity:0; stroke-width: 2; stroke: #000000" x1="449.783" y1="319.886" x2="438.941" y2="311.661"/>
    <polygon style="fill: #000000" points="446.761,323.869 462.53,329.556 452.805,315.902 "/>
    <polygon style="fill: none; fill-opacity:0; stroke-width: 2; stroke: #000000" points="446.761,323.869 462.53,329.556 452.805,315.902 "/>
    <text font-size="12.7998" style="fill: #000000;text-anchor:middle;font-family:sans-serif;font-style:normal;font-weight:normal" x="428.85" y="329.319">run()</text>
  </g>
  <g>
    <polygon style="fill: #ffffff" points="418.76,354.967 447.86,354.967 459.86,366.967 459.86,388.967 418.76,388.967 "/>
    <polygon style="fill: none; fill-opacity:0; stroke-width: 2; stroke: #000000" points="418.76,354.967 447.86,354.967 459.86,366.967 459.86,388.967 418.76,388.967 "/>
    <polyline style="fill: none; fill-opacity:0; stroke-width: 1; stroke: #000000" points="447.86,354.967 447.86,366.967 459.86,366.967 "/>
    <text font-size="12.7998" style="fill: #000000;text-anchor:start;font-family:monospace;font-style:normal;font-weight:normal" x="425.76" y="379.867">
      <tspan x="425.76" y="379.867">N10</tspan>
    </text>
  </g>
  <line style="fill: none; fill-opacity:0; stroke-width: 2; stroke: #000000" x1="472" y1="359" x2="459.86" y2="371.967"/>
</svg>
