<?xml version="1.0" encoding="UTF-8" standalone="no"?>
<!DOCTYPE svg PUBLIC "-//W3C//DTD SVG 1.0//EN" "http://www.w3.org/TR/2001/PR-SVG-20010719/DTD/svg10.dtd">
<svg width="11cm" height="11cm" viewBox="181 182 212 217" xmlns="http://www.w3.org/2000/svg" xmlns:xlink="http://www.w3.org/1999/xlink">
  <g>
    <rect style="fill: #ffffff" x="182.706" y="203.008" width="209.383" height="192.565"/>
    <rect style="fill: none; fill-opacity:0; stroke-width: 2; stroke: #000000" x="182.706" y="203.008" width="209.383" height="192.565"/>
    <rect style="fill: #ffffff" x="182.706" y="183.008" width="42.5" height="20"/>
    <rect style="fill: none; fill-opacity:0; stroke-width: 2; stroke: #000000" x="182.706" y="183.008" width="42.5" height="20"/>
    <text font-size="12.7998" style="fill: #000000;text-anchor:start;font-family:monospace;font-style:normal;font-weight:normal" x="184.706" y="198.008"> leq </text>
  </g>
  <g>
    <rect style="fill: #ffffff" x="198.9" y="286" width="99.65" height="28"/>
    <rect style="fill: none; fill-opacity:0; stroke-width: 2; stroke: #000000" x="198.9" y="286" width="99.65" height="28"/>
    <text font-size="16" style="fill: #000000;text-anchor:middle;font-family:sans-serif;font-style:normal;font-weight:700" x="248.725" y="305">logicNode</text>
  </g>
  <g>
    <rect style="fill: #ffffff" x="206.9" y="353.8" width="84.5" height="28"/>
    <rect style="fill: none; fill-opacity:0; stroke-width: 2; stroke: #000000" x="206.9" y="353.8" width="84.5" height="28"/>
    <text font-size="16" style="fill: #000000;text-anchor:middle;font-family:sans-serif;font-style:normal;font-weight:700" x="249.15" y="372.8">leqNode</text>
  </g>
  <g>
    <polyline style="fill: none; fill-opacity:0; stroke-width: 2; stroke: #000000" points="248.725,332.236 248.725,341.9 249.15,341.9 249.15,353.8 "/>
    <polygon style="fill: #ffffff" points="256.725,332.236 248.725,316.236 240.725,332.236 "/>
    <polygon style="fill: none; fill-opacity:0; stroke-width: 2; stroke: #000000" points="256.725,332.236 248.725,316.236 240.725,332.236 "/>
  </g>
  <g>
    <rect style="fill: #ffffff" x="205" y="219.8" width="87.4" height="28"/>
    <rect style="fill: none; fill-opacity:0; stroke-width: 2; stroke: #000000" x="205" y="219.8" width="87.4" height="28"/>
    <text font-size="16" style="fill: #000000;text-anchor:middle;font-family:sans-serif;font-style:normal;font-weight:700" x="248.7" y="238.8">runNode</text>
  </g>
  <g>
    <polyline style="fill: none; fill-opacity:0; stroke-width: 2; stroke: #000000" points="248.7,266.036 248.7,274.9 248.725,274.9 248.725,286 "/>
    <polygon style="fill: #ffffff" points="256.7,266.036 248.7,250.036 240.7,266.036 "/>
    <polygon style="fill: none; fill-opacity:0; stroke-width: 2; stroke: #000000" points="256.7,266.036 248.7,250.036 240.7,266.036 "/>
  </g>
  <g>
    <polyline style="fill: none; fill-opacity:0; stroke-width: 2; stroke: #000000" points="316.572,367.8 327.222,367.8 327.222,233.8 292.4,233.8 "/>
    <polygon style="fill: #ffffff" points="291.4,367.8 305.4,363 319.4,367.8 305.4,372.6 "/>
    <polygon style="fill: none; fill-opacity:0; stroke-width: 2; stroke: #000000" points="291.4,367.8 305.4,363 319.4,367.8 305.4,372.6 "/>
    <text font-size="12.7998" style="fill: #000000;text-anchor:start;font-family:monospace;font-style:normal;font-weight:normal" x="329.222" y="297.8">op1</text>
    <text font-size="12.7998" style="fill: #000000;text-anchor:start;font-family:monospace;font-style:normal;font-weight:normal" x="323.4" y="364.8"/>
    <text font-size="12.7998" style="fill: #000000;text-anchor:start;font-family:monospace;font-style:normal;font-weight:normal" x="296.4" y="230.8">1</text>
  </g>
  <g>
    <polyline style="fill: none; fill-opacity:0; stroke-width: 2; stroke: #000000" points="316.572,381.8 360.456,381.8 360.456,219.8 292.4,219.8 "/>
    <polygon style="fill: #ffffff" points="291.4,381.8 305.4,377 319.4,381.8 305.4,386.6 "/>
    <polygon style="fill: none; fill-opacity:0; stroke-width: 2; stroke: #000000" points="291.4,381.8 305.4,377 319.4,381.8 305.4,386.6 "/>
    <text font-size="12.7998" style="fill: #000000;text-anchor:start;font-family:monospace;font-style:normal;font-weight:normal" x="362.456" y="297.8">op2</text>
    <text font-size="12.7998" style="fill: #000000;text-anchor:start;font-family:monospace;font-style:normal;font-weight:normal" x="323.4" y="378.8"/>
    <text font-size="12.7998" style="fill: #000000;text-anchor:start;font-family:monospace;font-style:normal;font-weight:normal" x="296.4" y="216.8">1</text>
  </g>
</svg>
