<?xml version="1.0" encoding="UTF-8" standalone="no"?>
<!DOCTYPE svg PUBLIC "-//W3C//DTD SVG 1.0//EN" "http://www.w3.org/TR/2001/PR-SVG-20010719/DTD/svg10.dtd">
<svg width="11cm" height="9cm" viewBox="341 -35 214 175" xmlns="http://www.w3.org/2000/svg" xmlns:xlink="http://www.w3.org/1999/xlink">
  <g>
    <rect style="fill: #ffffff" x="343" y="-13.4" width="212" height="152.4"/>
    <rect style="fill: none; fill-opacity:0; stroke-width: 2; stroke: #000000" x="343" y="-13.4" width="212" height="152.4"/>
    <rect style="fill: #ffffff" x="343" y="-33.4" width="57.9" height="20"/>
    <rect style="fill: none; fill-opacity:0; stroke-width: 2; stroke: #000000" x="343" y="-33.4" width="57.9" height="20"/>
    <text font-size="12.7998" style="fill: #000000;text-anchor:start;font-family:monospace;font-style:normal;font-weight:normal" x="345" y="-18.4"> sleep </text>
  </g>
  <g>
    <rect style="fill: #ffffff" x="376" y="7.6" width="87.4" height="28"/>
    <rect style="fill: none; fill-opacity:0; stroke-width: 2; stroke: #000000" x="376" y="7.6" width="87.4" height="28"/>
    <text font-size="16" style="fill: #000000;text-anchor:middle;font-family:sans-serif;font-style:normal;font-weight:700" x="419.7" y="26.6">runNode</text>
  </g>
  <g>
    <rect style="fill: #ffffff" x="368" y="75.6" width="104.85" height="28"/>
    <rect style="fill: none; fill-opacity:0; stroke-width: 2; stroke: #000000" x="368" y="75.6" width="104.85" height="28"/>
    <text font-size="16" style="fill: #000000;text-anchor:middle;font-family:sans-serif;font-style:normal;font-weight:700" x="420.425" y="94.6">sleepNode</text>
  </g>
  <g>
    <polyline style="fill: none; fill-opacity:0; stroke-width: 2; stroke: #000000" points="419.7,53.8361 419.7,63.6 420.425,63.6 420.425,75.6 "/>
    <polygon style="fill: #ffffff" points="427.7,53.8361 419.7,37.8361 411.7,53.8361 "/>
    <polygon style="fill: none; fill-opacity:0; stroke-width: 2; stroke: #000000" points="427.7,53.8361 419.7,37.8361 411.7,53.8361 "/>
  </g>
  <g>
    <polyline style="fill: none; fill-opacity:0; stroke-width: 2; stroke: #000000" points="498.022,89.6 507.85,89.6 507.85,21.6 463.4,21.6 "/>
    <polygon style="fill: #ffffff" points="472.85,89.6 486.85,84.8 500.85,89.6 486.85,94.4 "/>
    <polygon style="fill: none; fill-opacity:0; stroke-width: 2; stroke: #000000" points="472.85,89.6 486.85,84.8 500.85,89.6 486.85,94.4 "/>
    <text font-size="12.7998" style="fill: #000000;text-anchor:start;font-family:monospace;font-style:normal;font-weight:normal" x="509.85" y="52.6">sec</text>
    <text font-size="12.7998" style="fill: #000000;text-anchor:start;font-family:monospace;font-style:normal;font-weight:normal" x="504.85" y="86.6"/>
    <text font-size="12.7998" style="fill: #000000;text-anchor:start;font-family:monospace;font-style:normal;font-weight:normal" x="467.4" y="18.6"> 1</text>
    <text font-size="12.7998" style="fill: #000000;text-anchor:start;font-family:monospace;font-style:normal;font-weight:normal" x="467.4" y="34.6"/>
  </g>
</svg>
