<?xml version="1.0" encoding="UTF-8" standalone="no"?>
<!DOCTYPE svg PUBLIC "-//W3C//DTD SVG 1.0//EN" "http://www.w3.org/TR/2001/PR-SVG-20010719/DTD/svg10.dtd">
<svg width="37cm" height="15cm" viewBox="174 182 728 284" xmlns="http://www.w3.org/2000/svg" xmlns:xlink="http://www.w3.org/1999/xlink">
  <g>
    <rect style="fill: #ffffff" x="175" y="203.214" width="725.743" height="261.404"/>
    <rect style="fill: none; fill-opacity:0; stroke-width: 2; stroke: #000000" x="175" y="203.214" width="725.743" height="261.404"/>
    <rect style="fill: #ffffff" x="175" y="183.214" width="88.7" height="20"/>
    <rect style="fill: none; fill-opacity:0; stroke-width: 2; stroke: #000000" x="175" y="183.214" width="88.7" height="20"/>
    <text font-size="12.7998" style="fill: #000000;text-anchor:start;font-family:monospace;font-style:normal;font-weight:normal" x="177" y="198.214"> functions </text>
  </g>
  <g>
    <rect style="fill: #ffffff" x="506.458" y="283.486" width="87.4" height="28"/>
    <rect style="fill: none; fill-opacity:0; stroke-width: 2; stroke: #000000" x="506.458" y="283.486" width="87.4" height="28"/>
    <text font-size="16" style="fill: #000000;text-anchor:middle;font-family:sans-serif;font-style:normal;font-weight:700" x="550.158" y="302.486">runNode</text>
  </g>
  <g>
    <rect style="fill: #ffffff" x="539.784" y="350.106" width="96.25" height="28"/>
    <rect style="fill: none; fill-opacity:0; stroke-width: 2; stroke: #000000" x="539.784" y="350.106" width="96.25" height="28"/>
    <text font-size="16" style="fill: #000000;text-anchor:middle;font-family:sans-serif;font-style:normal;font-weight:700" x="587.909" y="369.106">fexpNode</text>
  </g>
  <g>
    <polyline style="fill: none; fill-opacity:0; stroke-width: 2; stroke: #000000" points="550.158,329.722 550.158,338.796 587.909,338.796 587.909,350.106 "/>
    <polygon style="fill: #ffffff" points="558.158,329.722 550.158,313.722 542.158,329.722 "/>
    <polygon style="fill: none; fill-opacity:0; stroke-width: 2; stroke: #000000" points="558.158,329.722 550.158,313.722 542.158,329.722 "/>
  </g>
  <g>
    <rect style="fill: #ffffff" x="675.458" y="350.316" width="131.5" height="28"/>
    <rect style="fill: none; fill-opacity:0; stroke-width: 2; stroke: #000000" x="675.458" y="350.316" width="131.5" height="28"/>
    <text font-size="16" style="fill: #000000;text-anchor:middle;font-family:sans-serif;font-style:normal;font-weight:700" x="741.208" y="369.316">functionNode</text>
  </g>
  <g>
    <polyline style="fill: none; fill-opacity:0; stroke-width: 2; stroke: #000000" points="832.13,350.316 844.458,350.316 844.458,311.486 653.458,311.486 653.458,311.486 593.858,311.486 593.858,311.486 "/>
    <polygon style="fill: #ffffff" points="806.958,350.316 820.958,345.516 834.958,350.316 820.958,355.116 "/>
    <polygon style="fill: none; fill-opacity:0; stroke-width: 2; stroke: #000000" points="806.958,350.316 820.958,345.516 834.958,350.316 820.958,355.116 "/>
    <text font-size="12.7998" style="fill: #000000;text-anchor:middle;font-family:monospace;font-style:normal;font-weight:normal" x="748.958" y="308.486">body</text>
    <text font-size="12.7998" style="fill: #000000;text-anchor:start;font-family:monospace;font-style:normal;font-weight:normal" x="838.958" y="347.316"/>
    <text font-size="12.7998" style="fill: #000000;text-anchor:start;font-family:monospace;font-style:normal;font-weight:normal" x="597.858" y="308.486">1</text>
  </g>
  <g>
    <polyline style="fill: none; fill-opacity:0; stroke-width: 2; stroke: #000000" points="832.13,364.316 855.458,364.316 855.458,297.486 636.458,297.486 636.458,297.486 593.858,297.486 "/>
    <polygon style="fill: #ffffff" points="806.958,364.316 820.958,359.516 834.958,364.316 820.958,369.116 "/>
    <polygon style="fill: none; fill-opacity:0; stroke-width: 2; stroke: #000000" points="806.958,364.316 820.958,359.516 834.958,364.316 820.958,369.116 "/>
    <text font-size="12.7998" style="fill: #000000;text-anchor:middle;font-family:monospace;font-style:normal;font-weight:normal" x="745.958" y="294.486">params</text>
    <text font-size="12.7998" style="fill: #000000;text-anchor:start;font-family:monospace;font-style:normal;font-weight:normal" x="838.958" y="361.316"/>
    <text font-size="12.7998" style="fill: #000000;text-anchor:start;font-family:monospace;font-style:normal;font-weight:normal" x="597.858" y="294.486">0,1</text>
  </g>
  <g>
    <polyline style="fill: none; fill-opacity:0; stroke-width: 2; stroke: #000000" points="832.13,378.316 866.832,378.316 866.832,283.612 625.66,283.612 625.66,283.486 593.858,283.486 "/>
    <polygon style="fill: #ffffff" points="806.958,378.316 820.958,373.516 834.958,378.316 820.958,383.116 "/>
    <polygon style="fill: none; fill-opacity:0; stroke-width: 2; stroke: #000000" points="806.958,378.316 820.958,373.516 834.958,378.316 820.958,383.116 "/>
    <text font-size="12.7998" style="fill: #000000;text-anchor:middle;font-family:monospace;font-style:normal;font-weight:normal" x="746.246" y="280.612">id</text>
    <text font-size="12.7998" style="fill: #000000;text-anchor:start;font-family:monospace;font-style:normal;font-weight:normal" x="838.958" y="375.316"/>
    <text font-size="12.7998" style="fill: #000000;text-anchor:start;font-family:monospace;font-style:normal;font-weight:normal" x="597.858" y="280.486">0,1</text>
  </g>
  <g>
    <polyline style="fill: none; fill-opacity:0; stroke-width: 2; stroke: #000000" points="654.27,364.106 663.746,364.106 663.746,364.316 675.458,364.316 "/>
    <polygon style="fill: #ffffff" points="654.27,356.106 638.27,364.106 654.27,372.106 "/>
    <polygon style="fill: none; fill-opacity:0; stroke-width: 2; stroke: #000000" points="654.27,356.106 638.27,364.106 654.27,372.106 "/>
  </g>
  <g>
    <rect style="fill: #ffffff" x="583.936" y="420.828" width="134.3" height="28"/>
    <rect style="fill: none; fill-opacity:0; stroke-width: 2; stroke: #000000" x="583.936" y="420.828" width="134.3" height="28"/>
    <text font-size="16" style="fill: #000000;text-anchor:middle;font-family:sans-serif;font-style:normal;font-weight:700" x="651.086" y="439.828">lambdaFNode</text>
  </g>
  <g>
    <polyline style="fill: none; fill-opacity:0; stroke-width: 2; stroke: #000000" points="741.208,396.552 741.208,407.572 651.086,407.572 651.086,420.828 "/>
    <polygon style="fill: #ffffff" points="749.208,396.552 741.208,380.552 733.208,396.552 "/>
    <polygon style="fill: none; fill-opacity:0; stroke-width: 2; stroke: #000000" points="749.208,396.552 741.208,380.552 733.208,396.552 "/>
  </g>
  <g>
    <rect style="fill: #ffffff" x="732.846" y="420.828" width="155.7" height="28"/>
    <rect style="fill: none; fill-opacity:0; stroke-width: 2; stroke: #000000" x="732.846" y="420.828" width="155.7" height="28"/>
    <text font-size="16" style="fill: #000000;text-anchor:middle;font-family:sans-serif;font-style:normal;font-weight:700" x="810.696" y="439.828">decoratorFNode</text>
  </g>
  <g>
    <polyline style="fill: none; fill-opacity:0; stroke-width: 2; stroke: #000000" points="741.208,396.552 741.208,407.572 810.696,407.572 810.696,420.828 "/>
    <polygon style="fill: #ffffff" points="749.208,396.552 741.208,380.552 733.208,396.552 "/>
    <polygon style="fill: none; fill-opacity:0; stroke-width: 2; stroke: #000000" points="749.208,396.552 741.208,380.552 733.208,396.552 "/>
  </g>
  <g>
    <rect style="fill: #ffffff" x="415.812" y="350.552" width="100.7" height="28"/>
    <rect style="fill: none; fill-opacity:0; stroke-width: 2; stroke: #000000" x="415.812" y="350.552" width="100.7" height="28"/>
    <text font-size="16" style="fill: #000000;text-anchor:middle;font-family:sans-serif;font-style:normal;font-weight:700" x="466.162" y="369.552">nexpNode</text>
  </g>
  <g>
    <polyline style="fill: none; fill-opacity:0; stroke-width: 2; stroke: #000000" points="550.158,329.722 550.158,339.019 466.162,339.019 466.162,350.552 "/>
    <polygon style="fill: #ffffff" points="558.158,329.722 550.158,313.722 542.158,329.722 "/>
    <polygon style="fill: none; fill-opacity:0; stroke-width: 2; stroke: #000000" points="558.158,329.722 550.158,313.722 542.158,329.722 "/>
  </g>
  <g>
    <rect style="fill: #ffffff" x="414.178" y="419.894" width="136" height="28"/>
    <rect style="fill: none; fill-opacity:0; stroke-width: 2; stroke: #000000" x="414.178" y="419.894" width="136" height="28"/>
    <text font-size="16" style="fill: #000000;text-anchor:middle;font-family:sans-serif;font-style:normal;font-weight:700" x="482.178" y="438.894">contextFNode</text>
  </g>
  <g>
    <polyline style="fill: none; fill-opacity:0; stroke-width: 2; stroke: #000000" points="466.162,396.788 466.162,407.223 482.178,407.223 482.178,419.894 "/>
    <polygon style="fill: #ffffff" points="474.162,396.788 466.162,380.788 458.162,396.788 "/>
    <polygon style="fill: none; fill-opacity:0; stroke-width: 2; stroke: #000000" points="474.162,396.788 466.162,380.788 458.162,396.788 "/>
  </g>
  <g>
    <rect style="fill: #ffffff" x="263.618" y="418.664" width="127.25" height="28"/>
    <rect style="fill: none; fill-opacity:0; stroke-width: 2; stroke: #000000" x="263.618" y="418.664" width="127.25" height="28"/>
    <text font-size="16" style="fill: #000000;text-anchor:middle;font-family:sans-serif;font-style:normal;font-weight:700" x="327.243" y="437.664">partialFNode</text>
  </g>
  <g>
    <polyline style="fill: none; fill-opacity:0; stroke-width: 2; stroke: #000000" points="327.396,397.73 327.396,409.87 327.242,409.87 327.242,418.664 "/>
    <polygon style="fill: #ffffff" points="335.396,397.73 327.396,381.73 319.396,397.73 "/>
    <polygon style="fill: none; fill-opacity:0; stroke-width: 2; stroke: #000000" points="335.396,397.73 327.396,381.73 319.396,397.73 "/>
  </g>
  <g>
    <rect style="fill: #ffffff" x="277.922" y="351.494" width="98.95" height="28"/>
    <rect style="fill: none; fill-opacity:0; stroke-width: 2; stroke: #000000" x="277.922" y="351.494" width="98.95" height="28"/>
    <text font-size="16" style="fill: #000000;text-anchor:middle;font-family:sans-serif;font-style:normal;font-weight:700" x="327.397" y="370.494">callFNode</text>
  </g>
  <g>
    <polyline style="fill: none; fill-opacity:0; stroke-width: 2; stroke: #000000" points="397.576,364.552 388.342,364.552 388.342,365.494 376.872,365.494 "/>
    <polygon style="fill: #ffffff" points="397.576,372.552 413.576,364.552 397.576,356.552 "/>
    <polygon style="fill: none; fill-opacity:0; stroke-width: 2; stroke: #000000" points="397.576,372.552 413.576,364.552 397.576,356.552 "/>
  </g>
  <g>
    <polyline style="fill: none; fill-opacity:0; stroke-width: 2; stroke: #000000" points="277.922,326.322 277.922,295 506.458,295 506.458,297.486 "/>
    <polygon style="fill: #ffffff" points="277.922,351.494 273.122,337.494 277.922,323.494 282.722,337.494 "/>
    <polygon style="fill: none; fill-opacity:0; stroke-width: 2; stroke: #000000" points="277.922,351.494 273.122,337.494 277.922,323.494 282.722,337.494 "/>
    <text font-size="12.7998" style="fill: #000000;text-anchor:middle;font-family:monospace;font-style:normal;font-weight:normal" x="392.19" y="292">id</text>
    <text font-size="12.7998" style="fill: #000000;text-anchor:start;font-family:monospace;font-style:normal;font-weight:normal" x="288.922" y="347.494"/>
    <text font-size="12.7998" style="fill: #000000;text-anchor:start;font-family:monospace;font-style:normal;font-weight:normal" x="510.458" y="293.486">1</text>
  </g>
  <g>
    <polyline style="fill: none; fill-opacity:0; stroke-width: 2; stroke: #000000" points="327.396,326.322 327.396,320.422 506.458,320.422 506.458,311.486 "/>
    <polygon style="fill: #ffffff" points="327.396,351.494 322.596,337.494 327.396,323.494 332.196,337.494 "/>
    <polygon style="fill: none; fill-opacity:0; stroke-width: 2; stroke: #000000" points="327.396,351.494 322.596,337.494 327.396,323.494 332.196,337.494 "/>
    <text font-size="12.7998" style="fill: #000000;text-anchor:middle;font-family:monospace;font-style:normal;font-weight:normal" x="416.927" y="317.422">params</text>
    <text font-size="12.7998" style="fill: #000000;text-anchor:start;font-family:monospace;font-style:normal;font-weight:normal" x="338.396" y="347.494"/>
    <text font-size="12.7998" style="fill: #000000;text-anchor:start;font-family:monospace;font-style:normal;font-weight:normal" x="510.458" y="323.486">1</text>
  </g>
  <g>
    <rect style="fill: #ffffff" x="563.06" y="215.78" width="113.8" height="28"/>
    <rect style="fill: none; fill-opacity:0; stroke-width: 2; stroke: #000000" x="563.06" y="215.78" width="113.8" height="28"/>
    <text font-size="16" style="fill: #000000;text-anchor:middle;font-family:sans-serif;font-style:normal;font-weight:700" x="619.96" y="234.78">returnNode</text>
  </g>
  <g>
    <polyline style="fill: none; fill-opacity:0; stroke-width: 2; stroke: #000000" points="550.158,265.25 550.158,255.633 619.96,255.633 619.96,243.78 "/>
    <polygon style="fill: #ffffff" points="542.158,265.25 550.158,281.25 558.158,265.25 "/>
    <polygon style="fill: none; fill-opacity:0; stroke-width: 2; stroke: #000000" points="542.158,265.25 550.158,281.25 558.158,265.25 "/>
  </g>
  <g>
    <rect style="fill: #ffffff" x="721.428" y="215.552" width="155.7" height="28"/>
    <rect style="fill: none; fill-opacity:0; stroke-width: 2; stroke: #000000" x="721.428" y="215.552" width="155.7" height="28"/>
    <text font-size="16" style="fill: #000000;text-anchor:middle;font-family:sans-serif;font-style:normal;font-weight:700" x="799.278" y="234.552">returnException</text>
  </g>
  <g>
    <polyline style="fill: none; fill-opacity:0; stroke-width: 2; stroke-dasharray: 8; stroke: #000000" points="676.86,229.78 695.144,229.78 695.144,229.552 714.723,229.552 "/>
    <polyline style="fill: none; fill-opacity:0; stroke-width: 2; stroke: #000000" points="702.075,234.552 718.075,229.552 702.075,224.552 "/>
  </g>
  <g>
    <polyline style="fill: none; fill-opacity:0; stroke-width: 2; stroke: #000000" points="537.888,229.78 507,229.78 507,283.486 506.458,283.486 "/>
    <polygon style="fill: #ffffff" points="563.06,229.78 549.06,234.58 535.06,229.78 549.06,224.98 "/>
    <polygon style="fill: none; fill-opacity:0; stroke-width: 2; stroke: #000000" points="563.06,229.78 549.06,234.58 535.06,229.78 549.06,224.98 "/>
    <text font-size="12.7998" style="fill: #000000;text-anchor:start;font-family:monospace;font-style:normal;font-weight:normal" x="509" y="253.633">value</text>
    <text font-size="12.7998" style="fill: #000000;text-anchor:end;font-family:monospace;font-style:normal;font-weight:normal" x="531.06" y="226.78"/>
    <text font-size="12.7998" style="fill: #000000;text-anchor:start;font-family:monospace;font-style:normal;font-weight:normal" x="510.458" y="280.486">1</text>
  </g>
  <g>
    <rect style="fill: #ffffff" x="235" y="232" width="140" height="28"/>
    <rect style="fill: none; fill-opacity:0; stroke-width: 2; stroke: #000000" x="235" y="232" width="140" height="28"/>
    <text font-size="16" style="fill: #000000;text-anchor:middle;font-family:sans-serif;font-style:normal;font-weight:700" x="305" y="251">refparamNode</text>
  </g>
  <g>
    <polyline style="fill: none; fill-opacity:0; stroke-width: 2; stroke-dasharray: 8; stroke: #000000" points="277.922,365.494 206,365.494 206,246 228.295,246 "/>
    <polyline style="fill: none; fill-opacity:0; stroke-width: 2; stroke: #000000" points="215.647,251 231.647,246 215.647,241 "/>
  </g>
  <g>
    <polyline style="fill: none; fill-opacity:0; stroke-width: 2; stroke: #000000" points="401.18,246 448.233,246 448.233,283.486 506.458,283.486 "/>
    <polygon style="fill: #ffffff" points="376.009,246 390.009,241.2 404.009,246 390.009,250.8 "/>
    <polygon style="fill: none; fill-opacity:0; stroke-width: 2; stroke: #000000" points="376.009,246 390.009,241.2 404.009,246 390.009,250.8 "/>
    <text font-size="12.7998" style="fill: #000000;text-anchor:start;font-family:monospace;font-style:normal;font-weight:normal" x="450.233" y="261.743">id</text>
    <text font-size="12.7998" style="fill: #000000;text-anchor:start;font-family:monospace;font-style:normal;font-weight:normal" x="408.009" y="243"/>
    <text font-size="12.7998" style="fill: #000000;text-anchor:end;font-family:monospace;font-style:normal;font-weight:normal" x="502.458" y="280.486">1</text>
  </g>
</svg>
