<?xml version="1.0" encoding="UTF-8" standalone="no"?>
<!DOCTYPE svg PUBLIC "-//W3C//DTD SVG 1.0//EN" "http://www.w3.org/TR/2001/PR-SVG-20010719/DTD/svg10.dtd">
<svg width="12cm" height="10cm" viewBox="540 122 227 188" xmlns="http://www.w3.org/2000/svg" xmlns:xlink="http://www.w3.org/1999/xlink">
  <g>
    <rect style="fill: #ffffff" x="541" y="143" width="225" height="166"/>
    <rect style="fill: none; fill-opacity:0; stroke-width: 2; stroke: #000000" x="541" y="143" width="225" height="166"/>
    <rect style="fill: #ffffff" x="541" y="123" width="50.2" height="20"/>
    <rect style="fill: none; fill-opacity:0; stroke-width: 2; stroke: #000000" x="541" y="123" width="50.2" height="20"/>
    <text font-size="12.7998" style="fill: #000000;text-anchor:start;font-family:monospace;font-style:normal;font-weight:normal" x="543" y="138"> list </text>
  </g>
  <g>
    <rect style="fill: #ffffff" x="557" y="155.8" width="87.4" height="28"/>
    <rect style="fill: none; fill-opacity:0; stroke-width: 2; stroke: #000000" x="557" y="155.8" width="87.4" height="28"/>
    <text font-size="16" style="fill: #000000;text-anchor:middle;font-family:sans-serif;font-style:normal;font-weight:700" x="600.7" y="174.8">runNode</text>
  </g>
  <g>
    <rect style="fill: #ffffff" x="559" y="234" width="84.85" height="28"/>
    <rect style="fill: none; fill-opacity:0; stroke-width: 2; stroke: #000000" x="559" y="234" width="84.85" height="28"/>
    <text font-size="16" style="fill: #000000;text-anchor:middle;font-family:sans-serif;font-style:normal;font-weight:700" x="601.425" y="253">listNode</text>
  </g>
  <g>
    <polyline style="fill: none; fill-opacity:0; stroke-width: 2; stroke: #000000" points="600.7,202.036 600.7,216.9 601.425,216.9 601.425,234 "/>
    <polygon style="fill: #ffffff" points="608.7,202.036 600.7,186.036 592.7,202.036 "/>
    <polygon style="fill: none; fill-opacity:0; stroke-width: 2; stroke: #000000" points="608.7,202.036 600.7,186.036 592.7,202.036 "/>
  </g>
  <g>
    <polyline style="fill: none; fill-opacity:0; stroke-width: 2; stroke: #000000" points="669.022,234 716,234 716,169.8 644.4,169.8 "/>
    <polygon style="fill: #ffffff" points="643.85,234 657.85,229.2 671.85,234 657.85,238.8 "/>
    <polygon style="fill: none; fill-opacity:0; stroke-width: 2; stroke: #000000" points="643.85,234 657.85,229.2 671.85,234 657.85,238.8 "/>
    <text font-size="12.7998" style="fill: #000000;text-anchor:start;font-family:monospace;font-style:normal;font-weight:normal" x="718" y="198.9">value</text>
    <text font-size="12.7998" style="fill: #000000;text-anchor:start;font-family:monospace;font-style:normal;font-weight:normal" x="675.85" y="231"/>
    <text font-size="12.7998" style="fill: #000000;text-anchor:start;font-family:monospace;font-style:normal;font-weight:normal" x="648.4" y="166.8">1</text>
  </g>
  <g>
    <polyline style="fill: none; fill-opacity:0; stroke-width: 2; stroke: #000000" points="669.022,262 716,262 716,295 601.424,295 601.424,262 "/>
    <polygon style="fill: #ffffff" points="643.85,262 657.85,257.2 671.85,262 657.85,266.8 "/>
    <polygon style="fill: none; fill-opacity:0; stroke-width: 2; stroke: #000000" points="643.85,262 657.85,257.2 671.85,262 657.85,266.8 "/>
    <text font-size="12.7998" style="fill: #000000;text-anchor:start;font-family:monospace;font-style:normal;font-weight:normal" x="718" y="275.5">next</text>
    <text font-size="12.7998" style="fill: #000000;text-anchor:start;font-family:monospace;font-style:normal;font-weight:normal" x="675.85" y="259"/>
    <text font-size="12.7998" style="fill: #000000;text-anchor:start;font-family:monospace;font-style:normal;font-weight:normal" x="605.424" y="274">0,1</text>
  </g>
</svg>
