<?xml version="1.0" encoding="UTF-8" standalone="no"?>
<!DOCTYPE svg PUBLIC "-//W3C//DTD SVG 1.0//EN" "http://www.w3.org/TR/2001/PR-SVG-20010719/DTD/svg10.dtd">
<svg width="14cm" height="12cm" viewBox="543 138 273 228" xmlns="http://www.w3.org/2000/svg" xmlns:xlink="http://www.w3.org/1999/xlink">
  <g>
    <rect style="fill: #ffffff" x="544" y="159" width="271" height="205"/>
    <rect style="fill: none; fill-opacity:0; stroke-width: 2; stroke: #000000" x="544" y="159" width="271" height="205"/>
    <rect style="fill: #ffffff" x="544" y="139" width="73.3" height="20"/>
    <rect style="fill: none; fill-opacity:0; stroke-width: 2; stroke: #000000" x="544" y="139" width="73.3" height="20"/>
    <text font-size="12.7998" style="fill: #000000;text-anchor:start;font-family:monospace;font-style:normal;font-weight:normal" x="546" y="154"> assigOp </text>
  </g>
  <g>
    <rect style="fill: #ffffff" x="631" y="243" width="100.7" height="28"/>
    <rect style="fill: none; fill-opacity:0; stroke-width: 2; stroke: #000000" x="631" y="243" width="100.7" height="28"/>
    <text font-size="16" style="fill: #000000;text-anchor:middle;font-family:sans-serif;font-style:normal;font-weight:700" x="681.35" y="262">nexpNode</text>
  </g>
  <g>
    <rect style="fill: #ffffff" x="637" y="176" width="87.4" height="28"/>
    <rect style="fill: none; fill-opacity:0; stroke-width: 2; stroke: #000000" x="637" y="176" width="87.4" height="28"/>
    <text font-size="16" style="fill: #000000;text-anchor:middle;font-family:sans-serif;font-style:normal;font-weight:700" x="680.7" y="195">runNode</text>
  </g>
  <g>
    <polyline style="fill: none; fill-opacity:0; stroke-width: 2; stroke: #000000" points="680.7,222.236 680.7,231.5 681.35,231.5 681.35,243 "/>
    <polygon style="fill: #ffffff" points="688.7,222.236 680.7,206.236 672.7,222.236 "/>
    <polygon style="fill: none; fill-opacity:0; stroke-width: 2; stroke: #000000" points="688.7,222.236 680.7,206.236 672.7,222.236 "/>
  </g>
  <g>
    <rect style="fill: #ffffff" x="634" y="318" width="93.95" height="28"/>
    <rect style="fill: none; fill-opacity:0; stroke-width: 2; stroke: #000000" x="634" y="318" width="93.95" height="28"/>
    <text font-size="16" style="fill: #000000;text-anchor:middle;font-family:sans-serif;font-style:normal;font-weight:700" x="680.975" y="337">asigNode</text>
  </g>
  <g>
    <polyline style="fill: none; fill-opacity:0; stroke-width: 2; stroke: #000000" points="681.35,289.236 681.35,302.5 680.975,302.5 680.975,318 "/>
    <polygon style="fill: #ffffff" points="689.35,289.236 681.35,273.236 673.35,289.236 "/>
    <polygon style="fill: none; fill-opacity:0; stroke-width: 2; stroke: #000000" points="689.35,289.236 681.35,273.236 673.35,289.236 "/>
  </g>
  <g>
    <polyline style="fill: none; fill-opacity:0; stroke-width: 2; stroke: #000000" points="608.828,332 573,332 573,190 637,190 "/>
    <polygon style="fill: #ffffff" points="634,332 620,336.8 606,332 620,327.2 "/>
    <polygon style="fill: none; fill-opacity:0; stroke-width: 2; stroke: #000000" points="634,332 620,336.8 606,332 620,327.2 "/>
    <text font-size="12.7998" style="fill: #000000;text-anchor:start;font-family:monospace;font-style:normal;font-weight:normal" x="575" y="258">right</text>
    <text font-size="12.7998" style="fill: #000000;text-anchor:end;font-family:monospace;font-style:normal;font-weight:normal" x="602" y="329"/>
    <text font-size="12.7998" style="fill: #000000;text-anchor:end;font-family:monospace;font-style:normal;font-weight:normal" x="633" y="187"/>
  </g>
  <g>
    <polyline style="fill: none; fill-opacity:0; stroke-width: 2; stroke: #000000" points="753.122,332 762.95,332 762.95,190 724.4,190 "/>
    <polygon style="fill: #ffffff" points="727.95,332 741.95,327.2 755.95,332 741.95,336.8 "/>
    <polygon style="fill: none; fill-opacity:0; stroke-width: 2; stroke: #000000" points="727.95,332 741.95,327.2 755.95,332 741.95,336.8 "/>
    <text font-size="12.7998" style="fill: #000000;text-anchor:start;font-family:monospace;font-style:normal;font-weight:normal" x="764.95" y="258">left</text>
    <text font-size="12.7998" style="fill: #000000;text-anchor:start;font-family:monospace;font-style:normal;font-weight:normal" x="759.95" y="329"/>
    <text font-size="12.7998" style="fill: #000000;text-anchor:start;font-family:monospace;font-style:normal;font-weight:normal" x="728.4" y="187"/>
  </g>
</svg>
