<?xml version="1.0" encoding="UTF-8" standalone="no"?>
<!DOCTYPE svg PUBLIC "-//W3C//DTD SVG 1.0//EN" "http://www.w3.org/TR/2001/PR-SVG-20010719/DTD/svg10.dtd">
<svg width="13cm" height="18cm" viewBox="157 177 247 350" xmlns="http://www.w3.org/2000/svg" xmlns:xlink="http://www.w3.org/1999/xlink">
  <g>
    <rect style="fill: #ffffff" x="158" y="199" width="245" height="328"/>
    <rect style="fill: none; fill-opacity:0; stroke-width: 2; stroke: #000000" x="158" y="199" width="245" height="328"/>
    <rect style="fill: #ffffff" x="158" y="179" width="81" height="20"/>
    <rect style="fill: none; fill-opacity:0; stroke-width: 2; stroke: #000000" x="158" y="179" width="81" height="20"/>
    <text font-size="12.7998" style="fill: #000000;text-anchor:start;font-family:monospace;font-style:normal;font-weight:normal" x="160" y="194"> incAssig </text>
  </g>
  <g>
    <rect style="fill: #ffffff" x="197.9" y="285" width="100.75" height="28"/>
    <rect style="fill: none; fill-opacity:0; stroke-width: 2; stroke: #000000" x="197.9" y="285" width="100.75" height="28"/>
    <text font-size="16" style="fill: #000000;text-anchor:middle;font-family:sans-serif;font-style:normal;font-weight:700" x="248.275" y="304">dexpNode</text>
  </g>
  <g>
    <rect style="fill: #ffffff" x="197.9" y="351.8" width="99.95" height="28"/>
    <rect style="fill: none; fill-opacity:0; stroke-width: 2; stroke: #000000" x="197.9" y="351.8" width="99.95" height="28"/>
    <text font-size="16" style="fill: #000000;text-anchor:middle;font-family:sans-serif;font-style:normal;font-weight:700" x="247.875" y="370.8">arithNode</text>
  </g>
  <g>
    <polyline style="fill: none; fill-opacity:0; stroke-width: 2; stroke: #000000" points="248.275,331.236 248.275,340.4 247.875,340.4 247.875,351.8 "/>
    <polygon style="fill: #ffffff" points="256.275,331.236 248.275,315.236 240.275,331.236 "/>
    <polygon style="fill: none; fill-opacity:0; stroke-width: 2; stroke: #000000" points="256.275,331.236 248.275,315.236 240.275,331.236 "/>
  </g>
  <g>
    <rect style="fill: #ffffff" x="204" y="218.8" width="87.4" height="28"/>
    <rect style="fill: none; fill-opacity:0; stroke-width: 2; stroke: #000000" x="204" y="218.8" width="87.4" height="28"/>
    <text font-size="16" style="fill: #000000;text-anchor:middle;font-family:sans-serif;font-style:normal;font-weight:700" x="247.7" y="237.8">runNode</text>
  </g>
  <g>
    <polyline style="fill: none; fill-opacity:0; stroke-width: 2; stroke: #000000" points="247.7,265.036 247.7,273.9 248.275,273.9 248.275,285 "/>
    <polygon style="fill: #ffffff" points="255.7,265.036 247.7,249.036 239.7,265.036 "/>
    <polygon style="fill: none; fill-opacity:0; stroke-width: 2; stroke: #000000" points="255.7,265.036 247.7,249.036 239.7,265.036 "/>
  </g>
  <g>
    <polyline style="fill: none; fill-opacity:0; stroke-width: 2; stroke: #000000" points="339.009,433 366,433 366,232.8 291.4,232.8 "/>
    <polygon style="fill: #ffffff" points="313.838,433 327.838,428.2 341.838,433 327.838,437.8 "/>
    <polygon style="fill: none; fill-opacity:0; stroke-width: 2; stroke: #000000" points="313.838,433 327.838,428.2 341.838,433 327.838,437.8 "/>
    <text font-size="12.7998" style="fill: #000000;text-anchor:start;font-family:monospace;font-style:normal;font-weight:normal" x="368" y="329.9">exp</text>
    <text font-size="12.7998" style="fill: #000000;text-anchor:start;font-family:monospace;font-style:normal;font-weight:normal" x="345.838" y="430"/>
    <text font-size="12.7998" style="fill: #000000;text-anchor:start;font-family:monospace;font-style:normal;font-weight:normal" x="295.4" y="229.8">1</text>
  </g>
  <g>
    <rect style="fill: #ffffff" x="183" y="419" width="129.85" height="28"/>
    <rect style="fill: none; fill-opacity:0; stroke-width: 2; stroke: #000000" x="183" y="419" width="129.85" height="28"/>
    <text font-size="16" style="fill: #000000;text-anchor:middle;font-family:sans-serif;font-style:normal;font-weight:700" x="247.925" y="438">incassigNode</text>
  </g>
  <g>
    <polyline style="fill: none; fill-opacity:0; stroke-width: 2; stroke: #000000" points="247.875,398.036 247.875,407.4 247.925,407.4 247.925,419 "/>
    <polygon style="fill: #ffffff" points="255.875,398.036 247.875,382.036 239.875,398.036 "/>
    <polygon style="fill: none; fill-opacity:0; stroke-width: 2; stroke: #000000" points="255.875,398.036 247.875,382.036 239.875,398.036 "/>
  </g>
  <g>
    <rect style="fill: #ffffff" x="242" y="483" width="103.45" height="28"/>
    <rect style="fill: none; fill-opacity:0; stroke-width: 2; stroke: #000000" x="242" y="483" width="103.45" height="28"/>
    <text font-size="16" style="fill: #000000;text-anchor:middle;font-family:sans-serif;font-style:normal;font-weight:700" x="293.725" y="502">assigNode</text>
  </g>
  <g>
    <polyline style="fill: none; fill-opacity:0; stroke-width: 2; stroke-dasharray: 8; stroke: #000000" points="247.925,447 247.925,461 293.725,461 293.725,476.295 "/>
    <polyline style="fill: none; fill-opacity:0; stroke-width: 2; stroke: #000000" points="288.725,463.647 293.725,479.647 298.725,463.647 "/>
  </g>
</svg>
