<?xml version="1.0" encoding="UTF-8" standalone="no"?>
<!DOCTYPE svg PUBLIC "-//W3C//DTD SVG 1.0//EN" "http://www.w3.org/TR/2001/PR-SVG-20010719/DTD/svg10.dtd">
<svg width="34cm" height="24cm" viewBox="237 19 678 477" xmlns="http://www.w3.org/2000/svg" xmlns:xlink="http://www.w3.org/1999/xlink">
  <g>
    <rect style="fill: #ffffff" x="238" y="125" width="86.9" height="36"/>
    <rect style="fill: none; fill-opacity:0; stroke-width: 2; stroke: #000000" x="238" y="125" width="86.9" height="36"/>
    <text font-size="12.7998" style="fill: #000000;text-anchor:middle;font-family:sans-serif;font-style:normal;font-weight:normal" x="281.45" y="146.9">
      <tspan x="281.45" y="146.9">:stmtNode</tspan>
    </text>
    <line style="fill: none; fill-opacity:0; stroke-width: 1; stroke: #000000" x1="248" y1="149.9" x2="314.9" y2="149.9"/>
  </g>
  <g>
    <polygon style="fill: #ffffff" points="348,21 477.2,21 489.2,33 489.2,103 348,103 "/>
    <polygon style="fill: none; fill-opacity:0; stroke-width: 2; stroke: #000000" points="348,21 477.2,21 489.2,33 489.2,103 348,103 "/>
    <polyline style="fill: none; fill-opacity:0; stroke-width: 1; stroke: #000000" points="477.2,21 477.2,33 489.2,33 "/>
    <text font-size="12.7998" style="fill: #000000;text-anchor:start;font-family:monospace;font-style:normal;font-weight:normal" x="355" y="45.9">
      <tspan x="355" y="45.9">if (3 &lt; 4) {</tspan>
      <tspan x="355" y="61.9">  &lt;&lt; "4 + 3 = ";</tspan>
      <tspan x="355" y="77.9">  &lt;&lt; 4 + 3;</tspan>
      <tspan x="355" y="93.9">}</tspan>
    </text>
  </g>
  <line style="fill: none; fill-opacity:0; stroke-width: 2; stroke: #000000" x1="324.9" y1="125" x2="348" y2="103"/>
  <g>
    <rect style="fill: #ffffff" x="345" y="173" width="65.85" height="36"/>
    <rect style="fill: none; fill-opacity:0; stroke-width: 2; stroke: #000000" x="345" y="173" width="65.85" height="36"/>
    <text font-size="12.7998" style="fill: #000000;text-anchor:middle;font-family:sans-serif;font-style:normal;font-weight:normal" x="377.925" y="194.9">
      <tspan x="377.925" y="194.9">:ifNode</tspan>
    </text>
    <line style="fill: none; fill-opacity:0; stroke-width: 1; stroke: #000000" x1="355" y1="197.9" x2="400.85" y2="197.9"/>
  </g>
  <g>
    <rect style="fill: #ffffff" x="474" y="173" width="74.45" height="36"/>
    <rect style="fill: none; fill-opacity:0; stroke-width: 2; stroke: #000000" x="474" y="173" width="74.45" height="36"/>
    <text font-size="12.7998" style="fill: #000000;text-anchor:middle;font-family:sans-serif;font-style:normal;font-weight:normal" x="511.225" y="194.9">
      <tspan x="511.225" y="194.9">:lthNode</tspan>
    </text>
    <line style="fill: none; fill-opacity:0; stroke-width: 1; stroke: #000000" x1="484" y1="197.9" x2="538.45" y2="197.9"/>
  </g>
  <g>
    <rect style="fill: #ffffff" x="434" y="241" width="86.9" height="36"/>
    <rect style="fill: none; fill-opacity:0; stroke-width: 2; stroke: #000000" x="434" y="241" width="86.9" height="36"/>
    <text font-size="12.7998" style="fill: #000000;text-anchor:middle;font-family:sans-serif;font-style:normal;font-weight:normal" x="477.45" y="262.9">
      <tspan x="477.45" y="262.9">:stmtNode</tspan>
    </text>
    <line style="fill: none; fill-opacity:0; stroke-width: 1; stroke: #000000" x1="444" y1="265.9" x2="510.9" y2="265.9"/>
  </g>
  <g>
    <rect style="fill: #ffffff" x="434" y="318.8" width="86.9" height="36"/>
    <rect style="fill: none; fill-opacity:0; stroke-width: 2; stroke: #000000" x="434" y="318.8" width="86.9" height="36"/>
    <text font-size="12.7998" style="fill: #000000;text-anchor:middle;font-family:sans-serif;font-style:normal;font-weight:normal" x="477.45" y="340.7">
      <tspan x="477.45" y="340.7">:stmtNode</tspan>
    </text>
    <line style="fill: none; fill-opacity:0; stroke-width: 1; stroke: #000000" x1="444" y1="343.7" x2="510.9" y2="343.7"/>
  </g>
  <g>
    <rect style="fill: #ffffff" x="605" y="241.157" width="88.7" height="36"/>
    <rect style="fill: none; fill-opacity:0; stroke-width: 2; stroke: #000000" x="605" y="241.157" width="88.7" height="36"/>
    <text font-size="12.7998" style="fill: #000000;text-anchor:middle;font-family:sans-serif;font-style:normal;font-weight:normal" x="649.35" y="263.057">
      <tspan x="649.35" y="263.057">:echoNode</tspan>
    </text>
    <line style="fill: none; fill-opacity:0; stroke-width: 1; stroke: #000000" x1="615" y1="266.057" x2="683.7" y2="266.057"/>
  </g>
  <g>
    <rect style="fill: #ffffff" x="619" y="319.8" width="88.7" height="36"/>
    <rect style="fill: none; fill-opacity:0; stroke-width: 2; stroke: #000000" x="619" y="319.8" width="88.7" height="36"/>
    <text font-size="12.7998" style="fill: #000000;text-anchor:middle;font-family:sans-serif;font-style:normal;font-weight:normal" x="663.35" y="341.7">
      <tspan x="663.35" y="341.7">:echoNode</tspan>
    </text>
    <line style="fill: none; fill-opacity:0; stroke-width: 1; stroke: #000000" x1="629" y1="344.7" x2="697.7" y2="344.7"/>
  </g>
  <g>
    <rect style="fill: #ffffff" x="622.157" y="411" width="81.95" height="36"/>
    <rect style="fill: none; fill-opacity:0; stroke-width: 2; stroke: #000000" x="622.157" y="411" width="81.95" height="36"/>
    <text font-size="12.7998" style="fill: #000000;text-anchor:middle;font-family:sans-serif;font-style:normal;font-weight:normal" x="663.132" y="432.9">
      <tspan x="663.132" y="432.9">:addNode</tspan>
    </text>
    <line style="fill: none; fill-opacity:0; stroke-width: 1; stroke: #000000" x1="632.157" y1="435.9" x2="694.107" y2="435.9"/>
  </g>
  <g>
    <rect style="fill: #ffffff" x="749" y="240.386" width="164.85" height="36"/>
    <rect style="fill: none; fill-opacity:0; stroke-width: 2; stroke: #000000" x="749" y="240.386" width="164.85" height="36"/>
    <text font-size="12.7998" style="fill: #000000;text-anchor:middle;font-family:sans-serif;font-style:normal;font-weight:normal" x="831.425" y="262.286">
      <tspan x="831.425" y="262.286">Str("4 + 3 ="):strNode</tspan>
    </text>
    <line style="fill: none; fill-opacity:0; stroke-width: 1; stroke: #000000" x1="759" y1="265.286" x2="903.85" y2="265.286"/>
  </g>
  <g>
    <rect style="fill: #ffffff" x="603" y="115" width="114.2" height="36"/>
    <rect style="fill: none; fill-opacity:0; stroke-width: 2; stroke: #000000" x="603" y="115" width="114.2" height="36"/>
    <text font-size="12.7998" style="fill: #000000;text-anchor:middle;font-family:sans-serif;font-style:normal;font-weight:normal" x="660.1" y="136.9">
      <tspan x="660.1" y="136.9">N(3):numNode</tspan>
    </text>
    <line style="fill: none; fill-opacity:0; stroke-width: 1; stroke: #000000" x1="613" y1="139.9" x2="707.2" y2="139.9"/>
  </g>
  <g>
    <rect style="fill: #ffffff" x="606" y="171.8" width="114.2" height="36"/>
    <rect style="fill: none; fill-opacity:0; stroke-width: 2; stroke: #000000" x="606" y="171.8" width="114.2" height="36"/>
    <text font-size="12.7998" style="fill: #000000;text-anchor:middle;font-family:sans-serif;font-style:normal;font-weight:normal" x="663.1" y="193.7">
      <tspan x="663.1" y="193.7">N(4):numNode</tspan>
    </text>
    <line style="fill: none; fill-opacity:0; stroke-width: 1; stroke: #000000" x1="616" y1="196.7" x2="710.2" y2="196.7"/>
  </g>
  <g>
    <rect style="fill: #ffffff" x="744" y="357" width="114.2" height="36"/>
    <rect style="fill: none; fill-opacity:0; stroke-width: 2; stroke: #000000" x="744" y="357" width="114.2" height="36"/>
    <text font-size="12.7998" style="fill: #000000;text-anchor:middle;font-family:sans-serif;font-style:normal;font-weight:normal" x="801.1" y="378.9">
      <tspan x="801.1" y="378.9">N(4):numNode</tspan>
    </text>
    <line style="fill: none; fill-opacity:0; stroke-width: 1; stroke: #000000" x1="754" y1="381.9" x2="848.2" y2="381.9"/>
  </g>
  <g>
    <rect style="fill: #ffffff" x="743" y="459.8" width="114.2" height="36"/>
    <rect style="fill: none; fill-opacity:0; stroke-width: 2; stroke: #000000" x="743" y="459.8" width="114.2" height="36"/>
    <text font-size="12.7998" style="fill: #000000;text-anchor:middle;font-family:sans-serif;font-style:normal;font-weight:normal" x="800.1" y="481.7">
      <tspan x="800.1" y="481.7">N(3):numNode</tspan>
    </text>
    <line style="fill: none; fill-opacity:0; stroke-width: 1; stroke: #000000" x1="753" y1="484.7" x2="847.2" y2="484.7"/>
  </g>
  <line style="fill: none; fill-opacity:0; stroke-width: 2; stroke: #000000" x1="324.9" y1="161" x2="345" y2="173"/>
  <line style="fill: none; fill-opacity:0; stroke-width: 2; stroke: #000000" x1="410.85" y1="191" x2="474" y2="191"/>
  <line style="fill: none; fill-opacity:0; stroke-width: 2; stroke: #000000" x1="548.45" y1="191" x2="603" y2="133"/>
  <line style="fill: none; fill-opacity:0; stroke-width: 2; stroke: #000000" x1="548.45" y1="191" x2="606" y2="189.8"/>
  <line style="fill: none; fill-opacity:0; stroke-width: 2; stroke: #000000" x1="377.925" y1="209" x2="434" y2="259"/>
  <line style="fill: none; fill-opacity:0; stroke-width: 2; stroke: #000000" x1="520.9" y1="259" x2="605" y2="259.157"/>
  <line style="fill: none; fill-opacity:0; stroke-width: 2; stroke: #000000" x1="693.7" y1="259.157" x2="747.995" y2="258.853"/>
  <line style="fill: none; fill-opacity:0; stroke-width: 2; stroke: #000000" x1="477.45" y1="277" x2="477.45" y2="318.8"/>
  <line style="fill: none; fill-opacity:0; stroke-width: 2; stroke: #000000" x1="520.9" y1="336.8" x2="619" y2="337.8"/>
  <line style="fill: none; fill-opacity:0; stroke-width: 2; stroke: #000000" x1="663.35" y1="355.8" x2="663.132" y2="411"/>
  <line style="fill: none; fill-opacity:0; stroke-width: 2; stroke: #000000" x1="704.107" y1="429" x2="744" y2="375"/>
  <line style="fill: none; fill-opacity:0; stroke-width: 2; stroke: #000000" x1="704.107" y1="429" x2="743" y2="477.8"/>
  <g>
    <line style="fill: none; fill-opacity:0; stroke-width: 2; stroke: #000000" x1="446" y1="179.978" x2="422.205" y2="179.947"/>
    <polygon style="fill: #000000" points="445.994,184.978 462,179.999 446.006,174.978 "/>
    <polygon style="fill: none; fill-opacity:0; stroke-width: 2; stroke: #000000" points="445.994,184.978 462,179.999 446.006,174.978 "/>
    <text font-size="12.7998" style="fill: #000000;text-anchor:middle;font-family:sans-serif;font-style:normal;font-weight:normal" x="438.603" y="166.974">1: run()</text>
  </g>
  <g>
    <line style="fill: none; fill-opacity:0; stroke-width: 2; stroke: #000000" x1="573.432" y1="147.457" x2="559" y2="163"/>
    <polygon style="fill: #000000" points="577.096,150.86 584.32,135.733 569.768,144.055 "/>
    <polygon style="fill: none; fill-opacity:0; stroke-width: 2; stroke: #000000" points="577.096,150.86 584.32,135.733 569.768,144.055 "/>
    <text font-size="12.7998" style="fill: #000000;text-anchor:middle;font-family:sans-serif;font-style:normal;font-weight:normal" x="541" y="150">2: run()</text>
  </g>
  <g>
    <line style="fill: none; fill-opacity:0; stroke-width: 2; stroke: #000000" x1="581" y1="199.998" x2="559.462" y2="199.996"/>
    <polygon style="fill: #000000" points="581,204.998 597,200 581,194.998 "/>
    <polygon style="fill: none; fill-opacity:0; stroke-width: 2; stroke: #000000" points="581,204.998 597,200 581,194.998 "/>
    <text font-size="12.7998" style="fill: #000000;text-anchor:middle;font-family:sans-serif;font-style:normal;font-weight:normal" x="576.731" y="219.998">3: run()</text>
  </g>
  <g>
    <line style="fill: none; fill-opacity:0; stroke-width: 2; stroke: #000000" x1="394.294" y1="238.706" x2="380" y2="226"/>
    <polygon style="fill: #000000" points="390.972,242.443 406.253,249.336 397.616,234.969 "/>
    <polygon style="fill: none; fill-opacity:0; stroke-width: 2; stroke: #000000" points="390.972,242.443 406.253,249.336 397.616,234.969 "/>
    <text font-size="12.7998" style="fill: #000000;text-anchor:middle;font-family:sans-serif;font-style:normal;font-weight:normal" x="360" y="247">4: run()</text>
  </g>
  <g>
    <line style="fill: none; fill-opacity:0; stroke-width: 2; stroke: #000000" x1="567" y1="247.144" x2="543" y2="247.144"/>
    <polygon style="fill: #000000" points="567,252.144 583,247.144 567,242.144 "/>
    <polygon style="fill: none; fill-opacity:0; stroke-width: 2; stroke: #000000" points="567,252.144 583,247.144 567,242.144 "/>
    <text font-size="12.7998" style="fill: #000000;text-anchor:middle;font-family:sans-serif;font-style:normal;font-weight:normal" x="562" y="236.144">5: run()</text>
  </g>
  <g>
    <line style="fill: none; fill-opacity:0; stroke-width: 2; stroke: #000000" x1="719.229" y1="250.636" x2="702.501" y2="250.503"/>
    <polygon style="fill: #000000" points="719.19,255.636 735.229,250.763 719.269,245.636 "/>
    <polygon style="fill: none; fill-opacity:0; stroke-width: 2; stroke: #000000" points="719.19,255.636 735.229,250.763 719.269,245.636 "/>
    <text font-size="12.7998" style="fill: #000000;text-anchor:middle;font-family:sans-serif;font-style:normal;font-weight:normal" x="723.365" y="240.637">6: run()</text>
  </g>
  <g>
    <line style="fill: none; fill-opacity:0; stroke-width: 2; stroke: #000000" x1="467" y1="295" x2="467" y2="283"/>
    <polygon style="fill: #000000" points="462,295 467,311 472,295 "/>
    <polygon style="fill: none; fill-opacity:0; stroke-width: 2; stroke: #000000" points="462,295 467,311 472,295 "/>
    <text font-size="12.7998" style="fill: #000000;text-anchor:middle;font-family:sans-serif;font-style:normal;font-weight:normal" x="432.5" y="302.5">7: run()</text>
  </g>
  <g>
    <line style="fill: none; fill-opacity:0; stroke-width: 2; stroke: #000000" x1="573" y1="322" x2="552" y2="322"/>
    <polygon style="fill: #000000" points="573,327 589,322 573,317 "/>
    <polygon style="fill: none; fill-opacity:0; stroke-width: 2; stroke: #000000" points="573,327 589,322 573,317 "/>
    <text font-size="12.7998" style="fill: #000000;text-anchor:middle;font-family:sans-serif;font-style:normal;font-weight:normal" x="569" y="309">8: run()</text>
  </g>
  <g>
    <line style="fill: none; fill-opacity:0; stroke-width: 2; stroke: #000000" x1="671.949" y1="379.615" x2="672.043" y2="367.326"/>
    <polygon style="fill: #000000" points="666.949,379.577 671.827,395.614 676.949,379.653 "/>
    <polygon style="fill: none; fill-opacity:0; stroke-width: 2; stroke: #000000" points="666.949,379.577 671.827,395.614 676.949,379.653 "/>
    <text font-size="12.7998" style="fill: #000000;text-anchor:middle;font-family:sans-serif;font-style:normal;font-weight:normal" x="700.959" y="372.723">9: run()</text>
  </g>
  <g>
    <line style="fill: none; fill-opacity:0; stroke-width: 2; stroke: #000000" x1="726.993" y1="415.956" x2="717.538" y2="427.086"/>
    <polygon style="fill: #000000" points="730.804,419.193 737.353,403.762 723.183,412.719 "/>
    <polygon style="fill: none; fill-opacity:0; stroke-width: 2; stroke: #000000" points="730.804,419.193 737.353,403.762 723.183,412.719 "/>
    <text font-size="12.7998" style="fill: #000000;text-anchor:middle;font-family:sans-serif;font-style:normal;font-weight:normal" x="768.769" y="418.043">10: run()</text>
  </g>
  <g>
    <line style="fill: none; fill-opacity:0; stroke-width: 2; stroke: #000000" x1="717.238" y1="470.726" x2="706" y2="459"/>
    <polygon style="fill: #000000" points="713.628,474.186 728.308,482.278 720.848,467.267 "/>
    <polygon style="fill: none; fill-opacity:0; stroke-width: 2; stroke: #000000" points="713.628,474.186 728.308,482.278 720.848,467.267 "/>
    <text font-size="12.7998" style="fill: #000000;text-anchor:middle;font-family:sans-serif;font-style:normal;font-weight:normal" x="678" y="482">11: run()</text>
  </g>
  <g>
    <line style="fill: none; fill-opacity:0; stroke-width: 2; stroke: #000000" x1="340.739" y1="157.187" x2="332.372" y2="151.417"/>
    <polygon style="fill: #000000" points="337.9,161.303 353.91,166.271 343.578,153.071 "/>
    <polygon style="fill: none; fill-opacity:0; stroke-width: 2; stroke: #000000" points="337.9,161.303 353.91,166.271 343.578,153.071 "/>
    <text font-size="12.7998" style="fill: #000000;text-anchor:middle;font-family:sans-serif;font-style:normal;font-weight:normal" x="364.18" y="153.73">run()</text>
  </g>
  <g>
    <polygon style="fill: #ffffff" points="413.337,115.56 450.137,115.56 462.137,127.56 462.137,149.56 413.337,149.56 "/>
    <polygon style="fill: none; fill-opacity:0; stroke-width: 2; stroke: #000000" points="413.337,115.56 450.137,115.56 462.137,127.56 462.137,149.56 413.337,149.56 "/>
    <polyline style="fill: none; fill-opacity:0; stroke-width: 1; stroke: #000000" points="450.137,115.56 450.137,127.56 462.137,127.56 "/>
    <text font-size="12.7998" style="fill: #000000;text-anchor:start;font-family:monospace;font-style:normal;font-weight:normal" x="420.337" y="140.46">
      <tspan x="420.337" y="140.46">true</tspan>
    </text>
  </g>
  <line style="fill: none; fill-opacity:0; stroke-width: 2; stroke: #000000" x1="474" y1="173" x2="462.137" y2="149.56"/>
  <g>
    <polygon style="fill: #ffffff" points="589.92,369.253 603.62,369.253 615.62,381.253 615.62,403.253 589.92,403.253 "/>
    <polygon style="fill: none; fill-opacity:0; stroke-width: 2; stroke: #000000" points="589.92,369.253 603.62,369.253 615.62,381.253 615.62,403.253 589.92,403.253 "/>
    <polyline style="fill: none; fill-opacity:0; stroke-width: 1; stroke: #000000" points="603.62,369.253 603.62,381.253 615.62,381.253 "/>
    <text font-size="12.7998" style="fill: #000000;text-anchor:start;font-family:monospace;font-style:normal;font-weight:normal" x="596.92" y="394.153">
      <tspan x="596.92" y="394.153">7</tspan>
    </text>
  </g>
  <line style="fill: none; fill-opacity:0; stroke-width: 2; stroke: #000000" x1="622.157" y1="411" x2="615.62" y2="403.253"/>
</svg>
