<?xml version="1.0" encoding="UTF-8" standalone="no"?>
<!DOCTYPE svg PUBLIC "-//W3C//DTD SVG 1.0//EN" "http://www.w3.org/TR/2001/PR-SVG-20010719/DTD/svg10.dtd">
<svg width="22cm" height="22cm" viewBox="59 82 428 429" xmlns="http://www.w3.org/2000/svg" xmlns:xlink="http://www.w3.org/1999/xlink">
  <g>
    <rect style="fill: #ffffff" x="60.3332" y="103.8" width="425.841" height="406.431"/>
    <rect style="fill: none; fill-opacity:0; stroke-width: 2; stroke: #000000" x="60.3332" y="103.8" width="425.841" height="406.431"/>
    <rect style="fill: #ffffff" x="60.3332" y="83.8" width="96.4" height="20"/>
    <rect style="fill: none; fill-opacity:0; stroke-width: 2; stroke: #000000" x="60.3332" y="83.8" width="96.4" height="20"/>
    <text font-size="12.7998" style="fill: #000000;text-anchor:start;font-family:monospace;font-style:normal;font-weight:normal" x="62.3332" y="98.8"> generator  </text>
  </g>
  <g>
    <rect style="fill: #ffffff" x="221.354" y="326.8" width="100.75" height="28"/>
    <rect style="fill: none; fill-opacity:0; stroke-width: 2; stroke: #000000" x="221.354" y="326.8" width="100.75" height="28"/>
    <text font-size="16" style="fill: #000000;text-anchor:middle;font-family:sans-serif;font-style:normal;font-weight:700" x="271.729" y="345.8">dexpNode</text>
  </g>
  <g>
    <rect style="fill: #ffffff" x="219.9" y="393.8" width="104.05" height="28"/>
    <rect style="fill: none; fill-opacity:0; stroke-width: 2; stroke: #000000" x="219.9" y="393.8" width="104.05" height="28"/>
    <text font-size="16" style="fill: #000000;text-anchor:middle;font-family:sans-serif;font-style:normal;font-weight:700" x="271.925" y="412.8">arrayNode</text>
  </g>
  <g>
    <polyline style="fill: none; fill-opacity:0; stroke-width: 2; stroke: #000000" points="271.729,373.036 271.729,382.3 271.925,382.3 271.925,393.8 "/>
    <polygon style="fill: #ffffff" points="279.729,373.036 271.729,357.036 263.729,373.036 "/>
    <polygon style="fill: none; fill-opacity:0; stroke-width: 2; stroke: #000000" points="279.729,373.036 271.729,357.036 263.729,373.036 "/>
  </g>
  <g>
    <rect style="fill: #ffffff" x="228" y="121.6" width="87.4" height="28"/>
    <rect style="fill: none; fill-opacity:0; stroke-width: 2; stroke: #000000" x="228" y="121.6" width="87.4" height="28"/>
    <text font-size="16" style="fill: #000000;text-anchor:middle;font-family:sans-serif;font-style:normal;font-weight:700" x="271.7" y="140.6">runNode</text>
  </g>
  <g>
    <rect style="fill: #ffffff" x="202.546" y="193.6" width="139.2" height="28"/>
    <rect style="fill: none; fill-opacity:0; stroke-width: 2; stroke: #000000" x="202.546" y="193.6" width="139.2" height="28"/>
    <text font-size="16" style="fill: #000000;text-anchor:middle;font-family:sans-serif;font-style:normal;font-weight:700" x="272.146" y="212.6">printableNode</text>
  </g>
  <g>
    <rect style="fill: #ffffff" x="194.455" y="260.6" width="154.4" height="28"/>
    <rect style="fill: none; fill-opacity:0; stroke-width: 2; stroke: #000000" x="194.455" y="260.6" width="154.4" height="28"/>
    <text font-size="16" style="fill: #000000;text-anchor:middle;font-family:sans-serif;font-style:normal;font-weight:700" x="271.655" y="279.6">objectTypeNode</text>
  </g>
  <g>
    <polyline style="fill: none; fill-opacity:0; stroke-width: 2; stroke: #000000" points="271.7,167.836 271.7,179.6 272.146,179.6 272.146,193.6 "/>
    <polygon style="fill: #ffffff" points="279.7,167.836 271.7,151.836 263.7,167.836 "/>
    <polygon style="fill: none; fill-opacity:0; stroke-width: 2; stroke: #000000" points="279.7,167.836 271.7,151.836 263.7,167.836 "/>
  </g>
  <g>
    <polyline style="fill: none; fill-opacity:0; stroke-width: 2; stroke: #000000" points="272.146,239.836 272.146,249.1 271.655,249.1 271.655,260.6 "/>
    <polygon style="fill: #ffffff" points="280.146,239.836 272.146,223.836 264.146,239.836 "/>
    <polygon style="fill: none; fill-opacity:0; stroke-width: 2; stroke: #000000" points="280.146,239.836 272.146,223.836 264.146,239.836 "/>
  </g>
  <g>
    <polyline style="fill: none; fill-opacity:0; stroke-width: 2; stroke: #000000" points="271.655,306.836 271.655,315.7 271.729,315.7 271.729,326.8 "/>
    <polygon style="fill: #ffffff" points="279.655,306.836 271.655,290.836 263.655,306.836 "/>
    <polygon style="fill: none; fill-opacity:0; stroke-width: 2; stroke: #000000" points="279.655,306.836 271.655,290.836 263.655,306.836 "/>
  </g>
  <g>
    <rect style="fill: #ffffff" x="198.455" y="463.8" width="146.5" height="28"/>
    <rect style="fill: none; fill-opacity:0; stroke-width: 2; stroke: #000000" x="198.455" y="463.8" width="146.5" height="28"/>
    <text font-size="16" style="fill: #000000;text-anchor:middle;font-family:sans-serif;font-style:normal;font-weight:700" x="271.705" y="482.8">generatorNode</text>
  </g>
  <g>
    <polyline style="fill: none; fill-opacity:0; stroke-width: 2; stroke: #000000" points="271.925,440.036 271.925,450.8 271.705,450.8 271.705,463.8 "/>
    <polygon style="fill: #ffffff" points="279.925,440.036 271.925,424.036 263.925,440.036 "/>
    <polygon style="fill: none; fill-opacity:0; stroke-width: 2; stroke: #000000" points="279.925,440.036 271.925,424.036 263.925,440.036 "/>
  </g>
  <g>
    <polyline style="fill: none; fill-opacity:0; stroke-width: 2; stroke: #000000" points="370.126,491.8 459.458,491.8 459.458,119.641 315.4,119.641 315.4,121.6 "/>
    <polygon style="fill: #ffffff" points="344.954,491.8 358.954,487 372.954,491.8 358.954,496.6 "/>
    <polygon style="fill: none; fill-opacity:0; stroke-width: 2; stroke: #000000" points="344.954,491.8 358.954,487 372.954,491.8 358.954,496.6 "/>
    <text font-size="12.7998" style="fill: #000000;text-anchor:middle;font-family:monospace;font-style:normal;font-weight:normal" x="387.429" y="116.641">elem</text>
    <text font-size="12.7998" style="fill: #000000;text-anchor:start;font-family:monospace;font-style:normal;font-weight:normal" x="376.954" y="488.8"/>
    <text font-size="12.7998" style="fill: #000000;text-anchor:start;font-family:monospace;font-style:normal;font-weight:normal" x="319.4" y="117.6">1</text>
  </g>
  <g>
    <polyline style="fill: none; fill-opacity:0; stroke-width: 2; stroke: #000000" points="370.126,477.8 449.642,477.8 449.642,136 317.026,136 317.026,135.6 315.4,135.6 "/>
    <polygon style="fill: #ffffff" points="344.954,477.8 358.954,473 372.954,477.8 358.954,482.6 "/>
    <polygon style="fill: none; fill-opacity:0; stroke-width: 2; stroke: #000000" points="344.954,477.8 358.954,473 372.954,477.8 358.954,482.6 "/>
    <text font-size="12.7998" style="fill: #000000;text-anchor:middle;font-family:monospace;font-style:normal;font-weight:normal" x="383.334" y="133">key</text>
    <text font-size="12.7998" style="fill: #000000;text-anchor:start;font-family:monospace;font-style:normal;font-weight:normal" x="376.954" y="474.8"/>
    <text font-size="12.7998" style="fill: #000000;text-anchor:start;font-family:monospace;font-style:normal;font-weight:normal" x="319.4" y="132.6">0,1</text>
  </g>
  <g>
    <polyline style="fill: none; fill-opacity:0; stroke-width: 2; stroke: #000000" points="370.126,463.8 442.01,463.8 442.01,150 315.4,150 315.4,149.6 "/>
    <polygon style="fill: #ffffff" points="344.954,463.8 358.954,459 372.954,463.8 358.954,468.6 "/>
    <polygon style="fill: none; fill-opacity:0; stroke-width: 2; stroke: #000000" points="344.954,463.8 358.954,459 372.954,463.8 358.954,468.6 "/>
    <text font-size="12.7998" style="fill: #000000;text-anchor:middle;font-family:monospace;font-style:normal;font-weight:normal" x="378.705" y="147">value</text>
    <text font-size="12.7998" style="fill: #000000;text-anchor:start;font-family:monospace;font-style:normal;font-weight:normal" x="376.954" y="460.8"/>
    <text font-size="12.7998" style="fill: #000000;text-anchor:start;font-family:monospace;font-style:normal;font-weight:normal" x="319.4" y="161.6">1</text>
  </g>
  <g>
    <polyline style="fill: none; fill-opacity:0; stroke-width: 2; stroke: #000000" points="173.283,477.8 80.9882,477.8 80.9882,135.58 195.539,135.58 195.539,135.6 228,135.6 "/>
    <polygon style="fill: #ffffff" points="198.455,477.8 184.455,482.6 170.455,477.8 184.455,473 "/>
    <polygon style="fill: none; fill-opacity:0; stroke-width: 2; stroke: #000000" points="198.455,477.8 184.455,482.6 170.455,477.8 184.455,473 "/>
    <text font-size="12.7998" style="fill: #000000;text-anchor:middle;font-family:monospace;font-style:normal;font-weight:normal" x="138.264" y="132.58">generator</text>
    <text font-size="12.7998" style="fill: #000000;text-anchor:end;font-family:monospace;font-style:normal;font-weight:normal" x="166.455" y="474.8"/>
    <text font-size="12.7998" style="fill: #000000;text-anchor:end;font-family:monospace;font-style:normal;font-weight:normal" x="224" y="132.6">1</text>
  </g>
  <g>
    <polyline style="fill: none; fill-opacity:0; stroke-width: 2; stroke: #000000" points="198.455,438.628 198.455,428.798 93.1914,428.798 93.1914,149.633 228,149.633 228,149.6 "/>
    <polygon style="fill: #ffffff" points="198.455,463.8 193.655,449.8 198.455,435.8 203.255,449.8 "/>
    <polygon style="fill: none; fill-opacity:0; stroke-width: 2; stroke: #000000" points="198.455,463.8 193.655,449.8 198.455,435.8 203.255,449.8 "/>
    <text font-size="12.7998" style="fill: #000000;text-anchor:start;font-family:monospace;font-style:normal;font-weight:normal" x="95.1914" y="286.215">conditions</text>
    <text font-size="12.7998" style="fill: #000000;text-anchor:start;font-family:monospace;font-style:normal;font-weight:normal" x="209.455" y="459.8"/>
    <text font-size="12.7998" style="fill: #000000;text-anchor:start;font-family:monospace;font-style:normal;font-weight:normal" x="232" y="161.6">1</text>
  </g>
</svg>
