<?xml version="1.0" encoding="UTF-8" standalone="no"?>
<!DOCTYPE svg PUBLIC "-//W3C//DTD SVG 1.0//EN" "http://www.w3.org/TR/2001/PR-SVG-20010719/DTD/svg10.dtd">
<svg width="23cm" height="19cm" viewBox="148 45 457 369" xmlns="http://www.w3.org/2000/svg" xmlns:xlink="http://www.w3.org/1999/xlink">
  <g>
    <rect style="fill: #ffffff" x="149" y="66" width="455" height="346"/>
    <rect style="fill: none; fill-opacity:0; stroke-width: 2; stroke: #000000" x="149" y="66" width="455" height="346"/>
    <rect style="fill: #ffffff" x="149" y="46" width="65.6" height="20"/>
    <rect style="fill: none; fill-opacity:0; stroke-width: 2; stroke: #000000" x="149" y="46" width="65.6" height="20"/>
    <text font-size="12.7998" style="fill: #000000;text-anchor:start;font-family:monospace;font-style:normal;font-weight:normal" x="151" y="61"> object </text>
  </g>
  <g>
    <rect style="fill: #ffffff" x="198.9" y="288" width="100.75" height="28"/>
    <rect style="fill: none; fill-opacity:0; stroke-width: 2; stroke: #000000" x="198.9" y="288" width="100.75" height="28"/>
    <text font-size="16" style="fill: #000000;text-anchor:middle;font-family:sans-serif;font-style:normal;font-weight:700" x="249.275" y="307">dexpNode</text>
  </g>
  <g>
    <rect style="fill: #ffffff" x="196.9" y="356" width="104.05" height="28"/>
    <rect style="fill: none; fill-opacity:0; stroke-width: 2; stroke: #000000" x="196.9" y="356" width="104.05" height="28"/>
    <text font-size="16" style="fill: #000000;text-anchor:middle;font-family:sans-serif;font-style:normal;font-weight:700" x="248.925" y="375">arrayNode</text>
  </g>
  <g>
    <polyline style="fill: none; fill-opacity:0; stroke-width: 2; stroke: #000000" points="249.275,334.236 249.275,344 248.925,344 248.925,356 "/>
    <polygon style="fill: #ffffff" points="257.275,334.236 249.275,318.236 241.275,334.236 "/>
    <polygon style="fill: none; fill-opacity:0; stroke-width: 2; stroke: #000000" points="257.275,334.236 249.275,318.236 241.275,334.236 "/>
  </g>
  <g>
    <rect style="fill: #ffffff" x="205" y="83.8" width="87.4" height="28"/>
    <rect style="fill: none; fill-opacity:0; stroke-width: 2; stroke: #000000" x="205" y="83.8" width="87.4" height="28"/>
    <text font-size="16" style="fill: #000000;text-anchor:middle;font-family:sans-serif;font-style:normal;font-weight:700" x="248.7" y="102.8">runNode</text>
  </g>
  <g>
    <rect style="fill: #ffffff" x="179" y="150.8" width="139.2" height="28"/>
    <rect style="fill: none; fill-opacity:0; stroke-width: 2; stroke: #000000" x="179" y="150.8" width="139.2" height="28"/>
    <text font-size="16" style="fill: #000000;text-anchor:middle;font-family:sans-serif;font-style:normal;font-weight:700" x="248.6" y="169.8">printableNode</text>
  </g>
  <g>
    <rect style="fill: #ffffff" x="172" y="221.8" width="154.4" height="28"/>
    <rect style="fill: none; fill-opacity:0; stroke-width: 2; stroke: #000000" x="172" y="221.8" width="154.4" height="28"/>
    <text font-size="16" style="fill: #000000;text-anchor:middle;font-family:sans-serif;font-style:normal;font-weight:700" x="249.2" y="240.8">objectTypeNode</text>
  </g>
  <g>
    <polyline style="fill: none; fill-opacity:0; stroke-width: 2; stroke: #000000" points="248.7,130.036 248.7,139.3 248.6,139.3 248.6,150.8 "/>
    <polygon style="fill: #ffffff" points="256.7,130.036 248.7,114.036 240.7,130.036 "/>
    <polygon style="fill: none; fill-opacity:0; stroke-width: 2; stroke: #000000" points="256.7,130.036 248.7,114.036 240.7,130.036 "/>
  </g>
  <g>
    <polyline style="fill: none; fill-opacity:0; stroke-width: 2; stroke: #000000" points="248.6,197.036 248.6,208.3 249.2,208.3 249.2,221.8 "/>
    <polygon style="fill: #ffffff" points="256.6,197.036 248.6,181.036 240.6,197.036 "/>
    <polygon style="fill: none; fill-opacity:0; stroke-width: 2; stroke: #000000" points="256.6,197.036 248.6,181.036 240.6,197.036 "/>
  </g>
  <g>
    <polyline style="fill: none; fill-opacity:0; stroke-width: 2; stroke: #000000" points="249.2,268.036 249.2,276.9 249.275,276.9 249.275,288 "/>
    <polygon style="fill: #ffffff" points="257.2,268.036 249.2,252.036 241.2,268.036 "/>
    <polygon style="fill: none; fill-opacity:0; stroke-width: 2; stroke: #000000" points="257.2,268.036 249.2,252.036 241.2,268.036 "/>
  </g>
  <g>
    <rect style="fill: #ffffff" x="419" y="356" width="112.65" height="28"/>
    <rect style="fill: none; fill-opacity:0; stroke-width: 2; stroke: #000000" x="419" y="356" width="112.65" height="28"/>
    <text font-size="16" style="fill: #000000;text-anchor:middle;font-family:sans-serif;font-style:normal;font-weight:700" x="475.325" y="375">objectNode</text>
  </g>
  <g>
    <polyline style="fill: none; fill-opacity:0; stroke-width: 2; stroke: #000000" points="320.193,370 318.956,370 418,370 419,370 "/>
    <polygon style="fill: #ffffff" points="320.193,362 304.193,370 320.193,378 "/>
    <polygon style="fill: none; fill-opacity:0; stroke-width: 2; stroke: #000000" points="320.193,362 304.193,370 320.193,378 "/>
  </g>
  <g>
    <rect style="fill: #ffffff" x="485" y="222" width="101.5" height="28"/>
    <rect style="fill: none; fill-opacity:0; stroke-width: 2; stroke: #000000" x="485" y="222" width="101.5" height="28"/>
    <text font-size="16" style="fill: #000000;text-anchor:middle;font-family:sans-serif;font-style:normal;font-weight:700" x="535.75" y="241">classNode</text>
  </g>
  <g>
    <polyline style="fill: none; fill-opacity:0; stroke-width: 2; stroke: #000000" points="310.636,97.8 535.75,97.8 535.75,222 "/>
    <polygon style="fill: #ffffff" points="310.636,89.8 294.636,97.8 310.636,105.8 "/>
    <polygon style="fill: none; fill-opacity:0; stroke-width: 2; stroke: #000000" points="310.636,89.8 294.636,97.8 310.636,105.8 "/>
  </g>
  <g>
    <polyline style="fill: none; fill-opacity:0; stroke-width: 2; stroke: #000000" points="326.4,235.8 405.7,235.8 405.7,236 485,236 "/>
    <text font-size="12.7998" style="fill: #000000;text-anchor:start;font-family:monospace;font-style:normal;font-weight:normal" x="407.7" y="232.9">get</text>
    <polygon style="fill: #000000" points="432.8,232.9 432.8,224.9 440.8,228.9 "/>
    <text font-size="12.7998" style="fill: #000000;text-anchor:start;font-family:monospace;font-style:normal;font-weight:normal" x="330.4" y="232.8">1</text>
    <text font-size="12.7998" style="fill: #000000;text-anchor:end;font-family:monospace;font-style:normal;font-weight:normal" x="481" y="233">0,1</text>
  </g>
  <g>
    <polyline style="fill: none; fill-opacity:0; stroke-width: 2; stroke: #000000" points="475.324,356 475.324,303 535.75,303 535.75,250 "/>
    <text font-size="12.7998" style="fill: #000000;text-anchor:middle;font-family:monospace;font-style:normal;font-weight:normal" x="505.537" y="300">get</text>
    <polygon style="fill: #000000" points="519.087,300 519.087,292 527.087,296 "/>
    <text font-size="12.7998" style="fill: #000000;text-anchor:start;font-family:monospace;font-style:normal;font-weight:normal" x="479.324" y="352">1</text>
    <text font-size="12.7998" style="fill: #000000;text-anchor:start;font-family:monospace;font-style:normal;font-weight:normal" x="539.75" y="262">1</text>
  </g>
</svg>
