<?xml version="1.0" encoding="UTF-8" standalone="no"?>
<!DOCTYPE svg PUBLIC "-//W3C//DTD SVG 1.0//EN" "http://www.w3.org/TR/2001/PR-SVG-20010719/DTD/svg10.dtd">
<svg width="25cm" height="24cm" viewBox="248 245 491 469" xmlns="http://www.w3.org/2000/svg" xmlns:xlink="http://www.w3.org/1999/xlink">
  <g>
    <rect style="fill: #ffffff" x="249.002" y="266" width="488.998" height="447"/>
    <rect style="fill: none; fill-opacity:0; stroke-width: 2; stroke: #000000" x="249.002" y="266" width="488.998" height="447"/>
    <rect style="fill: #ffffff" x="249.002" y="246" width="158" height="20"/>
    <rect style="fill: none; fill-opacity:0; stroke-width: 2; stroke: #000000" x="249.002" y="246" width="158" height="20"/>
    <text font-size="12.7998" style="fill: #000000;text-anchor:start;font-family:monospace;font-style:normal;font-weight:normal" x="251.002" y="261">  operatorBaseNode  </text>
  </g>
  <g>
    <rect style="fill: #ffffff" x="288.002" y="286.8" width="193.7" height="86"/>
    <rect style="fill: none; fill-opacity:0; stroke-width: 2; stroke: #000000" x="288.002" y="286.8" width="193.7" height="86"/>
    <rect style="fill: #ffffff" x="268.002" y="308.8" width="40" height="14"/>
    <rect style="fill: none; fill-opacity:0; stroke-width: 2; stroke: #000000" x="268.002" y="308.8" width="40" height="14"/>
    <rect style="fill: #ffffff" x="268.002" y="336.8" width="40" height="14"/>
    <rect style="fill: none; fill-opacity:0; stroke-width: 2; stroke: #000000" x="268.002" y="336.8" width="40" height="14"/>
    <text font-size="12.8" style="fill: #000000;text-anchor:start;font-family:sans-serif;font-style:normal;font-weight:normal" x="316.002" y="312.7">&lt;&lt;file&gt;&gt;</text>
    <text font-size="12.8" style="fill: #000000;text-anchor:start;font-family:sans-serif;font-style:normal;font-weight:normal" x="316.002" y="328.7">
      <tspan x="316.002" y="328.7">run/operatorBaseNode.h</tspan>
    </text>
  </g>
  <g>
    <rect style="fill: #ffffff" x="281.002" y="573.8" width="208.95" height="86"/>
    <rect style="fill: none; fill-opacity:0; stroke-width: 2; stroke: #000000" x="281.002" y="573.8" width="208.95" height="86"/>
    <rect style="fill: #ffffff" x="261.002" y="595.8" width="40" height="14"/>
    <rect style="fill: none; fill-opacity:0; stroke-width: 2; stroke: #000000" x="261.002" y="595.8" width="40" height="14"/>
    <rect style="fill: #ffffff" x="261.002" y="623.8" width="40" height="14"/>
    <rect style="fill: none; fill-opacity:0; stroke-width: 2; stroke: #000000" x="261.002" y="623.8" width="40" height="14"/>
    <text font-size="12.8" style="fill: #000000;text-anchor:start;font-family:sans-serif;font-style:normal;font-weight:normal" x="309.002" y="599.7">&lt;&lt;file&gt;&gt;</text>
    <text font-size="12.8" style="fill: #000000;text-anchor:start;font-family:sans-serif;font-style:normal;font-weight:normal" x="309.002" y="615.7">
      <tspan x="309.002" y="615.7">run/operatorBaseNode.cpp</tspan>
    </text>
  </g>
  <g>
    <polyline style="fill: none; fill-opacity:0; stroke-width: 2; stroke-dasharray: 8; stroke: #000000" points="385.477,573.8 385.477,477.3 384.852,477.3 384.852,379.505 "/>
    <polyline style="fill: none; fill-opacity:0; stroke-width: 2; stroke: #000000" points="389.852,392.153 384.852,376.153 379.852,392.153 "/>
  </g>
  <g>
    <rect style="fill: #ffffff" x="591.002" y="281.8" width="130.85" height="86"/>
    <rect style="fill: none; fill-opacity:0; stroke-width: 2; stroke: #000000" x="591.002" y="281.8" width="130.85" height="86"/>
    <rect style="fill: #ffffff" x="571.002" y="303.8" width="40" height="14"/>
    <rect style="fill: none; fill-opacity:0; stroke-width: 2; stroke: #000000" x="571.002" y="303.8" width="40" height="14"/>
    <rect style="fill: #ffffff" x="571.002" y="331.8" width="40" height="14"/>
    <rect style="fill: none; fill-opacity:0; stroke-width: 2; stroke: #000000" x="571.002" y="331.8" width="40" height="14"/>
    <text font-size="12.8" style="fill: #000000;text-anchor:start;font-family:sans-serif;font-style:normal;font-weight:normal" x="619.002" y="307.7">&lt;&lt;file&gt;&gt;</text>
    <text font-size="12.8" style="fill: #000000;text-anchor:start;font-family:sans-serif;font-style:normal;font-weight:normal" x="619.002" y="323.7">
      <tspan x="619.002" y="323.7">run/expNode.h</tspan>
    </text>
  </g>
  <g>
    <polyline style="fill: none; fill-opacity:0; stroke-width: 2; stroke-dasharray: 8; stroke: #000000" points="481.702,329.8 522.352,329.8 522.352,310.8 564.297,310.8 "/>
    <polyline style="fill: none; fill-opacity:0; stroke-width: 2; stroke: #000000" points="551.649,315.8 567.649,310.8 551.649,305.8 "/>
  </g>
  <g>
    <rect style="fill: #ffffff" x="591.002" y="382.8" width="122" height="86"/>
    <rect style="fill: none; fill-opacity:0; stroke-width: 2; stroke: #000000" x="591.002" y="382.8" width="122" height="86"/>
    <rect style="fill: #ffffff" x="571.002" y="404.8" width="40" height="14"/>
    <rect style="fill: none; fill-opacity:0; stroke-width: 2; stroke: #000000" x="571.002" y="404.8" width="40" height="14"/>
    <rect style="fill: #ffffff" x="571.002" y="432.8" width="40" height="14"/>
    <rect style="fill: none; fill-opacity:0; stroke-width: 2; stroke: #000000" x="571.002" y="432.8" width="40" height="14"/>
    <text font-size="12.8" style="fill: #000000;text-anchor:start;font-family:sans-serif;font-style:normal;font-weight:normal" x="619.002" y="408.7">&lt;&lt;file&gt;&gt;</text>
    <text font-size="12.8" style="fill: #000000;text-anchor:start;font-family:sans-serif;font-style:normal;font-weight:normal" x="619.002" y="424.7">
      <tspan x="619.002" y="424.7">run/runTree.h</tspan>
    </text>
  </g>
  <g>
    <polyline style="fill: none; fill-opacity:0; stroke-width: 2; stroke-dasharray: 8; stroke: #000000" points="481.702,329.8 522.352,329.8 522.352,411.8 564.297,411.8 "/>
    <polyline style="fill: none; fill-opacity:0; stroke-width: 2; stroke: #000000" points="551.649,416.8 567.649,411.8 551.649,406.8 "/>
  </g>
  <g>
    <rect style="fill: #ffffff" x="590" y="495.8" width="98.5" height="86"/>
    <rect style="fill: none; fill-opacity:0; stroke-width: 2; stroke: #000000" x="590" y="495.8" width="98.5" height="86"/>
    <rect style="fill: #ffffff" x="570" y="517.8" width="40" height="14"/>
    <rect style="fill: none; fill-opacity:0; stroke-width: 2; stroke: #000000" x="570" y="517.8" width="40" height="14"/>
    <rect style="fill: #ffffff" x="570" y="545.8" width="40" height="14"/>
    <rect style="fill: none; fill-opacity:0; stroke-width: 2; stroke: #000000" x="570" y="545.8" width="40" height="14"/>
    <text font-size="12.8" style="fill: #000000;text-anchor:start;font-family:sans-serif;font-style:normal;font-weight:normal" x="618" y="521.7">&lt;&lt;file&gt;&gt;</text>
    <text font-size="12.8" style="fill: #000000;text-anchor:start;font-family:sans-serif;font-style:normal;font-weight:normal" x="618" y="537.7">
      <tspan x="618" y="537.7">error.h</tspan>
    </text>
  </g>
  <g>
    <rect style="fill: #ffffff" x="589" y="607" width="113.7" height="70"/>
    <rect style="fill: none; fill-opacity:0; stroke-width: 2; stroke: #000000" x="589" y="607" width="113.7" height="70"/>
    <rect style="fill: #ffffff" x="569" y="621" width="40" height="14"/>
    <rect style="fill: none; fill-opacity:0; stroke-width: 2; stroke: #000000" x="569" y="621" width="40" height="14"/>
    <rect style="fill: #ffffff" x="569" y="649" width="40" height="14"/>
    <rect style="fill: none; fill-opacity:0; stroke-width: 2; stroke: #000000" x="569" y="649" width="40" height="14"/>
    <text font-size="12.8" style="fill: #000000;text-anchor:start;font-family:sans-serif;font-style:normal;font-weight:normal" x="617" y="632.9">
      <tspan x="617" y="632.9">&lt;&lt;file&gt;&gt;</tspan>
      <tspan x="617" y="648.9">run/sTable.h</tspan>
    </text>
  </g>
  <g>
    <polyline style="fill: none; fill-opacity:0; stroke-width: 2; stroke-dasharray: 8; stroke: #000000" points="489.952,616.8 525.976,616.8 525.976,524.8 563.295,524.8 "/>
    <polyline style="fill: none; fill-opacity:0; stroke-width: 2; stroke: #000000" points="550.647,529.8 566.647,524.8 550.647,519.8 "/>
  </g>
  <g>
    <polyline style="fill: none; fill-opacity:0; stroke-width: 2; stroke-dasharray: 8; stroke: #000000" points="489.952,616.8 526,616.8 526,656 562.295,656 "/>
    <polyline style="fill: none; fill-opacity:0; stroke-width: 2; stroke: #000000" points="549.647,661 565.647,656 549.647,651 "/>
  </g>
</svg>
