<?xml version="1.0" encoding="UTF-8" standalone="no"?>
<!DOCTYPE svg PUBLIC "-//W3C//DTD SVG 1.0//EN" "http://www.w3.org/TR/2001/PR-SVG-20010719/DTD/svg10.dtd">
<svg width="11cm" height="11cm" viewBox="149 187 213 215" xmlns="http://www.w3.org/2000/svg" xmlns:xlink="http://www.w3.org/1999/xlink">
  <g>
    <rect style="fill: #ffffff" x="150" y="208.008" width="210" height="192.565"/>
    <rect style="fill: none; fill-opacity:0; stroke-width: 2; stroke: #000000" x="150" y="208.008" width="210" height="192.565"/>
    <rect style="fill: #ffffff" x="150" y="188.008" width="50.2" height="20"/>
    <rect style="fill: none; fill-opacity:0; stroke-width: 2; stroke: #000000" x="150" y="188.008" width="50.2" height="20"/>
    <text font-size="12.7998" style="fill: #000000;text-anchor:start;font-family:monospace;font-style:normal;font-weight:normal" x="152" y="203.008"> size </text>
  </g>
  <g>
    <rect style="fill: #ffffff" x="190.9" y="286" width="99.95" height="28"/>
    <rect style="fill: none; fill-opacity:0; stroke-width: 2; stroke: #000000" x="190.9" y="286" width="99.95" height="28"/>
    <text font-size="16" style="fill: #000000;text-anchor:middle;font-family:sans-serif;font-style:normal;font-weight:700" x="240.875" y="305">arithNode</text>
  </g>
  <g>
    <rect style="fill: #ffffff" x="194.9" y="353.8" width="91.85" height="28"/>
    <rect style="fill: none; fill-opacity:0; stroke-width: 2; stroke: #000000" x="194.9" y="353.8" width="91.85" height="28"/>
    <text font-size="16" style="fill: #000000;text-anchor:middle;font-family:sans-serif;font-style:normal;font-weight:700" x="240.825" y="372.8">sizeNode</text>
  </g>
  <g>
    <polyline style="fill: none; fill-opacity:0; stroke-width: 2; stroke: #000000" points="240.875,332.236 240.875,341.9 240.825,341.9 240.825,353.8 "/>
    <polygon style="fill: #ffffff" points="248.875,332.236 240.875,316.236 232.875,332.236 "/>
    <polygon style="fill: none; fill-opacity:0; stroke-width: 2; stroke: #000000" points="248.875,332.236 240.875,316.236 232.875,332.236 "/>
  </g>
  <g>
    <rect style="fill: #ffffff" x="197" y="218.8" width="87.4" height="28"/>
    <rect style="fill: none; fill-opacity:0; stroke-width: 2; stroke: #000000" x="197" y="218.8" width="87.4" height="28"/>
    <text font-size="16" style="fill: #000000;text-anchor:middle;font-family:sans-serif;font-style:normal;font-weight:700" x="240.7" y="237.8">runNode</text>
  </g>
  <g>
    <polyline style="fill: none; fill-opacity:0; stroke-width: 2; stroke: #000000" points="240.7,265.036 240.7,274.4 240.875,274.4 240.875,286 "/>
    <polygon style="fill: #ffffff" points="248.7,265.036 240.7,249.036 232.7,265.036 "/>
    <polygon style="fill: none; fill-opacity:0; stroke-width: 2; stroke: #000000" points="248.7,265.036 240.7,249.036 232.7,265.036 "/>
  </g>
  <g>
    <polyline style="fill: none; fill-opacity:0; stroke-width: 2; stroke: #000000" points="311.922,367.8 327.222,367.8 327.222,232.8 284.4,232.8 "/>
    <polygon style="fill: #ffffff" points="286.75,367.8 300.75,363 314.75,367.8 300.75,372.6 "/>
    <polygon style="fill: none; fill-opacity:0; stroke-width: 2; stroke: #000000" points="286.75,367.8 300.75,363 314.75,367.8 300.75,372.6 "/>
    <text font-size="12.7998" style="fill: #000000;text-anchor:start;font-family:monospace;font-style:normal;font-weight:normal" x="329.222" y="297.3">op</text>
    <text font-size="12.7998" style="fill: #000000;text-anchor:start;font-family:monospace;font-style:normal;font-weight:normal" x="318.75" y="364.8"/>
    <text font-size="12.7998" style="fill: #000000;text-anchor:start;font-family:monospace;font-style:normal;font-weight:normal" x="288.4" y="229.8">1</text>
  </g>
</svg>
