<?xml version="1.0" encoding="UTF-8" standalone="no"?>
<!DOCTYPE svg PUBLIC "-//W3C//DTD SVG 1.0//EN" "http://www.w3.org/TR/2001/PR-SVG-20010719/DTD/svg10.dtd">
<svg width="12cm" height="12cm" viewBox="170 134 224 224" xmlns="http://www.w3.org/2000/svg" xmlns:xlink="http://www.w3.org/1999/xlink">
  <g>
    <rect style="fill: #ffffff" x="172" y="155" width="222" height="201.8"/>
    <rect style="fill: none; fill-opacity:0; stroke-width: 2; stroke: #000000" x="172" y="155" width="222" height="201.8"/>
    <rect style="fill: #ffffff" x="172" y="135" width="42.5" height="20"/>
    <rect style="fill: none; fill-opacity:0; stroke-width: 2; stroke: #000000" x="172" y="135" width="42.5" height="20"/>
    <text font-size="12.7998" style="fill: #000000;text-anchor:start;font-family:monospace;font-style:normal;font-weight:normal" x="174" y="150"> sub </text>
  </g>
  <g>
    <rect style="fill: #ffffff" x="182.9" y="246.4" width="99.95" height="28"/>
    <rect style="fill: none; fill-opacity:0; stroke-width: 2; stroke: #000000" x="182.9" y="246.4" width="99.95" height="28"/>
    <text font-size="16" style="fill: #000000;text-anchor:middle;font-family:sans-serif;font-style:normal;font-weight:700" x="232.875" y="265.4">arithNode</text>
  </g>
  <g>
    <polyline style="fill: none; fill-opacity:0; stroke-width: 2; stroke: #000000" points="232.7,219.636 232.7,231.9 232.875,231.9 232.875,246.4 "/>
    <polygon style="fill: #ffffff" points="240.7,219.636 232.7,203.636 224.7,219.636 "/>
    <polygon style="fill: none; fill-opacity:0; stroke-width: 2; stroke: #000000" points="240.7,219.636 232.7,203.636 224.7,219.636 "/>
  </g>
  <g>
    <rect style="fill: #ffffff" x="189" y="173.4" width="87.4" height="28"/>
    <rect style="fill: none; fill-opacity:0; stroke-width: 2; stroke: #000000" x="189" y="173.4" width="87.4" height="28"/>
    <text font-size="16" style="fill: #000000;text-anchor:middle;font-family:sans-serif;font-style:normal;font-weight:700" x="232.7" y="192.4">runNode</text>
  </g>
  <g>
    <polyline style="fill: none; fill-opacity:0; stroke-width: 2; stroke: #000000" points="302.222,313.6 323,313.6 323,201.4 276.4,201.4 "/>
    <polygon style="fill: #ffffff" points="277.05,313.6 291.05,308.8 305.05,313.6 291.05,318.4 "/>
    <polygon style="fill: none; fill-opacity:0; stroke-width: 2; stroke: #000000" points="277.05,313.6 291.05,308.8 305.05,313.6 291.05,318.4 "/>
    <text font-size="12.7998" style="fill: #000000;text-anchor:start;font-family:monospace;font-style:normal;font-weight:normal" x="325" y="254.5">op1</text>
    <text font-size="12.7998" style="fill: #000000;text-anchor:start;font-family:monospace;font-style:normal;font-weight:normal" x="309.05" y="310.6"/>
    <text font-size="12.7998" style="fill: #000000;text-anchor:start;font-family:monospace;font-style:normal;font-weight:normal" x="280.4" y="198.4">1</text>
  </g>
  <g>
    <rect style="fill: #ffffff" x="188" y="313.6" width="89.05" height="28"/>
    <rect style="fill: none; fill-opacity:0; stroke-width: 2; stroke: #000000" x="188" y="313.6" width="89.05" height="28"/>
    <text font-size="16" style="fill: #000000;text-anchor:middle;font-family:sans-serif;font-style:normal;font-weight:700" x="232.525" y="332.6">subNode</text>
  </g>
  <g>
    <polyline style="fill: none; fill-opacity:0; stroke-width: 2; stroke: #000000" points="232.875,292.636 232.875,302 232.525,302 232.525,313.6 "/>
    <polygon style="fill: #ffffff" points="240.875,292.636 232.875,276.636 224.875,292.636 "/>
    <polygon style="fill: none; fill-opacity:0; stroke-width: 2; stroke: #000000" points="240.875,292.636 232.875,276.636 224.875,292.636 "/>
  </g>
  <g>
    <polyline style="fill: none; fill-opacity:0; stroke-width: 2; stroke: #000000" points="302.222,327.6 359,327.6 359,187.4 276.4,187.4 "/>
    <polygon style="fill: #ffffff" points="277.05,327.6 291.05,322.8 305.05,327.6 291.05,332.4 "/>
    <polygon style="fill: none; fill-opacity:0; stroke-width: 2; stroke: #000000" points="277.05,327.6 291.05,322.8 305.05,327.6 291.05,332.4 "/>
    <text font-size="12.7998" style="fill: #000000;text-anchor:start;font-family:monospace;font-style:normal;font-weight:normal" x="361" y="254.5">op2</text>
    <text font-size="12.7998" style="fill: #000000;text-anchor:start;font-family:monospace;font-style:normal;font-weight:normal" x="309.05" y="324.6"/>
    <text font-size="12.7998" style="fill: #000000;text-anchor:start;font-family:monospace;font-style:normal;font-weight:normal" x="280.4" y="184.4">1</text>
  </g>
</svg>
