<?xml version="1.0" encoding="UTF-8" standalone="no"?>
<!DOCTYPE svg PUBLIC "-//W3C//DTD SVG 1.0//EN" "http://www.w3.org/TR/2001/PR-SVG-20010719/DTD/svg10.dtd">
<svg width="12cm" height="13cm" viewBox="443 339 231 256" xmlns="http://www.w3.org/2000/svg" xmlns:xlink="http://www.w3.org/1999/xlink">
  <g>
    <rect style="fill: #ffffff" x="444" y="360" width="229" height="233"/>
    <rect style="fill: none; fill-opacity:0; stroke-width: 2; stroke: #000000" x="444" y="360" width="229" height="233"/>
    <rect style="fill: #ffffff" x="444" y="340" width="73.3" height="20"/>
    <rect style="fill: none; fill-opacity:0; stroke-width: 2; stroke: #000000" x="444" y="340" width="73.3" height="20"/>
    <text font-size="12.7998" style="fill: #000000;text-anchor:start;font-family:monospace;font-style:normal;font-weight:normal" x="446" y="355"> getFunc </text>
  </g>
  <g>
    <rect style="fill: #ffffff" x="489" y="390" width="87.4" height="28"/>
    <rect style="fill: none; fill-opacity:0; stroke-width: 2; stroke: #000000" x="489" y="390" width="87.4" height="28"/>
    <text font-size="16" style="fill: #000000;text-anchor:middle;font-family:sans-serif;font-style:normal;font-weight:700" x="532.7" y="409">runNode</text>
  </g>
  <g>
    <rect style="fill: #ffffff" x="483" y="463" width="100.7" height="28"/>
    <rect style="fill: none; fill-opacity:0; stroke-width: 2; stroke: #000000" x="483" y="463" width="100.7" height="28"/>
    <text font-size="16" style="fill: #000000;text-anchor:middle;font-family:sans-serif;font-style:normal;font-weight:700" x="533.35" y="482">nexpNode</text>
  </g>
  <g>
    <polyline style="fill: none; fill-opacity:0; stroke-width: 2; stroke: #000000" points="532.7,436.236 532.7,448.5 533.35,448.5 533.35,463 "/>
    <polygon style="fill: #ffffff" points="540.7,436.236 532.7,420.236 524.7,436.236 "/>
    <polygon style="fill: none; fill-opacity:0; stroke-width: 2; stroke: #000000" points="540.7,436.236 532.7,420.236 524.7,436.236 "/>
  </g>
  <g>
    <rect style="fill: #ffffff" x="468" y="530" width="129.1" height="28"/>
    <rect style="fill: none; fill-opacity:0; stroke-width: 2; stroke: #000000" x="468" y="530" width="129.1" height="28"/>
    <text font-size="16" style="fill: #000000;text-anchor:middle;font-family:sans-serif;font-style:normal;font-weight:700" x="532.55" y="549">getFuncNode</text>
  </g>
  <g>
    <polyline style="fill: none; fill-opacity:0; stroke-width: 2; stroke: #000000" points="533.35,509.236 533.35,518.5 532.55,518.5 532.55,530 "/>
    <polygon style="fill: #ffffff" points="541.35,509.236 533.35,493.236 525.35,509.236 "/>
    <polygon style="fill: none; fill-opacity:0; stroke-width: 2; stroke: #000000" points="541.35,509.236 533.35,493.236 525.35,509.236 "/>
  </g>
  <g>
    <polyline style="fill: none; fill-opacity:0; stroke-width: 2; stroke: #000000" points="623.28,544 633.108,544 633.108,404 576.4,404 "/>
    <polygon style="fill: #ffffff" points="598.108,544 612.108,539.2 626.108,544 612.108,548.8 "/>
    <polygon style="fill: none; fill-opacity:0; stroke-width: 2; stroke: #000000" points="598.108,544 612.108,539.2 626.108,544 612.108,548.8 "/>
    <text font-size="12.7998" style="fill: #000000;text-anchor:start;font-family:monospace;font-style:normal;font-weight:normal" x="635.108" y="471">id</text>
    <text font-size="12.7998" style="fill: #000000;text-anchor:start;font-family:monospace;font-style:normal;font-weight:normal" x="630.108" y="541"/>
    <text font-size="12.7998" style="fill: #000000;text-anchor:start;font-family:monospace;font-style:normal;font-weight:normal" x="580.4" y="401">1</text>
  </g>
</svg>
