<?xml version="1.0" encoding="UTF-8" standalone="no"?>
<!DOCTYPE svg PUBLIC "-//W3C//DTD SVG 1.0//EN" "http://www.w3.org/TR/2001/PR-SVG-20010719/DTD/svg10.dtd">
<svg width="50cm" height="19cm" viewBox="104 106 983 365" xmlns="http://www.w3.org/2000/svg" xmlns:xlink="http://www.w3.org/1999/xlink">
  <g>
    <rect style="fill: #ffffff" x="105" y="127" width="981" height="343"/>
    <rect style="fill: none; fill-opacity:0; stroke-width: 2; stroke: #000000" x="105" y="127" width="981" height="343"/>
    <rect style="fill: #ffffff" x="105" y="107" width="104.1" height="20"/>
    <rect style="fill: none; fill-opacity:0; stroke-width: 2; stroke: #000000" x="105" y="107" width="104.1" height="20"/>
    <text font-size="12.7998" style="fill: #000000;text-anchor:start;font-family:monospace;font-style:normal;font-weight:normal" x="107" y="122"> interpreter </text>
  </g>
  <g>
    <rect style="fill: #ffffff" x="888" y="267.8" width="81.35" height="28"/>
    <rect style="fill: none; fill-opacity:0; stroke-width: 2; stroke: #000000" x="888" y="267.8" width="81.35" height="28"/>
    <text font-size="16" style="fill: #000000;text-anchor:middle;font-family:sans-serif;font-style:normal;font-weight:700" x="928.675" y="286.8">scanner</text>
  </g>
  <g>
    <rect style="fill: #ffffff" x="768" y="267.8" width="68.4" height="28"/>
    <rect style="fill: none; fill-opacity:0; stroke-width: 2; stroke: #000000" x="768" y="267.8" width="68.4" height="28"/>
    <text font-size="16" style="fill: #000000;text-anchor:middle;font-family:sans-serif;font-style:normal;font-weight:700" x="802.2" y="286.8">parser</text>
  </g>
  <g>
    <rect style="fill: #ffffff" x="568" y="329.8" width="125.5" height="28"/>
    <rect style="fill: none; fill-opacity:0; stroke-width: 2; stroke: #000000" x="568" y="329.8" width="125.5" height="28"/>
    <text font-size="16" style="fill: #000000;text-anchor:middle;font-family:sans-serif;font-style:normal;font-weight:700" x="630.75" y="348.8">runNode</text>
    <rect style="fill: #ffffff" x="568" y="357.8" width="125.5" height="20"/>
    <rect style="fill: none; fill-opacity:0; stroke-width: 2; stroke: #000000" x="568" y="357.8" width="125.5" height="20"/>
    <text font-size="12.8" style="fill: #000000;text-anchor:start;font-family:monospace;font-style:normal;font-weight:normal" x="571" y="371.8">+ref_count: int</text>
  </g>
  <g>
    <polyline style="fill: none; fill-opacity:0; stroke-width: 2; stroke: #000000" points="661.05,272.8 661.05,301.3 630.75,301.3 630.75,329.8 "/>
    <text font-size="12.7998" style="fill: #000000;text-anchor:middle;font-family:monospace;font-style:normal;font-weight:normal" x="645.9" y="298.3">run</text>
    <polygon style="fill: #000000" points="630.35,298.3 630.35,290.3 622.35,294.3 "/>
    <text font-size="12.7998" style="fill: #000000;text-anchor:start;font-family:monospace;font-style:normal;font-weight:normal" x="665.05" y="284.8">0,1</text>
    <text font-size="12.7998" style="fill: #000000;text-anchor:start;font-family:monospace;font-style:normal;font-weight:normal" x="634.75" y="325.8">1</text>
  </g>
  <g>
    <rect style="fill: #ffffff" x="430.514" y="330.296" width="82.4" height="28"/>
    <rect style="fill: none; fill-opacity:0; stroke-width: 2; stroke: #000000" x="430.514" y="330.296" width="82.4" height="28"/>
    <text font-size="16" style="fill: #000000;text-anchor:middle;font-family:sans-serif;font-style:normal;font-weight:700" x="471.714" y="349.296">refNode</text>
  </g>
  <g>
    <rect style="fill: #ffffff" x="471" y="190.8" width="78.35" height="28"/>
    <rect style="fill: none; fill-opacity:0; stroke-width: 2; stroke: #000000" x="471" y="190.8" width="78.35" height="28"/>
    <text font-size="16" style="fill: #000000;text-anchor:middle;font-family:sans-serif;font-style:normal;font-weight:700" x="510.175" y="209.8">context</text>
  </g>
  <g>
    <polyline style="fill: none; fill-opacity:0; stroke-width: 2; stroke: #000000" points="661.05,192.8 661.05,170 510.174,170 510.174,190.8 "/>
    <text font-size="12.7998" style="fill: #000000;text-anchor:middle;font-family:monospace;font-style:normal;font-weight:normal" x="585.612" y="167">current</text>
    <polygon style="fill: #000000" points="554.662,167 554.662,159 546.662,163 "/>
    <text font-size="12.7998" style="fill: #000000;text-anchor:start;font-family:monospace;font-style:normal;font-weight:normal" x="665.05" y="188.8">0,1</text>
    <text font-size="12.7998" style="fill: #000000;text-anchor:start;font-family:monospace;font-style:normal;font-weight:normal" x="514.174" y="186.8">1</text>
  </g>
  <g>
    <rect style="fill: #ffffff" x="606" y="192.8" width="110.1" height="28"/>
    <rect style="fill: none; fill-opacity:0; stroke-width: 2; stroke: #000000" x="606" y="192.8" width="110.1" height="28"/>
    <text font-size="16" style="fill: #000000;text-anchor:middle;font-family:sans-serif;font-style:normal;font-weight:700" x="661.05" y="211.8">omi  </text>
    <rect style="fill: #ffffff" x="606" y="220.8" width="110.1" height="52"/>
    <rect style="fill: none; fill-opacity:0; stroke-width: 2; stroke: #000000" x="606" y="220.8" width="110.1" height="52"/>
    <text font-size="12.8" style="fill: #000000;text-anchor:start;font-family:monospace;font-style:normal;font-weight:normal" x="609" y="234.8">+line: int</text>
    <text font-size="12.8" style="fill: #000000;text-anchor:start;font-family:monospace;font-style:normal;font-weight:normal" x="609" y="250.8">+cmd: string</text>
    <text font-size="12.8" style="fill: #000000;text-anchor:start;font-family:monospace;font-style:normal;font-weight:normal" x="609" y="266.8">+file: string</text>
  </g>
  <g>
    <rect style="fill: #ffffff" x="159" y="190.8" width="84.05" height="28"/>
    <rect style="fill: none; fill-opacity:0; stroke-width: 2; stroke: #000000" x="159" y="190.8" width="84.05" height="28"/>
    <text font-size="16" style="fill: #000000;text-anchor:middle;font-family:sans-serif;font-style:normal;font-weight:700" x="201.025" y="209.8">symbols</text>
  </g>
  <g>
    <polyline style="fill: none; fill-opacity:0; stroke-width: 2; stroke: #000000" points="201.024,243.972 201.024,306.182 471.714,306.182 471.714,330.296 "/>
    <polygon style="fill: #ffffff" points="201.024,218.8 205.824,232.8 201.024,246.8 196.224,232.8 "/>
    <polygon style="fill: none; fill-opacity:0; stroke-width: 2; stroke: #000000" points="201.024,218.8 205.824,232.8 201.024,246.8 196.224,232.8 "/>
    <text font-size="12.7998" style="fill: #000000;text-anchor:middle;font-family:monospace;font-style:normal;font-weight:normal" x="336.369" y="303.182"/>
    <text font-size="12.7998" style="fill: #000000;text-anchor:start;font-family:monospace;font-style:normal;font-weight:normal" x="212.024" y="230.8"/>
    <text font-size="12.7998" style="fill: #000000;text-anchor:start;font-family:monospace;font-style:normal;font-weight:normal" x="475.714" y="326.296">n</text>
  </g>
  <g>
    <rect style="fill: #ffffff" x="144" y="381.8" width="52.1" height="28"/>
    <rect style="fill: none; fill-opacity:0; stroke-width: 2; stroke: #000000" x="144" y="381.8" width="52.1" height="28"/>
    <text font-size="16" style="fill: #000000;text-anchor:middle;font-family:sans-serif;font-style:normal;font-weight:700" x="170.05" y="400.8">isym</text>
  </g>
  <g>
    <polyline style="fill: none; fill-opacity:0; stroke-width: 2; stroke-dasharray: 8; stroke: #000000" points="159,204.8 124,204.8 124,283 170.05,283 170.05,375.095 "/>
    <polyline style="fill: none; fill-opacity:0; stroke-width: 2; stroke: #000000" points="165.05,362.447 170.05,378.447 175.05,362.447 "/>
  </g>
  <g>
    <polyline style="fill: none; fill-opacity:0; stroke-width: 2; stroke: #000000" points="861.572,281.8 876,281.8 876,281.8 888,281.8 "/>
    <polygon style="fill: #ffffff" points="836.4,281.8 850.4,277 864.4,281.8 850.4,286.6 "/>
    <polygon style="fill: none; fill-opacity:0; stroke-width: 2; stroke: #000000" points="836.4,281.8 850.4,277 864.4,281.8 850.4,286.6 "/>
    <text font-size="12.7998" style="fill: #000000;text-anchor:middle;font-family:monospace;font-style:normal;font-weight:normal" x="876" y="278.8"/>
    <text font-size="12.7998" style="fill: #000000;text-anchor:start;font-family:monospace;font-style:normal;font-weight:normal" x="868.4" y="278.8"/>
    <text font-size="12.7998" style="fill: #000000;text-anchor:end;font-family:monospace;font-style:normal;font-weight:normal" x="884" y="278.8">1</text>
  </g>
  <g>
    <polyline style="fill: none; fill-opacity:0; stroke-width: 2; stroke: #000000" points="741.272,246.8 753,246.8 753,281.8 768,281.8 "/>
    <polygon style="fill: #ffffff" points="716.1,246.8 730.1,242 744.1,246.8 730.1,251.6 "/>
    <polygon style="fill: none; fill-opacity:0; stroke-width: 2; stroke: #000000" points="716.1,246.8 730.1,242 744.1,246.8 730.1,251.6 "/>
    <text font-size="12.7998" style="fill: #000000;text-anchor:start;font-family:monospace;font-style:normal;font-weight:normal" x="755" y="261.3"/>
    <text font-size="12.7998" style="fill: #000000;text-anchor:start;font-family:monospace;font-style:normal;font-weight:normal" x="748.1" y="243.8"/>
    <text font-size="12.7998" style="fill: #000000;text-anchor:end;font-family:monospace;font-style:normal;font-weight:normal" x="764" y="278.8">1</text>
  </g>
  <g>
    <polyline style="fill: none; fill-opacity:0; stroke-width: 2; stroke: #000000" points="549.764,343.8 532.457,343.8 532.457,344.296 512.914,344.296 "/>
    <polygon style="fill: #ffffff" points="549.764,351.8 565.764,343.8 549.764,335.8 "/>
    <polygon style="fill: none; fill-opacity:0; stroke-width: 2; stroke: #000000" points="549.764,351.8 565.764,343.8 549.764,335.8 "/>
  </g>
  <g>
    <polyline style="fill: none; fill-opacity:0; stroke-width: 2; stroke: #000000" points="471.714,358.296 471.714,398.8 630.75,398.8 630.75,377.8 "/>
    <text font-size="12.7998" style="fill: #000000;text-anchor:middle;font-family:monospace;font-style:normal;font-weight:normal" x="551.232" y="395.8">ref</text>
    <polygon style="fill: #000000" points="564.782,395.8 564.782,387.8 572.782,391.8 "/>
    <text font-size="12.7998" style="fill: #000000;text-anchor:start;font-family:monospace;font-style:normal;font-weight:normal" x="475.714" y="370.296">n</text>
    <text font-size="12.7998" style="fill: #000000;text-anchor:start;font-family:monospace;font-style:normal;font-weight:normal" x="634.75" y="389.8">1</text>
  </g>
  <text font-size="12.8" style="fill: #000000;text-anchor:start;font-family:sans-serif;font-style:normal;font-weight:normal" x="701" y="209">
    <tspan x="701" y="209">1</tspan>
  </text>
  <g>
    <rect style="fill: #ffffff" x="772" y="156" width="117.8" height="28"/>
    <rect style="fill: none; fill-opacity:0; stroke-width: 2; stroke: #000000" x="772" y="156" width="117.8" height="28"/>
    <text font-size="16" style="fill: #000000;text-anchor:middle;font-family:sans-serif;font-style:normal;font-weight:700" x="830.9" y="175">args</text>
    <rect style="fill: #ffffff" x="772" y="184" width="117.8" height="20"/>
    <rect style="fill: none; fill-opacity:0; stroke-width: 2; stroke: #000000" x="772" y="184" width="117.8" height="20"/>
    <text font-size="12.8" style="fill: #000000;text-anchor:start;font-family:monospace;font-style:normal;font-weight:normal" x="775" y="198">+value: string</text>
  </g>
  <g>
    <rect style="fill: #ffffff" x="743" y="330" width="117.8" height="28"/>
    <rect style="fill: none; fill-opacity:0; stroke-width: 2; stroke: #000000" x="743" y="330" width="117.8" height="28"/>
    <text font-size="16" style="fill: #000000;text-anchor:middle;font-family:sans-serif;font-style:normal;font-weight:700" x="801.9" y="349">token</text>
    <rect style="fill: #ffffff" x="743" y="358" width="117.8" height="52"/>
    <rect style="fill: none; fill-opacity:0; stroke-width: 2; stroke: #000000" x="743" y="358" width="117.8" height="52"/>
    <text font-size="12.8" style="fill: #000000;text-anchor:start;font-family:monospace;font-style:normal;font-weight:normal" x="746" y="372">+id: int</text>
    <text font-size="12.8" style="fill: #000000;text-anchor:start;font-family:monospace;font-style:normal;font-weight:normal" x="746" y="388">+value: string</text>
    <text font-size="12.8" style="fill: #000000;text-anchor:start;font-family:monospace;font-style:normal;font-weight:normal" x="746" y="404">+line: int</text>
  </g>
  <g>
    <polyline style="fill: none; fill-opacity:0; stroke-width: 2; stroke: #000000" points="928.676,295.8 928.676,312.9 860.8,312.9 860.8,330 "/>
    <text font-size="12.7998" style="fill: #000000;text-anchor:middle;font-family:monospace;font-style:normal;font-weight:normal" x="894.738" y="309.9">current</text>
    <polygon style="fill: #000000" points="863.788,309.9 863.788,301.9 855.788,305.9 "/>
    <text font-size="12.7998" style="fill: #000000;text-anchor:start;font-family:monospace;font-style:normal;font-weight:normal" x="932.676" y="307.8"/>
    <text font-size="12.7998" style="fill: #000000;text-anchor:start;font-family:monospace;font-style:normal;font-weight:normal" x="864.8" y="326"/>
  </g>
  <g>
    <polyline style="fill: none; fill-opacity:0; stroke-width: 2; stroke-dasharray: 8; stroke: #000000" points="802.2,295.8 802.2,308.9 801.9,308.9 801.9,323.295 "/>
    <polyline style="fill: none; fill-opacity:0; stroke-width: 2; stroke: #000000" points="796.9,310.647 801.9,326.647 806.9,310.647 "/>
  </g>
  <g>
    <rect style="fill: #ffffff" x="952" y="330" width="117.8" height="28"/>
    <rect style="fill: none; fill-opacity:0; stroke-width: 2; stroke: #000000" x="952" y="330" width="117.8" height="28"/>
    <text font-size="16" style="fill: #000000;text-anchor:middle;font-family:sans-serif;font-style:normal;font-weight:700" x="1010.9" y="349">source</text>
    <rect style="fill: #ffffff" x="952" y="358" width="117.8" height="52"/>
    <rect style="fill: none; fill-opacity:0; stroke-width: 2; stroke: #000000" x="952" y="358" width="117.8" height="52"/>
    <text font-size="12.8" style="fill: #000000;text-anchor:start;font-family:monospace;font-style:normal;font-weight:normal" x="955" y="372">+src: string</text>
    <text font-size="12.8" style="fill: #000000;text-anchor:start;font-family:monospace;font-style:normal;font-weight:normal" x="955" y="388">+line: int</text>
    <text font-size="12.8" style="fill: #000000;text-anchor:start;font-family:monospace;font-style:normal;font-weight:normal" x="955" y="404">+current: char</text>
  </g>
  <g>
    <polyline style="fill: none; fill-opacity:0; stroke-width: 2; stroke: #000000" points="994.522,281.8 1010.9,281.8 1010.9,330 "/>
    <polygon style="fill: #ffffff" points="969.35,281.8 983.35,277 997.35,281.8 983.35,286.6 "/>
    <polygon style="fill: none; fill-opacity:0; stroke-width: 2; stroke: #000000" points="969.35,281.8 983.35,277 997.35,281.8 983.35,286.6 "/>
    <text font-size="12.7998" style="fill: #000000;text-anchor:middle;font-family:monospace;font-style:normal;font-weight:normal" x="990.125" y="278.8"/>
    <text font-size="12.7998" style="fill: #000000;text-anchor:start;font-family:monospace;font-style:normal;font-weight:normal" x="1001.35" y="278.8"/>
    <text font-size="12.7998" style="fill: #000000;text-anchor:start;font-family:monospace;font-style:normal;font-weight:normal" x="1014.9" y="326"/>
  </g>
  <g>
    <polyline style="fill: none; fill-opacity:0; stroke-width: 2; stroke: #000000" points="885.972,344 875.8,344 951,344 952,344 "/>
    <polygon style="fill: #ffffff" points="860.8,344 874.8,339.2 888.8,344 874.8,348.8 "/>
    <polygon style="fill: none; fill-opacity:0; stroke-width: 2; stroke: #000000" points="860.8,344 874.8,339.2 888.8,344 874.8,348.8 "/>
    <text font-size="12.7998" style="fill: #000000;text-anchor:middle;font-family:monospace;font-style:normal;font-weight:normal" x="913.4" y="341"/>
    <text font-size="12.7998" style="fill: #000000;text-anchor:start;font-family:monospace;font-style:normal;font-weight:normal" x="892.8" y="341"/>
    <text font-size="12.7998" style="fill: #000000;text-anchor:end;font-family:monospace;font-style:normal;font-weight:normal" x="948" y="341"/>
  </g>
  <g>
    <polyline style="fill: none; fill-opacity:0; stroke-width: 2; stroke: #000000" points="221.272,395.8 280.47,395.8 280.47,344.296 430.514,344.296 "/>
    <polygon style="fill: #ffffff" points="196.1,395.8 210.1,391 224.1,395.8 210.1,400.6 "/>
    <polygon style="fill: none; fill-opacity:0; stroke-width: 2; stroke: #000000" points="196.1,395.8 210.1,391 224.1,395.8 210.1,400.6 "/>
    <text font-size="12.7998" style="fill: #000000;text-anchor:start;font-family:monospace;font-style:normal;font-weight:normal" x="282.47" y="367.048"/>
    <text font-size="12.7998" style="fill: #000000;text-anchor:start;font-family:monospace;font-style:normal;font-weight:normal" x="228.1" y="392.8"/>
    <text font-size="12.7998" style="fill: #000000;text-anchor:end;font-family:monospace;font-style:normal;font-weight:normal" x="426.514" y="341.296">1</text>
  </g>
  <g>
    <polyline style="fill: none; fill-opacity:0; stroke-width: 2; stroke: #000000" points="742.278,232.8 751.553,232.8 751.553,170 772,170 "/>
    <polygon style="fill: #ffffff" points="717.107,232.8 731.107,228 745.107,232.8 731.107,237.6 "/>
    <polygon style="fill: none; fill-opacity:0; stroke-width: 2; stroke: #000000" points="717.107,232.8 731.107,228 745.107,232.8 731.107,237.6 "/>
    <text font-size="12.7998" style="fill: #000000;text-anchor:start;font-family:monospace;font-style:normal;font-weight:normal" x="753.553" y="198.4"/>
    <text font-size="12.7998" style="fill: #000000;text-anchor:start;font-family:monospace;font-style:normal;font-weight:normal" x="749.107" y="229.8"/>
    <text font-size="12.7998" style="fill: #000000;text-anchor:end;font-family:monospace;font-style:normal;font-weight:normal" x="768" y="167">0,n</text>
  </g>
  <g>
    <polyline style="fill: none; fill-opacity:0; stroke-width: 2; stroke: #000000" points="580.828,246.8 576,246.8 576,218.8 549.35,218.8 "/>
    <polygon style="fill: #ffffff" points="606,246.8 592,251.6 578,246.8 592,242 "/>
    <polygon style="fill: none; fill-opacity:0; stroke-width: 2; stroke: #000000" points="606,246.8 592,251.6 578,246.8 592,242 "/>
    <text font-size="12.7998" style="fill: #000000;text-anchor:start;font-family:monospace;font-style:normal;font-weight:normal" x="578" y="229.8"/>
    <text font-size="12.7998" style="fill: #000000;text-anchor:end;font-family:monospace;font-style:normal;font-weight:normal" x="574" y="243.8"/>
    <text font-size="12.7998" style="fill: #000000;text-anchor:start;font-family:monospace;font-style:normal;font-weight:normal" x="553.35" y="215.8">1</text>
  </g>
  <g>
    <rect style="fill: #ffffff" x="294" y="143" width="115.2" height="28"/>
    <rect style="fill: none; fill-opacity:0; stroke-width: 2; stroke: #000000" x="294" y="143" width="115.2" height="28"/>
    <text font-size="16" style="fill: #000000;text-anchor:middle;font-family:sans-serif;font-style:normal;font-weight:700" x="351.6" y="162">varSymbols</text>
  </g>
  <g>
    <polyline style="fill: none; fill-opacity:0; stroke-width: 2; stroke: #000000" points="445.828,190.8 433.1,190.8 433.1,157 409.2,157 "/>
    <polygon style="fill: #ffffff" points="471,190.8 457,195.6 443,190.8 457,186 "/>
    <polygon style="fill: none; fill-opacity:0; stroke-width: 2; stroke: #000000" points="471,190.8 457,195.6 443,190.8 457,186 "/>
    <text font-size="12.7998" style="fill: #000000;text-anchor:start;font-family:monospace;font-style:normal;font-weight:normal" x="435.1" y="170.9"/>
    <text font-size="12.7998" style="fill: #000000;text-anchor:end;font-family:monospace;font-style:normal;font-weight:normal" x="439" y="187.8"/>
    <text font-size="12.7998" style="fill: #000000;text-anchor:start;font-family:monospace;font-style:normal;font-weight:normal" x="413.2" y="154">1,n</text>
  </g>
  <g>
    <rect style="fill: #ffffff" x="293" y="191" width="125.3" height="28"/>
    <rect style="fill: none; fill-opacity:0; stroke-width: 2; stroke: #000000" x="293" y="191" width="125.3" height="28"/>
    <text font-size="16" style="fill: #000000;text-anchor:middle;font-family:sans-serif;font-style:normal;font-weight:700" x="355.65" y="210">funcSymbols</text>
  </g>
  <g>
    <polyline style="fill: none; fill-opacity:0; stroke-width: 2; stroke: #000000" points="445.828,204.8 437.65,204.8 437.65,205 418.3,205 "/>
    <polygon style="fill: #ffffff" points="471,204.8 457,209.6 443,204.8 457,200 "/>
    <polygon style="fill: none; fill-opacity:0; stroke-width: 2; stroke: #000000" points="471,204.8 457,209.6 443,204.8 457,200 "/>
    <text font-size="12.7998" style="fill: #000000;text-anchor:start;font-family:monospace;font-style:normal;font-weight:normal" x="439.65" y="201.9"/>
    <text font-size="12.7998" style="fill: #000000;text-anchor:end;font-family:monospace;font-style:normal;font-weight:normal" x="439" y="201.8"/>
    <text font-size="12.7998" style="fill: #000000;text-anchor:start;font-family:monospace;font-style:normal;font-weight:normal" x="422.3" y="202">1</text>
  </g>
  <g>
    <rect style="fill: #ffffff" x="294" y="238" width="130.85" height="28"/>
    <rect style="fill: none; fill-opacity:0; stroke-width: 2; stroke: #000000" x="294" y="238" width="130.85" height="28"/>
    <text font-size="16" style="fill: #000000;text-anchor:middle;font-family:sans-serif;font-style:normal;font-weight:700" x="359.425" y="257">classSymbols</text>
  </g>
  <g>
    <polyline style="fill: none; fill-opacity:0; stroke-width: 2; stroke: #000000" points="445.828,218.8 440.925,218.8 440.925,252 424.85,252 "/>
    <polygon style="fill: #ffffff" points="471,218.8 457,223.6 443,218.8 457,214 "/>
    <polygon style="fill: none; fill-opacity:0; stroke-width: 2; stroke: #000000" points="471,218.8 457,223.6 443,218.8 457,214 "/>
    <text font-size="12.7998" style="fill: #000000;text-anchor:start;font-family:monospace;font-style:normal;font-weight:normal" x="442.925" y="232.4"/>
    <text font-size="12.7998" style="fill: #000000;text-anchor:end;font-family:monospace;font-style:normal;font-weight:normal" x="439" y="215.8"/>
    <text font-size="12.7998" style="fill: #000000;text-anchor:start;font-family:monospace;font-style:normal;font-weight:normal" x="428.85" y="249">1</text>
  </g>
  <g>
    <polyline style="fill: none; fill-opacity:0; stroke-width: 2; stroke: #000000" points="261.286,204.8 276.525,204.8 276.525,157 294,157 "/>
    <polygon style="fill: #ffffff" points="261.286,196.8 245.286,204.8 261.286,212.8 "/>
    <polygon style="fill: none; fill-opacity:0; stroke-width: 2; stroke: #000000" points="261.286,196.8 245.286,204.8 261.286,212.8 "/>
  </g>
  <g>
    <polyline style="fill: none; fill-opacity:0; stroke-width: 2; stroke: #000000" points="261.286,204.8 276.025,204.8 276.025,205 293,205 "/>
    <polygon style="fill: #ffffff" points="261.286,196.8 245.286,204.8 261.286,212.8 "/>
    <polygon style="fill: none; fill-opacity:0; stroke-width: 2; stroke: #000000" points="261.286,196.8 245.286,204.8 261.286,212.8 "/>
  </g>
  <g>
    <polyline style="fill: none; fill-opacity:0; stroke-width: 2; stroke: #000000" points="262.291,204.8 277.028,204.8 277.028,252 294,252 "/>
    <polygon style="fill: #ffffff" points="262.291,196.8 246.291,204.8 262.291,212.8 "/>
    <polygon style="fill: none; fill-opacity:0; stroke-width: 2; stroke: #000000" points="262.291,196.8 246.291,204.8 262.291,212.8 "/>
  </g>
  <g>
    <polyline style="fill: none; fill-opacity:0; stroke-width: 2; stroke: #000000" points="221.272,409.8 693.5,409.8 693.5,377.8 "/>
    <polygon style="fill: #ffffff" points="196.1,409.8 210.1,405 224.1,409.8 210.1,414.6 "/>
    <polygon style="fill: none; fill-opacity:0; stroke-width: 2; stroke: #000000" points="196.1,409.8 210.1,405 224.1,409.8 210.1,414.6 "/>
    <text font-size="12.7998" style="fill: #000000;text-anchor:middle;font-family:monospace;font-style:normal;font-weight:normal" x="444.8" y="406.8"/>
    <text font-size="12.7998" style="fill: #000000;text-anchor:start;font-family:monospace;font-style:normal;font-weight:normal" x="228.1" y="406.8"/>
    <text font-size="12.7998" style="fill: #000000;text-anchor:start;font-family:monospace;font-style:normal;font-weight:normal" x="697.5" y="389.8">1</text>
  </g>
  <line style="fill: none; fill-opacity:0; stroke-width: 2; stroke-dasharray: 20; stroke: #000000" x1="343" y1="344" x2="344" y2="408"/>
</svg>
