<?xml version="1.0" encoding="UTF-8" standalone="no"?>
<!DOCTYPE svg PUBLIC "-//W3C//DTD SVG 1.0//EN" "http://www.w3.org/TR/2001/PR-SVG-20010719/DTD/svg10.dtd">
<svg width="74cm" height="66cm" viewBox="54 23 1465 1312" xmlns="http://www.w3.org/2000/svg" xmlns:xlink="http://www.w3.org/1999/xlink">
  <g>
    <rect style="fill: #ffffff" x="689" y="132" width="81.35" height="28"/>
    <rect style="fill: none; fill-opacity:0; stroke-width: 2; stroke: #000000" x="689" y="132" width="81.35" height="28"/>
    <text font-size="16" style="fill: #000000;text-anchor:middle;font-family:sans-serif;font-style:normal;font-weight:700" x="729.675" y="151">scanner</text>
    <rect style="fill: #ffffff" x="689" y="160" width="81.35" height="8"/>
    <rect style="fill: none; fill-opacity:0; stroke-width: 2; stroke: #000000" x="689" y="160" width="81.35" height="8"/>
    <rect style="fill: #ffffff" x="689" y="168" width="81.35" height="8"/>
    <rect style="fill: none; fill-opacity:0; stroke-width: 2; stroke: #000000" x="689" y="168" width="81.35" height="8"/>
  </g>
  <g>
    <rect style="fill: #ffffff" x="700" y="271" width="68.4" height="28"/>
    <rect style="fill: none; fill-opacity:0; stroke-width: 2; stroke: #000000" x="700" y="271" width="68.4" height="28"/>
    <text font-size="16" style="fill: #000000;text-anchor:middle;font-family:sans-serif;font-style:normal;font-weight:700" x="734.2" y="290">parser</text>
    <rect style="fill: #ffffff" x="700" y="299" width="68.4" height="8"/>
    <rect style="fill: none; fill-opacity:0; stroke-width: 2; stroke: #000000" x="700" y="299" width="68.4" height="8"/>
    <rect style="fill: #ffffff" x="700" y="307" width="68.4" height="8"/>
    <rect style="fill: none; fill-opacity:0; stroke-width: 2; stroke: #000000" x="700" y="307" width="68.4" height="8"/>
  </g>
  <g>
    <polyline style="fill: none; fill-opacity:0; stroke-width: 2; stroke: #000000" points="644.272,202 661.05,202 661.05,146 689,146 "/>
    <polygon style="fill: #000000" points="619.1,202 633.1,197.2 647.1,202 633.1,206.8 "/>
    <polygon style="fill: none; fill-opacity:0; stroke-width: 2; stroke: #000000" points="619.1,202 633.1,197.2 647.1,202 633.1,206.8 "/>
    <text font-size="12.7998" style="fill: #000000;text-anchor:start;font-family:monospace;font-style:normal;font-weight:normal" x="663.05" y="171"/>
    <text font-size="12.7998" style="fill: #000000;text-anchor:start;font-family:monospace;font-style:normal;font-weight:normal" x="651.1" y="199"/>
    <text font-size="12.7998" style="fill: #000000;text-anchor:end;font-family:monospace;font-style:normal;font-weight:normal" x="685" y="143">1</text>
  </g>
  <g>
    <polyline style="fill: none; fill-opacity:0; stroke-width: 2; stroke: #000000" points="644.272,240 669,240 669,285 700,285 "/>
    <polygon style="fill: #000000" points="619.1,240 633.1,235.2 647.1,240 633.1,244.8 "/>
    <polygon style="fill: none; fill-opacity:0; stroke-width: 2; stroke: #000000" points="619.1,240 633.1,235.2 647.1,240 633.1,244.8 "/>
    <text font-size="12.7998" style="fill: #000000;text-anchor:start;font-family:monospace;font-style:normal;font-weight:normal" x="671" y="259.5"/>
    <text font-size="12.7998" style="fill: #000000;text-anchor:start;font-family:monospace;font-style:normal;font-weight:normal" x="651.1" y="237"/>
    <text font-size="12.7998" style="fill: #000000;text-anchor:end;font-family:monospace;font-style:normal;font-weight:normal" x="696" y="282">1</text>
  </g>
  <g>
    <rect style="fill: #ffffff" x="381" y="273" width="87.4" height="28"/>
    <rect style="fill: none; fill-opacity:0; stroke-width: 2; stroke: #000000" x="381" y="273" width="87.4" height="28"/>
    <text font-size="16" style="fill: #000000;text-anchor:middle;font-family:sans-serif;font-style:normal;font-weight:700" x="424.7" y="292">runNode</text>
    <rect style="fill: #ffffff" x="381" y="301" width="87.4" height="8"/>
    <rect style="fill: none; fill-opacity:0; stroke-width: 2; stroke: #000000" x="381" y="301" width="87.4" height="8"/>
    <rect style="fill: #ffffff" x="381" y="309" width="87.4" height="8"/>
    <rect style="fill: none; fill-opacity:0; stroke-width: 2; stroke: #000000" x="381" y="309" width="87.4" height="8"/>
  </g>
  <g>
    <polyline style="fill: none; fill-opacity:0; stroke-width: 2; stroke: #000000" points="564.05,240 564.05,256.5 424.7,256.5 424.7,273 "/>
    <text font-size="12.7998" style="fill: #000000;text-anchor:middle;font-family:monospace;font-style:normal;font-weight:normal" x="494.375" y="253.5">run</text>
    <polygon style="fill: #000000" points="478.825,253.5 478.825,245.5 470.825,249.5 "/>
    <text font-size="12.7998" style="fill: #000000;text-anchor:start;font-family:monospace;font-style:normal;font-weight:normal" x="568.05" y="252">0,1</text>
    <text font-size="12.7998" style="fill: #000000;text-anchor:start;font-family:monospace;font-style:normal;font-weight:normal" x="428.7" y="269">1</text>
  </g>
  <g>
    <rect style="fill: #ffffff" x="355" y="406" width="139.2" height="28"/>
    <rect style="fill: none; fill-opacity:0; stroke-width: 2; stroke: #000000" x="355" y="406" width="139.2" height="28"/>
    <text font-size="16" style="fill: #000000;text-anchor:middle;font-family:sans-serif;font-style:normal;font-weight:700" x="424.6" y="425">printableNode</text>
    <rect style="fill: #ffffff" x="355" y="434" width="139.2" height="8"/>
    <rect style="fill: none; fill-opacity:0; stroke-width: 2; stroke: #000000" x="355" y="434" width="139.2" height="8"/>
    <rect style="fill: #ffffff" x="355" y="442" width="139.2" height="8"/>
    <rect style="fill: none; fill-opacity:0; stroke-width: 2; stroke: #000000" x="355" y="442" width="139.2" height="8"/>
  </g>
  <g>
    <polyline style="fill: none; fill-opacity:0; stroke-width: 2; stroke: #000000" points="424.7,335.236 424.7,369.5 424.6,369.5 424.6,406 "/>
    <polygon style="fill: #ffffff" points="432.7,335.236 424.7,319.236 416.7,335.236 "/>
    <polygon style="fill: none; fill-opacity:0; stroke-width: 2; stroke: #000000" points="432.7,335.236 424.7,319.236 416.7,335.236 "/>
  </g>
  <g>
    <rect style="fill: #ffffff" x="266.514" y="533.586" width="82.4" height="28"/>
    <rect style="fill: none; fill-opacity:0; stroke-width: 2; stroke: #000000" x="266.514" y="533.586" width="82.4" height="28"/>
    <text font-size="16" style="fill: #000000;text-anchor:middle;font-family:sans-serif;font-style:normal;font-weight:700" x="307.714" y="552.586">refNode</text>
    <rect style="fill: #ffffff" x="266.514" y="561.586" width="82.4" height="8"/>
    <rect style="fill: none; fill-opacity:0; stroke-width: 2; stroke: #000000" x="266.514" y="561.586" width="82.4" height="8"/>
    <rect style="fill: #ffffff" x="266.514" y="569.586" width="82.4" height="8"/>
    <rect style="fill: none; fill-opacity:0; stroke-width: 2; stroke: #000000" x="266.514" y="569.586" width="82.4" height="8"/>
  </g>
  <g>
    <polyline style="fill: none; fill-opacity:0; stroke-width: 2; stroke: #000000" points="424.6,468.236 424.6,499.793 307.714,499.793 307.714,533.586 "/>
    <polygon style="fill: #ffffff" points="432.6,468.236 424.6,452.236 416.6,468.236 "/>
    <polygon style="fill: none; fill-opacity:0; stroke-width: 2; stroke: #000000" points="432.6,468.236 424.6,452.236 416.6,468.236 "/>
  </g>
  <g>
    <polyline style="fill: none; fill-opacity:0; stroke-width: 2; stroke: #000000" points="424.6,468.236 424.6,500.5 587.2,500.5 587.2,535 "/>
    <polygon style="fill: #ffffff" points="432.6,468.236 424.6,452.236 416.6,468.236 "/>
    <polygon style="fill: none; fill-opacity:0; stroke-width: 2; stroke: #000000" points="432.6,468.236 424.6,452.236 416.6,468.236 "/>
  </g>
  <g>
    <rect style="fill: #ffffff" x="510" y="535" width="154.4" height="28"/>
    <rect style="fill: none; fill-opacity:0; stroke-width: 2; stroke: #000000" x="510" y="535" width="154.4" height="28"/>
    <text font-size="16" style="fill: #000000;text-anchor:middle;font-family:sans-serif;font-style:normal;font-weight:700" x="587.2" y="554">objectTypeNode</text>
    <rect style="fill: #ffffff" x="510" y="563" width="154.4" height="8"/>
    <rect style="fill: none; fill-opacity:0; stroke-width: 2; stroke: #000000" x="510" y="563" width="154.4" height="8"/>
    <rect style="fill: #ffffff" x="510" y="571" width="154.4" height="8"/>
    <rect style="fill: none; fill-opacity:0; stroke-width: 2; stroke: #000000" x="510" y="571" width="154.4" height="8"/>
  </g>
  <g>
    <rect style="fill: #ffffff" x="542" y="636" width="89.3" height="28"/>
    <rect style="fill: none; fill-opacity:0; stroke-width: 2; stroke: #000000" x="542" y="636" width="89.3" height="28"/>
    <text font-size="16" style="fill: #000000;text-anchor:middle;font-family:sans-serif;font-style:normal;font-weight:700" x="586.65" y="655">expNode</text>
    <rect style="fill: #ffffff" x="542" y="664" width="89.3" height="8"/>
    <rect style="fill: none; fill-opacity:0; stroke-width: 2; stroke: #000000" x="542" y="664" width="89.3" height="8"/>
    <rect style="fill: #ffffff" x="542" y="672" width="89.3" height="8"/>
    <rect style="fill: none; fill-opacity:0; stroke-width: 2; stroke: #000000" x="542" y="672" width="89.3" height="8"/>
  </g>
  <g>
    <polyline style="fill: none; fill-opacity:0; stroke-width: 2; stroke: #000000" points="587.2,597.236 587.2,615.5 586.65,615.5 586.65,636 "/>
    <polygon style="fill: #ffffff" points="595.2,597.236 587.2,581.236 579.2,597.236 "/>
    <polygon style="fill: none; fill-opacity:0; stroke-width: 2; stroke: #000000" points="595.2,597.236 587.2,581.236 579.2,597.236 "/>
  </g>
  <g>
    <rect style="fill: #ffffff" x="412" y="729" width="100.75" height="28"/>
    <rect style="fill: none; fill-opacity:0; stroke-width: 2; stroke: #000000" x="412" y="729" width="100.75" height="28"/>
    <text font-size="16" style="fill: #000000;text-anchor:middle;font-family:sans-serif;font-style:normal;font-weight:700" x="462.375" y="748">dexpNode</text>
    <rect style="fill: #ffffff" x="412" y="757" width="100.75" height="8"/>
    <rect style="fill: none; fill-opacity:0; stroke-width: 2; stroke: #000000" x="412" y="757" width="100.75" height="8"/>
    <rect style="fill: #ffffff" x="412" y="765" width="100.75" height="8"/>
    <rect style="fill: none; fill-opacity:0; stroke-width: 2; stroke: #000000" x="412" y="765" width="100.75" height="8"/>
  </g>
  <g>
    <polyline style="fill: none; fill-opacity:0; stroke-width: 2; stroke: #000000" points="586.65,698.236 586.65,712.5 462.375,712.5 462.375,729 "/>
    <polygon style="fill: #ffffff" points="594.65,698.236 586.65,682.236 578.65,698.236 "/>
    <polygon style="fill: none; fill-opacity:0; stroke-width: 2; stroke: #000000" points="594.65,698.236 586.65,682.236 578.65,698.236 "/>
  </g>
  <g>
    <rect style="fill: #ffffff" x="1170" y="728" width="100.7" height="28"/>
    <rect style="fill: none; fill-opacity:0; stroke-width: 2; stroke: #000000" x="1170" y="728" width="100.7" height="28"/>
    <text font-size="16" style="fill: #000000;text-anchor:middle;font-family:sans-serif;font-style:normal;font-weight:700" x="1220.35" y="747">nexpNode</text>
    <rect style="fill: #ffffff" x="1170" y="756" width="100.7" height="8"/>
    <rect style="fill: none; fill-opacity:0; stroke-width: 2; stroke: #000000" x="1170" y="756" width="100.7" height="8"/>
    <rect style="fill: #ffffff" x="1170" y="764" width="100.7" height="8"/>
    <rect style="fill: none; fill-opacity:0; stroke-width: 2; stroke: #000000" x="1170" y="764" width="100.7" height="8"/>
  </g>
  <g>
    <polyline style="fill: none; fill-opacity:0; stroke-width: 2; stroke: #000000" points="586.65,698.236 586.65,712 1220.35,712 1220.35,728 "/>
    <polygon style="fill: #ffffff" points="594.65,698.236 586.65,682.236 578.65,698.236 "/>
    <polygon style="fill: none; fill-opacity:0; stroke-width: 2; stroke: #000000" points="594.65,698.236 586.65,682.236 578.65,698.236 "/>
  </g>
  <g>
    <rect style="fill: #ffffff" x="227" y="851" width="99.65" height="28"/>
    <rect style="fill: none; fill-opacity:0; stroke-width: 2; stroke: #000000" x="227" y="851" width="99.65" height="28"/>
    <text font-size="16" style="fill: #000000;text-anchor:middle;font-family:sans-serif;font-style:normal;font-weight:700" x="276.825" y="870">logicNode</text>
    <rect style="fill: #ffffff" x="227" y="879" width="99.65" height="8"/>
    <rect style="fill: none; fill-opacity:0; stroke-width: 2; stroke: #000000" x="227" y="879" width="99.65" height="8"/>
    <rect style="fill: #ffffff" x="227" y="887" width="99.65" height="8"/>
    <rect style="fill: none; fill-opacity:0; stroke-width: 2; stroke: #000000" x="227" y="887" width="99.65" height="8"/>
  </g>
  <g>
    <polyline style="fill: none; fill-opacity:0; stroke-width: 2; stroke: #000000" points="462.375,791.236 462.375,819.497 276.825,819.497 276.825,849.994 "/>
    <polygon style="fill: #ffffff" points="470.375,791.236 462.375,775.236 454.375,791.236 "/>
    <polygon style="fill: none; fill-opacity:0; stroke-width: 2; stroke: #000000" points="470.375,791.236 462.375,775.236 454.375,791.236 "/>
  </g>
  <g>
    <rect style="fill: #ffffff" x="412" y="849.8" width="99.95" height="28"/>
    <rect style="fill: none; fill-opacity:0; stroke-width: 2; stroke: #000000" x="412" y="849.8" width="99.95" height="28"/>
    <text font-size="16" style="fill: #000000;text-anchor:middle;font-family:sans-serif;font-style:normal;font-weight:700" x="461.975" y="868.8">arithNode</text>
    <rect style="fill: #ffffff" x="412" y="877.8" width="99.95" height="8"/>
    <rect style="fill: none; fill-opacity:0; stroke-width: 2; stroke: #000000" x="412" y="877.8" width="99.95" height="8"/>
    <rect style="fill: #ffffff" x="412" y="885.8" width="99.95" height="8"/>
    <rect style="fill: none; fill-opacity:0; stroke-width: 2; stroke: #000000" x="412" y="885.8" width="99.95" height="8"/>
  </g>
  <g>
    <polyline style="fill: none; fill-opacity:0; stroke-width: 2; stroke: #000000" points="462.375,791.236 462.375,819.4 461.975,819.4 461.975,849.8 "/>
    <polygon style="fill: #ffffff" points="470.375,791.236 462.375,775.236 454.375,791.236 "/>
    <polygon style="fill: none; fill-opacity:0; stroke-width: 2; stroke: #000000" points="470.375,791.236 462.375,775.236 454.375,791.236 "/>
  </g>
  <g>
    <rect style="fill: #ffffff" x="55" y="849.8" width="90.5" height="28"/>
    <rect style="fill: none; fill-opacity:0; stroke-width: 2; stroke: #000000" x="55" y="849.8" width="90.5" height="28"/>
    <text font-size="16" style="fill: #000000;text-anchor:middle;font-family:sans-serif;font-style:normal;font-weight:700" x="100.25" y="868.8">nullNode</text>
    <rect style="fill: #ffffff" x="55" y="877.8" width="90.5" height="8"/>
    <rect style="fill: none; fill-opacity:0; stroke-width: 2; stroke: #000000" x="55" y="877.8" width="90.5" height="8"/>
    <rect style="fill: #ffffff" x="55" y="885.8" width="90.5" height="8"/>
    <rect style="fill: none; fill-opacity:0; stroke-width: 2; stroke: #000000" x="55" y="885.8" width="90.5" height="8"/>
  </g>
  <g>
    <polyline style="fill: none; fill-opacity:0; stroke-width: 2; stroke: #000000" points="462.375,791.236 462.375,819.4 100.25,819.4 100.25,849.8 "/>
    <polygon style="fill: #ffffff" points="470.375,791.236 462.375,775.236 454.375,791.236 "/>
    <polygon style="fill: none; fill-opacity:0; stroke-width: 2; stroke: #000000" points="470.375,791.236 462.375,775.236 454.375,791.236 "/>
  </g>
  <g>
    <rect style="fill: #ffffff" x="631" y="849.8" width="110.1" height="28"/>
    <rect style="fill: none; fill-opacity:0; stroke-width: 2; stroke: #000000" x="631" y="849.8" width="110.1" height="28"/>
    <text font-size="16" style="fill: #000000;text-anchor:middle;font-family:sans-serif;font-style:normal;font-weight:700" x="686.05" y="868.8">stringNode</text>
    <rect style="fill: #ffffff" x="631" y="877.8" width="110.1" height="8"/>
    <rect style="fill: none; fill-opacity:0; stroke-width: 2; stroke: #000000" x="631" y="877.8" width="110.1" height="8"/>
    <rect style="fill: #ffffff" x="631" y="885.8" width="110.1" height="8"/>
    <rect style="fill: none; fill-opacity:0; stroke-width: 2; stroke: #000000" x="631" y="885.8" width="110.1" height="8"/>
  </g>
  <g>
    <polyline style="fill: none; fill-opacity:0; stroke-width: 2; stroke: #000000" points="462.375,791.236 462.375,819.4 686.05,819.4 686.05,849.8 "/>
    <polygon style="fill: #ffffff" points="470.375,791.236 462.375,775.236 454.375,791.236 "/>
    <polygon style="fill: none; fill-opacity:0; stroke-width: 2; stroke: #000000" points="470.375,791.236 462.375,775.236 454.375,791.236 "/>
  </g>
  <g>
    <rect style="fill: #ffffff" x="347" y="115" width="66.95" height="28"/>
    <rect style="fill: none; fill-opacity:0; stroke-width: 2; stroke: #000000" x="347" y="115" width="66.95" height="28"/>
    <text font-size="16" style="fill: #000000;text-anchor:middle;font-family:sans-serif;font-style:normal;font-weight:700" x="380.475" y="134">sTable</text>
    <rect style="fill: #ffffff" x="347" y="143" width="66.95" height="8"/>
    <rect style="fill: none; fill-opacity:0; stroke-width: 2; stroke: #000000" x="347" y="143" width="66.95" height="8"/>
    <rect style="fill: #ffffff" x="347" y="151" width="66.95" height="8"/>
    <rect style="fill: none; fill-opacity:0; stroke-width: 2; stroke: #000000" x="347" y="151" width="66.95" height="8"/>
  </g>
  <g>
    <polyline style="fill: none; fill-opacity:0; stroke-width: 2; stroke: #000000" points="564.05,180 564.05,129 413.95,129 "/>
    <text font-size="12.7998" style="fill: #000000;text-anchor:middle;font-family:monospace;font-style:normal;font-weight:normal" x="489" y="126">current</text>
    <polygon style="fill: #000000" points="458.05,126 458.05,118 450.05,122 "/>
    <text font-size="12.7998" style="fill: #000000;text-anchor:start;font-family:monospace;font-style:normal;font-weight:normal" x="568.05" y="176">0,1</text>
    <text font-size="12.7998" style="fill: #000000;text-anchor:start;font-family:monospace;font-style:normal;font-weight:normal" x="417.95" y="126">1</text>
  </g>
  <g>
    <rect style="fill: #ffffff" x="509" y="180" width="110.1" height="44"/>
    <rect style="fill: none; fill-opacity:0; stroke-width: 2; stroke: #000000" x="509" y="180" width="110.1" height="44"/>
    <text font-size="12.8" style="fill: #000000;text-anchor:middle;font-family:monospace;font-style:normal;font-weight:normal" x="564.05" y="196">&lt;&lt;singleton&gt;&gt;</text>
    <text font-size="16" style="fill: #000000;text-anchor:middle;font-family:sans-serif;font-style:normal;font-weight:700" x="564.05" y="215">interpreter</text>
    <rect style="fill: #ffffff" x="509" y="224" width="110.1" height="8"/>
    <rect style="fill: none; fill-opacity:0; stroke-width: 2; stroke: #000000" x="509" y="224" width="110.1" height="8"/>
    <rect style="fill: #ffffff" x="509" y="232" width="110.1" height="8"/>
    <rect style="fill: none; fill-opacity:0; stroke-width: 2; stroke: #000000" x="509" y="232" width="110.1" height="8"/>
  </g>
  <g>
    <rect style="fill: #ffffff" x="134" y="115" width="84.05" height="28"/>
    <rect style="fill: none; fill-opacity:0; stroke-width: 2; stroke: #000000" x="134" y="115" width="84.05" height="28"/>
    <text font-size="16" style="fill: #000000;text-anchor:middle;font-family:sans-serif;font-style:normal;font-weight:700" x="176.025" y="134">symbols</text>
    <rect style="fill: #ffffff" x="134" y="143" width="84.05" height="8"/>
    <rect style="fill: none; fill-opacity:0; stroke-width: 2; stroke: #000000" x="134" y="143" width="84.05" height="8"/>
    <rect style="fill: #ffffff" x="134" y="151" width="84.05" height="8"/>
    <rect style="fill: none; fill-opacity:0; stroke-width: 2; stroke: #000000" x="134" y="151" width="84.05" height="8"/>
  </g>
  <g>
    <polyline style="fill: none; fill-opacity:0; stroke-width: 2; stroke: #000000" points="176.025,184.172 176.025,547.586 266.514,547.586 "/>
    <polygon style="fill: #ffffff" points="176.025,159 180.825,173 176.025,187 171.225,173 "/>
    <polygon style="fill: none; fill-opacity:0; stroke-width: 2; stroke: #000000" points="176.025,159 180.825,173 176.025,187 171.225,173 "/>
    <text font-size="12.7998" style="fill: #000000;text-anchor:middle;font-family:monospace;font-style:normal;font-weight:normal" x="221.269" y="544.586"/>
    <text font-size="12.7998" style="fill: #000000;text-anchor:start;font-family:monospace;font-style:normal;font-weight:normal" x="187.025" y="171"/>
    <text font-size="12.7998" style="fill: #000000;text-anchor:end;font-family:monospace;font-style:normal;font-weight:normal" x="262.514" y="544.586"/>
  </g>
  <g>
    <polyline style="fill: none; fill-opacity:0; stroke-width: 2; stroke: #000000" points="380.474,115 380.474,97 176.025,97 176.025,115 "/>
    <text font-size="12.7998" style="fill: #000000;text-anchor:middle;font-family:monospace;font-style:normal;font-weight:normal" x="278.25" y="94">var</text>
    <polygon style="fill: #000000" points="262.7,94 262.7,86 254.7,90 "/>
    <text font-size="12.7998" style="fill: #000000;text-anchor:start;font-family:monospace;font-style:normal;font-weight:normal" x="384.474" y="111">0,1</text>
    <text font-size="12.7998" style="fill: #000000;text-anchor:start;font-family:monospace;font-style:normal;font-weight:normal" x="180.025" y="111">1,n</text>
  </g>
  <g>
    <polyline style="fill: none; fill-opacity:0; stroke-width: 2; stroke: #000000" points="347,129 346,129 219.05,129 218.05,129 "/>
    <text font-size="12.7998" style="fill: #000000;text-anchor:middle;font-family:monospace;font-style:normal;font-weight:normal" x="282.525" y="126">funcs</text>
    <polygon style="fill: #000000" points="259.275,126 259.275,118 251.275,122 "/>
    <text font-size="12.7998" style="fill: #000000;text-anchor:end;font-family:monospace;font-style:normal;font-weight:normal" x="343" y="126">0,1</text>
    <text font-size="12.7998" style="fill: #000000;text-anchor:start;font-family:monospace;font-style:normal;font-weight:normal" x="222.05" y="126">1</text>
  </g>
  <g>
    <polyline style="fill: none; fill-opacity:0; stroke-width: 2; stroke: #000000" points="347,159 282.526,159 282.526,159 218.05,159 "/>
    <text font-size="12.7998" style="fill: #000000;text-anchor:middle;font-family:monospace;font-style:normal;font-weight:normal" x="282.526" y="156">class</text>
    <polygon style="fill: #000000" points="259.276,156 259.276,148 251.276,152 "/>
    <text font-size="12.7998" style="fill: #000000;text-anchor:end;font-family:monospace;font-style:normal;font-weight:normal" x="343" y="156">0,1</text>
    <text font-size="12.7998" style="fill: #000000;text-anchor:start;font-family:monospace;font-style:normal;font-weight:normal" x="222.05" y="156">1</text>
  </g>
  <g>
    <rect style="fill: #ffffff" x="56" y="50" width="52.1" height="28"/>
    <rect style="fill: none; fill-opacity:0; stroke-width: 2; stroke: #000000" x="56" y="50" width="52.1" height="28"/>
    <text font-size="16" style="fill: #000000;text-anchor:middle;font-family:sans-serif;font-style:normal;font-weight:700" x="82.05" y="69">isym</text>
    <rect style="fill: #ffffff" x="56" y="78" width="52.1" height="8"/>
    <rect style="fill: none; fill-opacity:0; stroke-width: 2; stroke: #000000" x="56" y="78" width="52.1" height="8"/>
    <rect style="fill: #ffffff" x="56" y="86" width="52.1" height="8"/>
    <rect style="fill: none; fill-opacity:0; stroke-width: 2; stroke: #000000" x="56" y="86" width="52.1" height="8"/>
  </g>
  <g>
    <polyline style="fill: none; fill-opacity:0; stroke-width: 2; stroke-dasharray: 8; stroke: #000000" points="134,129 82.05,129 82.05,100.705 "/>
    <polyline style="fill: none; fill-opacity:0; stroke-width: 2; stroke: #000000" points="87.05,113.353 82.05,97.3526 77.05,113.353 "/>
  </g>
  <g>
    <rect style="fill: #ffffff" x="1105" y="802" width="73.65" height="28"/>
    <rect style="fill: none; fill-opacity:0; stroke-width: 2; stroke: #000000" x="1105" y="802" width="73.65" height="28"/>
    <text font-size="16" style="fill: #000000;text-anchor:middle;font-family:sans-serif;font-style:normal;font-weight:700" x="1141.83" y="821">idNode</text>
    <rect style="fill: #ffffff" x="1105" y="830" width="73.65" height="8"/>
    <rect style="fill: none; fill-opacity:0; stroke-width: 2; stroke: #000000" x="1105" y="830" width="73.65" height="8"/>
    <rect style="fill: #ffffff" x="1105" y="838" width="73.65" height="8"/>
    <rect style="fill: none; fill-opacity:0; stroke-width: 2; stroke: #000000" x="1105" y="838" width="73.65" height="8"/>
  </g>
  <g>
    <polyline style="fill: none; fill-opacity:0; stroke-width: 2; stroke: #000000" points="1220.35,790.236 1220.35,816 1178.65,816 "/>
    <polygon style="fill: #ffffff" points="1228.35,790.236 1220.35,774.236 1212.35,790.236 "/>
    <polygon style="fill: none; fill-opacity:0; stroke-width: 2; stroke: #000000" points="1228.35,790.236 1220.35,774.236 1212.35,790.236 "/>
  </g>
  <g>
    <rect style="fill: #ffffff" x="1421" y="727" width="96.25" height="28"/>
    <rect style="fill: none; fill-opacity:0; stroke-width: 2; stroke: #000000" x="1421" y="727" width="96.25" height="28"/>
    <text font-size="16" style="fill: #000000;text-anchor:middle;font-family:sans-serif;font-style:normal;font-weight:700" x="1469.12" y="746">fexpNode</text>
    <rect style="fill: #ffffff" x="1421" y="755" width="96.25" height="8"/>
    <rect style="fill: none; fill-opacity:0; stroke-width: 2; stroke: #000000" x="1421" y="755" width="96.25" height="8"/>
    <rect style="fill: #ffffff" x="1421" y="763" width="96.25" height="8"/>
    <rect style="fill: none; fill-opacity:0; stroke-width: 2; stroke: #000000" x="1421" y="763" width="96.25" height="8"/>
  </g>
  <g>
    <polyline style="fill: none; fill-opacity:0; stroke-width: 2; stroke: #000000" points="586.65,698.236 586.65,711.5 1469.12,711.5 1469.12,727 "/>
    <polygon style="fill: #ffffff" points="594.65,698.236 586.65,682.236 578.65,698.236 "/>
    <polygon style="fill: none; fill-opacity:0; stroke-width: 2; stroke: #000000" points="594.65,698.236 586.65,682.236 578.65,698.236 "/>
  </g>
  <g>
    <rect style="fill: #ffffff" x="1314" y="801" width="131.5" height="28"/>
    <rect style="fill: none; fill-opacity:0; stroke-width: 2; stroke: #000000" x="1314" y="801" width="131.5" height="28"/>
    <text font-size="16" style="fill: #000000;text-anchor:middle;font-family:sans-serif;font-style:normal;font-weight:700" x="1379.75" y="820">functionNode</text>
    <rect style="fill: #ffffff" x="1314" y="829" width="131.5" height="8"/>
    <rect style="fill: none; fill-opacity:0; stroke-width: 2; stroke: #000000" x="1314" y="829" width="131.5" height="8"/>
    <rect style="fill: #ffffff" x="1314" y="837" width="131.5" height="8"/>
    <rect style="fill: none; fill-opacity:0; stroke-width: 2; stroke: #000000" x="1314" y="837" width="131.5" height="8"/>
  </g>
  <g>
    <polyline style="fill: none; fill-opacity:0; stroke-width: 2; stroke: #000000" points="1469.12,789.236 1469.12,815 1445.5,815 "/>
    <polygon style="fill: #ffffff" points="1477.12,789.236 1469.12,773.236 1461.12,789.236 "/>
    <polygon style="fill: none; fill-opacity:0; stroke-width: 2; stroke: #000000" points="1477.12,789.236 1469.12,773.236 1461.12,789.236 "/>
  </g>
  <g>
    <rect style="fill: #ffffff" x="1019" y="860" width="162.8" height="28"/>
    <rect style="fill: none; fill-opacity:0; stroke-width: 2; stroke: #000000" x="1019" y="860" width="162.8" height="28"/>
    <text font-size="16" style="fill: #000000;text-anchor:middle;font-family:sans-serif;font-style:normal;font-weight:700" x="1100.4" y="879">functioncallNode</text>
    <rect style="fill: #ffffff" x="1019" y="888" width="162.8" height="8"/>
    <rect style="fill: none; fill-opacity:0; stroke-width: 2; stroke: #000000" x="1019" y="888" width="162.8" height="8"/>
    <rect style="fill: #ffffff" x="1019" y="896" width="162.8" height="8"/>
    <rect style="fill: none; fill-opacity:0; stroke-width: 2; stroke: #000000" x="1019" y="896" width="162.8" height="8"/>
  </g>
  <g>
    <polyline style="fill: none; fill-opacity:0; stroke-width: 2; stroke: #000000" points="1220.35,790.236 1220.35,874 1181.8,874 "/>
    <polygon style="fill: #ffffff" points="1228.35,790.236 1220.35,774.236 1212.35,790.236 "/>
    <polygon style="fill: none; fill-opacity:0; stroke-width: 2; stroke: #000000" points="1228.35,790.236 1220.35,774.236 1212.35,790.236 "/>
  </g>
  <g>
    <rect style="fill: #ffffff" x="1022" y="918" width="161.45" height="28"/>
    <rect style="fill: none; fill-opacity:0; stroke-width: 2; stroke: #000000" x="1022" y="918" width="161.45" height="28"/>
    <text font-size="16" style="fill: #000000;text-anchor:middle;font-family:sans-serif;font-style:normal;font-weight:700" x="1102.73" y="937">functiongetNode</text>
    <rect style="fill: #ffffff" x="1022" y="946" width="161.45" height="8"/>
    <rect style="fill: none; fill-opacity:0; stroke-width: 2; stroke: #000000" x="1022" y="946" width="161.45" height="8"/>
    <rect style="fill: #ffffff" x="1022" y="954" width="161.45" height="8"/>
    <rect style="fill: none; fill-opacity:0; stroke-width: 2; stroke: #000000" x="1022" y="954" width="161.45" height="8"/>
  </g>
  <g>
    <polyline style="fill: none; fill-opacity:0; stroke-width: 2; stroke: #000000" points="1220.35,790.236 1220.35,1176.8 1181.5,1176.8 "/>
    <polygon style="fill: #ffffff" points="1228.35,790.236 1220.35,774.236 1212.35,790.236 "/>
    <polygon style="fill: none; fill-opacity:0; stroke-width: 2; stroke: #000000" points="1228.35,790.236 1220.35,774.236 1212.35,790.236 "/>
  </g>
  <g>
    <rect style="fill: #ffffff" x="851.406" y="296.136" width="112.4" height="28"/>
    <rect style="fill: none; fill-opacity:0; stroke-width: 2; stroke: #000000" x="851.406" y="296.136" width="112.4" height="28"/>
    <text font-size="16" style="fill: #000000;text-anchor:middle;font-family:sans-serif;font-style:normal;font-weight:700" x="907.606" y="315.136">globalNode</text>
    <rect style="fill: #ffffff" x="851.406" y="324.136" width="112.4" height="8"/>
    <rect style="fill: none; fill-opacity:0; stroke-width: 2; stroke: #000000" x="851.406" y="324.136" width="112.4" height="8"/>
    <rect style="fill: #ffffff" x="851.406" y="332.136" width="112.4" height="8"/>
    <rect style="fill: none; fill-opacity:0; stroke-width: 2; stroke: #000000" x="851.406" y="332.136" width="112.4" height="8"/>
  </g>
  <g>
    <polyline style="fill: none; fill-opacity:0; stroke-width: 2; stroke: #000000" points="424.7,335.236 424.7,368 813,368 813,310.136 851.406,310.136 "/>
    <polygon style="fill: #ffffff" points="432.7,335.236 424.7,319.236 416.7,335.236 "/>
    <polygon style="fill: none; fill-opacity:0; stroke-width: 2; stroke: #000000" points="432.7,335.236 424.7,319.236 416.7,335.236 "/>
  </g>
  <g>
    <rect style="fill: #ffffff" x="851" y="354.216" width="113.8" height="28"/>
    <rect style="fill: none; fill-opacity:0; stroke-width: 2; stroke: #000000" x="851" y="354.216" width="113.8" height="28"/>
    <text font-size="16" style="fill: #000000;text-anchor:middle;font-family:sans-serif;font-style:normal;font-weight:700" x="907.9" y="373.216">returnNode</text>
    <rect style="fill: #ffffff" x="851" y="382.216" width="113.8" height="8"/>
    <rect style="fill: none; fill-opacity:0; stroke-width: 2; stroke: #000000" x="851" y="382.216" width="113.8" height="8"/>
    <rect style="fill: #ffffff" x="851" y="390.216" width="113.8" height="8"/>
    <rect style="fill: none; fill-opacity:0; stroke-width: 2; stroke: #000000" x="851" y="390.216" width="113.8" height="8"/>
  </g>
  <g>
    <polyline style="fill: none; fill-opacity:0; stroke-width: 2; stroke: #000000" points="424.7,335.236 424.7,368 813,368 813,368 851,368 851,368.216 "/>
    <polygon style="fill: #ffffff" points="432.7,335.236 424.7,319.236 416.7,335.236 "/>
    <polygon style="fill: none; fill-opacity:0; stroke-width: 2; stroke: #000000" points="432.7,335.236 424.7,319.236 416.7,335.236 "/>
  </g>
  <g>
    <rect style="fill: #ffffff" x="1064" y="24" width="155.7" height="28"/>
    <rect style="fill: none; fill-opacity:0; stroke-width: 2; stroke: #000000" x="1064" y="24" width="155.7" height="28"/>
    <text font-size="16" style="fill: #000000;text-anchor:middle;font-family:sans-serif;font-style:normal;font-weight:700" x="1141.85" y="43">returnException</text>
    <rect style="fill: #ffffff" x="1064" y="52" width="155.7" height="8"/>
    <rect style="fill: none; fill-opacity:0; stroke-width: 2; stroke: #000000" x="1064" y="52" width="155.7" height="8"/>
    <rect style="fill: #ffffff" x="1064" y="60" width="155.7" height="8"/>
    <rect style="fill: none; fill-opacity:0; stroke-width: 2; stroke: #000000" x="1064" y="60" width="155.7" height="8"/>
  </g>
  <g>
    <rect style="fill: #ffffff" x="851" y="406.6" width="101.5" height="28"/>
    <rect style="fill: none; fill-opacity:0; stroke-width: 2; stroke: #000000" x="851" y="406.6" width="101.5" height="28"/>
    <text font-size="16" style="fill: #000000;text-anchor:middle;font-family:sans-serif;font-style:normal;font-weight:700" x="901.75" y="425.6">classNode</text>
    <rect style="fill: #ffffff" x="851" y="434.6" width="101.5" height="8"/>
    <rect style="fill: none; fill-opacity:0; stroke-width: 2; stroke: #000000" x="851" y="434.6" width="101.5" height="8"/>
    <rect style="fill: #ffffff" x="851" y="442.6" width="101.5" height="8"/>
    <rect style="fill: none; fill-opacity:0; stroke-width: 2; stroke: #000000" x="851" y="442.6" width="101.5" height="8"/>
  </g>
  <g>
    <rect style="fill: #ffffff" x="851" y="459.486" width="121.3" height="28"/>
    <rect style="fill: none; fill-opacity:0; stroke-width: 2; stroke: #000000" x="851" y="459.486" width="121.3" height="28"/>
    <text font-size="16" style="fill: #000000;text-anchor:middle;font-family:sans-serif;font-style:normal;font-weight:700" x="911.65" y="478.486">privateNode</text>
    <rect style="fill: #ffffff" x="851" y="487.486" width="121.3" height="8"/>
    <rect style="fill: none; fill-opacity:0; stroke-width: 2; stroke: #000000" x="851" y="487.486" width="121.3" height="8"/>
    <rect style="fill: #ffffff" x="851" y="495.486" width="121.3" height="8"/>
    <rect style="fill: none; fill-opacity:0; stroke-width: 2; stroke: #000000" x="851" y="495.486" width="121.3" height="8"/>
  </g>
  <g>
    <polyline style="fill: none; fill-opacity:0; stroke-width: 2; stroke: #000000" points="424.7,335.236 424.7,368 813,368 813,420.6 851,420.6 "/>
    <polygon style="fill: #ffffff" points="432.7,335.236 424.7,319.236 416.7,335.236 "/>
    <polygon style="fill: none; fill-opacity:0; stroke-width: 2; stroke: #000000" points="432.7,335.236 424.7,319.236 416.7,335.236 "/>
  </g>
  <polyline style="fill: none; fill-opacity:0; stroke-width: 2; stroke: #000000" points="851,420.6 813,420.6 813,473.486 851,473.486 "/>
  <g>
    <polyline style="fill: none; fill-opacity:0; stroke-width: 2; stroke: #000000" points="952.5,420.6 1023.82,420.6 1023.82,80.3826 413.95,80.3826 413.95,115 "/>
    <text font-size="12.7998" style="fill: #000000;text-anchor:middle;font-family:monospace;font-style:normal;font-weight:normal" x="718.883" y="77.3826"/>
    <polygon style="fill: #000000" points="720.883,77.3826 720.883,69.3826 728.883,73.3826 "/>
    <text font-size="12.7998" style="fill: #000000;text-anchor:start;font-family:monospace;font-style:normal;font-weight:normal" x="956.5" y="417.6"/>
    <text font-size="12.7998" style="fill: #000000;text-anchor:start;font-family:monospace;font-style:normal;font-weight:normal" x="417.95" y="111"/>
  </g>
  <g>
    <rect style="fill: #ffffff" x="1089" y="977" width="93.75" height="28"/>
    <rect style="fill: none; fill-opacity:0; stroke-width: 2; stroke: #000000" x="1089" y="977" width="93.75" height="28"/>
    <text font-size="16" style="fill: #000000;text-anchor:middle;font-family:sans-serif;font-style:normal;font-weight:700" x="1135.88" y="996">newNode</text>
    <rect style="fill: #ffffff" x="1089" y="1005" width="93.75" height="8"/>
    <rect style="fill: none; fill-opacity:0; stroke-width: 2; stroke: #000000" x="1089" y="1005" width="93.75" height="8"/>
    <rect style="fill: #ffffff" x="1089" y="1013" width="93.75" height="8"/>
    <rect style="fill: none; fill-opacity:0; stroke-width: 2; stroke: #000000" x="1089" y="1013" width="93.75" height="8"/>
  </g>
  <g>
    <polyline style="fill: none; fill-opacity:0; stroke-width: 2; stroke: #000000" points="1220.35,790.236 1220.35,991 1182.75,991 "/>
    <polygon style="fill: #ffffff" points="1228.35,790.236 1220.35,774.236 1212.35,790.236 "/>
    <polygon style="fill: none; fill-opacity:0; stroke-width: 2; stroke: #000000" points="1228.35,790.236 1220.35,774.236 1212.35,790.236 "/>
  </g>
  <g>
    <rect style="fill: #ffffff" x="1089" y="1039" width="90.75" height="28"/>
    <rect style="fill: none; fill-opacity:0; stroke-width: 2; stroke: #000000" x="1089" y="1039" width="90.75" height="28"/>
    <text font-size="16" style="fill: #000000;text-anchor:middle;font-family:sans-serif;font-style:normal;font-weight:700" x="1134.38" y="1058">thisNode</text>
    <rect style="fill: #ffffff" x="1089" y="1067" width="90.75" height="8"/>
    <rect style="fill: none; fill-opacity:0; stroke-width: 2; stroke: #000000" x="1089" y="1067" width="90.75" height="8"/>
    <rect style="fill: #ffffff" x="1089" y="1075" width="90.75" height="8"/>
    <rect style="fill: none; fill-opacity:0; stroke-width: 2; stroke: #000000" x="1089" y="1075" width="90.75" height="8"/>
  </g>
  <g>
    <polyline style="fill: none; fill-opacity:0; stroke-width: 2; stroke: #000000" points="1220.35,790.236 1220.35,1053 1179.75,1053 "/>
    <polygon style="fill: #ffffff" points="1228.35,790.236 1220.35,774.236 1212.35,790.236 "/>
    <polygon style="fill: none; fill-opacity:0; stroke-width: 2; stroke: #000000" points="1228.35,790.236 1220.35,774.236 1212.35,790.236 "/>
  </g>
  <g>
    <rect style="fill: #ffffff" x="1064" y="1098.8" width="116.75" height="28"/>
    <rect style="fill: none; fill-opacity:0; stroke-width: 2; stroke: #000000" x="1064" y="1098.8" width="116.75" height="28"/>
    <text font-size="16" style="fill: #000000;text-anchor:middle;font-family:sans-serif;font-style:normal;font-weight:700" x="1122.38" y="1117.8">parentNode</text>
    <rect style="fill: #ffffff" x="1064" y="1126.8" width="116.75" height="8"/>
    <rect style="fill: none; fill-opacity:0; stroke-width: 2; stroke: #000000" x="1064" y="1126.8" width="116.75" height="8"/>
    <rect style="fill: #ffffff" x="1064" y="1134.8" width="116.75" height="8"/>
    <rect style="fill: none; fill-opacity:0; stroke-width: 2; stroke: #000000" x="1064" y="1134.8" width="116.75" height="8"/>
  </g>
  <g>
    <polyline style="fill: none; fill-opacity:0; stroke-width: 2; stroke: #000000" points="1220.35,790.236 1220.35,1112.8 1180.75,1112.8 "/>
    <polygon style="fill: #ffffff" points="1228.35,790.236 1220.35,774.236 1212.35,790.236 "/>
    <polygon style="fill: none; fill-opacity:0; stroke-width: 2; stroke: #000000" points="1228.35,790.236 1220.35,774.236 1212.35,790.236 "/>
  </g>
  <g>
    <rect style="fill: #ffffff" x="850" y="518.8" width="107.3" height="28"/>
    <rect style="fill: none; fill-opacity:0; stroke-width: 2; stroke: #000000" x="850" y="518.8" width="107.3" height="28"/>
    <text font-size="16" style="fill: #000000;text-anchor:middle;font-family:sans-serif;font-style:normal;font-weight:700" x="903.65" y="537.8">staticNode</text>
    <rect style="fill: #ffffff" x="850" y="546.8" width="107.3" height="8"/>
    <rect style="fill: none; fill-opacity:0; stroke-width: 2; stroke: #000000" x="850" y="546.8" width="107.3" height="8"/>
    <rect style="fill: #ffffff" x="850" y="554.8" width="107.3" height="8"/>
    <rect style="fill: none; fill-opacity:0; stroke-width: 2; stroke: #000000" x="850" y="554.8" width="107.3" height="8"/>
  </g>
  <polyline style="fill: none; fill-opacity:0; stroke-width: 2; stroke: #000000" points="850,532.8 813,532.8 813,473.486 851,473.486 "/>
  <g>
    <rect style="fill: #ffffff" x="1023" y="1162.8" width="158.5" height="28"/>
    <rect style="fill: none; fill-opacity:0; stroke-width: 2; stroke: #000000" x="1023" y="1162.8" width="158.5" height="28"/>
    <text font-size="16" style="fill: #000000;text-anchor:middle;font-family:sans-serif;font-style:normal;font-weight:700" x="1102.25" y="1181.8">spacenameNode</text>
    <rect style="fill: #ffffff" x="1023" y="1190.8" width="158.5" height="8"/>
    <rect style="fill: none; fill-opacity:0; stroke-width: 2; stroke: #000000" x="1023" y="1190.8" width="158.5" height="8"/>
    <rect style="fill: #ffffff" x="1023" y="1198.8" width="158.5" height="8"/>
    <rect style="fill: none; fill-opacity:0; stroke-width: 2; stroke: #000000" x="1023" y="1198.8" width="158.5" height="8"/>
  </g>
  <g>
    <polyline style="fill: none; fill-opacity:0; stroke-width: 2; stroke: #000000" points="1220.35,790.236 1220.35,809 1240.35,809 1240.35,793 1220.35,793 1220.35,772 "/>
    <polygon style="fill: #ffffff" points="1228.35,790.236 1220.35,774.236 1212.35,790.236 "/>
    <polygon style="fill: none; fill-opacity:0; stroke-width: 2; stroke: #000000" points="1228.35,790.236 1220.35,774.236 1212.35,790.236 "/>
  </g>
  <g>
    <rect style="fill: #ffffff" x="1254" y="853" width="191.4" height="28"/>
    <rect style="fill: none; fill-opacity:0; stroke-width: 2; stroke: #000000" x="1254" y="853" width="191.4" height="28"/>
    <text font-size="16" style="fill: #000000;text-anchor:middle;font-family:sans-serif;font-style:normal;font-weight:700" x="1349.7" y="872">functionLambaNode</text>
    <rect style="fill: #ffffff" x="1254" y="881" width="191.4" height="8"/>
    <rect style="fill: none; fill-opacity:0; stroke-width: 2; stroke: #000000" x="1254" y="881" width="191.4" height="8"/>
    <rect style="fill: #ffffff" x="1254" y="889" width="191.4" height="8"/>
    <rect style="fill: none; fill-opacity:0; stroke-width: 2; stroke: #000000" x="1254" y="889" width="191.4" height="8"/>
  </g>
  <g>
    <polyline style="fill: none; fill-opacity:0; stroke-width: 2; stroke: #000000" points="1469.12,789.236 1469.12,867 1445.4,867 "/>
    <polygon style="fill: #ffffff" points="1477.12,789.236 1469.12,773.236 1461.12,789.236 "/>
    <polygon style="fill: none; fill-opacity:0; stroke-width: 2; stroke: #000000" points="1477.12,789.236 1469.12,773.236 1461.12,789.236 "/>
  </g>
  <g>
    <rect style="fill: #ffffff" x="1300" y="905.8" width="144.75" height="28"/>
    <rect style="fill: none; fill-opacity:0; stroke-width: 2; stroke: #000000" x="1300" y="905.8" width="144.75" height="28"/>
    <text font-size="16" style="fill: #000000;text-anchor:middle;font-family:sans-serif;font-style:normal;font-weight:700" x="1372.38" y="924.8">decoratorNode</text>
    <rect style="fill: #ffffff" x="1300" y="933.8" width="144.75" height="8"/>
    <rect style="fill: none; fill-opacity:0; stroke-width: 2; stroke: #000000" x="1300" y="933.8" width="144.75" height="8"/>
    <rect style="fill: #ffffff" x="1300" y="941.8" width="144.75" height="8"/>
    <rect style="fill: none; fill-opacity:0; stroke-width: 2; stroke: #000000" x="1300" y="941.8" width="144.75" height="8"/>
  </g>
  <g>
    <polyline style="fill: none; fill-opacity:0; stroke-width: 2; stroke: #000000" points="1469.12,789.236 1469.12,919.8 1444.75,919.8 "/>
    <polygon style="fill: #ffffff" points="1477.12,789.236 1469.12,773.236 1461.12,789.236 "/>
    <polygon style="fill: none; fill-opacity:0; stroke-width: 2; stroke: #000000" points="1477.12,789.236 1469.12,773.236 1461.12,789.236 "/>
  </g>
  <g>
    <rect style="fill: #ffffff" x="977" y="1226" width="203.05" height="28"/>
    <rect style="fill: none; fill-opacity:0; stroke-width: 2; stroke: #000000" x="977" y="1226" width="203.05" height="28"/>
    <text font-size="16" style="fill: #000000;text-anchor:middle;font-family:sans-serif;font-style:normal;font-weight:700" x="1078.53" y="1245">contextFunctionNode</text>
    <rect style="fill: #ffffff" x="977" y="1254" width="203.05" height="8"/>
    <rect style="fill: none; fill-opacity:0; stroke-width: 2; stroke: #000000" x="977" y="1254" width="203.05" height="8"/>
    <rect style="fill: #ffffff" x="977" y="1262" width="203.05" height="8"/>
    <rect style="fill: none; fill-opacity:0; stroke-width: 2; stroke: #000000" x="977" y="1262" width="203.05" height="8"/>
  </g>
  <g>
    <polyline style="fill: none; fill-opacity:0; stroke-width: 2; stroke: #000000" points="1220.35,790.236 1220.35,1240 1180.05,1240 "/>
    <polygon style="fill: #ffffff" points="1228.35,790.236 1220.35,774.236 1212.35,790.236 "/>
    <polygon style="fill: none; fill-opacity:0; stroke-width: 2; stroke: #000000" points="1228.35,790.236 1220.35,774.236 1212.35,790.236 "/>
  </g>
  <g>
    <rect style="fill: #ffffff" x="986" y="1290" width="194.3" height="28"/>
    <rect style="fill: none; fill-opacity:0; stroke-width: 2; stroke: #000000" x="986" y="1290" width="194.3" height="28"/>
    <text font-size="16" style="fill: #000000;text-anchor:middle;font-family:sans-serif;font-style:normal;font-weight:700" x="1083.15" y="1309">partialFunctionNode</text>
    <rect style="fill: #ffffff" x="986" y="1318" width="194.3" height="8"/>
    <rect style="fill: none; fill-opacity:0; stroke-width: 2; stroke: #000000" x="986" y="1318" width="194.3" height="8"/>
    <rect style="fill: #ffffff" x="986" y="1326" width="194.3" height="8"/>
    <rect style="fill: none; fill-opacity:0; stroke-width: 2; stroke: #000000" x="986" y="1326" width="194.3" height="8"/>
  </g>
  <g>
    <polyline style="fill: none; fill-opacity:0; stroke-width: 2; stroke: #000000" points="1220.35,790.236 1220.35,1304 1180.3,1304 "/>
    <polygon style="fill: #ffffff" points="1228.35,790.236 1220.35,774.236 1212.35,790.236 "/>
    <polygon style="fill: none; fill-opacity:0; stroke-width: 2; stroke: #000000" points="1228.35,790.236 1220.35,774.236 1212.35,790.236 "/>
  </g>
  <g>
    <rect style="fill: #ffffff" x="1169" y="570" width="79.1" height="28"/>
    <rect style="fill: none; fill-opacity:0; stroke-width: 2; stroke: #000000" x="1169" y="570" width="79.1" height="28"/>
    <text font-size="16" style="fill: #000000;text-anchor:middle;font-family:sans-serif;font-style:normal;font-weight:700" x="1208.55" y="589">noNode</text>
    <rect style="fill: #ffffff" x="1169" y="598" width="79.1" height="8"/>
    <rect style="fill: none; fill-opacity:0; stroke-width: 2; stroke: #000000" x="1169" y="598" width="79.1" height="8"/>
    <rect style="fill: #ffffff" x="1169" y="606" width="79.1" height="8"/>
    <rect style="fill: none; fill-opacity:0; stroke-width: 2; stroke: #000000" x="1169" y="606" width="79.1" height="8"/>
  </g>
  <polyline style="fill: none; fill-opacity:0; stroke-width: 2; stroke: #000000" points="1169,584 813,584 813,532.8 850,532.8 "/>
  <g>
    <rect style="fill: #ffffff" x="1167" y="501.8" width="98.15" height="28"/>
    <rect style="fill: none; fill-opacity:0; stroke-width: 2; stroke: #000000" x="1167" y="501.8" width="98.15" height="28"/>
    <text font-size="16" style="fill: #000000;text-anchor:middle;font-family:sans-serif;font-style:normal;font-weight:700" x="1216.08" y="520.8">stmtNode</text>
    <rect style="fill: #ffffff" x="1167" y="529.8" width="98.15" height="8"/>
    <rect style="fill: none; fill-opacity:0; stroke-width: 2; stroke: #000000" x="1167" y="529.8" width="98.15" height="8"/>
    <rect style="fill: #ffffff" x="1167" y="537.8" width="98.15" height="8"/>
    <rect style="fill: none; fill-opacity:0; stroke-width: 2; stroke: #000000" x="1167" y="537.8" width="98.15" height="8"/>
  </g>
  <polyline style="fill: none; fill-opacity:0; stroke-width: 2; stroke: #000000" points="1169,584 1144.99,584 1144.99,523.8 1165.99,523.8 "/>
  <g>
    <rect style="fill: #ffffff" x="1166" y="431" width="122.3" height="28"/>
    <rect style="fill: none; fill-opacity:0; stroke-width: 2; stroke: #000000" x="1166" y="431" width="122.3" height="28"/>
    <text font-size="16" style="fill: #000000;text-anchor:middle;font-family:sans-serif;font-style:normal;font-weight:700" x="1227.15" y="450">includeNode</text>
    <rect style="fill: #ffffff" x="1166" y="459" width="122.3" height="8"/>
    <rect style="fill: none; fill-opacity:0; stroke-width: 2; stroke: #000000" x="1166" y="459" width="122.3" height="8"/>
    <rect style="fill: #ffffff" x="1166" y="467" width="122.3" height="8"/>
    <rect style="fill: none; fill-opacity:0; stroke-width: 2; stroke: #000000" x="1166" y="467" width="122.3" height="8"/>
  </g>
</svg>
