<?xml version="1.0" encoding="UTF-8" standalone="no"?>
<!DOCTYPE svg PUBLIC "-//W3C//DTD SVG 1.0//EN" "http://www.w3.org/TR/2001/PR-SVG-20010719/DTD/svg10.dtd">
<svg width="33cm" height="24cm" viewBox="295 -103 644 465" xmlns="http://www.w3.org/2000/svg" xmlns:xlink="http://www.w3.org/1999/xlink">
  <g>
    <rect style="fill: #ffffff" x="296" y="-82" width="641" height="443"/>
    <rect style="fill: none; fill-opacity:0; stroke-width: 2.35099e-37; stroke: #000000" x="296" y="-82" width="641" height="443"/>
    <rect style="fill: #ffffff" x="296" y="-102" width="73.3" height="20"/>
    <rect style="fill: none; fill-opacity:0; stroke-width: 2.35099e-37; stroke: #000000" x="296" y="-102" width="73.3" height="20"/>
    <text font-size="12.7998" style="fill: #000000;text-anchor:start;font-family:monospace;font-style:normal;font-weight:normal" x="298" y="-87"> runNode </text>
  </g>
  <g>
    <rect style="fill: #ffffff" x="488" y="-39.2" width="87.4" height="28"/>
    <rect style="fill: none; fill-opacity:0; stroke-width: 2; stroke: #000000" x="488" y="-39.2" width="87.4" height="28"/>
    <text font-size="16" style="fill: #000000;text-anchor:middle;font-family:sans-serif;font-style:normal;font-weight:700" x="531.7" y="-20.2">runNode</text>
  </g>
  <g>
    <rect style="fill: #ffffff" x="462" y="42.8" width="139.2" height="28"/>
    <rect style="fill: none; fill-opacity:0; stroke-width: 2; stroke: #000000" x="462" y="42.8" width="139.2" height="28"/>
    <text font-size="16" style="fill: #000000;text-anchor:middle;font-family:sans-serif;font-style:normal;font-weight:700" x="531.6" y="61.8">printableNode</text>
  </g>
  <g>
    <polyline style="fill: none; fill-opacity:0; stroke-width: 2; stroke: #000000" points="531.7,7.03607 531.7,23.8 531.6,23.8 531.6,42.8 "/>
    <polygon style="fill: #ffffff" points="539.7,7.03607 531.7,-8.96393 523.7,7.03607 "/>
    <polygon style="fill: none; fill-opacity:0; stroke-width: 2; stroke: #000000" points="539.7,7.03607 531.7,-8.96393 523.7,7.03607 "/>
  </g>
  <g>
    <polyline style="fill: none; fill-opacity:0; stroke-width: 2; stroke: #000000" points="531.6,89.0361 531.6,107.3 532.2,107.3 532.2,127.8 "/>
    <polygon style="fill: #ffffff" points="539.6,89.0361 531.6,73.0361 523.6,89.0361 "/>
    <polygon style="fill: none; fill-opacity:0; stroke-width: 2; stroke: #000000" points="539.6,89.0361 531.6,73.0361 523.6,89.0361 "/>
  </g>
  <g>
    <rect style="fill: #ffffff" x="455" y="127.8" width="154.4" height="28"/>
    <rect style="fill: none; fill-opacity:0; stroke-width: 2; stroke: #000000" x="455" y="127.8" width="154.4" height="28"/>
    <text font-size="16" style="fill: #000000;text-anchor:middle;font-family:sans-serif;font-style:normal;font-weight:700" x="532.2" y="146.8">objectTypeNode</text>
  </g>
  <g>
    <rect style="fill: #ffffff" x="487" y="211.8" width="89.3" height="28"/>
    <rect style="fill: none; fill-opacity:0; stroke-width: 2; stroke: #000000" x="487" y="211.8" width="89.3" height="28"/>
    <text font-size="16" style="fill: #000000;text-anchor:middle;font-family:sans-serif;font-style:normal;font-weight:700" x="531.65" y="230.8">expNode</text>
  </g>
  <g>
    <polyline style="fill: none; fill-opacity:0; stroke-width: 2; stroke: #000000" points="532.2,174.036 532.2,191.8 531.65,191.8 531.65,211.8 "/>
    <polygon style="fill: #ffffff" points="540.2,174.036 532.2,158.036 524.2,174.036 "/>
    <polygon style="fill: none; fill-opacity:0; stroke-width: 2; stroke: #000000" points="540.2,174.036 532.2,158.036 524.2,174.036 "/>
  </g>
  <g>
    <rect style="fill: #ffffff" x="384" y="311.8" width="100.75" height="28"/>
    <rect style="fill: none; fill-opacity:0; stroke-width: 2; stroke: #000000" x="384" y="311.8" width="100.75" height="28"/>
    <text font-size="16" style="fill: #000000;text-anchor:middle;font-family:sans-serif;font-style:normal;font-weight:700" x="434.375" y="330.8">dexpNode</text>
  </g>
  <g>
    <polyline style="fill: none; fill-opacity:0; stroke-width: 2; stroke: #000000" points="531.65,258.036 531.65,283.8 434.375,283.8 434.375,311.8 "/>
    <polygon style="fill: #ffffff" points="539.65,258.036 531.65,242.036 523.65,258.036 "/>
    <polygon style="fill: none; fill-opacity:0; stroke-width: 2; stroke: #000000" points="539.65,258.036 531.65,242.036 523.65,258.036 "/>
  </g>
  <g>
    <rect style="fill: #ffffff" x="577" y="312.8" width="100.7" height="28"/>
    <rect style="fill: none; fill-opacity:0; stroke-width: 2; stroke: #000000" x="577" y="312.8" width="100.7" height="28"/>
    <text font-size="16" style="fill: #000000;text-anchor:middle;font-family:sans-serif;font-style:normal;font-weight:700" x="627.35" y="331.8">nexpNode</text>
  </g>
  <g>
    <polyline style="fill: none; fill-opacity:0; stroke-width: 2; stroke: #000000" points="531.65,258.036 531.65,284.3 627.35,284.3 627.35,312.8 "/>
    <polygon style="fill: #ffffff" points="539.65,258.036 531.65,242.036 523.65,258.036 "/>
    <polygon style="fill: none; fill-opacity:0; stroke-width: 2; stroke: #000000" points="539.65,258.036 531.65,242.036 523.65,258.036 "/>
  </g>
  <g>
    <rect style="fill: #ffffff" x="311" y="44" width="94.35" height="28"/>
    <rect style="fill: none; fill-opacity:0; stroke-width: 2; stroke: #000000" x="311" y="44" width="94.35" height="28"/>
    <text font-size="16" style="fill: #000000;text-anchor:middle;font-family:sans-serif;font-style:normal;font-weight:700" x="358.175" y="63">flowNode</text>
  </g>
  <g>
    <polyline style="fill: none; fill-opacity:0; stroke-width: 2; stroke: #000000" points="531.7,7.03607 531.7,32 358.176,32 358.176,44 "/>
    <polygon style="fill: #ffffff" points="539.7,7.03607 531.7,-8.96393 523.7,7.03607 "/>
    <polygon style="fill: none; fill-opacity:0; stroke-width: 2; stroke: #000000" points="539.7,7.03607 531.7,-8.96393 523.7,7.03607 "/>
  </g>
  <g>
    <rect style="fill: #ffffff" x="645" y="43" width="143.3" height="28"/>
    <rect style="fill: none; fill-opacity:0; stroke-width: 2; stroke: #000000" x="645" y="43" width="143.3" height="28"/>
    <text font-size="16" style="fill: #000000;text-anchor:middle;font-family:sans-serif;font-style:normal;font-weight:700" x="716.65" y="62">definitionNode</text>
  </g>
  <g>
    <polyline style="fill: none; fill-opacity:0; stroke-width: 2; stroke: #000000" points="531.7,7.03607 531.7,32 716.65,32 716.65,43 "/>
    <polygon style="fill: #ffffff" points="539.7,7.03607 531.7,-8.96393 523.7,7.03607 "/>
    <polygon style="fill: none; fill-opacity:0; stroke-width: 2; stroke: #000000" points="539.7,7.03607 531.7,-8.96393 523.7,7.03607 "/>
  </g>
  <g>
    <rect style="fill: #ffffff" x="730" y="128" width="101.5" height="28"/>
    <rect style="fill: none; fill-opacity:0; stroke-width: 2; stroke: #000000" x="730" y="128" width="101.5" height="28"/>
    <text font-size="16" style="fill: #000000;text-anchor:middle;font-family:sans-serif;font-style:normal;font-weight:700" x="780.75" y="147">classNode</text>
  </g>
  <g>
    <polyline style="fill: none; fill-opacity:0; stroke-width: 2; stroke: #000000" points="609.4,141.8 648.7,141.8 648.7,142 730,142 "/>
    <text font-size="12.7998" style="fill: #000000;text-anchor:start;font-family:monospace;font-style:normal;font-weight:normal" x="650.7" y="138.9">get</text>
    <polygon style="fill: #000000" points="675.8,138.9 675.8,130.9 683.8,134.9 "/>
    <text font-size="12.7998" style="fill: #000000;text-anchor:start;font-family:monospace;font-style:normal;font-weight:normal" x="613.4" y="138.8">n</text>
    <text font-size="12.7998" style="fill: #000000;text-anchor:end;font-family:monospace;font-style:normal;font-weight:normal" x="726" y="139">0,1</text>
  </g>
  <g>
    <polyline style="fill: none; fill-opacity:0; stroke-width: 2; stroke: #000000" points="716.65,89.2361 716.65,107.5 780.75,107.5 780.75,128 "/>
    <polygon style="fill: #ffffff" points="724.65,89.2361 716.65,73.2361 708.65,89.2361 "/>
    <polygon style="fill: none; fill-opacity:0; stroke-width: 2; stroke: #000000" points="724.65,89.2361 716.65,73.2361 708.65,89.2361 "/>
  </g>
  <g>
    <rect style="fill: #ffffff" x="817" y="40" width="82.4" height="28"/>
    <rect style="fill: none; fill-opacity:0; stroke-width: 2; stroke: #000000" x="817" y="40" width="82.4" height="28"/>
    <text font-size="16" style="fill: #000000;text-anchor:middle;font-family:sans-serif;font-style:normal;font-weight:700" x="858.2" y="59">refNode</text>
  </g>
  <g>
    <polyline style="fill: none; fill-opacity:0; stroke-width: 2; stroke: #000000" points="531.7,7.03607 531.7,32 858.2,32 858.2,40 "/>
    <polygon style="fill: #ffffff" points="539.7,7.03607 531.7,-8.96393 523.7,7.03607 "/>
    <polygon style="fill: none; fill-opacity:0; stroke-width: 2; stroke: #000000" points="539.7,7.03607 531.7,-8.96393 523.7,7.03607 "/>
  </g>
  <g>
    <polyline style="fill: none; fill-opacity:0; stroke-width: 2; stroke: #000000" points="899.4,54 920.4,54 920.4,-60.2 531.7,-60.2 531.7,-39.2 "/>
    <text font-size="12.7998" style="fill: #000000;text-anchor:middle;font-family:monospace;font-style:normal;font-weight:normal" x="726.05" y="-63.2">ref</text>
    <polygon style="fill: #000000" points="710.5,-63.2 710.5,-71.2 702.5,-67.2 "/>
    <text font-size="12.7998" style="fill: #000000;text-anchor:start;font-family:monospace;font-style:normal;font-weight:normal" x="903.4" y="51">n</text>
    <text font-size="12.7998" style="fill: #000000;text-anchor:start;font-family:monospace;font-style:normal;font-weight:normal" x="535.7" y="-43.2">1</text>
  </g>
  <g>
    <polyline style="fill: none; fill-opacity:0; stroke-width: 2; stroke: #000000" points="702.872,326.8 858.2,326.8 858.2,68 "/>
    <polygon style="fill: #ffffff" points="677.7,326.8 691.7,322 705.7,326.8 691.7,331.6 "/>
    <polygon style="fill: none; fill-opacity:0; stroke-width: 2; stroke: #000000" points="677.7,326.8 691.7,322 705.7,326.8 691.7,331.6 "/>
    <text font-size="12.7998" style="fill: #000000;text-anchor:middle;font-family:monospace;font-style:normal;font-weight:normal" x="767.95" y="323.8"/>
    <text font-size="12.7998" style="fill: #000000;text-anchor:start;font-family:monospace;font-style:normal;font-weight:normal" x="709.7" y="323.8"/>
    <text font-size="12.7998" style="fill: #000000;text-anchor:start;font-family:monospace;font-style:normal;font-weight:normal" x="862.2" y="80">1</text>
  </g>
  <text font-size="12.8" style="fill: #000000;text-anchor:start;font-family:sans-serif;font-style:normal;font-weight:normal" x="483" y="25">
    <tspan x="483" y="25">type</tspan>
  </text>
  <text font-size="12.8" style="fill: #000000;text-anchor:start;font-family:sans-serif;font-style:normal;font-weight:normal" x="554" y="26">
    <tspan x="554" y="26">{disjoint, complete}</tspan>
  </text>
  <text font-size="12.8" style="fill: #000000;text-anchor:start;font-family:sans-serif;font-style:normal;font-weight:normal" x="484" y="274.7">
    <tspan x="484" y="274.7">type</tspan>
  </text>
  <text font-size="12.8" style="fill: #000000;text-anchor:start;font-family:sans-serif;font-style:normal;font-weight:normal" x="545" y="273.7">
    <tspan x="545" y="273.7">{disjoint, complete}</tspan>
  </text>
</svg>
