<?xml version="1.0" encoding="UTF-8" standalone="no"?>
<!DOCTYPE svg PUBLIC "-//W3C//DTD SVG 1.0//EN" "http://www.w3.org/TR/2001/PR-SVG-20010719/DTD/svg10.dtd">
<svg width="11cm" height="11cm" viewBox="137 82 202 215" xmlns="http://www.w3.org/2000/svg" xmlns:xlink="http://www.w3.org/1999/xlink">
  <g>
    <rect style="fill: #ffffff" x="138" y="103.8" width="200" height="192.2"/>
    <rect style="fill: none; fill-opacity:0; stroke-width: 2; stroke: #000000" x="138" y="103.8" width="200" height="192.2"/>
    <rect style="fill: #ffffff" x="138" y="83.8" width="104.1" height="20"/>
    <rect style="fill: none; fill-opacity:0; stroke-width: 2; stroke: #000000" x="138" y="83.8" width="104.1" height="20"/>
    <text font-size="12.7998" style="fill: #000000;text-anchor:start;font-family:monospace;font-style:normal;font-weight:normal" x="140" y="98.8"> exitProcess </text>
  </g>
  <g>
    <rect style="fill: #ffffff" x="194" y="114.8" width="87.4" height="28"/>
    <rect style="fill: none; fill-opacity:0; stroke-width: 2; stroke: #000000" x="194" y="114.8" width="87.4" height="28"/>
    <text font-size="16" style="fill: #000000;text-anchor:middle;font-family:sans-serif;font-style:normal;font-weight:700" x="237.7" y="133.8">runNode</text>
  </g>
  <g>
    <rect style="fill: #ffffff" x="188" y="185.8" width="99.65" height="28"/>
    <rect style="fill: none; fill-opacity:0; stroke-width: 2; stroke: #000000" x="188" y="185.8" width="99.65" height="28"/>
    <text font-size="16" style="fill: #000000;text-anchor:middle;font-family:sans-serif;font-style:normal;font-weight:700" x="237.825" y="204.8">logicNode</text>
  </g>
  <g>
    <polyline style="fill: none; fill-opacity:0; stroke-width: 2; stroke: #000000" points="237.7,161.036 237.7,172.3 237.825,172.3 237.825,185.8 "/>
    <polygon style="fill: #ffffff" points="245.7,161.036 237.7,145.036 229.7,161.036 "/>
    <polygon style="fill: none; fill-opacity:0; stroke-width: 2; stroke: #000000" points="245.7,161.036 237.7,145.036 229.7,161.036 "/>
  </g>
  <g>
    <rect style="fill: #ffffff" x="157" y="252.8" width="161" height="28"/>
    <rect style="fill: none; fill-opacity:0; stroke-width: 2; stroke: #000000" x="157" y="252.8" width="161" height="28"/>
    <text font-size="16" style="fill: #000000;text-anchor:middle;font-family:sans-serif;font-style:normal;font-weight:700" x="237.5" y="271.8">exitProcessNode</text>
  </g>
  <g>
    <polyline style="fill: none; fill-opacity:0; stroke-width: 2; stroke: #000000" points="237.825,232.036 237.825,241.3 237.5,241.3 237.5,252.8 "/>
    <polygon style="fill: #ffffff" points="245.825,232.036 237.825,216.036 229.825,232.036 "/>
    <polygon style="fill: none; fill-opacity:0; stroke-width: 2; stroke: #000000" points="245.825,232.036 237.825,216.036 229.825,232.036 "/>
  </g>
</svg>
