<?xml version="1.0" encoding="UTF-8" standalone="no"?>
<!DOCTYPE svg PUBLIC "-//W3C//DTD SVG 1.0//EN" "http://www.w3.org/TR/2001/PR-SVG-20010719/DTD/svg10.dtd">
<svg width="7cm" height="12cm" viewBox="187 88 139 223" xmlns="http://www.w3.org/2000/svg" xmlns:xlink="http://www.w3.org/1999/xlink">
  <g>
    <rect style="fill: #ffffff" x="189" y="109.8" width="137" height="200"/>
    <rect style="fill: none; fill-opacity:0; stroke-width: 2; stroke: #000000" x="189" y="109.8" width="137" height="200"/>
    <rect style="fill: #ffffff" x="189" y="89.8" width="65.6" height="20"/>
    <rect style="fill: none; fill-opacity:0; stroke-width: 2; stroke: #000000" x="189" y="89.8" width="65.6" height="20"/>
    <text font-size="12.7998" style="fill: #000000;text-anchor:start;font-family:monospace;font-style:normal;font-weight:normal" x="191" y="104.8"> getpid </text>
  </g>
  <g>
    <rect style="fill: #ffffff" x="212" y="120.8" width="87.4" height="28"/>
    <rect style="fill: none; fill-opacity:0; stroke-width: 2; stroke: #000000" x="212" y="120.8" width="87.4" height="28"/>
    <text font-size="16" style="fill: #000000;text-anchor:middle;font-family:sans-serif;font-style:normal;font-weight:700" x="255.7" y="139.8">runNode</text>
  </g>
  <g>
    <rect style="fill: #ffffff" x="206" y="191.8" width="99.95" height="28"/>
    <rect style="fill: none; fill-opacity:0; stroke-width: 2; stroke: #000000" x="206" y="191.8" width="99.95" height="28"/>
    <text font-size="16" style="fill: #000000;text-anchor:middle;font-family:sans-serif;font-style:normal;font-weight:700" x="255.975" y="210.8">arithNode</text>
  </g>
  <g>
    <polyline style="fill: none; fill-opacity:0; stroke-width: 2; stroke: #000000" points="255.7,167.036 255.7,178.3 255.975,178.3 255.975,191.8 "/>
    <polygon style="fill: #ffffff" points="263.7,167.036 255.7,151.036 247.7,167.036 "/>
    <polygon style="fill: none; fill-opacity:0; stroke-width: 2; stroke: #000000" points="263.7,167.036 255.7,151.036 247.7,167.036 "/>
  </g>
  <g>
    <rect style="fill: #ffffff" x="198" y="258.8" width="115.05" height="28"/>
    <rect style="fill: none; fill-opacity:0; stroke-width: 2; stroke: #000000" x="198" y="258.8" width="115.05" height="28"/>
    <text font-size="16" style="fill: #000000;text-anchor:middle;font-family:sans-serif;font-style:normal;font-weight:700" x="255.525" y="277.8">getpidNode</text>
  </g>
  <g>
    <polyline style="fill: none; fill-opacity:0; stroke-width: 2; stroke: #000000" points="255.975,238.036 255.975,247.3 255.525,247.3 255.525,258.8 "/>
    <polygon style="fill: #ffffff" points="263.975,238.036 255.975,222.036 247.975,238.036 "/>
    <polygon style="fill: none; fill-opacity:0; stroke-width: 2; stroke: #000000" points="263.975,238.036 255.975,222.036 247.975,238.036 "/>
  </g>
</svg>
