<?xml version="1.0" encoding="UTF-8" standalone="no"?>
<!DOCTYPE svg PUBLIC "-//W3C//DTD SVG 1.0//EN" "http://www.w3.org/TR/2001/PR-SVG-20010719/DTD/svg10.dtd">
<svg width="10cm" height="8cm" viewBox="520 209 188 148" xmlns="http://www.w3.org/2000/svg" xmlns:xlink="http://www.w3.org/1999/xlink">
  <g>
    <rect style="fill: #ffffff" x="521" y="230" width="186" height="125"/>
    <rect style="fill: none; fill-opacity:0; stroke-width: 2; stroke: #000000" x="521" y="230" width="186" height="125"/>
    <rect style="fill: #ffffff" x="521" y="210" width="65.6" height="20"/>
    <rect style="fill: none; fill-opacity:0; stroke-width: 2; stroke: #000000" x="521" y="210" width="65.6" height="20"/>
    <text font-size="12.7998" style="fill: #000000;text-anchor:start;font-family:monospace;font-style:normal;font-weight:normal" x="523" y="225"> global </text>
  </g>
  <g>
    <rect style="fill: #ffffff" x="549" y="241" width="87.4" height="28"/>
    <rect style="fill: none; fill-opacity:0; stroke-width: 2; stroke: #000000" x="549" y="241" width="87.4" height="28"/>
    <text font-size="16" style="fill: #000000;text-anchor:middle;font-family:sans-serif;font-style:normal;font-weight:700" x="592.7" y="260">runNode</text>
  </g>
  <g>
    <rect style="fill: #ffffff" x="537" y="314" width="112.4" height="28"/>
    <rect style="fill: none; fill-opacity:0; stroke-width: 2; stroke: #000000" x="537" y="314" width="112.4" height="28"/>
    <text font-size="16" style="fill: #000000;text-anchor:middle;font-family:sans-serif;font-style:normal;font-weight:700" x="593.2" y="333">globalNode</text>
  </g>
  <g>
    <polyline style="fill: none; fill-opacity:0; stroke-width: 2; stroke: #000000" points="592.7,287.236 592.7,299.5 593.2,299.5 593.2,314 "/>
    <polygon style="fill: #ffffff" points="600.7,287.236 592.7,271.236 584.7,287.236 "/>
    <polygon style="fill: none; fill-opacity:0; stroke-width: 2; stroke: #000000" points="600.7,287.236 592.7,271.236 584.7,287.236 "/>
  </g>
  <g>
    <polyline style="fill: none; fill-opacity:0; stroke-width: 2; stroke: #000000" points="675.579,328 685.407,328 685.407,255 636.4,255 "/>
    <polygon style="fill: #ffffff" points="650.407,328 664.407,323.2 678.407,328 664.407,332.8 "/>
    <polygon style="fill: none; fill-opacity:0; stroke-width: 2; stroke: #000000" points="650.407,328 664.407,323.2 678.407,328 664.407,332.8 "/>
    <text font-size="12.7998" style="fill: #000000;text-anchor:start;font-family:monospace;font-style:normal;font-weight:normal" x="687.407" y="288.5">id</text>
    <text font-size="12.7998" style="fill: #000000;text-anchor:start;font-family:monospace;font-style:normal;font-weight:normal" x="682.407" y="325"/>
    <text font-size="12.7998" style="fill: #000000;text-anchor:start;font-family:monospace;font-style:normal;font-weight:normal" x="640.4" y="252">1</text>
  </g>
</svg>
