<?xml version="1.0" encoding="UTF-8" standalone="no"?>
<!DOCTYPE svg PUBLIC "-//W3C//DTD SVG 1.0//EN" "http://www.w3.org/TR/2001/PR-SVG-20010719/DTD/svg10.dtd">
<svg width="17cm" height="10cm" viewBox="488 -580 327 195" xmlns="http://www.w3.org/2000/svg" xmlns:xlink="http://www.w3.org/1999/xlink">
  <g>
    <rect style="fill: #ffffff" x="489" y="-559" width="324" height="172"/>
    <rect style="fill: none; fill-opacity:0; stroke-width: 2; stroke: #000000" x="489" y="-559" width="324" height="172"/>
    <rect style="fill: #ffffff" x="489" y="-579" width="88.7" height="20"/>
    <rect style="fill: none; fill-opacity:0; stroke-width: 2; stroke: #000000" x="489" y="-579" width="88.7" height="20"/>
    <text font-size="12.7998" style="fill: #000000;text-anchor:start;font-family:monospace;font-style:normal;font-weight:normal" x="491" y="-564"> emptyStmt </text>
  </g>
  <g>
    <rect style="fill: #ffffff" x="662" y="-539.2" width="94.35" height="28"/>
    <rect style="fill: none; fill-opacity:0; stroke-width: 2; stroke: #000000" x="662" y="-539.2" width="94.35" height="28"/>
    <text font-size="16" style="fill: #000000;text-anchor:middle;font-family:sans-serif;font-style:normal;font-weight:700" x="709.175" y="-520.2">flowNode</text>
  </g>
  <g>
    <rect style="fill: #ffffff" x="630" y="-456.2" width="157.2" height="28"/>
    <rect style="fill: none; fill-opacity:0; stroke-width: 2; stroke: #000000" x="630" y="-456.2" width="157.2" height="28"/>
    <text font-size="16" style="fill: #000000;text-anchor:middle;font-family:sans-serif;font-style:normal;font-weight:700" x="708.6" y="-437.2">emptyStmtNode</text>
  </g>
  <g>
    <rect style="fill: #ffffff" x="503" y="-539.2" width="87.4" height="28"/>
    <rect style="fill: none; fill-opacity:0; stroke-width: 2; stroke: #000000" x="503" y="-539.2" width="87.4" height="28"/>
    <text font-size="16" style="fill: #000000;text-anchor:middle;font-family:sans-serif;font-style:normal;font-weight:700" x="546.7" y="-520.2">runNode</text>
  </g>
  <g>
    <polyline style="fill: none; fill-opacity:0; stroke-width: 2; stroke: #000000" points="608.636,-525.2 607.4,-525.2 661,-525.2 662,-525.2 "/>
    <polygon style="fill: #ffffff" points="608.636,-533.2 592.636,-525.2 608.636,-517.2 "/>
    <polygon style="fill: none; fill-opacity:0; stroke-width: 2; stroke: #000000" points="608.636,-533.2 592.636,-525.2 608.636,-517.2 "/>
  </g>
  <g>
    <polyline style="fill: none; fill-opacity:0; stroke-width: 2; stroke: #000000" points="709.175,-492.964 709.175,-475.7 708.6,-475.7 708.6,-456.2 "/>
    <polygon style="fill: #ffffff" points="717.175,-492.964 709.175,-508.964 701.175,-492.964 "/>
    <polygon style="fill: none; fill-opacity:0; stroke-width: 2; stroke: #000000" points="717.175,-492.964 709.175,-508.964 701.175,-492.964 "/>
  </g>
</svg>
