<?xml version="1.0" encoding="UTF-8" standalone="no"?>
<!DOCTYPE svg PUBLIC "-//W3C//DTD SVG 1.0//EN" "http://www.w3.org/TR/2001/PR-SVG-20010719/DTD/svg10.dtd">
<svg width="16cm" height="9cm" viewBox="980 -177 308 176" xmlns="http://www.w3.org/2000/svg" xmlns:xlink="http://www.w3.org/1999/xlink">
  <g>
    <rect style="fill: #ffffff" x="981" y="-156" width="306" height="154"/>
    <rect style="fill: none; fill-opacity:0; stroke-width: 2; stroke: #000000" x="981" y="-156" width="306" height="154"/>
    <rect style="fill: #ffffff" x="981" y="-176" width="50.2" height="20"/>
    <rect style="fill: none; fill-opacity:0; stroke-width: 2; stroke: #000000" x="981" y="-176" width="50.2" height="20"/>
    <text font-size="12.7998" style="fill: #000000;text-anchor:start;font-family:monospace;font-style:normal;font-weight:normal" x="983" y="-161"> goto </text>
  </g>
  <g>
    <rect style="fill: #ffffff" x="1121.35" y="-133.2" width="94.35" height="28"/>
    <rect style="fill: none; fill-opacity:0; stroke-width: 2; stroke: #000000" x="1121.35" y="-133.2" width="94.35" height="28"/>
    <text font-size="16" style="fill: #000000;text-anchor:middle;font-family:sans-serif;font-style:normal;font-weight:700" x="1168.53" y="-114.2">flowNode</text>
  </g>
  <g>
    <rect style="fill: #ffffff" x="993.352" y="-133.2" width="87.4" height="28"/>
    <rect style="fill: none; fill-opacity:0; stroke-width: 2; stroke: #000000" x="993.352" y="-133.2" width="87.4" height="28"/>
    <text font-size="16" style="fill: #000000;text-anchor:middle;font-family:sans-serif;font-style:normal;font-weight:700" x="1037.05" y="-114.2">runNode</text>
  </g>
  <g>
    <polyline style="fill: none; fill-opacity:0; stroke-width: 2; stroke: #000000" points="1098.99,-119.2 1097.75,-119.2 1120.35,-119.2 1121.35,-119.2 "/>
    <polygon style="fill: #ffffff" points="1098.99,-127.2 1082.99,-119.2 1098.99,-111.2 "/>
    <polygon style="fill: none; fill-opacity:0; stroke-width: 2; stroke: #000000" points="1098.99,-127.2 1082.99,-119.2 1098.99,-111.2 "/>
  </g>
  <g>
    <rect style="fill: #ffffff" x="1120.35" y="-65.2" width="97.8" height="28"/>
    <rect style="fill: none; fill-opacity:0; stroke-width: 2; stroke: #000000" x="1120.35" y="-65.2" width="97.8" height="28"/>
    <text font-size="16" style="fill: #000000;text-anchor:middle;font-family:sans-serif;font-style:normal;font-weight:700" x="1169.25" y="-46.2">gotoNode</text>
  </g>
  <g>
    <polyline style="fill: none; fill-opacity:0; stroke-width: 2; stroke: #000000" points="1243.32,-51.2 1268,-51.2 1268,-21 1037.05,-21 1037.05,-105.2 "/>
    <polygon style="fill: #ffffff" points="1218.15,-51.2 1232.15,-56 1246.15,-51.2 1232.15,-46.4 "/>
    <polygon style="fill: none; fill-opacity:0; stroke-width: 2; stroke: #000000" points="1218.15,-51.2 1232.15,-56 1246.15,-51.2 1232.15,-46.4 "/>
    <text font-size="12.7998" style="fill: #000000;text-anchor:middle;font-family:monospace;font-style:normal;font-weight:normal" x="1152.53" y="-24"/>
    <text font-size="12.7998" style="fill: #000000;text-anchor:start;font-family:monospace;font-style:normal;font-weight:normal" x="1250.15" y="-54.2"/>
    <text font-size="12.7998" style="fill: #000000;text-anchor:start;font-family:monospace;font-style:normal;font-weight:normal" x="1041.05" y="-93.2">1</text>
  </g>
  <g>
    <polyline style="fill: none; fill-opacity:0; stroke-width: 2; stroke: #000000" points="1168.53,-86.9639 1168.53,-77.2 1169.25,-77.2 1169.25,-65.2 "/>
    <polygon style="fill: #ffffff" points="1176.53,-86.9639 1168.53,-102.964 1160.53,-86.9639 "/>
    <polygon style="fill: none; fill-opacity:0; stroke-width: 2; stroke: #000000" points="1176.53,-86.9639 1168.53,-102.964 1160.53,-86.9639 "/>
  </g>
</svg>
