<?xml version="1.0" encoding="UTF-8" standalone="no"?>
<!DOCTYPE svg PUBLIC "-//W3C//DTD SVG 1.0//EN" "http://www.w3.org/TR/2001/PR-SVG-20010719/DTD/svg10.dtd">
<svg width="29cm" height="19cm" viewBox="139 -34 579 367" xmlns="http://www.w3.org/2000/svg" xmlns:xlink="http://www.w3.org/1999/xlink">
  <g>
    <rect style="fill: #ffffff" x="140.358" y="-12.5999" width="576.288" height="344.359"/>
    <rect style="fill: none; fill-opacity:0; stroke-width: 2; stroke: #000000" x="140.358" y="-12.5999" width="576.288" height="344.359"/>
    <rect style="fill: #ffffff" x="140.358" y="-32.5999" width="40" height="20"/>
    <rect style="fill: none; fill-opacity:0; stroke-width: 2; stroke: #000000" x="140.358" y="-32.5999" width="40" height="20"/>
    <text font-size="12.7998" style="fill: #000000;text-anchor:start;font-family:monospace;font-style:normal;font-weight:normal" x="142.358" y="-17.5999"> db </text>
  </g>
  <g>
    <rect style="fill: #ffffff" x="285.266" y="98.1018" width="145.15" height="28"/>
    <rect style="fill: none; fill-opacity:0; stroke-width: 2; stroke: #000000" x="285.266" y="98.1018" width="145.15" height="28"/>
    <text font-size="16" style="fill: #000000;text-anchor:middle;font-family:sans-serif;font-style:normal;font-weight:700" x="357.841" y="117.102">extensionNode</text>
  </g>
  <g>
    <rect style="fill: #ffffff" x="418.708" y="58" width="87.4" height="28"/>
    <rect style="fill: none; fill-opacity:0; stroke-width: 2; stroke: #000000" x="418.708" y="58" width="87.4" height="28"/>
    <text font-size="16" style="fill: #000000;text-anchor:middle;font-family:sans-serif;font-style:normal;font-weight:700" x="462.408" y="77">runNode</text>
  </g>
  <g>
    <rect style="fill: #ffffff" x="167.808" y="209.172" width="148.6" height="28"/>
    <rect style="fill: none; fill-opacity:0; stroke-width: 2; stroke: #000000" x="167.808" y="209.172" width="148.6" height="28"/>
    <text font-size="16" style="fill: #000000;text-anchor:middle;font-family:sans-serif;font-style:normal;font-weight:700" x="242.108" y="228.172">dbNode</text>
    <rect style="fill: #ffffff" x="167.808" y="237.172" width="148.6" height="20"/>
    <rect style="fill: none; fill-opacity:0; stroke-width: 2; stroke: #000000" x="167.808" y="237.172" width="148.6" height="20"/>
    <text font-size="12.8" style="fill: #000000;text-anchor:start;font-family:monospace;font-style:normal;font-weight:normal" x="170.808" y="251.172">+connection: MySQL</text>
  </g>
  <g>
    <polyline style="fill: none; fill-opacity:0; stroke-width: 2; stroke: #000000" points="400.472,72 242.108,72 242.108,209.172 "/>
    <polygon style="fill: #ffffff" points="400.472,80 416.472,72 400.472,64 "/>
    <polygon style="fill: none; fill-opacity:0; stroke-width: 2; stroke: #000000" points="400.472,80 416.472,72 400.472,64 "/>
  </g>
  <g>
    <polyline style="fill: none; fill-opacity:0; stroke-width: 2; stroke: #000000" points="357.84,144.338 357.84,195.288 461.95,195.288 461.95,209 "/>
    <polygon style="fill: #ffffff" points="365.84,144.338 357.84,128.338 349.84,144.338 "/>
    <polygon style="fill: none; fill-opacity:0; stroke-width: 2; stroke: #000000" points="365.84,144.338 357.84,128.338 349.84,144.338 "/>
  </g>
  <g>
    <rect style="fill: #ffffff" x="412" y="139" width="100.7" height="28"/>
    <rect style="fill: none; fill-opacity:0; stroke-width: 2; stroke: #000000" x="412" y="139" width="100.7" height="28"/>
    <text font-size="16" style="fill: #000000;text-anchor:middle;font-family:sans-serif;font-style:normal;font-weight:700" x="462.35" y="158">nexpNode</text>
  </g>
  <g>
    <polyline style="fill: none; fill-opacity:0; stroke-width: 2; stroke: #000000" points="462.408,104.236 462.408,120.5 462.35,120.5 462.35,139 "/>
    <polygon style="fill: #ffffff" points="470.408,104.236 462.408,88.2361 454.408,104.236 "/>
    <polygon style="fill: none; fill-opacity:0; stroke-width: 2; stroke: #000000" points="470.408,104.236 462.408,88.2361 454.408,104.236 "/>
  </g>
  <g>
    <rect style="fill: #ffffff" x="384" y="209" width="155.9" height="28"/>
    <rect style="fill: none; fill-opacity:0; stroke-width: 2; stroke: #000000" x="384" y="209" width="155.9" height="28"/>
    <text font-size="16" style="fill: #000000;text-anchor:middle;font-family:sans-serif;font-style:normal;font-weight:700" x="461.95" y="228">connectionNode</text>
  </g>
  <g>
    <polyline style="fill: none; fill-opacity:0; stroke-width: 2; stroke: #000000" points="565.072,209 601,209 601,85.5862 527.83,85.5862 527.83,85.539 506.108,85.539 506.108,86 "/>
    <polygon style="fill: #ffffff" points="539.9,209 553.9,204.2 567.9,209 553.9,213.8 "/>
    <polygon style="fill: none; fill-opacity:0; stroke-width: 2; stroke: #000000" points="539.9,209 553.9,204.2 567.9,209 553.9,213.8 "/>
    <text font-size="12.7998" style="fill: #000000;text-anchor:middle;font-family:monospace;font-style:normal;font-weight:normal" x="564.415" y="82.5862">port</text>
    <text font-size="12.7998" style="fill: #000000;text-anchor:start;font-family:monospace;font-style:normal;font-weight:normal" x="571.9" y="206"/>
    <text font-size="12.7998" style="fill: #000000;text-anchor:start;font-family:monospace;font-style:normal;font-weight:normal" x="510.108" y="82"/>
  </g>
  <g>
    <polyline style="fill: none; fill-opacity:0; stroke-width: 2; stroke: #000000" points="565.072,223 625.13,223 625.13,72 506.108,72 506.108,72 "/>
    <polygon style="fill: #ffffff" points="539.9,223 553.9,218.2 567.9,223 553.9,227.8 "/>
    <polygon style="fill: none; fill-opacity:0; stroke-width: 2; stroke: #000000" points="539.9,223 553.9,218.2 567.9,223 553.9,227.8 "/>
    <text font-size="12.7998" style="fill: #000000;text-anchor:middle;font-family:monospace;font-style:normal;font-weight:normal" x="565.619" y="69">database</text>
    <text font-size="12.7998" style="fill: #000000;text-anchor:start;font-family:monospace;font-style:normal;font-weight:normal" x="571.9" y="220"/>
    <text font-size="12.7998" style="fill: #000000;text-anchor:start;font-family:monospace;font-style:normal;font-weight:normal" x="510.108" y="69"/>
  </g>
  <g>
    <polyline style="fill: none; fill-opacity:0; stroke-width: 2; stroke: #000000" points="565.072,237 641,237 641,57 505,57 505,58 506.108,58 "/>
    <polygon style="fill: #ffffff" points="539.9,237 553.9,232.2 567.9,237 553.9,241.8 "/>
    <polygon style="fill: none; fill-opacity:0; stroke-width: 2; stroke: #000000" points="539.9,237 553.9,232.2 567.9,237 553.9,241.8 "/>
    <text font-size="12.7998" style="fill: #000000;text-anchor:middle;font-family:monospace;font-style:normal;font-weight:normal" x="573" y="54">password</text>
    <text font-size="12.7998" style="fill: #000000;text-anchor:start;font-family:monospace;font-style:normal;font-weight:normal" x="571.9" y="234"/>
    <text font-size="12.7998" style="fill: #000000;text-anchor:end;font-family:monospace;font-style:normal;font-weight:normal" x="502.108" y="55"/>
  </g>
  <g>
    <polyline style="fill: none; fill-opacity:0; stroke-width: 2; stroke: #000000" points="539.9,262.172 539.9,279 659,279 659,41.3956 509,41.3956 509,41.4274 506.108,41.4274 506.108,58 "/>
    <polygon style="fill: #ffffff" points="539.9,237 544.7,251 539.9,265 535.1,251 "/>
    <polygon style="fill: none; fill-opacity:0; stroke-width: 2; stroke: #000000" points="539.9,237 544.7,251 539.9,265 535.1,251 "/>
    <text font-size="12.7998" style="fill: #000000;text-anchor:middle;font-family:monospace;font-style:normal;font-weight:normal" x="584" y="38.3956">user</text>
    <text font-size="12.7998" style="fill: #000000;text-anchor:start;font-family:monospace;font-style:normal;font-weight:normal" x="550.9" y="249"/>
    <text font-size="12.7998" style="fill: #000000;text-anchor:start;font-family:monospace;font-style:normal;font-weight:normal" x="510.108" y="54"/>
  </g>
  <g>
    <polyline style="fill: none; fill-opacity:0; stroke-width: 2; stroke: #000000" points="461.95,262.172 461.95,299 681,299 681,27.4432 462,27.4432 462,27.4432 462.408,27.4432 462.408,58 "/>
    <polygon style="fill: #ffffff" points="461.95,237 466.75,251 461.95,265 457.15,251 "/>
    <polygon style="fill: none; fill-opacity:0; stroke-width: 2; stroke: #000000" points="461.95,237 466.75,251 461.95,265 457.15,251 "/>
    <text font-size="12.7998" style="fill: #000000;text-anchor:middle;font-family:monospace;font-style:normal;font-weight:normal" x="571.5" y="24.4432">host</text>
    <text font-size="12.7998" style="fill: #000000;text-anchor:start;font-family:monospace;font-style:normal;font-weight:normal" x="472.95" y="249"/>
    <text font-size="12.7998" style="fill: #000000;text-anchor:start;font-family:monospace;font-style:normal;font-weight:normal" x="466.408" y="54"/>
  </g>
  <g>
    <polyline style="fill: none; fill-opacity:0; stroke-width: 2; stroke: #000000" points="384,223 350.204,223 350.204,223.172 316.408,223.172 "/>
    <text font-size="12.7998" style="fill: #000000;text-anchor:start;font-family:monospace;font-style:normal;font-weight:normal" x="352.204" y="220.086">get</text>
    <polygon style="fill: #000000" points="348.204,220.086 348.204,212.086 340.204,216.086 "/>
    <text font-size="12.7998" style="fill: #000000;text-anchor:end;font-family:monospace;font-style:normal;font-weight:normal" x="380" y="220"/>
    <text font-size="12.7998" style="fill: #000000;text-anchor:start;font-family:monospace;font-style:normal;font-weight:normal" x="320.408" y="220.172"/>
  </g>
  <g>
    <polyline style="fill: none; fill-opacity:0; stroke-width: 2; stroke: #000000" points="462.35,185.236 462.35,196 461.95,196 461.95,209 "/>
    <polygon style="fill: #ffffff" points="470.35,185.236 462.35,169.236 454.35,185.236 "/>
    <polygon style="fill: none; fill-opacity:0; stroke-width: 2; stroke: #000000" points="470.35,185.236 462.35,169.236 454.35,185.236 "/>
  </g>
</svg>
