<?xml version="1.0" encoding="UTF-8" standalone="no"?>
<!DOCTYPE svg PUBLIC "-//W3C//DTD SVG 1.0//EN" "http://www.w3.org/TR/2001/PR-SVG-20010719/DTD/svg10.dtd">
<svg width="32cm" height="32cm" viewBox="156 7 625 636" xmlns="http://www.w3.org/2000/svg" xmlns:xlink="http://www.w3.org/1999/xlink">
  <g>
    <rect style="fill: #ffffff" x="157" y="28" width="623" height="611"/>
    <rect style="fill: none; fill-opacity:0; stroke-width: 2; stroke: #000000" x="157" y="28" width="623" height="611"/>
    <rect style="fill: #ffffff" x="157" y="8" width="73.3" height="20"/>
    <rect style="fill: none; fill-opacity:0; stroke-width: 2; stroke: #000000" x="157" y="8" width="73.3" height="20"/>
    <text font-size="12.7998" style="fill: #000000;text-anchor:start;font-family:monospace;font-style:normal;font-weight:normal" x="159" y="23">dataType </text>
  </g>
  <g>
    <ellipse style="fill: #ffffff" cx="231.85" cy="241.8" rx="62.85" ry="32"/>
    <ellipse style="fill: none; fill-opacity:0; stroke-width: 2; stroke: #000000" cx="231.85" cy="241.8" rx="62.85" ry="32"/>
    <text font-size="12.8" style="fill: #000000;text-anchor:middle;font-family:sans-serif;font-style:normal;font-weight:normal" x="231.85" y="237.7">
      <tspan x="231.85" y="237.7">Expresión</tspan>
      <tspan x="231.85" y="253.7">Valorar</tspan>
    </text>
  </g>
  <line style="fill: none; fill-opacity:0; stroke-width: 2; stroke: #000000" x1="169" y1="241.8" x2="294.7" y2="241.8"/>
  <g>
    <ellipse style="fill: #ffffff" cx="557.275" cy="67.0917" rx="96.275" ry="32.0917"/>
    <ellipse style="fill: none; fill-opacity:0; stroke-width: 2; stroke: #000000" cx="557.275" cy="67.0917" rx="96.275" ry="32.0917"/>
    <text font-size="12.8" style="fill: #000000;text-anchor:middle;font-family:sans-serif;font-style:normal;font-weight:normal" x="557.275" y="70.9917">
      <tspan x="557.275" y="70.9917">Valorar constante nula</tspan>
    </text>
  </g>
  <g>
    <line style="fill: none; fill-opacity:0; stroke-width: 2; stroke-dasharray: 8; stroke: #000000" x1="306.421" y1="229.487" x2="461" y2="67.0917"/>
    <polygon style="fill: #000000" points="302.799,226.039 295.389,241.076 310.042,232.934 "/>
    <polygon style="fill: none; fill-opacity:0; stroke-width: 2; stroke: #000000" points="302.799,226.039 295.389,241.076 310.042,232.934 "/>
    <text font-size="12.7998" style="fill: #000000;text-anchor:middle;font-family:sans-serif;font-style:normal;font-weight:normal" x="476" y="110">&lt;&lt;extend&gt;&gt;</text>
  </g>
  <g>
    <ellipse style="fill: #ffffff" cx="562.475" cy="147.825" rx="101.475" ry="33.825"/>
    <ellipse style="fill: none; fill-opacity:0; stroke-width: 2; stroke: #000000" cx="562.475" cy="147.825" rx="101.475" ry="33.825"/>
    <text font-size="12.8" style="fill: #000000;text-anchor:middle;font-family:sans-serif;font-style:normal;font-weight:normal" x="562.475" y="151.725">
      <tspan x="562.475" y="151.725">Valorar constante lógica</tspan>
    </text>
  </g>
  <g>
    <ellipse style="fill: #ffffff" cx="573.2" cy="240.2" rx="115.2" ry="38.4"/>
    <ellipse style="fill: none; fill-opacity:0; stroke-width: 2; stroke: #000000" cx="573.2" cy="240.2" rx="115.2" ry="38.4"/>
    <text font-size="12.8" style="fill: #000000;text-anchor:middle;font-family:sans-serif;font-style:normal;font-weight:normal" x="573.2" y="244.1">
      <tspan x="573.2" y="244.1">Valorar constante aritmética</tspan>
    </text>
  </g>
  <g>
    <line style="fill: none; fill-opacity:0; stroke-width: 2; stroke-dasharray: 8; stroke: #000000" x1="309.5" y1="233.436" x2="461" y2="147.825"/>
    <polygon style="fill: #000000" points="307.04,229.083 295.571,241.308 311.96,237.789 "/>
    <polygon style="fill: none; fill-opacity:0; stroke-width: 2; stroke: #000000" points="307.04,229.083 295.571,241.308 311.96,237.789 "/>
    <text font-size="12.7998" style="fill: #000000;text-anchor:middle;font-family:sans-serif;font-style:normal;font-weight:normal" x="450" y="191">&lt;&lt;extend&gt;&gt;</text>
  </g>
  <g>
    <line style="fill: none; fill-opacity:0; stroke-width: 2; stroke-dasharray: 8; stroke: #000000" x1="311.699" y1="241.633" x2="458" y2="240.2"/>
    <polygon style="fill: #000000" points="311.65,236.634 295.7,241.79 311.748,246.633 "/>
    <polygon style="fill: none; fill-opacity:0; stroke-width: 2; stroke: #000000" points="311.65,236.634 295.7,241.79 311.748,246.633 "/>
    <text font-size="12.7998" style="fill: #000000;text-anchor:middle;font-family:sans-serif;font-style:normal;font-weight:normal" x="398" y="233.221">&lt;&lt;extend&gt;&gt;</text>
  </g>
  <g>
    <ellipse style="fill: #ffffff" cx="630.95" cy="326.317" rx="117.95" ry="39.3167"/>
    <ellipse style="fill: none; fill-opacity:0; stroke-width: 2; stroke: #000000" cx="630.95" cy="326.317" rx="117.95" ry="39.3167"/>
    <text font-size="12.8" style="fill: #000000;text-anchor:middle;font-family:sans-serif;font-style:normal;font-weight:normal" x="630.95" y="330.217">
      <tspan x="630.95" y="330.217">Valorar cadena de caracteres</tspan>
    </text>
  </g>
  <g>
    <line style="fill: none; fill-opacity:0; stroke-width: 2; stroke-dasharray: 8; stroke: #000000" x1="310.553" y1="247.938" x2="513" y2="326.317"/>
    <polygon style="fill: #000000" points="312.359,243.275 295.633,242.161 308.748,252.6 "/>
    <polygon style="fill: none; fill-opacity:0; stroke-width: 2; stroke: #000000" points="312.359,243.275 295.633,242.161 308.748,252.6 "/>
    <text font-size="12.7998" style="fill: #000000;text-anchor:middle;font-family:sans-serif;font-style:normal;font-weight:normal" x="458" y="288.225">&lt;&lt;extend&gt;&gt;</text>
  </g>
  <g>
    <ellipse style="fill: #ffffff" cx="554.5" cy="395.833" rx="65.5" ry="21.8333"/>
    <ellipse style="fill: none; fill-opacity:0; stroke-width: 2; stroke: #000000" cx="554.5" cy="395.833" rx="65.5" ry="21.8333"/>
    <text font-size="12.8" style="fill: #000000;text-anchor:middle;font-family:sans-serif;font-style:normal;font-weight:normal" x="554.5" y="399.733">
      <tspan x="554.5" y="399.733">Valorar array</tspan>
    </text>
  </g>
  <g>
    <ellipse style="fill: #ffffff" cx="559.825" cy="549.942" rx="104.825" ry="34.9417"/>
    <ellipse style="fill: none; fill-opacity:0; stroke-width: 2; stroke: #000000" cx="559.825" cy="549.942" rx="104.825" ry="34.9417"/>
    <text font-size="12.8" style="fill: #000000;text-anchor:middle;font-family:sans-serif;font-style:normal;font-weight:normal" x="559.825" y="553.842">
      <tspan x="559.825" y="553.842">Valorar expresión regular</tspan>
    </text>
  </g>
  <g>
    <line style="fill: none; fill-opacity:0; stroke-width: 2; stroke-dasharray: 8; stroke: #000000" x1="308.022" y1="252.361" x2="489" y2="395.833"/>
    <polygon style="fill: #000000" points="311.128,248.443 295.484,242.421 304.916,256.279 "/>
    <polygon style="fill: none; fill-opacity:0; stroke-width: 2; stroke: #000000" points="311.128,248.443 295.484,242.421 304.916,256.279 "/>
    <text font-size="12.7998" style="fill: #000000;text-anchor:middle;font-family:sans-serif;font-style:normal;font-weight:normal" x="491" y="360.417">&lt;&lt;extend&gt;&gt;</text>
  </g>
  <g>
    <line style="fill: none; fill-opacity:0; stroke-width: 2; stroke-dasharray: 8; stroke: #000000" x1="302.546" y1="256.881" x2="455" y2="549.942"/>
    <polygon style="fill: #000000" points="306.981,254.574 295.162,242.687 298.11,259.189 "/>
    <polygon style="fill: none; fill-opacity:0; stroke-width: 2; stroke: #000000" points="306.981,254.574 295.162,242.687 298.11,259.189 "/>
    <text font-size="12.7998" style="fill: #000000;text-anchor:middle;font-family:sans-serif;font-style:normal;font-weight:normal" x="486" y="511.092">&lt;&lt;extend&gt;&gt;</text>
  </g>
  <g>
    <polyline style="fill: none; fill-opacity:0; stroke-width: 2; stroke-dasharray: 8; stroke: #000000" points="620,395.833 762,395.833 762,626 187.408,626 187.408,271.133 "/>
    <polyline style="fill: none; fill-opacity:0; stroke-width: 2; stroke: #000000" points="192.408,283.781 187.408,267.781 182.408,283.781 "/>
    <text font-size="12.7998" style="fill: #000000;text-anchor:middle;font-family:monospace;font-style:normal;font-weight:normal" x="474.704" y="623">&lt;&lt;include&gt;&gt;</text>
  </g>
  <g>
    <ellipse style="fill: #ffffff" cx="545.925" cy="462.108" rx="99.925" ry="33.3083"/>
    <ellipse style="fill: none; fill-opacity:0; stroke-width: 2; stroke: #000000" cx="545.925" cy="462.108" rx="99.925" ry="33.3083"/>
    <text font-size="12.8" style="fill: #000000;text-anchor:middle;font-family:sans-serif;font-style:normal;font-weight:normal" x="545.925" y="466.008">
      <tspan x="545.925" y="466.008">Valorar array asociativo</tspan>
    </text>
  </g>
  <g>
    <polyline style="fill: none; fill-opacity:0; stroke-width: 2; stroke-dasharray: 8; stroke: #000000" points="645.85,462.108 709,462.108 709,603 231.85,603 231.85,280.505 "/>
    <polyline style="fill: none; fill-opacity:0; stroke-width: 2; stroke: #000000" points="236.85,293.153 231.85,277.153 226.85,293.153 "/>
    <text font-size="12.7998" style="fill: #000000;text-anchor:middle;font-family:monospace;font-style:normal;font-weight:normal" x="470.425" y="600">&lt;&lt;include&gt;&gt;</text>
  </g>
  <g>
    <line style="fill: none; fill-opacity:0; stroke-width: 2; stroke-dasharray: 8; stroke: #000000" x1="304.324" y1="255.814" x2="446" y2="462.108"/>
    <polygon style="fill: #000000" points="308.446,252.983 295.266,242.624 300.202,258.644 "/>
    <polygon style="fill: none; fill-opacity:0; stroke-width: 2; stroke: #000000" points="308.446,252.983 295.266,242.624 300.202,258.644 "/>
    <text font-size="12.7998" style="fill: #000000;text-anchor:middle;font-family:sans-serif;font-style:normal;font-weight:normal" x="470" y="423.091">&lt;&lt;extend&gt;&gt;</text>
  </g>
</svg>
