<?xml version="1.0" encoding="UTF-8" standalone="no"?>
<!DOCTYPE svg PUBLIC "-//W3C//DTD SVG 1.0//EN" "http://www.w3.org/TR/2001/PR-SVG-20010719/DTD/svg10.dtd">
<svg width="10cm" height="11cm" viewBox="180 181 194 215" xmlns="http://www.w3.org/2000/svg" xmlns:xlink="http://www.w3.org/1999/xlink">
  <g>
    <rect style="fill: #ffffff" x="181.416" y="202.462" width="191.11" height="192.565"/>
    <rect style="fill: none; fill-opacity:0; stroke-width: 2; stroke: #000000" x="181.416" y="202.462" width="191.11" height="192.565"/>
    <rect style="fill: #ffffff" x="181.416" y="182.462" width="57.9" height="20"/>
    <rect style="fill: none; fill-opacity:0; stroke-width: 2; stroke: #000000" x="181.416" y="182.462" width="57.9" height="20"/>
    <text font-size="12.7998" style="fill: #000000;text-anchor:start;font-family:monospace;font-style:normal;font-weight:normal" x="183.416" y="197.462"> upper </text>
  </g>
  <g>
    <rect style="fill: #ffffff" x="193.627" y="286" width="110.1" height="28"/>
    <rect style="fill: none; fill-opacity:0; stroke-width: 2; stroke: #000000" x="193.627" y="286" width="110.1" height="28"/>
    <text font-size="16" style="fill: #000000;text-anchor:middle;font-family:sans-serif;font-style:normal;font-weight:700" x="248.677" y="305">stringNode</text>
  </g>
  <g>
    <rect style="fill: #ffffff" x="193.899" y="353.8" width="109.75" height="28"/>
    <rect style="fill: none; fill-opacity:0; stroke-width: 2; stroke: #000000" x="193.899" y="353.8" width="109.75" height="28"/>
    <text font-size="16" style="fill: #000000;text-anchor:middle;font-family:sans-serif;font-style:normal;font-weight:700" x="248.774" y="372.8">upperNode</text>
  </g>
  <g>
    <polyline style="fill: none; fill-opacity:0; stroke-width: 2; stroke: #000000" points="248.677,332.236 248.677,341.9 248.774,341.9 248.774,353.8 "/>
    <polygon style="fill: #ffffff" points="256.677,332.236 248.677,316.236 240.677,332.236 "/>
    <polygon style="fill: none; fill-opacity:0; stroke-width: 2; stroke: #000000" points="256.677,332.236 248.677,316.236 240.677,332.236 "/>
  </g>
  <g>
    <rect style="fill: #ffffff" x="205" y="219.8" width="87.4" height="28"/>
    <rect style="fill: none; fill-opacity:0; stroke-width: 2; stroke: #000000" x="205" y="219.8" width="87.4" height="28"/>
    <text font-size="16" style="fill: #000000;text-anchor:middle;font-family:sans-serif;font-style:normal;font-weight:700" x="248.7" y="238.8">runNode</text>
  </g>
  <g>
    <polyline style="fill: none; fill-opacity:0; stroke-width: 2; stroke: #000000" points="248.7,266.036 248.7,274.9 248.677,274.9 248.677,286 "/>
    <polygon style="fill: #ffffff" points="256.7,266.036 248.7,250.036 240.7,266.036 "/>
    <polygon style="fill: none; fill-opacity:0; stroke-width: 2; stroke: #000000" points="256.7,266.036 248.7,250.036 240.7,266.036 "/>
  </g>
  <g>
    <polyline style="fill: none; fill-opacity:0; stroke-width: 2; stroke: #000000" points="328.82,367.8 361.622,367.8 361.622,233.886 325.732,233.886 325.732,233.8 292.4,233.8 "/>
    <polygon style="fill: #ffffff" points="303.648,367.8 317.648,363 331.648,367.8 317.648,372.6 "/>
    <polygon style="fill: none; fill-opacity:0; stroke-width: 2; stroke: #000000" points="303.648,367.8 317.648,363 331.648,367.8 317.648,372.6 "/>
    <text font-size="12.7998" style="fill: #000000;text-anchor:middle;font-family:monospace;font-style:normal;font-weight:normal" x="343.677" y="230.886">str</text>
    <text font-size="12.7998" style="fill: #000000;text-anchor:start;font-family:monospace;font-style:normal;font-weight:normal" x="335.648" y="364.8"/>
    <text font-size="12.7998" style="fill: #000000;text-anchor:start;font-family:monospace;font-style:normal;font-weight:normal" x="296.4" y="230.8">1</text>
  </g>
</svg>
