<?xml version="1.0" encoding="UTF-8" standalone="no"?>
<!DOCTYPE svg PUBLIC "-//W3C//DTD SVG 1.0//EN" "http://www.w3.org/TR/2001/PR-SVG-20010719/DTD/svg10.dtd">
<svg width="17cm" height="9cm" viewBox="458 -186 328 174" xmlns="http://www.w3.org/2000/svg" xmlns:xlink="http://www.w3.org/1999/xlink">
  <g>
    <rect style="fill: #ffffff" x="459" y="-165" width="326" height="151"/>
    <rect style="fill: none; fill-opacity:0; stroke-width: 2; stroke: #000000" x="459" y="-165" width="326" height="151"/>
    <rect style="fill: #ffffff" x="459" y="-185" width="73.3" height="20"/>
    <rect style="fill: none; fill-opacity:0; stroke-width: 2; stroke: #000000" x="459" y="-185" width="73.3" height="20"/>
    <text font-size="12.7998" style="fill: #000000;text-anchor:start;font-family:monospace;font-style:normal;font-weight:normal" x="461" y="-170"> include </text>
  </g>
  <g>
    <rect style="fill: #ffffff" x="611" y="-124" width="94.35" height="28"/>
    <rect style="fill: none; fill-opacity:0; stroke-width: 2; stroke: #000000" x="611" y="-124" width="94.35" height="28"/>
    <text font-size="16" style="fill: #000000;text-anchor:middle;font-family:sans-serif;font-style:normal;font-weight:700" x="658.175" y="-105">flowNode</text>
  </g>
  <g>
    <rect style="fill: #ffffff" x="475" y="-124" width="87.4" height="28"/>
    <rect style="fill: none; fill-opacity:0; stroke-width: 2; stroke: #000000" x="475" y="-124" width="87.4" height="28"/>
    <text font-size="16" style="fill: #000000;text-anchor:middle;font-family:sans-serif;font-style:normal;font-weight:700" x="518.7" y="-105">runNode</text>
  </g>
  <g>
    <polyline style="fill: none; fill-opacity:0; stroke-width: 2; stroke: #000000" points="580.636,-110 579.4,-110 610,-110 611,-110 "/>
    <polygon style="fill: #ffffff" points="580.636,-118 564.636,-110 580.636,-102 "/>
    <polygon style="fill: none; fill-opacity:0; stroke-width: 2; stroke: #000000" points="580.636,-118 564.636,-110 580.636,-102 "/>
  </g>
  <g>
    <rect style="fill: #ffffff" x="597" y="-54" width="122.3" height="28"/>
    <rect style="fill: none; fill-opacity:0; stroke-width: 2; stroke: #000000" x="597" y="-54" width="122.3" height="28"/>
    <text font-size="16" style="fill: #000000;text-anchor:middle;font-family:sans-serif;font-style:normal;font-weight:700" x="658.15" y="-35">includeNode</text>
  </g>
  <g>
    <polyline style="fill: none; fill-opacity:0; stroke-width: 2; stroke: #000000" points="744.472,-40 768,-40 768,-153 518.7,-153 518.7,-125.002 "/>
    <polygon style="fill: #ffffff" points="719.3,-40 733.3,-44.8 747.3,-40 733.3,-35.2 "/>
    <polygon style="fill: none; fill-opacity:0; stroke-width: 2; stroke: #000000" points="719.3,-40 733.3,-44.8 747.3,-40 733.3,-35.2 "/>
    <text font-size="12.7998" style="fill: #000000;text-anchor:middle;font-family:monospace;font-style:normal;font-weight:normal" x="643.35" y="-156"/>
    <text font-size="12.7998" style="fill: #000000;text-anchor:start;font-family:monospace;font-style:normal;font-weight:normal" x="751.3" y="-43"/>
    <text font-size="12.7998" style="fill: #000000;text-anchor:start;font-family:monospace;font-style:normal;font-weight:normal" x="522.7" y="-129.002">1</text>
  </g>
  <g>
    <polyline style="fill: none; fill-opacity:0; stroke-width: 2; stroke: #000000" points="658.175,-77.7639 658.175,-67 658.15,-67 658.15,-54 "/>
    <polygon style="fill: #ffffff" points="666.175,-77.7639 658.175,-93.7639 650.175,-77.7639 "/>
    <polygon style="fill: none; fill-opacity:0; stroke-width: 2; stroke: #000000" points="666.175,-77.7639 658.175,-93.7639 650.175,-77.7639 "/>
  </g>
</svg>
