<?xml version="1.0" encoding="UTF-8" standalone="no"?>
<!DOCTYPE svg PUBLIC "-//W3C//DTD SVG 1.0//EN" "http://www.w3.org/TR/2001/PR-SVG-20010719/DTD/svg10.dtd">
<svg width="12cm" height="8cm" viewBox="542 185 239 148" xmlns="http://www.w3.org/2000/svg" xmlns:xlink="http://www.w3.org/1999/xlink">
  <g>
    <rect style="fill: #ffffff" x="543" y="206" width="237" height="125"/>
    <rect style="fill: none; fill-opacity:0; stroke-width: 2; stroke: #000000" x="543" y="206" width="237" height="125"/>
    <rect style="fill: #ffffff" x="543" y="186" width="42.5" height="20"/>
    <rect style="fill: none; fill-opacity:0; stroke-width: 2; stroke: #000000" x="543" y="186" width="42.5" height="20"/>
    <text font-size="12.7998" style="fill: #000000;text-anchor:start;font-family:monospace;font-style:normal;font-weight:normal" x="545" y="201"> map </text>
  </g>
  <g>
    <rect style="fill: #ffffff" x="601" y="218" width="87.4" height="28"/>
    <rect style="fill: none; fill-opacity:0; stroke-width: 2; stroke: #000000" x="601" y="218" width="87.4" height="28"/>
    <text font-size="16" style="fill: #000000;text-anchor:middle;font-family:sans-serif;font-style:normal;font-weight:700" x="644.7" y="237">runNode</text>
  </g>
  <g>
    <rect style="fill: #ffffff" x="597" y="285" width="95.6" height="28"/>
    <rect style="fill: none; fill-opacity:0; stroke-width: 2; stroke: #000000" x="597" y="285" width="95.6" height="28"/>
    <text font-size="16" style="fill: #000000;text-anchor:middle;font-family:sans-serif;font-style:normal;font-weight:700" x="644.8" y="304">mapNode</text>
  </g>
  <g>
    <polyline style="fill: none; fill-opacity:0; stroke-width: 2; stroke: #000000" points="644.7,264.236 644.7,273.5 644.8,273.5 644.8,285 "/>
    <polygon style="fill: #ffffff" points="652.7,264.236 644.7,248.236 636.7,264.236 "/>
    <polygon style="fill: none; fill-opacity:0; stroke-width: 2; stroke: #000000" points="652.7,264.236 644.7,248.236 636.7,264.236 "/>
  </g>
  <g>
    <polyline style="fill: none; fill-opacity:0; stroke-width: 2; stroke: #000000" points="717.772,299 727.6,299 727.6,232 688.4,232 "/>
    <polygon style="fill: #ffffff" points="692.6,299 706.6,294.2 720.6,299 706.6,303.8 "/>
    <polygon style="fill: none; fill-opacity:0; stroke-width: 2; stroke: #000000" points="692.6,299 706.6,294.2 720.6,299 706.6,303.8 "/>
    <text font-size="12.7998" style="fill: #000000;text-anchor:start;font-family:monospace;font-style:normal;font-weight:normal" x="729.6" y="262.5">value</text>
    <text font-size="12.7998" style="fill: #000000;text-anchor:start;font-family:monospace;font-style:normal;font-weight:normal" x="724.6" y="296"/>
    <text font-size="12.7998" style="fill: #000000;text-anchor:start;font-family:monospace;font-style:normal;font-weight:normal" x="692.4" y="229">1</text>
  </g>
  <g>
    <polyline style="fill: none; fill-opacity:0; stroke-width: 2; stroke: #000000" points="571.828,299 562,299 562,232 601,232 "/>
    <polygon style="fill: #ffffff" points="597,299 583,303.8 569,299 583,294.2 "/>
    <polygon style="fill: none; fill-opacity:0; stroke-width: 2; stroke: #000000" points="597,299 583,303.8 569,299 583,294.2 "/>
    <text font-size="12.7998" style="fill: #000000;text-anchor:start;font-family:monospace;font-style:normal;font-weight:normal" x="564" y="262.5">key</text>
    <text font-size="12.7998" style="fill: #000000;text-anchor:end;font-family:monospace;font-style:normal;font-weight:normal" x="565" y="296"/>
    <text font-size="12.7998" style="fill: #000000;text-anchor:end;font-family:monospace;font-style:normal;font-weight:normal" x="597" y="229">1</text>
  </g>
</svg>
