<?xml version="1.0" encoding="UTF-8" standalone="no"?>
<!DOCTYPE svg PUBLIC "-//W3C//DTD SVG 1.0//EN" "http://www.w3.org/TR/2001/PR-SVG-20010719/DTD/svg10.dtd">
<svg width="26cm" height="8cm" viewBox="194 61 501 160" xmlns="http://www.w3.org/2000/svg" xmlns:xlink="http://www.w3.org/1999/xlink">
  <g>
    <rect style="fill: #ffffff" x="195" y="82" width="499" height="138"/>
    <rect style="fill: none; fill-opacity:0; stroke-width: 2; stroke: #000000" x="195" y="82" width="499" height="138"/>
    <rect style="fill: #ffffff" x="195" y="62" width="50.2" height="20"/>
    <rect style="fill: none; fill-opacity:0; stroke-width: 2; stroke: #000000" x="195" y="62" width="50.2" height="20"/>
    <text font-size="12.7998" style="fill: #000000;text-anchor:start;font-family:monospace;font-style:normal;font-weight:normal" x="197" y="77"> with </text>
  </g>
  <g>
    <rect style="fill: #ffffff" x="522" y="170" width="96.05" height="28"/>
    <rect style="fill: none; fill-opacity:0; stroke-width: 2; stroke: #000000" x="522" y="170" width="96.05" height="28"/>
    <text font-size="16" style="fill: #000000;text-anchor:middle;font-family:sans-serif;font-style:normal;font-weight:700" x="570.025" y="189">withNode</text>
  </g>
  <g>
    <rect style="fill: #ffffff" x="367" y="169.8" width="94.35" height="28"/>
    <rect style="fill: none; fill-opacity:0; stroke-width: 2; stroke: #000000" x="367" y="169.8" width="94.35" height="28"/>
    <text font-size="16" style="fill: #000000;text-anchor:middle;font-family:sans-serif;font-style:normal;font-weight:700" x="414.175" y="188.8">flowNode</text>
  </g>
  <g>
    <rect style="fill: #ffffff" x="208" y="169.8" width="87.4" height="28"/>
    <rect style="fill: none; fill-opacity:0; stroke-width: 2; stroke: #000000" x="208" y="169.8" width="87.4" height="28"/>
    <text font-size="16" style="fill: #000000;text-anchor:middle;font-family:sans-serif;font-style:normal;font-weight:700" x="251.7" y="188.8">runNode</text>
  </g>
  <g>
    <polyline style="fill: none; fill-opacity:0; stroke-width: 2; stroke: #000000" points="313.636,183.8 312.4,183.8 366,183.8 367,183.8 "/>
    <polygon style="fill: #ffffff" points="313.636,175.8 297.636,183.8 313.636,191.8 "/>
    <polygon style="fill: none; fill-opacity:0; stroke-width: 2; stroke: #000000" points="313.636,175.8 297.636,183.8 313.636,191.8 "/>
  </g>
  <g>
    <polyline style="fill: none; fill-opacity:0; stroke-width: 2; stroke: #000000" points="480.592,183.8 500.178,183.8 500.178,184 522,184 "/>
    <polygon style="fill: #ffffff" points="480.592,175.8 464.592,183.8 480.592,191.8 "/>
    <polygon style="fill: none; fill-opacity:0; stroke-width: 2; stroke: #000000" points="480.592,175.8 464.592,183.8 480.592,191.8 "/>
  </g>
  <g>
    <polyline style="fill: none; fill-opacity:0; stroke-width: 2; stroke: #000000" points="643.222,170 662,170 662,135 295.4,135 295.4,169.8 "/>
    <polygon style="fill: #ffffff" points="618.05,170 632.05,165.2 646.05,170 632.05,174.8 "/>
    <polygon style="fill: none; fill-opacity:0; stroke-width: 2; stroke: #000000" points="618.05,170 632.05,165.2 646.05,170 632.05,174.8 "/>
    <text font-size="12.7998" style="fill: #000000;text-anchor:middle;font-family:monospace;font-style:normal;font-weight:normal" x="478.7" y="132">do</text>
    <text font-size="12.7998" style="fill: #000000;text-anchor:start;font-family:monospace;font-style:normal;font-weight:normal" x="650.05" y="167"/>
    <text font-size="12.7998" style="fill: #000000;text-anchor:start;font-family:monospace;font-style:normal;font-weight:normal" x="299.4" y="165.8">1</text>
  </g>
  <g>
    <polyline style="fill: none; fill-opacity:0; stroke-width: 2; stroke: #000000" points="643.222,184 679,184 679,115 251.7,115 251.7,169.8 "/>
    <polygon style="fill: #ffffff" points="618.05,184 632.05,179.2 646.05,184 632.05,188.8 "/>
    <polygon style="fill: none; fill-opacity:0; stroke-width: 2; stroke: #000000" points="618.05,184 632.05,179.2 646.05,184 632.05,188.8 "/>
    <text font-size="12.7998" style="fill: #000000;text-anchor:middle;font-family:monospace;font-style:normal;font-weight:normal" x="465.35" y="112">obj</text>
    <text font-size="12.7998" style="fill: #000000;text-anchor:start;font-family:monospace;font-style:normal;font-weight:normal" x="650.05" y="181"/>
    <text font-size="12.7998" style="fill: #000000;text-anchor:start;font-family:monospace;font-style:normal;font-weight:normal" x="255.7" y="165.8">1</text>
  </g>
</svg>
