<?xml version="1.0" encoding="UTF-8" standalone="no"?>
<!DOCTYPE svg PUBLIC "-//W3C//DTD SVG 1.0//EN" "http://www.w3.org/TR/2001/PR-SVG-20010719/DTD/svg10.dtd">
<svg width="12cm" height="12cm" viewBox="401 273 231 224" xmlns="http://www.w3.org/2000/svg" xmlns:xlink="http://www.w3.org/1999/xlink">
  <g>
    <rect style="fill: #ffffff" x="402" y="294" width="229" height="202"/>
    <rect style="fill: none; fill-opacity:0; stroke-width: 2; stroke: #000000" x="402" y="294" width="229" height="202"/>
    <rect style="fill: #ffffff" x="402" y="274" width="65.6" height="20"/>
    <rect style="fill: none; fill-opacity:0; stroke-width: 2; stroke: #000000" x="402" y="274" width="65.6" height="20"/>
    <text font-size="12.7998" style="fill: #000000;text-anchor:start;font-family:monospace;font-style:normal;font-weight:normal" x="404" y="289"> sizeOf </text>
  </g>
  <g>
    <rect style="fill: #ffffff" x="440" y="314" width="87.4" height="28"/>
    <rect style="fill: none; fill-opacity:0; stroke-width: 2; stroke: #000000" x="440" y="314" width="87.4" height="28"/>
    <text font-size="16" style="fill: #000000;text-anchor:middle;font-family:sans-serif;font-style:normal;font-weight:700" x="483.7" y="333">runNode</text>
  </g>
  <g>
    <rect style="fill: #ffffff" x="434" y="381" width="99.95" height="28"/>
    <rect style="fill: none; fill-opacity:0; stroke-width: 2; stroke: #000000" x="434" y="381" width="99.95" height="28"/>
    <text font-size="16" style="fill: #000000;text-anchor:middle;font-family:sans-serif;font-style:normal;font-weight:700" x="483.975" y="400">arithNode</text>
  </g>
  <g>
    <rect style="fill: #ffffff" x="428" y="447" width="112.4" height="28"/>
    <rect style="fill: none; fill-opacity:0; stroke-width: 2; stroke: #000000" x="428" y="447" width="112.4" height="28"/>
    <text font-size="16" style="fill: #000000;text-anchor:middle;font-family:sans-serif;font-style:normal;font-weight:700" x="484.2" y="466">sizeOfNode</text>
  </g>
  <g>
    <polyline style="fill: none; fill-opacity:0; stroke-width: 2; stroke: #000000" points="483.7,360.236 483.7,369.5 483.975,369.5 483.975,381 "/>
    <polygon style="fill: #ffffff" points="491.7,360.236 483.7,344.236 475.7,360.236 "/>
    <polygon style="fill: none; fill-opacity:0; stroke-width: 2; stroke: #000000" points="491.7,360.236 483.7,344.236 475.7,360.236 "/>
  </g>
  <g>
    <polyline style="fill: none; fill-opacity:0; stroke-width: 2; stroke: #000000" points="483.975,427.236 483.975,446 463.975,446 463.975,426 484.2,426 484.2,447 "/>
    <polygon style="fill: #ffffff" points="491.975,427.236 483.975,411.236 475.975,427.236 "/>
    <polygon style="fill: none; fill-opacity:0; stroke-width: 2; stroke: #000000" points="491.975,427.236 483.975,411.236 475.975,427.236 "/>
  </g>
  <g>
    <polyline style="fill: none; fill-opacity:0; stroke-width: 2; stroke: #000000" points="565.572,461 594,461 594,328 527.4,328 "/>
    <polygon style="fill: #ffffff" points="540.4,461 554.4,456.2 568.4,461 554.4,465.8 "/>
    <polygon style="fill: none; fill-opacity:0; stroke-width: 2; stroke: #000000" points="540.4,461 554.4,456.2 568.4,461 554.4,465.8 "/>
    <text font-size="12.7998" style="fill: #000000;text-anchor:start;font-family:monospace;font-style:normal;font-weight:normal" x="596" y="391.5">obj</text>
    <text font-size="12.7998" style="fill: #000000;text-anchor:start;font-family:monospace;font-style:normal;font-weight:normal" x="572.4" y="458"/>
    <text font-size="12.7998" style="fill: #000000;text-anchor:start;font-family:monospace;font-style:normal;font-weight:normal" x="531.4" y="325">1</text>
  </g>
</svg>
