<?xml version="1.0" encoding="UTF-8" standalone="no"?>
<!DOCTYPE svg PUBLIC "-//W3C//DTD SVG 1.0//EN" "http://www.w3.org/TR/2001/PR-SVG-20010719/DTD/svg10.dtd">
<svg width="21cm" height="20cm" viewBox="248 245 408 385" xmlns="http://www.w3.org/2000/svg" xmlns:xlink="http://www.w3.org/1999/xlink">
  <g>
    <rect style="fill: #ffffff" x="249.002" y="266" width="405.998" height="362"/>
    <rect style="fill: none; fill-opacity:0; stroke-width: 2; stroke: #000000" x="249.002" y="266" width="405.998" height="362"/>
    <rect style="fill: #ffffff" x="249.002" y="246" width="88.7" height="20"/>
    <rect style="fill: none; fill-opacity:0; stroke-width: 2; stroke: #000000" x="249.002" y="246" width="88.7" height="20"/>
    <text font-size="12.7998" style="fill: #000000;text-anchor:start;font-family:monospace;font-style:normal;font-weight:normal" x="251.002" y="261">  symbols  </text>
  </g>
  <g>
    <rect style="fill: #ffffff" x="288.002" y="286.8" width="126.8" height="86"/>
    <rect style="fill: none; fill-opacity:0; stroke-width: 2; stroke: #000000" x="288.002" y="286.8" width="126.8" height="86"/>
    <rect style="fill: #ffffff" x="268.002" y="308.8" width="40" height="14"/>
    <rect style="fill: none; fill-opacity:0; stroke-width: 2; stroke: #000000" x="268.002" y="308.8" width="40" height="14"/>
    <rect style="fill: #ffffff" x="268.002" y="336.8" width="40" height="14"/>
    <rect style="fill: none; fill-opacity:0; stroke-width: 2; stroke: #000000" x="268.002" y="336.8" width="40" height="14"/>
    <text font-size="12.8" style="fill: #000000;text-anchor:start;font-family:sans-serif;font-style:normal;font-weight:normal" x="316.002" y="312.7">&lt;&lt;file&gt;&gt;</text>
    <text font-size="12.8" style="fill: #000000;text-anchor:start;font-family:sans-serif;font-style:normal;font-weight:normal" x="316.002" y="328.7">
      <tspan x="316.002" y="328.7">run/symbols.h</tspan>
    </text>
  </g>
  <g>
    <rect style="fill: #ffffff" x="280.002" y="417.8" width="138.5" height="86"/>
    <rect style="fill: none; fill-opacity:0; stroke-width: 2; stroke: #000000" x="280.002" y="417.8" width="138.5" height="86"/>
    <rect style="fill: #ffffff" x="260.002" y="439.8" width="40" height="14"/>
    <rect style="fill: none; fill-opacity:0; stroke-width: 2; stroke: #000000" x="260.002" y="439.8" width="40" height="14"/>
    <rect style="fill: #ffffff" x="260.002" y="467.8" width="40" height="14"/>
    <rect style="fill: none; fill-opacity:0; stroke-width: 2; stroke: #000000" x="260.002" y="467.8" width="40" height="14"/>
    <text font-size="12.8" style="fill: #000000;text-anchor:start;font-family:sans-serif;font-style:normal;font-weight:normal" x="308.002" y="443.7">&lt;&lt;file&gt;&gt;</text>
    <text font-size="12.8" style="fill: #000000;text-anchor:start;font-family:sans-serif;font-style:normal;font-weight:normal" x="308.002" y="459.7">
      <tspan x="308.002" y="459.7">run/symbos.cpp</tspan>
    </text>
  </g>
  <g>
    <polyline style="fill: none; fill-opacity:0; stroke-width: 2; stroke-dasharray: 8; stroke: #000000" points="349.252,417.8 349.252,399.3 351.402,399.3 351.402,379.505 "/>
    <polyline style="fill: none; fill-opacity:0; stroke-width: 2; stroke: #000000" points="356.402,392.153 351.402,376.153 346.402,392.153 "/>
  </g>
  <g>
    <rect style="fill: #ffffff" x="488" y="284.8" width="122" height="86"/>
    <rect style="fill: none; fill-opacity:0; stroke-width: 2; stroke: #000000" x="488" y="284.8" width="122" height="86"/>
    <rect style="fill: #ffffff" x="468" y="306.8" width="40" height="14"/>
    <rect style="fill: none; fill-opacity:0; stroke-width: 2; stroke: #000000" x="468" y="306.8" width="40" height="14"/>
    <rect style="fill: #ffffff" x="468" y="334.8" width="40" height="14"/>
    <rect style="fill: none; fill-opacity:0; stroke-width: 2; stroke: #000000" x="468" y="334.8" width="40" height="14"/>
    <text font-size="12.8" style="fill: #000000;text-anchor:start;font-family:sans-serif;font-style:normal;font-weight:normal" x="516" y="310.7">&lt;&lt;file&gt;&gt;</text>
    <text font-size="12.8" style="fill: #000000;text-anchor:start;font-family:sans-serif;font-style:normal;font-weight:normal" x="516" y="326.7">
      <tspan x="516" y="326.7">run/runTree.h</tspan>
    </text>
  </g>
  <g>
    <rect style="fill: #ffffff" x="486" y="416.8" width="98.5" height="86"/>
    <rect style="fill: none; fill-opacity:0; stroke-width: 2; stroke: #000000" x="486" y="416.8" width="98.5" height="86"/>
    <rect style="fill: #ffffff" x="466" y="438.8" width="40" height="14"/>
    <rect style="fill: none; fill-opacity:0; stroke-width: 2; stroke: #000000" x="466" y="438.8" width="40" height="14"/>
    <rect style="fill: #ffffff" x="466" y="466.8" width="40" height="14"/>
    <rect style="fill: none; fill-opacity:0; stroke-width: 2; stroke: #000000" x="466" y="466.8" width="40" height="14"/>
    <text font-size="12.8" style="fill: #000000;text-anchor:start;font-family:sans-serif;font-style:normal;font-weight:normal" x="514" y="442.7">&lt;&lt;file&gt;&gt;</text>
    <text font-size="12.8" style="fill: #000000;text-anchor:start;font-family:sans-serif;font-style:normal;font-weight:normal" x="514" y="458.7">
      <tspan x="514" y="458.7">error.h</tspan>
    </text>
  </g>
  <g>
    <polyline style="fill: none; fill-opacity:0; stroke-width: 2; stroke-dasharray: 8; stroke: #000000" points="414.802,329.8 437.401,329.8 437.401,313.8 461.295,313.8 "/>
    <polyline style="fill: none; fill-opacity:0; stroke-width: 2; stroke: #000000" points="448.647,318.8 464.647,313.8 448.647,308.8 "/>
  </g>
  <g>
    <polyline style="fill: none; fill-opacity:0; stroke-width: 2; stroke-dasharray: 8; stroke: #000000" points="418.502,460.8 438.251,460.8 438.251,445.8 459.295,445.8 "/>
    <polyline style="fill: none; fill-opacity:0; stroke-width: 2; stroke: #000000" points="446.647,450.8 462.647,445.8 446.647,440.8 "/>
  </g>
  <g>
    <rect style="fill: #ffffff" x="488" y="519.8" width="136.05" height="86"/>
    <rect style="fill: none; fill-opacity:0; stroke-width: 2; stroke: #000000" x="488" y="519.8" width="136.05" height="86"/>
    <rect style="fill: #ffffff" x="468" y="541.8" width="40" height="14"/>
    <rect style="fill: none; fill-opacity:0; stroke-width: 2; stroke: #000000" x="468" y="541.8" width="40" height="14"/>
    <rect style="fill: #ffffff" x="468" y="569.8" width="40" height="14"/>
    <rect style="fill: none; fill-opacity:0; stroke-width: 2; stroke: #000000" x="468" y="569.8" width="40" height="14"/>
    <text font-size="12.8" style="fill: #000000;text-anchor:start;font-family:sans-serif;font-style:normal;font-weight:normal" x="516" y="545.7">&lt;&lt;file&gt;&gt;</text>
    <text font-size="12.8" style="fill: #000000;text-anchor:start;font-family:sans-serif;font-style:normal;font-weight:normal" x="516" y="561.7">
      <tspan x="516" y="561.7">run/typeNode.h</tspan>
    </text>
  </g>
  <g>
    <polyline style="fill: none; fill-opacity:0; stroke-width: 2; stroke-dasharray: 8; stroke: #000000" points="418.502,460.8 438,460.8 438,548.8 461.295,548.8 "/>
    <polyline style="fill: none; fill-opacity:0; stroke-width: 2; stroke: #000000" points="448.647,553.8 464.647,548.8 448.647,543.8 "/>
  </g>
</svg>
