<?xml version="1.0" encoding="UTF-8" standalone="no"?>
<!DOCTYPE svg PUBLIC "-//W3C//DTD SVG 1.0//EN" "http://www.w3.org/TR/2001/PR-SVG-20010719/DTD/svg10.dtd">
<svg width="11cm" height="11cm" viewBox="165 182 206 215" xmlns="http://www.w3.org/2000/svg" xmlns:xlink="http://www.w3.org/1999/xlink">
  <g>
    <rect style="fill: #ffffff" x="166" y="203.008" width="204" height="192.565"/>
    <rect style="fill: none; fill-opacity:0; stroke-width: 2; stroke: #000000" x="166" y="203.008" width="204" height="192.565"/>
    <rect style="fill: #ffffff" x="166" y="183.008" width="57.9" height="20"/>
    <rect style="fill: none; fill-opacity:0; stroke-width: 2; stroke: #000000" x="166" y="183.008" width="57.9" height="20"/>
    <text font-size="12.7998" style="fill: #000000;text-anchor:start;font-family:monospace;font-style:normal;font-weight:normal" x="168" y="198.008"> empty </text>
  </g>
  <g>
    <rect style="fill: #ffffff" x="198.9" y="286" width="99.65" height="28"/>
    <rect style="fill: none; fill-opacity:0; stroke-width: 2; stroke: #000000" x="198.9" y="286" width="99.65" height="28"/>
    <text font-size="16" style="fill: #000000;text-anchor:middle;font-family:sans-serif;font-style:normal;font-weight:700" x="248.725" y="305">logicNode</text>
  </g>
  <g>
    <rect style="fill: #ffffff" x="191.9" y="353.8" width="113.75" height="28"/>
    <rect style="fill: none; fill-opacity:0; stroke-width: 2; stroke: #000000" x="191.9" y="353.8" width="113.75" height="28"/>
    <text font-size="16" style="fill: #000000;text-anchor:middle;font-family:sans-serif;font-style:normal;font-weight:700" x="248.775" y="372.8">emptyNode</text>
  </g>
  <g>
    <polyline style="fill: none; fill-opacity:0; stroke-width: 2; stroke: #000000" points="248.725,332.236 248.725,341.9 248.775,341.9 248.775,353.8 "/>
    <polygon style="fill: #ffffff" points="256.725,332.236 248.725,316.236 240.725,332.236 "/>
    <polygon style="fill: none; fill-opacity:0; stroke-width: 2; stroke: #000000" points="256.725,332.236 248.725,316.236 240.725,332.236 "/>
  </g>
  <g>
    <rect style="fill: #ffffff" x="205" y="219.8" width="87.4" height="28"/>
    <rect style="fill: none; fill-opacity:0; stroke-width: 2; stroke: #000000" x="205" y="219.8" width="87.4" height="28"/>
    <text font-size="16" style="fill: #000000;text-anchor:middle;font-family:sans-serif;font-style:normal;font-weight:700" x="248.7" y="238.8">runNode</text>
  </g>
  <g>
    <polyline style="fill: none; fill-opacity:0; stroke-width: 2; stroke: #000000" points="248.7,266.036 248.7,274.9 248.725,274.9 248.725,286 "/>
    <polygon style="fill: #ffffff" points="256.7,266.036 248.7,250.036 240.7,266.036 "/>
    <polygon style="fill: none; fill-opacity:0; stroke-width: 2; stroke: #000000" points="256.7,266.036 248.7,250.036 240.7,266.036 "/>
  </g>
  <g>
    <polyline style="fill: none; fill-opacity:0; stroke-width: 2; stroke: #000000" points="330.822,367.8 344,367.8 344,233.8 292.4,233.8 "/>
    <polygon style="fill: #ffffff" points="305.65,367.8 319.65,363 333.65,367.8 319.65,372.6 "/>
    <polygon style="fill: none; fill-opacity:0; stroke-width: 2; stroke: #000000" points="305.65,367.8 319.65,363 333.65,367.8 319.65,372.6 "/>
    <text font-size="12.7998" style="fill: #000000;text-anchor:start;font-family:monospace;font-style:normal;font-weight:normal" x="346" y="297.8">op</text>
    <text font-size="12.7998" style="fill: #000000;text-anchor:start;font-family:monospace;font-style:normal;font-weight:normal" x="337.65" y="364.8"/>
    <text font-size="12.7998" style="fill: #000000;text-anchor:start;font-family:monospace;font-style:normal;font-weight:normal" x="296.4" y="230.8">1</text>
  </g>
</svg>
