<?xml version="1.0" encoding="UTF-8" standalone="no"?>
<!DOCTYPE svg PUBLIC "-//W3C//DTD SVG 1.0//EN" "http://www.w3.org/TR/2001/PR-SVG-20010719/DTD/svg10.dtd">
<svg width="13cm" height="11cm" viewBox="151 182 243 215" xmlns="http://www.w3.org/2000/svg" xmlns:xlink="http://www.w3.org/1999/xlink">
  <g>
    <rect style="fill: #ffffff" x="152" y="203.008" width="240.089" height="192.565"/>
    <rect style="fill: none; fill-opacity:0; stroke-width: 2; stroke: #000000" x="152" y="203.008" width="240.089" height="192.565"/>
    <rect style="fill: #ffffff" x="152" y="183.008" width="65.6" height="20"/>
    <rect style="fill: none; fill-opacity:0; stroke-width: 2; stroke: #000000" x="152" y="183.008" width="65.6" height="20"/>
    <text font-size="12.7998" style="fill: #000000;text-anchor:start;font-family:monospace;font-style:normal;font-weight:normal" x="154" y="198.008"> isNull </text>
  </g>
  <g>
    <rect style="fill: #ffffff" x="190.9" y="286" width="99.65" height="28"/>
    <rect style="fill: none; fill-opacity:0; stroke-width: 2; stroke: #000000" x="190.9" y="286" width="99.65" height="28"/>
    <text font-size="16" style="fill: #000000;text-anchor:middle;font-family:sans-serif;font-style:normal;font-weight:700" x="240.725" y="305">logicNode</text>
  </g>
  <g>
    <rect style="fill: #ffffff" x="186.9" y="353.8" width="107.5" height="28"/>
    <rect style="fill: none; fill-opacity:0; stroke-width: 2; stroke: #000000" x="186.9" y="353.8" width="107.5" height="28"/>
    <text font-size="16" style="fill: #000000;text-anchor:middle;font-family:sans-serif;font-style:normal;font-weight:700" x="240.65" y="372.8">isNullNode</text>
  </g>
  <g>
    <polyline style="fill: none; fill-opacity:0; stroke-width: 2; stroke: #000000" points="240.725,332.236 240.725,341.9 240.65,341.9 240.65,353.8 "/>
    <polygon style="fill: #ffffff" points="248.725,332.236 240.725,316.236 232.725,332.236 "/>
    <polygon style="fill: none; fill-opacity:0; stroke-width: 2; stroke: #000000" points="248.725,332.236 240.725,316.236 232.725,332.236 "/>
  </g>
  <g>
    <rect style="fill: #ffffff" x="197" y="218.8" width="87.4" height="28"/>
    <rect style="fill: none; fill-opacity:0; stroke-width: 2; stroke: #000000" x="197" y="218.8" width="87.4" height="28"/>
    <text font-size="16" style="fill: #000000;text-anchor:middle;font-family:sans-serif;font-style:normal;font-weight:700" x="240.7" y="237.8">runNode</text>
  </g>
  <g>
    <polyline style="fill: none; fill-opacity:0; stroke-width: 2; stroke: #000000" points="240.7,265.036 240.7,274.4 240.725,274.4 240.725,286 "/>
    <polygon style="fill: #ffffff" points="248.7,265.036 240.7,249.036 232.7,265.036 "/>
    <polygon style="fill: none; fill-opacity:0; stroke-width: 2; stroke: #000000" points="248.7,265.036 240.7,249.036 232.7,265.036 "/>
  </g>
  <g>
    <polyline style="fill: none; fill-opacity:0; stroke-width: 2; stroke: #000000" points="319.572,367.8 327.222,367.8 327.222,232.8 284.4,232.8 "/>
    <polygon style="fill: #ffffff" points="294.4,367.8 308.4,363 322.4,367.8 308.4,372.6 "/>
    <polygon style="fill: none; fill-opacity:0; stroke-width: 2; stroke: #000000" points="294.4,367.8 308.4,363 322.4,367.8 308.4,372.6 "/>
    <text font-size="12.7998" style="fill: #000000;text-anchor:start;font-family:monospace;font-style:normal;font-weight:normal" x="329.222" y="297.3">op</text>
    <text font-size="12.7998" style="fill: #000000;text-anchor:start;font-family:monospace;font-style:normal;font-weight:normal" x="326.4" y="364.8"/>
    <text font-size="12.7998" style="fill: #000000;text-anchor:start;font-family:monospace;font-style:normal;font-weight:normal" x="288.4" y="229.8">1</text>
  </g>
</svg>
