<?xml version="1.0" encoding="UTF-8" standalone="no"?>
<!DOCTYPE svg PUBLIC "-//W3C//DTD SVG 1.0//EN" "http://www.w3.org/TR/2001/PR-SVG-20010719/DTD/svg10.dtd">
<svg width="12cm" height="8cm" viewBox="634 200 229 142" xmlns="http://www.w3.org/2000/svg" xmlns:xlink="http://www.w3.org/1999/xlink">
  <g>
    <rect style="fill: #ffffff" x="635" y="222" width="227" height="119"/>
    <rect style="fill: none; fill-opacity:0; stroke-width: 2; stroke: #000000" x="635" y="222" width="227" height="119"/>
    <rect style="fill: #ffffff" x="635" y="202" width="57.9" height="20"/>
    <rect style="fill: none; fill-opacity:0; stroke-width: 2; stroke: #000000" x="635" y="202" width="57.9" height="20"/>
    <text font-size="12.7998" style="fill: #000000;text-anchor:start;font-family:monospace;font-style:normal;font-weight:normal" x="637" y="217"> label </text>
  </g>
  <g>
    <rect style="fill: #ffffff" x="693" y="234" width="87.4" height="28"/>
    <rect style="fill: none; fill-opacity:0; stroke-width: 2; stroke: #000000" x="693" y="234" width="87.4" height="28"/>
    <text font-size="16" style="fill: #000000;text-anchor:middle;font-family:sans-serif;font-style:normal;font-weight:700" x="736.7" y="253">runNode</text>
  </g>
  <g>
    <rect style="fill: #ffffff" x="687" y="301" width="100.8" height="28"/>
    <rect style="fill: none; fill-opacity:0; stroke-width: 2; stroke: #000000" x="687" y="301" width="100.8" height="28"/>
    <text font-size="16" style="fill: #000000;text-anchor:middle;font-family:sans-serif;font-style:normal;font-weight:700" x="737.4" y="320">labelNode</text>
  </g>
  <g>
    <polyline style="fill: none; fill-opacity:0; stroke-width: 2; stroke: #000000" points="736.7,280.236 736.7,289.5 737.4,289.5 737.4,301 "/>
    <polygon style="fill: #ffffff" points="744.7,280.236 736.7,264.236 728.7,280.236 "/>
    <polygon style="fill: none; fill-opacity:0; stroke-width: 2; stroke: #000000" points="744.7,280.236 736.7,264.236 728.7,280.236 "/>
  </g>
  <g>
    <polyline style="fill: none; fill-opacity:0; stroke-width: 2; stroke: #000000" points="661.828,315 652,315 652,248 693,248 "/>
    <polygon style="fill: #ffffff" points="687,315 673,319.8 659,315 673,310.2 "/>
    <polygon style="fill: none; fill-opacity:0; stroke-width: 2; stroke: #000000" points="687,315 673,319.8 659,315 673,310.2 "/>
    <text font-size="12.7998" style="fill: #000000;text-anchor:start;font-family:monospace;font-style:normal;font-weight:normal" x="654" y="278.5">id</text>
    <text font-size="12.7998" style="fill: #000000;text-anchor:end;font-family:monospace;font-style:normal;font-weight:normal" x="655" y="312"/>
    <text font-size="12.7998" style="fill: #000000;text-anchor:end;font-family:monospace;font-style:normal;font-weight:normal" x="689" y="245">1</text>
  </g>
  <g>
    <polyline style="fill: none; fill-opacity:0; stroke-width: 2; stroke: #000000" points="812.972,315 821,315 821,248 780.4,248 "/>
    <polygon style="fill: #ffffff" points="787.8,315 801.8,310.2 815.8,315 801.8,319.8 "/>
    <polygon style="fill: none; fill-opacity:0; stroke-width: 2; stroke: #000000" points="787.8,315 801.8,310.2 815.8,315 801.8,319.8 "/>
    <text font-size="12.7998" style="fill: #000000;text-anchor:start;font-family:monospace;font-style:normal;font-weight:normal" x="823" y="278.5">stmt</text>
    <text font-size="12.7998" style="fill: #000000;text-anchor:start;font-family:monospace;font-style:normal;font-weight:normal" x="819.8" y="312"/>
    <text font-size="12.7998" style="fill: #000000;text-anchor:start;font-family:monospace;font-style:normal;font-weight:normal" x="784.4" y="245">1</text>
  </g>
</svg>
