<?xml version="1.0" encoding="UTF-8" standalone="no"?>
<!DOCTYPE svg PUBLIC "-//W3C//DTD SVG 1.0//EN" "http://www.w3.org/TR/2001/PR-SVG-20010719/DTD/svg10.dtd">
<svg width="11cm" height="9cm" viewBox="235 245 216 166" xmlns="http://www.w3.org/2000/svg" xmlns:xlink="http://www.w3.org/1999/xlink">
  <g>
    <rect style="fill: #ffffff" x="237" y="267" width="213" height="143"/>
    <rect style="fill: none; fill-opacity:0; stroke-width: 2; stroke: #000000" x="237" y="267" width="213" height="143"/>
    <rect style="fill: #ffffff" x="237" y="247" width="73.3" height="20"/>
    <rect style="fill: none; fill-opacity:0; stroke-width: 2; stroke: #000000" x="237" y="247" width="73.3" height="20"/>
    <text font-size="12.7998" style="fill: #000000;text-anchor:start;font-family:monospace;font-style:normal;font-weight:normal" x="239" y="262"> datInfo </text>
  </g>
  <g>
    <rect style="fill: #ffffff" x="274" y="286" width="87.4" height="28"/>
    <rect style="fill: none; fill-opacity:0; stroke-width: 2; stroke: #000000" x="274" y="286" width="87.4" height="28"/>
    <text font-size="16" style="fill: #000000;text-anchor:middle;font-family:sans-serif;font-style:normal;font-weight:700" x="317.7" y="305">runNode</text>
  </g>
  <g>
    <rect style="fill: #ffffff" x="257" y="355" width="121.9" height="28"/>
    <rect style="fill: none; fill-opacity:0; stroke-width: 2; stroke: #000000" x="257" y="355" width="121.9" height="28"/>
    <text font-size="16" style="fill: #000000;text-anchor:middle;font-family:sans-serif;font-style:normal;font-weight:700" x="317.95" y="374">datInfoNode</text>
  </g>
  <g>
    <polyline style="fill: none; fill-opacity:0; stroke-width: 2; stroke: #000000" points="317.7,332.236 317.7,342.5 317.95,342.5 317.95,355 "/>
    <polygon style="fill: #ffffff" points="325.7,332.236 317.7,316.236 309.7,332.236 "/>
    <polygon style="fill: none; fill-opacity:0; stroke-width: 2; stroke: #000000" points="325.7,332.236 317.7,316.236 309.7,332.236 "/>
  </g>
  <g>
    <polyline style="fill: none; fill-opacity:0; stroke-width: 2; stroke: #000000" points="404.072,369 413.9,369 413.9,300 361.4,300 "/>
    <polygon style="fill: #ffffff" points="378.9,369 392.9,364.2 406.9,369 392.9,373.8 "/>
    <polygon style="fill: none; fill-opacity:0; stroke-width: 2; stroke: #000000" points="378.9,369 392.9,364.2 406.9,369 392.9,373.8 "/>
    <text font-size="12.7998" style="fill: #000000;text-anchor:start;font-family:monospace;font-style:normal;font-weight:normal" x="415.9" y="331.5">obj</text>
    <text font-size="12.7998" style="fill: #000000;text-anchor:start;font-family:monospace;font-style:normal;font-weight:normal" x="410.9" y="366"/>
    <text font-size="12.7998" style="fill: #000000;text-anchor:start;font-family:monospace;font-style:normal;font-weight:normal" x="365.4" y="297"/>
  </g>
</svg>
