<?xml version="1.0" encoding="UTF-8" standalone="no"?>
<!DOCTYPE svg PUBLIC "-//W3C//DTD SVG 1.0//EN" "http://www.w3.org/TR/2001/PR-SVG-20010719/DTD/svg10.dtd">
<svg width="12cm" height="9cm" viewBox="626 249 231 166" xmlns="http://www.w3.org/2000/svg" xmlns:xlink="http://www.w3.org/1999/xlink">
  <g>
    <rect style="fill: #ffffff" x="627" y="270" width="229" height="144"/>
    <rect style="fill: none; fill-opacity:0; stroke-width: 2; stroke: #000000" x="627" y="270" width="229" height="144"/>
    <rect style="fill: #ffffff" x="627" y="250" width="65.6" height="20"/>
    <rect style="fill: none; fill-opacity:0; stroke-width: 2; stroke: #000000" x="627" y="250" width="65.6" height="20"/>
    <text font-size="12.7998" style="fill: #000000;text-anchor:start;font-family:monospace;font-style:normal;font-weight:normal" x="629" y="265"> typeOf </text>
  </g>
  <g>
    <rect style="fill: #ffffff" x="671" y="287" width="87.4" height="28"/>
    <rect style="fill: none; fill-opacity:0; stroke-width: 2; stroke: #000000" x="671" y="287" width="87.4" height="28"/>
    <text font-size="16" style="fill: #000000;text-anchor:middle;font-family:sans-serif;font-style:normal;font-weight:700" x="714.7" y="306">runNode</text>
  </g>
  <g>
    <rect style="fill: #ffffff" x="656" y="360" width="117.65" height="28"/>
    <rect style="fill: none; fill-opacity:0; stroke-width: 2; stroke: #000000" x="656" y="360" width="117.65" height="28"/>
    <text font-size="16" style="fill: #000000;text-anchor:middle;font-family:sans-serif;font-style:normal;font-weight:700" x="714.825" y="379">typeOfNode</text>
  </g>
  <g>
    <polyline style="fill: none; fill-opacity:0; stroke-width: 2; stroke: #000000" points="714.7,333.236 714.7,345.5 714.825,345.5 714.825,360 "/>
    <polygon style="fill: #ffffff" points="722.7,333.236 714.7,317.236 706.7,333.236 "/>
    <polygon style="fill: none; fill-opacity:0; stroke-width: 2; stroke: #000000" points="722.7,333.236 714.7,317.236 706.7,333.236 "/>
  </g>
  <g>
    <polyline style="fill: none; fill-opacity:0; stroke-width: 2; stroke: #000000" points="798.822,374 808.65,374 808.65,301 758.4,301 "/>
    <polygon style="fill: #ffffff" points="773.65,374 787.65,369.2 801.65,374 787.65,378.8 "/>
    <polygon style="fill: none; fill-opacity:0; stroke-width: 2; stroke: #000000" points="773.65,374 787.65,369.2 801.65,374 787.65,378.8 "/>
    <text font-size="12.7998" style="fill: #000000;text-anchor:start;font-family:monospace;font-style:normal;font-weight:normal" x="810.65" y="334.5">obj</text>
    <text font-size="12.7998" style="fill: #000000;text-anchor:start;font-family:monospace;font-style:normal;font-weight:normal" x="805.65" y="371"/>
    <text font-size="12.7998" style="fill: #000000;text-anchor:start;font-family:monospace;font-style:normal;font-weight:normal" x="762.4" y="298">1</text>
  </g>
</svg>
