<?xml version="1.0" encoding="UTF-8" standalone="no"?>
<!DOCTYPE svg PUBLIC "-//W3C//DTD SVG 1.0//EN" "http://www.w3.org/TR/2001/PR-SVG-20010719/DTD/svg10.dtd">
<svg width="14cm" height="13cm" viewBox="425 269 261 251" xmlns="http://www.w3.org/2000/svg" xmlns:xlink="http://www.w3.org/1999/xlink">
  <g>
    <rect style="fill: #ffffff" x="426" y="290" width="259" height="228"/>
    <rect style="fill: none; fill-opacity:0; stroke-width: 2; stroke: #000000" x="426" y="290" width="259" height="228"/>
    <rect style="fill: #ffffff" x="426" y="270" width="57.9" height="20"/>
    <rect style="fill: none; fill-opacity:0; stroke-width: 2; stroke: #000000" x="426" y="270" width="57.9" height="20"/>
    <text font-size="12.7998" style="fill: #000000;text-anchor:start;font-family:monospace;font-style:normal;font-weight:normal" x="428" y="285"> match </text>
  </g>
  <g>
    <rect style="fill: #ffffff" x="454" y="318" width="87.4" height="28"/>
    <rect style="fill: none; fill-opacity:0; stroke-width: 2; stroke: #000000" x="454" y="318" width="87.4" height="28"/>
    <text font-size="16" style="fill: #000000;text-anchor:middle;font-family:sans-serif;font-style:normal;font-weight:700" x="497.7" y="337">runNode</text>
  </g>
  <g>
    <rect style="fill: #ffffff" x="448" y="385" width="99.65" height="28"/>
    <rect style="fill: none; fill-opacity:0; stroke-width: 2; stroke: #000000" x="448" y="385" width="99.65" height="28"/>
    <text font-size="16" style="fill: #000000;text-anchor:middle;font-family:sans-serif;font-style:normal;font-weight:700" x="497.825" y="404">logicNode</text>
  </g>
  <g>
    <rect style="fill: #ffffff" x="442" y="452" width="112.7" height="28"/>
    <rect style="fill: none; fill-opacity:0; stroke-width: 2; stroke: #000000" x="442" y="452" width="112.7" height="28"/>
    <text font-size="16" style="fill: #000000;text-anchor:middle;font-family:sans-serif;font-style:normal;font-weight:700" x="498.35" y="471">matchNode</text>
  </g>
  <g>
    <polyline style="fill: none; fill-opacity:0; stroke-width: 2; stroke: #000000" points="497.7,364.236 497.7,373.5 497.825,373.5 497.825,385 "/>
    <polygon style="fill: #ffffff" points="505.7,364.236 497.7,348.236 489.7,364.236 "/>
    <polygon style="fill: none; fill-opacity:0; stroke-width: 2; stroke: #000000" points="505.7,364.236 497.7,348.236 489.7,364.236 "/>
  </g>
  <g>
    <polyline style="fill: none; fill-opacity:0; stroke-width: 2; stroke: #000000" points="497.825,431.236 497.825,440.5 498.35,440.5 498.35,452 "/>
    <polygon style="fill: #ffffff" points="505.825,431.236 497.825,415.236 489.825,431.236 "/>
    <polygon style="fill: none; fill-opacity:0; stroke-width: 2; stroke: #000000" points="505.825,431.236 497.825,415.236 489.825,431.236 "/>
  </g>
  <g>
    <polyline style="fill: none; fill-opacity:0; stroke-width: 2; stroke: #000000" points="579.872,466 589.7,466 589.7,346 541.4,346 "/>
    <polygon style="fill: #ffffff" points="554.7,466 568.7,461.2 582.7,466 568.7,470.8 "/>
    <polygon style="fill: none; fill-opacity:0; stroke-width: 2; stroke: #000000" points="554.7,466 568.7,461.2 582.7,466 568.7,470.8 "/>
    <text font-size="12.7998" style="fill: #000000;text-anchor:start;font-family:monospace;font-style:normal;font-weight:normal" x="591.7" y="403">regexp</text>
    <text font-size="12.7998" style="fill: #000000;text-anchor:start;font-family:monospace;font-style:normal;font-weight:normal" x="586.7" y="463"/>
    <text font-size="12.7998" style="fill: #000000;text-anchor:start;font-family:monospace;font-style:normal;font-weight:normal" x="545.4" y="343">1</text>
  </g>
  <g>
    <polyline style="fill: none; fill-opacity:0; stroke-width: 2; stroke: #000000" points="579.872,480 646,480 646,332 541.4,332 "/>
    <polygon style="fill: #ffffff" points="554.7,480 568.7,475.2 582.7,480 568.7,484.8 "/>
    <polygon style="fill: none; fill-opacity:0; stroke-width: 2; stroke: #000000" points="554.7,480 568.7,475.2 582.7,480 568.7,484.8 "/>
    <text font-size="12.7998" style="fill: #000000;text-anchor:start;font-family:monospace;font-style:normal;font-weight:normal" x="648" y="403">str</text>
    <text font-size="12.7998" style="fill: #000000;text-anchor:start;font-family:monospace;font-style:normal;font-weight:normal" x="586.7" y="477"/>
    <text font-size="12.7998" style="fill: #000000;text-anchor:start;font-family:monospace;font-style:normal;font-weight:normal" x="545.4" y="329">1</text>
  </g>
</svg>
