<?xml version="1.0" encoding="UTF-8" standalone="no"?>
<!DOCTYPE svg PUBLIC "-//W3C//DTD SVG 1.0//EN" "http://www.w3.org/TR/2001/PR-SVG-20010719/DTD/svg10.dtd">
<svg width="28cm" height="11cm" viewBox="170 82 546 211" xmlns="http://www.w3.org/2000/svg" xmlns:xlink="http://www.w3.org/1999/xlink">
  <g>
    <rect style="fill: #ffffff" x="172" y="103.8" width="543" height="188.2"/>
    <rect style="fill: none; fill-opacity:0; stroke-width: 2; stroke: #000000" x="172" y="103.8" width="543" height="188.2"/>
    <rect style="fill: #ffffff" x="172" y="83.8" width="73.3" height="20"/>
    <rect style="fill: none; fill-opacity:0; stroke-width: 2; stroke: #000000" x="172" y="83.8" width="73.3" height="20"/>
    <text font-size="12.7998" style="fill: #000000;text-anchor:start;font-family:monospace;font-style:normal;font-weight:normal" x="174" y="98.8"> arithOp </text>
  </g>
  <g>
    <rect style="fill: #ffffff" x="188" y="134.7" width="50.5" height="28"/>
    <rect style="fill: none; fill-opacity:0; stroke-width: 2; stroke: #000000" x="188" y="134.7" width="50.5" height="28"/>
    <rect style="fill: #ffffff" x="188" y="116.7" width="30" height="18"/>
    <rect style="fill: none; fill-opacity:0; stroke-width: 2; stroke: #000000" x="188" y="116.7" width="30" height="18"/>
    <text font-size="12.8" style="fill: #000000;text-anchor:start;font-family:monospace;font-style:normal;font-weight:normal" x="194" y="152.6">
      <tspan x="194" y="152.6"> add </tspan>
    </text>
  </g>
  <g>
    <rect style="fill: #ffffff" x="255" y="134.7" width="50.5" height="28"/>
    <rect style="fill: none; fill-opacity:0; stroke-width: 2; stroke: #000000" x="255" y="134.7" width="50.5" height="28"/>
    <rect style="fill: #ffffff" x="255" y="116.7" width="30" height="18"/>
    <rect style="fill: none; fill-opacity:0; stroke-width: 2; stroke: #000000" x="255" y="116.7" width="30" height="18"/>
    <text font-size="12.8" style="fill: #000000;text-anchor:start;font-family:monospace;font-style:normal;font-weight:normal" x="261" y="152.6">
      <tspan x="261" y="152.6"> sub </tspan>
    </text>
  </g>
  <g>
    <rect style="fill: #ffffff" x="322" y="134.7" width="58.2" height="28"/>
    <rect style="fill: none; fill-opacity:0; stroke-width: 2; stroke: #000000" x="322" y="134.7" width="58.2" height="28"/>
    <rect style="fill: #ffffff" x="322" y="116.7" width="30" height="18"/>
    <rect style="fill: none; fill-opacity:0; stroke-width: 2; stroke: #000000" x="322" y="116.7" width="30" height="18"/>
    <text font-size="12.8" style="fill: #000000;text-anchor:start;font-family:monospace;font-style:normal;font-weight:normal" x="328" y="152.6">
      <tspan x="328" y="152.6"> prod </tspan>
    </text>
  </g>
  <g>
    <rect style="fill: #ffffff" x="394" y="134.7" width="50.5" height="28"/>
    <rect style="fill: none; fill-opacity:0; stroke-width: 2; stroke: #000000" x="394" y="134.7" width="50.5" height="28"/>
    <rect style="fill: #ffffff" x="394" y="116.7" width="30" height="18"/>
    <rect style="fill: none; fill-opacity:0; stroke-width: 2; stroke: #000000" x="394" y="116.7" width="30" height="18"/>
    <text font-size="12.8" style="fill: #000000;text-anchor:start;font-family:monospace;font-style:normal;font-weight:normal" x="400" y="152.6">
      <tspan x="400" y="152.6"> div </tspan>
    </text>
  </g>
  <g>
    <rect style="fill: #ffffff" x="457" y="134.7" width="50.5" height="28"/>
    <rect style="fill: none; fill-opacity:0; stroke-width: 2; stroke: #000000" x="457" y="134.7" width="50.5" height="28"/>
    <rect style="fill: #ffffff" x="457" y="116.7" width="30" height="18"/>
    <rect style="fill: none; fill-opacity:0; stroke-width: 2; stroke: #000000" x="457" y="116.7" width="30" height="18"/>
    <text font-size="12.8" style="fill: #000000;text-anchor:start;font-family:monospace;font-style:normal;font-weight:normal" x="463" y="152.6">
      <tspan x="463" y="152.6"> pow </tspan>
    </text>
  </g>
  <g>
    <rect style="fill: #ffffff" x="520" y="134.7" width="50.5" height="28"/>
    <rect style="fill: none; fill-opacity:0; stroke-width: 2; stroke: #000000" x="520" y="134.7" width="50.5" height="28"/>
    <rect style="fill: #ffffff" x="520" y="116.7" width="30" height="18"/>
    <rect style="fill: none; fill-opacity:0; stroke-width: 2; stroke: #000000" x="520" y="116.7" width="30" height="18"/>
    <text font-size="12.8" style="fill: #000000;text-anchor:start;font-family:monospace;font-style:normal;font-weight:normal" x="526" y="152.6">
      <tspan x="526" y="152.6"> mod </tspan>
    </text>
  </g>
  <g>
    <rect style="fill: #ffffff" x="582.02" y="134.7" width="58.2" height="28"/>
    <rect style="fill: none; fill-opacity:0; stroke-width: 2; stroke: #000000" x="582.02" y="134.7" width="58.2" height="28"/>
    <rect style="fill: #ffffff" x="582.02" y="116.7" width="30" height="18"/>
    <rect style="fill: none; fill-opacity:0; stroke-width: 2; stroke: #000000" x="582.02" y="116.7" width="30" height="18"/>
    <text font-size="12.8" style="fill: #000000;text-anchor:start;font-family:monospace;font-style:normal;font-weight:normal" x="588.02" y="152.6">
      <tspan x="588.02" y="152.6"> size </tspan>
    </text>
  </g>
  <g>
    <rect style="fill: #ffffff" x="187.998" y="190.7" width="89" height="28"/>
    <rect style="fill: none; fill-opacity:0; stroke-width: 2; stroke: #000000" x="187.998" y="190.7" width="89" height="28"/>
    <rect style="fill: #ffffff" x="187.998" y="172.7" width="30" height="18"/>
    <rect style="fill: none; fill-opacity:0; stroke-width: 2; stroke: #000000" x="187.998" y="172.7" width="30" height="18"/>
    <text font-size="12.8" style="fill: #000000;text-anchor:start;font-family:monospace;font-style:normal;font-weight:normal" x="193.998" y="208.6">
      <tspan x="193.998" y="208.6"> incAssig </tspan>
    </text>
  </g>
  <g>
    <rect style="fill: #ffffff" x="291.998" y="190.7" width="89" height="28"/>
    <rect style="fill: none; fill-opacity:0; stroke-width: 2; stroke: #000000" x="291.998" y="190.7" width="89" height="28"/>
    <rect style="fill: #ffffff" x="291.998" y="172.7" width="30" height="18"/>
    <rect style="fill: none; fill-opacity:0; stroke-width: 2; stroke: #000000" x="291.998" y="172.7" width="30" height="18"/>
    <text font-size="12.8" style="fill: #000000;text-anchor:start;font-family:monospace;font-style:normal;font-weight:normal" x="297.998" y="208.6">
      <tspan x="297.998" y="208.6"> assigInc </tspan>
    </text>
  </g>
  <g>
    <rect style="fill: #ffffff" x="394.998" y="190.7" width="89" height="28"/>
    <rect style="fill: none; fill-opacity:0; stroke-width: 2; stroke: #000000" x="394.998" y="190.7" width="89" height="28"/>
    <rect style="fill: #ffffff" x="394.998" y="172.7" width="30" height="18"/>
    <rect style="fill: none; fill-opacity:0; stroke-width: 2; stroke: #000000" x="394.998" y="172.7" width="30" height="18"/>
    <text font-size="12.8" style="fill: #000000;text-anchor:start;font-family:monospace;font-style:normal;font-weight:normal" x="400.998" y="208.6">
      <tspan x="400.998" y="208.6"> decAssig </tspan>
    </text>
  </g>
  <g>
    <rect style="fill: #ffffff" x="497.998" y="190.7" width="89" height="28"/>
    <rect style="fill: none; fill-opacity:0; stroke-width: 2; stroke: #000000" x="497.998" y="190.7" width="89" height="28"/>
    <rect style="fill: #ffffff" x="497.998" y="172.7" width="30" height="18"/>
    <rect style="fill: none; fill-opacity:0; stroke-width: 2; stroke: #000000" x="497.998" y="172.7" width="30" height="18"/>
    <text font-size="12.8" style="fill: #000000;text-anchor:start;font-family:monospace;font-style:normal;font-weight:normal" x="503.998" y="208.6">
      <tspan x="503.998" y="208.6"> assigDec </tspan>
    </text>
  </g>
  <g>
    <rect style="fill: #ffffff" x="189" y="243.4" width="73.6" height="28"/>
    <rect style="fill: none; fill-opacity:0; stroke-width: 2; stroke: #000000" x="189" y="243.4" width="73.6" height="28"/>
    <rect style="fill: #ffffff" x="189" y="225.4" width="30" height="18"/>
    <rect style="fill: none; fill-opacity:0; stroke-width: 2; stroke: #000000" x="189" y="225.4" width="30" height="18"/>
    <text font-size="12.7998" style="fill: #000000;text-anchor:start;font-family:monospace;font-style:normal;font-weight:normal" x="195" y="261.3">
      <tspan x="195" y="261.3">addAssig</tspan>
    </text>
  </g>
  <g>
    <rect style="fill: #ffffff" x="275" y="243.4" width="73.6" height="28"/>
    <rect style="fill: none; fill-opacity:0; stroke-width: 2; stroke: #000000" x="275" y="243.4" width="73.6" height="28"/>
    <rect style="fill: #ffffff" x="275" y="225.4" width="30" height="18"/>
    <rect style="fill: none; fill-opacity:0; stroke-width: 2; stroke: #000000" x="275" y="225.4" width="30" height="18"/>
    <text font-size="12.7998" style="fill: #000000;text-anchor:start;font-family:monospace;font-style:normal;font-weight:normal" x="281" y="261.3">
      <tspan x="281" y="261.3">subAssig</tspan>
    </text>
  </g>
  <g>
    <rect style="fill: #ffffff" x="454" y="243.4" width="73.6" height="28"/>
    <rect style="fill: none; fill-opacity:0; stroke-width: 2; stroke: #000000" x="454" y="243.4" width="73.6" height="28"/>
    <rect style="fill: #ffffff" x="454" y="225.4" width="30" height="18"/>
    <rect style="fill: none; fill-opacity:0; stroke-width: 2; stroke: #000000" x="454" y="225.4" width="30" height="18"/>
    <text font-size="12.7998" style="fill: #000000;text-anchor:start;font-family:monospace;font-style:normal;font-weight:normal" x="460" y="261.3">
      <tspan x="460" y="261.3">divAssig</tspan>
    </text>
  </g>
  <g>
    <rect style="fill: #ffffff" x="361" y="243.4" width="81.3" height="28"/>
    <rect style="fill: none; fill-opacity:0; stroke-width: 2; stroke: #000000" x="361" y="243.4" width="81.3" height="28"/>
    <rect style="fill: #ffffff" x="361" y="225.4" width="30" height="18"/>
    <rect style="fill: none; fill-opacity:0; stroke-width: 2; stroke: #000000" x="361" y="225.4" width="30" height="18"/>
    <text font-size="12.7998" style="fill: #000000;text-anchor:start;font-family:monospace;font-style:normal;font-weight:normal" x="367" y="261.3">
      <tspan x="367" y="261.3">prodAssig</tspan>
    </text>
  </g>
  <g>
    <rect style="fill: #ffffff" x="539" y="243.4" width="73.6" height="28"/>
    <rect style="fill: none; fill-opacity:0; stroke-width: 2; stroke: #000000" x="539" y="243.4" width="73.6" height="28"/>
    <rect style="fill: #ffffff" x="539" y="225.4" width="30" height="18"/>
    <rect style="fill: none; fill-opacity:0; stroke-width: 2; stroke: #000000" x="539" y="225.4" width="30" height="18"/>
    <text font-size="12.7998" style="fill: #000000;text-anchor:start;font-family:monospace;font-style:normal;font-weight:normal" x="545" y="261.3">
      <tspan x="545" y="261.3">powAssig</tspan>
    </text>
  </g>
  <g>
    <rect style="fill: #ffffff" x="625" y="243.4" width="73.6" height="28"/>
    <rect style="fill: none; fill-opacity:0; stroke-width: 2; stroke: #000000" x="625" y="243.4" width="73.6" height="28"/>
    <rect style="fill: #ffffff" x="625" y="225.4" width="30" height="18"/>
    <rect style="fill: none; fill-opacity:0; stroke-width: 2; stroke: #000000" x="625" y="225.4" width="30" height="18"/>
    <text font-size="12.7998" style="fill: #000000;text-anchor:start;font-family:monospace;font-style:normal;font-weight:normal" x="631" y="261.3">
      <tspan x="631" y="261.3">modAssig</tspan>
    </text>
  </g>
</svg>
