<?xml version="1.0" encoding="UTF-8" standalone="no"?>
<!DOCTYPE svg PUBLIC "-//W3C//DTD SVG 1.0//EN" "http://www.w3.org/TR/2001/PR-SVG-20010719/DTD/svg10.dtd">
<svg width="12cm" height="6cm" viewBox="170 82 237 103" xmlns="http://www.w3.org/2000/svg" xmlns:xlink="http://www.w3.org/1999/xlink">
  <g>
    <rect style="fill: #ffffff" x="172" y="103.8" width="234" height="80.2"/>
    <rect style="fill: none; fill-opacity:0; stroke-width: 2; stroke: #000000" x="172" y="103.8" width="234" height="80.2"/>
    <rect style="fill: #ffffff" x="172" y="83.8" width="104.1" height="20"/>
    <rect style="fill: none; fill-opacity:0; stroke-width: 2; stroke: #000000" x="172" y="83.8" width="104.1" height="20"/>
    <text font-size="12.7998" style="fill: #000000;text-anchor:start;font-family:monospace;font-style:normal;font-weight:normal" x="174" y="98.8"> assignation </text>
  </g>
  <g>
    <rect style="fill: #ffffff" x="188.998" y="134.8" width="81.3" height="28"/>
    <rect style="fill: none; fill-opacity:0; stroke-width: 2; stroke: #000000" x="188.998" y="134.8" width="81.3" height="28"/>
    <rect style="fill: #ffffff" x="188.998" y="116.8" width="30" height="18"/>
    <rect style="fill: none; fill-opacity:0; stroke-width: 2; stroke: #000000" x="188.998" y="116.8" width="30" height="18"/>
    <text font-size="12.8" style="fill: #000000;text-anchor:start;font-family:monospace;font-style:normal;font-weight:normal" x="194.998" y="152.7">
      <tspan x="194.998" y="152.7"> assigOp </tspan>
    </text>
  </g>
  <g>
    <rect style="fill: #ffffff" x="302.998" y="136.8" width="89" height="28"/>
    <rect style="fill: none; fill-opacity:0; stroke-width: 2; stroke: #000000" x="302.998" y="136.8" width="89" height="28"/>
    <rect style="fill: #ffffff" x="302.998" y="118.8" width="30" height="18"/>
    <rect style="fill: none; fill-opacity:0; stroke-width: 2; stroke: #000000" x="302.998" y="118.8" width="30" height="18"/>
    <text font-size="12.8" style="fill: #000000;text-anchor:start;font-family:monospace;font-style:normal;font-weight:normal" x="308.998" y="154.7">
      <tspan x="308.998" y="154.7"> assigRef </tspan>
    </text>
  </g>
</svg>
