<?xml version="1.0" encoding="UTF-8" standalone="no"?>
<!DOCTYPE svg PUBLIC "-//W3C//DTD SVG 1.0//EN" "http://www.w3.org/TR/2001/PR-SVG-20010719/DTD/svg10.dtd">
<svg width="13cm" height="6cm" viewBox="171 82 241 102" xmlns="http://www.w3.org/2000/svg" xmlns:xlink="http://www.w3.org/1999/xlink">
  <g>
    <rect style="fill: #ffffff" x="172" y="103.8" width="239" height="79.2"/>
    <rect style="fill: none; fill-opacity:0; stroke-width: 2; stroke: #000000" x="172" y="103.8" width="239" height="79.2"/>
    <rect style="fill: #ffffff" x="172" y="83.8" width="65.6" height="20"/>
    <rect style="fill: none; fill-opacity:0; stroke-width: 2; stroke: #000000" x="172" y="83.8" width="65.6" height="20"/>
    <text font-size="12.7998" style="fill: #000000;text-anchor:start;font-family:monospace;font-style:normal;font-weight:normal" x="174" y="98.8"> dateOp </text>
  </g>
  <g>
    <rect style="fill: #ffffff" x="184.58" y="136.412" width="58.2" height="28"/>
    <rect style="fill: none; fill-opacity:0; stroke-width: 2; stroke: #000000" x="184.58" y="136.412" width="58.2" height="28"/>
    <rect style="fill: #ffffff" x="184.58" y="118.412" width="30" height="18"/>
    <rect style="fill: none; fill-opacity:0; stroke-width: 2; stroke: #000000" x="184.58" y="118.412" width="30" height="18"/>
    <text font-size="12.8" style="fill: #000000;text-anchor:start;font-family:monospace;font-style:normal;font-weight:normal" x="190.58" y="154.312">
      <tspan x="190.58" y="154.312"> date </tspan>
    </text>
  </g>
  <g>
    <rect style="fill: #ffffff" x="257.26" y="136.412" width="58.2" height="28"/>
    <rect style="fill: none; fill-opacity:0; stroke-width: 2; stroke: #000000" x="257.26" y="136.412" width="58.2" height="28"/>
    <rect style="fill: #ffffff" x="257.26" y="118.412" width="30" height="18"/>
    <rect style="fill: none; fill-opacity:0; stroke-width: 2; stroke: #000000" x="257.26" y="118.412" width="30" height="18"/>
    <text font-size="12.8" style="fill: #000000;text-anchor:start;font-family:monospace;font-style:normal;font-weight:normal" x="263.26" y="154.312">
      <tspan x="263.26" y="154.312"> time </tspan>
    </text>
  </g>
  <g>
    <rect style="fill: #ffffff" x="331.26" y="136.412" width="65.9" height="28"/>
    <rect style="fill: none; fill-opacity:0; stroke-width: 2; stroke: #000000" x="331.26" y="136.412" width="65.9" height="28"/>
    <rect style="fill: #ffffff" x="331.26" y="118.412" width="30" height="18"/>
    <rect style="fill: none; fill-opacity:0; stroke-width: 2; stroke: #000000" x="331.26" y="118.412" width="30" height="18"/>
    <text font-size="12.8" style="fill: #000000;text-anchor:start;font-family:monospace;font-style:normal;font-weight:normal" x="337.26" y="154.312">
      <tspan x="337.26" y="154.312"> sleep </tspan>
    </text>
  </g>
</svg>
