<?xml version="1.0" encoding="UTF-8" standalone="no"?>
<!DOCTYPE svg PUBLIC "-//W3C//DTD SVG 1.0//EN" "http://www.w3.org/TR/2001/PR-SVG-20010719/DTD/svg10.dtd">
<svg width="17cm" height="9cm" viewBox="167 79 322 166" xmlns="http://www.w3.org/2000/svg" xmlns:xlink="http://www.w3.org/1999/xlink">
  <g>
    <rect style="fill: #ffffff" x="168" y="100.8" width="319" height="143.2"/>
    <rect style="fill: none; fill-opacity:0; stroke-width: 2; stroke: #000000" x="168" y="100.8" width="319" height="143.2"/>
    <rect style="fill: #ffffff" x="168" y="80.8" width="57.9" height="20"/>
    <rect style="fill: none; fill-opacity:0; stroke-width: 2; stroke: #000000" x="168" y="80.8" width="57.9" height="20"/>
    <text font-size="12.7998" style="fill: #000000;text-anchor:start;font-family:monospace;font-style:normal;font-weight:normal" x="170" y="95.8"> error </text>
  </g>
  <g>
    <rect style="fill: #ffffff" x="184.86" y="137.436" width="119.8" height="28"/>
    <rect style="fill: none; fill-opacity:0; stroke-width: 2; stroke: #000000" x="184.86" y="137.436" width="119.8" height="28"/>
    <rect style="fill: #ffffff" x="184.86" y="119.436" width="30" height="18"/>
    <rect style="fill: none; fill-opacity:0; stroke-width: 2; stroke: #000000" x="184.86" y="119.436" width="30" height="18"/>
    <text font-size="12.8" style="fill: #000000;text-anchor:start;font-family:monospace;font-style:normal;font-weight:normal" x="190.86" y="155.336">
      <tspan x="190.86" y="155.336">errorException</tspan>
    </text>
  </g>
  <g>
    <rect style="fill: #ffffff" x="185.26" y="197.218" width="119.8" height="28"/>
    <rect style="fill: none; fill-opacity:0; stroke-width: 2; stroke: #000000" x="185.26" y="197.218" width="119.8" height="28"/>
    <rect style="fill: #ffffff" x="185.26" y="179.218" width="30" height="18"/>
    <rect style="fill: none; fill-opacity:0; stroke-width: 2; stroke: #000000" x="185.26" y="179.218" width="30" height="18"/>
    <text font-size="12.8" style="fill: #000000;text-anchor:start;font-family:monospace;font-style:normal;font-weight:normal" x="191.26" y="215.118">
      <tspan x="191.26" y="215.118"> errorHandler </tspan>
    </text>
  </g>
  <g>
    <rect style="fill: #ffffff" x="321.84" y="197.614" width="150.6" height="28"/>
    <rect style="fill: none; fill-opacity:0; stroke-width: 2; stroke: #000000" x="321.84" y="197.614" width="150.6" height="28"/>
    <rect style="fill: #ffffff" x="321.84" y="179.614" width="30" height="18"/>
    <rect style="fill: none; fill-opacity:0; stroke-width: 2; stroke: #000000" x="321.84" y="179.614" width="30" height="18"/>
    <text font-size="12.8" style="fill: #000000;text-anchor:start;font-family:monospace;font-style:normal;font-weight:normal" x="327.84" y="215.514">
      <tspan x="327.84" y="215.514"> exceptionHandler </tspan>
    </text>
  </g>
</svg>
