<?xml version="1.0" encoding="UTF-8" standalone="no"?>
<!DOCTYPE svg PUBLIC "-//W3C//DTD SVG 1.0//EN" "http://www.w3.org/TR/2001/PR-SVG-20010719/DTD/svg10.dtd">
<svg width="16cm" height="5cm" viewBox="171 82 308 96" xmlns="http://www.w3.org/2000/svg" xmlns:xlink="http://www.w3.org/1999/xlink">
  <g>
    <rect style="fill: #ffffff" x="172" y="103.8" width="306" height="73.2"/>
    <rect style="fill: none; fill-opacity:0; stroke-width: 2; stroke: #000000" x="172" y="103.8" width="306" height="73.2"/>
    <rect style="fill: #ffffff" x="172" y="83.8" width="81" height="20"/>
    <rect style="fill: none; fill-opacity:0; stroke-width: 2; stroke: #000000" x="172" y="83.8" width="81" height="20"/>
    <text font-size="12.7998" style="fill: #000000;text-anchor:start;font-family:monospace;font-style:normal;font-weight:normal" x="174" y="98.8"> regexpOp </text>
  </g>
  <g>
    <rect style="fill: #ffffff" x="183" y="131.8" width="96.7" height="28"/>
    <rect style="fill: none; fill-opacity:0; stroke-width: 2; stroke: #000000" x="183" y="131.8" width="96.7" height="28"/>
    <rect style="fill: #ffffff" x="183" y="113.8" width="30" height="18"/>
    <rect style="fill: none; fill-opacity:0; stroke-width: 2; stroke: #000000" x="183" y="113.8" width="30" height="18"/>
    <text font-size="12.8" style="fill: #000000;text-anchor:start;font-family:monospace;font-style:normal;font-weight:normal" x="189" y="149.7">
      <tspan x="189" y="149.7"> newRegexp </tspan>
    </text>
  </g>
  <g>
    <rect style="fill: #ffffff" x="298" y="131.8" width="65.9" height="28"/>
    <rect style="fill: none; fill-opacity:0; stroke-width: 2; stroke: #000000" x="298" y="131.8" width="65.9" height="28"/>
    <rect style="fill: #ffffff" x="298" y="113.8" width="30" height="18"/>
    <rect style="fill: none; fill-opacity:0; stroke-width: 2; stroke: #000000" x="298" y="113.8" width="30" height="18"/>
    <text font-size="12.8" style="fill: #000000;text-anchor:start;font-family:monospace;font-style:normal;font-weight:normal" x="304" y="149.7">
      <tspan x="304" y="149.7"> match </tspan>
    </text>
  </g>
  <g>
    <rect style="fill: #ffffff" x="385" y="131.8" width="73.6" height="28"/>
    <rect style="fill: none; fill-opacity:0; stroke-width: 2; stroke: #000000" x="385" y="131.8" width="73.6" height="28"/>
    <rect style="fill: #ffffff" x="385" y="113.8" width="30" height="18"/>
    <rect style="fill: none; fill-opacity:0; stroke-width: 2; stroke: #000000" x="385" y="113.8" width="30" height="18"/>
    <text font-size="12.8" style="fill: #000000;text-anchor:start;font-family:monospace;font-style:normal;font-weight:normal" x="391" y="149.7">
      <tspan x="391" y="149.7"> search </tspan>
    </text>
  </g>
</svg>
