<?xml version="1.0" encoding="UTF-8" standalone="no"?>
<!DOCTYPE svg PUBLIC "-//W3C//DTD SVG 1.0//EN" "http://www.w3.org/TR/2001/PR-SVG-20010719/DTD/svg10.dtd">
<svg width="20cm" height="13cm" viewBox="547 158 384 242" xmlns="http://www.w3.org/2000/svg" xmlns:xlink="http://www.w3.org/1999/xlink">
  <g>
    <rect style="fill: #ffffff" x="548" y="180" width="382" height="219"/>
    <rect style="fill: none; fill-opacity:0; stroke-width: 2; stroke: #000000" x="548" y="180" width="382" height="219"/>
    <rect style="fill: #ffffff" x="548" y="160" width="50.2" height="20"/>
    <rect style="fill: none; fill-opacity:0; stroke-width: 2; stroke: #000000" x="548" y="160" width="50.2" height="20"/>
    <text font-size="12.7998" style="fill: #000000;text-anchor:start;font-family:monospace;font-style:normal;font-weight:normal" x="550" y="175">exit  </text>
  </g>
  <g>
    <ellipse style="fill: #ffffff" cx="628.15" cy="226.6" rx="69.15" ry="32"/>
    <ellipse style="fill: none; fill-opacity:0; stroke-width: 2; stroke: #000000" cx="628.15" cy="226.6" rx="69.15" ry="32"/>
    <text font-size="12.8" style="fill: #000000;text-anchor:middle;font-family:sans-serif;font-style:normal;font-weight:normal" x="628.15" y="222.5">
      <tspan x="628.15" y="222.5">Interpretar</tspan>
      <tspan x="628.15" y="238.5">sentencia</tspan>
    </text>
  </g>
  <line style="fill: none; fill-opacity:0; stroke-width: 2; stroke: #000000" x1="559" y1="226.6" x2="697.3" y2="226.6"/>
  <g>
    <ellipse style="fill: #ffffff" cx="825.75" cy="271.25" rx="69.75" ry="23.25"/>
    <ellipse style="fill: none; fill-opacity:0; stroke-width: 2; stroke: #000000" cx="825.75" cy="271.25" rx="69.75" ry="23.25"/>
    <text font-size="12.7998" style="fill: #000000;text-anchor:middle;font-family:sans-serif;font-style:normal;font-weight:normal" x="825.75" y="275.15">
      <tspan x="825.75" y="275.15">Sentencia exit</tspan>
    </text>
  </g>
  <g>
    <polyline style="fill: none; fill-opacity:0; stroke-width: 2; stroke-dasharray: 8; stroke: #000000" points="825.75,248 825.75,226.6 704.005,226.6 "/>
    <polyline style="fill: none; fill-opacity:0; stroke-width: 2; stroke: #000000" points="716.653,221.6 700.653,226.6 716.653,231.6 "/>
    <text font-size="12.7998" style="fill: #000000;text-anchor:middle;font-family:monospace;font-style:normal;font-weight:normal" x="761.525" y="226.6">&lt;&lt;extend&gt;&gt;</text>
  </g>
  <g>
    <polyline style="fill: none; fill-opacity:0; stroke-width: 2; stroke-dasharray: 8; stroke: #000000" points="825.75,294.5 825.75,322 635.425,322 635.425,340.295 "/>
    <polyline style="fill: none; fill-opacity:0; stroke-width: 2; stroke: #000000" points="630.425,327.647 635.425,343.647 640.425,327.647 "/>
    <text font-size="12.7998" style="fill: #000000;text-anchor:middle;font-family:monospace;font-style:normal;font-weight:normal" x="730.588" y="322">&lt;&lt;include&gt;&gt;</text>
  </g>
  <g>
    <ellipse style="fill: #ffffff" cx="629.425" cy="363" rx="55.425" ry="20"/>
    <ellipse style="fill: none; fill-opacity:0; stroke-width: 2; stroke: #000000" cx="629.425" cy="363" rx="55.425" ry="20"/>
    <text font-size="12.7998" style="fill: #000000;text-anchor:middle;font-family:sans-serif;font-style:normal;font-weight:normal" x="629.425" y="366.9">
      <tspan x="629.425" y="366.9">Expresión</tspan>
    </text>
  </g>
</svg>
