<?xml version="1.0" encoding="UTF-8" standalone="no"?>
<!DOCTYPE svg PUBLIC "-//W3C//DTD SVG 1.0//EN" "http://www.w3.org/TR/2001/PR-SVG-20010719/DTD/svg10.dtd">
<svg width="29cm" height="22cm" viewBox="200 164 562 437" xmlns="http://www.w3.org/2000/svg" xmlns:xlink="http://www.w3.org/1999/xlink">
  <g>
    <rect style="fill: #ffffff" x="202" y="185" width="560" height="415"/>
    <rect style="fill: none; fill-opacity:0; stroke-width: 2; stroke: #000000" x="202" y="185" width="560" height="415"/>
    <rect style="fill: #ffffff" x="202" y="165" width="104.1" height="20"/>
    <rect style="fill: none; fill-opacity:0; stroke-width: 2; stroke: #000000" x="202" y="165" width="104.1" height="20"/>
    <text font-size="12.7998" style="fill: #000000;text-anchor:start;font-family:monospace;font-style:normal;font-weight:normal" x="204" y="180"> interpreter </text>
  </g>
  <g>
    <ellipse style="fill: #ffffff" cx="239" cy="358" rx="6" ry="6"/>
    <ellipse style="fill: none; fill-opacity:0; stroke-width: 2; stroke: #000000" cx="239" cy="358" rx="6" ry="6"/>
    <line style="fill: none; fill-opacity:0; stroke-width: 2; stroke: #000000" x1="215" y1="370" x2="263" y2="370"/>
    <line style="fill: none; fill-opacity:0; stroke-width: 2; stroke: #000000" x1="239" y1="364" x2="239" y2="394"/>
    <line style="fill: none; fill-opacity:0; stroke-width: 2; stroke: #000000" x1="239" y1="394" x2="215" y2="420"/>
    <line style="fill: none; fill-opacity:0; stroke-width: 2; stroke: #000000" x1="239" y1="394" x2="263" y2="420"/>
    <text font-size="12.7998" style="fill: #000000;text-anchor:middle;font-family:sans-serif;font-style:normal;font-weight:normal" x="239" y="443.9">
      <tspan x="239" y="443.9"></tspan>
    </text>
  </g>
  <g>
    <ellipse style="fill: #ffffff" cx="431.05" cy="235.683" rx="116.05" ry="38.6833"/>
    <ellipse style="fill: none; fill-opacity:0; stroke-width: 2; stroke: #000000" cx="431.05" cy="235.683" rx="116.05" ry="38.6833"/>
    <text font-size="12.7998" style="fill: #000000;text-anchor:middle;font-family:sans-serif;font-style:normal;font-weight:normal" x="431.05" y="239.583">
      <tspan x="431.05" y="239.583">Interpretar entrada estándar</tspan>
    </text>
  </g>
  <g>
    <ellipse style="fill: #ffffff" cx="430.55" cy="311.517" rx="82.55" ry="27.5167"/>
    <ellipse style="fill: none; fill-opacity:0; stroke-width: 2; stroke: #000000" cx="430.55" cy="311.517" rx="82.55" ry="27.5167"/>
    <text font-size="12.7998" style="fill: #000000;text-anchor:middle;font-family:sans-serif;font-style:normal;font-weight:normal" x="430.55" y="315.417">
      <tspan x="430.55" y="315.417">Interpretar fichero</tspan>
    </text>
  </g>
  <g>
    <ellipse style="fill: #ffffff" cx="431.075" cy="373.358" rx="76.075" ry="25.3583"/>
    <ellipse style="fill: none; fill-opacity:0; stroke-width: 2; stroke: #000000" cx="431.075" cy="373.358" rx="76.075" ry="25.3583"/>
    <text font-size="12.7998" style="fill: #000000;text-anchor:middle;font-family:sans-serif;font-style:normal;font-weight:normal" x="431.075" y="377.258">
      <tspan x="431.075" y="377.258">Interpretar línea</tspan>
    </text>
  </g>
  <g>
    <ellipse style="fill: #ffffff" cx="427.25" cy="433" rx="56.25" ry="20"/>
    <ellipse style="fill: none; fill-opacity:0; stroke-width: 2; stroke: #000000" cx="427.25" cy="433" rx="56.25" ry="20"/>
    <text font-size="12.7998" style="fill: #000000;text-anchor:middle;font-family:sans-serif;font-style:normal;font-weight:normal" x="427.25" y="436.9">
      <tspan x="427.25" y="436.9">Ver ayuda</tspan>
    </text>
  </g>
  <g>
    <ellipse style="fill: #ffffff" cx="425.8" cy="490.267" rx="78.8" ry="26.2667"/>
    <ellipse style="fill: none; fill-opacity:0; stroke-width: 2; stroke: #000000" cx="425.8" cy="490.267" rx="78.8" ry="26.2667"/>
    <text font-size="12.7998" style="fill: #000000;text-anchor:middle;font-family:sans-serif;font-style:normal;font-weight:normal" x="425.8" y="494.167">
      <tspan x="425.8" y="494.167">Cargar extensión</tspan>
    </text>
  </g>
  <g>
    <ellipse style="fill: #ffffff" cx="424.25" cy="556.417" rx="82.25" ry="27.4167"/>
    <ellipse style="fill: none; fill-opacity:0; stroke-width: 2; stroke: #000000" cx="424.25" cy="556.417" rx="82.25" ry="27.4167"/>
    <text font-size="12.7998" style="fill: #000000;text-anchor:middle;font-family:sans-serif;font-style:normal;font-weight:normal" x="424.25" y="560.317">
      <tspan x="424.25" y="560.317">Listar extensiones</tspan>
    </text>
  </g>
  <g>
    <ellipse style="fill: #ffffff" cx="692.575" cy="310" rx="58.575" ry="20"/>
    <ellipse style="fill: none; fill-opacity:0; stroke-width: 2; stroke: #000000" cx="692.575" cy="310" rx="58.575" ry="20"/>
    <text font-size="12.7998" style="fill: #000000;text-anchor:middle;font-family:sans-serif;font-style:normal;font-weight:normal" x="692.575" y="313.9">
      <tspan x="692.575" y="313.9">Interpretar</tspan>
    </text>
  </g>
  <g>
    <line style="fill: none; fill-opacity:0; stroke-width: 2; stroke: #000000" x1="264" y1="394" x2="313.629" y2="239.94"/>
    <polyline style="fill: none; fill-opacity:0; stroke-width: 2; stroke: #000000" points="316.007,248.863 314.314,237.812 306.489,245.797 "/>
  </g>
  <g>
    <line style="fill: none; fill-opacity:0; stroke-width: 2; stroke: #000000" x1="264" y1="394" x2="344.809" y2="314.65"/>
    <polyline style="fill: none; fill-opacity:0; stroke-width: 2; stroke: #000000" points="342.773,323.657 346.405,313.083 335.766,316.522 "/>
  </g>
  <g>
    <line style="fill: none; fill-opacity:0; stroke-width: 2; stroke: #000000" x1="264" y1="394" x2="350.639" y2="374.348"/>
    <polyline style="fill: none; fill-opacity:0; stroke-width: 2; stroke: #000000" points="344.173,380.941 352.819,373.853 341.961,371.189 "/>
  </g>
  <g>
    <line style="fill: none; fill-opacity:0; stroke-width: 2; stroke: #000000" x1="264" y1="394" x2="366.798" y2="431.469"/>
    <polyline style="fill: none; fill-opacity:0; stroke-width: 2; stroke: #000000" points="357.792,433.507 368.899,432.234 361.216,424.112 "/>
  </g>
  <g>
    <line style="fill: none; fill-opacity:0; stroke-width: 2; stroke: #000000" x1="264" y1="394" x2="344.08" y2="486.88"/>
    <polyline style="fill: none; fill-opacity:0; stroke-width: 2; stroke: #000000" points="335.223,484.264 345.54,488.573 342.797,477.735 "/>
  </g>
  <g>
    <line style="fill: none; fill-opacity:0; stroke-width: 2; stroke: #000000" x1="264" y1="394" x2="340.064" y2="552.385"/>
    <polyline style="fill: none; fill-opacity:0; stroke-width: 2; stroke: #000000" points="332.196,547.551 341.032,554.401 341.21,543.222 "/>
  </g>
  <g>
    <line style="fill: none; fill-opacity:0; stroke-width: 2; stroke-dasharray: 8; stroke: #000000" x1="617.001" y1="310.213" x2="513.1" y2="311.517"/>
    <polygon style="fill: #000000" points="617.064,315.213 633,310.013 616.939,305.214 "/>
    <polygon style="fill: none; fill-opacity:0; stroke-width: 2; stroke: #000000" points="617.064,315.213 633,310.013 616.939,305.214 "/>
    <text font-size="12.7998" style="fill: #000000;text-anchor:middle;font-family:sans-serif;font-style:normal;font-weight:normal" x="567" y="305">&lt;&lt;include&gt;&gt;</text>
  </g>
  <g>
    <line style="fill: none; fill-opacity:0; stroke-width: 2; stroke-dasharray: 8; stroke: #000000" x1="636.44" y1="287.348" x2="547.1" y2="235.683"/>
    <polygon style="fill: #000000" points="633.937,291.676 650.291,295.357 638.943,283.019 "/>
    <polygon style="fill: none; fill-opacity:0; stroke-width: 2; stroke: #000000" points="633.937,291.676 650.291,295.357 638.943,283.019 "/>
    <text font-size="12.7998" style="fill: #000000;text-anchor:middle;font-family:sans-serif;font-style:normal;font-weight:normal" x="639" y="259">&lt;&lt;include&gt;&gt;</text>
  </g>
  <g>
    <line style="fill: none; fill-opacity:0; stroke-width: 2; stroke-dasharray: 8; stroke: #000000" x1="635.07" y1="329.64" x2="507.15" y2="373.358"/>
    <polygon style="fill: #000000" points="636.687,334.371 650.21,324.466 633.453,324.909 "/>
    <polygon style="fill: none; fill-opacity:0; stroke-width: 2; stroke: #000000" points="636.687,334.371 650.21,324.466 633.453,324.909 "/>
    <text font-size="12.7998" style="fill: #000000;text-anchor:middle;font-family:sans-serif;font-style:normal;font-weight:normal" x="609" y="368">&lt;&lt;include&gt;&gt;</text>
  </g>
</svg>
