<?xml version="1.0" encoding="UTF-8" standalone="no"?>
<!DOCTYPE svg PUBLIC "-//W3C//DTD SVG 1.0//EN" "http://www.w3.org/TR/2001/PR-SVG-20010719/DTD/svg10.dtd">
<svg width="15cm" height="13cm" viewBox="160 189 292 243" xmlns="http://www.w3.org/2000/svg" xmlns:xlink="http://www.w3.org/1999/xlink">
  <g>
    <rect style="fill: #ffffff" x="162" y="210" width="289" height="220"/>
    <rect style="fill: none; fill-opacity:0; stroke-width: 2; stroke: #000000" x="162" y="210" width="289" height="220"/>
    <rect style="fill: #ffffff" x="162" y="190" width="73.3" height="20"/>
    <rect style="fill: none; fill-opacity:0; stroke-width: 2; stroke: #000000" x="162" y="190" width="73.3" height="20"/>
    <text font-size="12.7998" style="fill: #000000;text-anchor:start;font-family:monospace;font-style:normal;font-weight:normal" x="164" y="205"> process </text>
  </g>
  <g>
    <rect style="fill: #ffffff" x="202" y="239" width="87.4" height="28"/>
    <rect style="fill: none; fill-opacity:0; stroke-width: 2; stroke: #000000" x="202" y="239" width="87.4" height="28"/>
    <text font-size="16" style="fill: #000000;text-anchor:middle;font-family:sans-serif;font-style:normal;font-weight:700" x="245.7" y="258">runNode</text>
  </g>
  <g>
    <rect style="fill: #ffffff" x="196" y="306" width="100.7" height="28"/>
    <rect style="fill: none; fill-opacity:0; stroke-width: 2; stroke: #000000" x="196" y="306" width="100.7" height="28"/>
    <text font-size="16" style="fill: #000000;text-anchor:middle;font-family:sans-serif;font-style:normal;font-weight:700" x="246.35" y="325">nexpNode</text>
  </g>
  <g>
    <polyline style="fill: none; fill-opacity:0; stroke-width: 2; stroke: #000000" points="245.7,285.236 245.7,294.5 246.35,294.5 246.35,306 "/>
    <polygon style="fill: #ffffff" points="253.7,285.236 245.7,269.236 237.7,285.236 "/>
    <polygon style="fill: none; fill-opacity:0; stroke-width: 2; stroke: #000000" points="253.7,285.236 245.7,269.236 237.7,285.236 "/>
  </g>
  <g>
    <rect style="fill: #ffffff" x="183" y="373" width="126.4" height="28"/>
    <rect style="fill: none; fill-opacity:0; stroke-width: 2; stroke: #000000" x="183" y="373" width="126.4" height="28"/>
    <text font-size="16" style="fill: #000000;text-anchor:middle;font-family:sans-serif;font-style:normal;font-weight:700" x="246.2" y="392">processNode</text>
  </g>
  <g>
    <polyline style="fill: none; fill-opacity:0; stroke-width: 2; stroke: #000000" points="246.35,352.236 246.35,361.5 246.2,361.5 246.2,373 "/>
    <polygon style="fill: #ffffff" points="254.35,352.236 246.35,336.236 238.35,352.236 "/>
    <polygon style="fill: none; fill-opacity:0; stroke-width: 2; stroke: #000000" points="254.35,352.236 246.35,336.236 238.35,352.236 "/>
  </g>
  <g>
    <polyline style="fill: none; fill-opacity:0; stroke-width: 2; stroke: #000000" points="334.572,387 344.4,387 344.4,253 289.4,253 "/>
    <polygon style="fill: #ffffff" points="309.4,387 323.4,382.2 337.4,387 323.4,391.8 "/>
    <polygon style="fill: none; fill-opacity:0; stroke-width: 2; stroke: #000000" points="309.4,387 323.4,382.2 337.4,387 323.4,391.8 "/>
    <text font-size="12.7998" style="fill: #000000;text-anchor:start;font-family:monospace;font-style:normal;font-weight:normal" x="346.4" y="317">func</text>
    <text font-size="12.7998" style="fill: #000000;text-anchor:start;font-family:monospace;font-style:normal;font-weight:normal" x="341.4" y="384"/>
    <text font-size="12.7998" style="fill: #000000;text-anchor:start;font-family:monospace;font-style:normal;font-weight:normal" x="293.4" y="250">1</text>
  </g>
  <g>
    <polyline style="fill: none; fill-opacity:0; stroke-width: 2; stroke: #000000" points="334.572,401 389,401 389,239 289.4,239 "/>
    <polygon style="fill: #ffffff" points="309.4,401 323.4,396.2 337.4,401 323.4,405.8 "/>
    <polygon style="fill: none; fill-opacity:0; stroke-width: 2; stroke: #000000" points="309.4,401 323.4,396.2 337.4,401 323.4,405.8 "/>
    <text font-size="12.7998" style="fill: #000000;text-anchor:start;font-family:monospace;font-style:normal;font-weight:normal" x="391" y="317">params</text>
    <text font-size="12.7998" style="fill: #000000;text-anchor:start;font-family:monospace;font-style:normal;font-weight:normal" x="341.4" y="398"/>
    <text font-size="12.7998" style="fill: #000000;text-anchor:start;font-family:monospace;font-style:normal;font-weight:normal" x="293.4" y="236">0,1</text>
  </g>
</svg>
