<?xml version="1.0" encoding="UTF-8" standalone="no"?>
<!DOCTYPE svg PUBLIC "-//W3C//DTD SVG 1.0//EN" "http://www.w3.org/TR/2001/PR-SVG-20010719/DTD/svg10.dtd">
<svg width="18cm" height="14cm" viewBox="225 177 344 275" xmlns="http://www.w3.org/2000/svg" xmlns:xlink="http://www.w3.org/1999/xlink">
  <g>
    <rect style="fill: #ffffff" x="226" y="198" width="341" height="253"/>
    <rect style="fill: none; fill-opacity:0; stroke-width: 2; stroke: #000000" x="226" y="198" width="341" height="253"/>
    <rect style="fill: #ffffff" x="226" y="178" width="57.9" height="20"/>
    <rect style="fill: none; fill-opacity:0; stroke-width: 2; stroke: #000000" x="226" y="178" width="57.9" height="20"/>
    <text font-size="12.7998" style="fill: #000000;text-anchor:start;font-family:monospace;font-style:normal;font-weight:normal" x="228" y="193"> chunk </text>
  </g>
  <g>
    <rect style="fill: #ffffff" x="315" y="225" width="87.4" height="28"/>
    <rect style="fill: none; fill-opacity:0; stroke-width: 2; stroke: #000000" x="315" y="225" width="87.4" height="28"/>
    <text font-size="16" style="fill: #000000;text-anchor:middle;font-family:sans-serif;font-style:normal;font-weight:700" x="358.7" y="244">runNode</text>
  </g>
  <g>
    <rect style="fill: #ffffff" x="309" y="295" width="100.7" height="28"/>
    <rect style="fill: none; fill-opacity:0; stroke-width: 2; stroke: #000000" x="309" y="295" width="100.7" height="28"/>
    <text font-size="16" style="fill: #000000;text-anchor:middle;font-family:sans-serif;font-style:normal;font-weight:700" x="359.35" y="314">nexpNode</text>
  </g>
  <g>
    <polyline style="fill: none; fill-opacity:0; stroke-width: 2; stroke: #000000" points="358.7,271.236 358.7,282 359.35,282 359.35,295 "/>
    <polygon style="fill: #ffffff" points="366.7,271.236 358.7,255.236 350.7,271.236 "/>
    <polygon style="fill: none; fill-opacity:0; stroke-width: 2; stroke: #000000" points="366.7,271.236 358.7,255.236 350.7,271.236 "/>
  </g>
  <g>
    <rect style="fill: #ffffff" x="279" y="374" width="160.65" height="28"/>
    <rect style="fill: none; fill-opacity:0; stroke-width: 2; stroke: #000000" x="279" y="374" width="160.65" height="28"/>
    <text font-size="16" style="fill: #000000;text-anchor:middle;font-family:sans-serif;font-style:normal;font-weight:700" x="359.325" y="393">arrayChunkNode</text>
  </g>
  <g>
    <polyline style="fill: none; fill-opacity:0; stroke-width: 2; stroke: #000000" points="464.822,388 474.65,388 474.65,253 402.4,253 "/>
    <polygon style="fill: #ffffff" points="439.65,388 453.65,383.2 467.65,388 453.65,392.8 "/>
    <polygon style="fill: none; fill-opacity:0; stroke-width: 2; stroke: #000000" points="439.65,388 453.65,383.2 467.65,388 453.65,392.8 "/>
    <text font-size="12.7998" style="fill: #000000;text-anchor:start;font-family:monospace;font-style:normal;font-weight:normal" x="476.65" y="317.5">size</text>
    <text font-size="12.7998" style="fill: #000000;text-anchor:start;font-family:monospace;font-style:normal;font-weight:normal" x="471.65" y="385"/>
    <text font-size="12.7998" style="fill: #000000;text-anchor:start;font-family:monospace;font-style:normal;font-weight:normal" x="406.4" y="250">1</text>
  </g>
  <g>
    <polyline style="fill: none; fill-opacity:0; stroke-width: 2; stroke: #000000" points="464.822,402 521,402 521,239 402.4,239 "/>
    <polygon style="fill: #ffffff" points="439.65,402 453.65,397.2 467.65,402 453.65,406.8 "/>
    <polygon style="fill: none; fill-opacity:0; stroke-width: 2; stroke: #000000" points="439.65,402 453.65,397.2 467.65,402 453.65,406.8 "/>
    <text font-size="12.7998" style="fill: #000000;text-anchor:start;font-family:monospace;font-style:normal;font-weight:normal" x="523" y="317.5">array</text>
    <text font-size="12.7998" style="fill: #000000;text-anchor:start;font-family:monospace;font-style:normal;font-weight:normal" x="471.65" y="399"/>
    <text font-size="12.7998" style="fill: #000000;text-anchor:start;font-family:monospace;font-style:normal;font-weight:normal" x="406.4" y="236"/>
  </g>
  <g>
    <polyline style="fill: none; fill-opacity:0; stroke-width: 2; stroke: #000000" points="359.35,341.236 359.35,356.5 359.325,356.5 359.325,374 "/>
    <polygon style="fill: #ffffff" points="367.35,341.236 359.35,325.236 351.35,341.236 "/>
    <polygon style="fill: none; fill-opacity:0; stroke-width: 2; stroke: #000000" points="367.35,341.236 359.35,325.236 351.35,341.236 "/>
  </g>
</svg>
