<?xml version="1.0" encoding="UTF-8" standalone="no"?>
<!-- Created with Inkscape (http://www.inkscape.org/) -->

<svg
   xmlns:dc="http://purl.org/dc/elements/1.1/"
   xmlns:cc="http://creativecommons.org/ns#"
   xmlns:rdf="http://www.w3.org/1999/02/22-rdf-syntax-ns#"
   xmlns:svg="http://www.w3.org/2000/svg"
   xmlns="http://www.w3.org/2000/svg"
   xmlns:sodipodi="http://sodipodi.sourceforge.net/DTD/sodipodi-0.dtd"
   xmlns:inkscape="http://www.inkscape.org/namespaces/inkscape"
   width="196mm"
   height="79mm"
   viewBox="0 0 694.48846 279.921"
   id="svg3392"
   version="1.1"
   inkscape:version="0.91 r13725"
   sodipodi:docname="gplv3.svg">
  <defs
     id="defs3394" />
  <sodipodi:namedview
     id="base"
     pagecolor="#ffffff"
     bordercolor="#666666"
     borderopacity="1.0"
     inkscape:pageopacity="0.0"
     inkscape:pageshadow="2"
     inkscape:zoom="0.98994949"
     inkscape:cx="235.99014"
     inkscape:cy="304.29504"
     inkscape:document-units="px"
     inkscape:current-layer="layer1"
     showgrid="false"
     inkscape:window-width="1920"
     inkscape:window-height="992"
     inkscape:window-x="0"
     inkscape:window-y="32"
     inkscape:window-maximized="1"
     units="mm"
     width="106mm" />
  <metadata
     id="metadata3397">
    <rdf:RDF>
      <cc:Work
         rdf:about="">
        <dc:format>image/svg+xml</dc:format>
        <dc:type
           rdf:resource="http://purl.org/dc/dcmitype/StillImage" />
        <dc:title></dc:title>
      </cc:Work>
    </rdf:RDF>
  </metadata>
  <g
     inkscape:label="Capa 1"
     inkscape:groupmode="layer"
     id="layer1"
     transform="translate(0,-772.44112)">
    <path
       inkscape:connector-curvature="0"
       id="path1"
       style="fill:#bd0000"
       d="m 60.71519,784.93202 c 2e-5,0 -59.3097297,258.76738 -59.3097297,258.76738 0.0171,0 0.0192,0 0.0533,0 0,0 274.3808097,0 274.3808097,0 1e-5,0 142.70573,0 142.70573,0 -17.00107,-1.4835 -30.42327,-7.4518 -38.42076,-18.3311 -1.48353,-2.0122 -2.70918,-4.1799 -3.78347,-6.4479 -0.68207,-1.6711 -1.32368,-3.3571 -1.97167,-5.0623 -1.70524,-5.4227 -2.38517,-11.44 -2.07824,-17.85159 0.85262,-17.87072 9.23805,-39.128 23.76654,-61.38796 15.43225,-23.65656 37.79837,-48.45089 65.49116,-71.45944 6.20699,-5.15319 12.62503,-10.24199 19.34361,-15.18714 8.30441,-6.10979 16.67281,-11.73661 25.04545,-16.99893 30.84745,-19.42077 61.61817,-33.01012 88.88467,-39.91282 -26.05577,8.50051 -55.32805,22.93138 -84.24861,42.57724 -1.04016,0.70255 -2.06758,1.42215 -3.09072,2.13152 -16.04613,11.11805 -30.58314,22.92586 -43.26998,34.85046 -40.82303,38.38457 -62.40046,78.15884 -52.59544,101.46069 0.69916,1.6029 1.53256,3.13335 2.50455,4.58279 10.53825,15.50047 36.65587,18.17979 69.75422,9.85831 2.25089,-0.56275 4.50178,-1.20004 6.82088,-1.86508 10.57238,-3.05237 21.797,-7.17473 33.3584,-12.25628 2.77949,-1.22777 5.58887,-2.48963 8.41953,-3.83676 0.28988,-0.13641 0.56273,-0.27283 0.85261,-0.4263 36.49173,-18.13162 64.53625,-38.99458 70.60684,-51.52967 1.33008,-2.72662 1.6498,-5.0513 0.74603,-6.87417 -4.33124,-8.78188 -34.63945,-2.849 -71.35287,13.0556 -2.95003,1.2789 -5.93417,2.59492 -8.95241,3.99661 2.45552,-2.27986 5.01123,-4.56828 7.6202,-6.82089 4.16075,-3.58438 8.46856,-7.08945 13.0556,-10.55104 7.179,-5.43627 14.43685,-10.35071 21.58173,-14.70754 33.45643,-25.24067 50.3701,-49.11722 46.8403,-57.97753 -0.66505,-1.66943 -2.08037,-2.81789 -4.26306,-3.51703 -6.97438,-2.21847 -19.70383,0.42929 -35.17019,6.7676 -12.75504,5.23164 -27.40504,12.9908 -42.25752,22.64748 0,0 -2.02495,1.3322 -2.02495,1.3322 2e-5,0 -0.37302,0.21314 -0.37302,0.21314 2e-5,2e-5 -7.14061,4.74265 -7.14061,4.74265 -2e-5,-10e-6 4.10319,-7.51363 4.10319,-7.51363 6.08765,-11.14364 16.0035,-22.77067 28.3493,-33.57154 9.05473,-7.89689 19.39903,-15.33762 30.53413,-21.84816 4.21191,-2.46573 8.4174,-4.75586 12.62929,-6.82088 4.31422,-2.10769 8.63055,-3.98089 12.84246,-5.64859 12.23682,-4.8393 23.91781,-7.7798 34.10442,-8.5794 -0.92767,0 -28.61574,0 -28.61574,0 10e-6,0 -96.45159,0 -96.45159,0 10e-6,0 -425.292951,0 -425.292951,0 0,0 -33.731409,0 -33.731409,0 z m 305.98071,0.3731 c -1.67109,25.50496 3.27403,62.86211 14.49439,104.3382 1.99509,7.38021 4.16712,14.89085 6.55444,22.48762 1.48356,4.69104 3.01399,9.30881 4.58278,13.85492 -0.9208,1.35396 -1.84804,2.69937 -2.7177,4.0499 -13.99985,21.45508 -22.1828,41.73104 -24.24611,59.36303 -5.91714,-19.81468 -10.37201,-41.5183 -12.89574,-64.53198 -0.71619,-6.5941 -1.27679,-13.11442 -1.65194,-19.55675 -2.76247,-46.79639 3.34649,-89.2172 15.87988,-120.00494 z M 87.306,818.50362 c 0.31934,-0.008 0.63414,0 0.95918,0 0,-2e-5 63.03991,0 63.03991,0 5.38851,-2e-5 9.55564,1.00991 12.52272,3.03742 2.95002,2.03946 4.05631,4.67743 3.35715,7.88665 2e-5,2e-5 -7.51363,33.94456 -7.51363,33.94456 0,3e-5 -22.22116,0 -22.22116,0 2e-5,3e-5 7.30048,-33.03866 7.30048,-33.03866 -2e-5,0 -55.63285,0 -55.63285,0 -2e-5,0 -20.08965,90.80305 -20.08965,90.80305 2e-5,0 -7.24719,32.87881 -7.24719,32.87881 0,3e-5 55.57957,0 55.57957,0 0,3e-5 0.0533,-0.21316 0.0533,-0.21316 0,2e-5 11.13722,-50.30404 11.13722,-50.30404 0,-2e-5 -26.1112,0 -26.1112,0 0,-2e-5 2.50454,-11.35038 2.50454,-11.35038 -1e-5,-2e-5 48.33238,0 48.33238,0 0,-2e-5 -13.85493,62.77348 -13.85493,62.77348 -0.18757,0.89352 -0.51582,1.70308 -0.95919,2.50453 -1.14249,2.08037 -3.13547,3.86234 -5.91498,5.32883 -3.85378,2.02923 -8.46643,3.03742 -13.85493,3.03742 0,2e-5 -62.98662,0 -62.98662,0 -5.38852,2e-5 -9.55564,-1.00821 -12.52272,-3.03742 -2.95001,-2.0292 -4.07335,-4.62073 -3.35715,-7.83336 10e-6,-2e-5 27.76313,-125.49366 27.76313,-125.49366 0.71618,-3.20921 2.95005,-5.84721 6.82089,-7.88665 0.13642,-0.0733 0.28989,-0.09 0.4263,-0.15986 3.53302,-1.7697 7.67937,-2.76443 12.46944,-2.87756 z m 98.79628,0 c -2e-5,-2e-5 79.34608,0 79.34608,0 5.32031,-2e-5 9.50235,1.00991 12.46943,3.03742 2.98417,2.03946 4.12666,4.67743 3.41045,7.88665 2e-5,2e-5 -14.81411,66.92995 -14.81411,66.92995 -0.69912,3.18874 -2.98627,5.7905 -6.87417,7.83336 -3.8879,2.04966 -8.4643,3.09071 -13.80164,3.09071 -2e-5,0 -57.6578,0 -57.6578,0 0,0 -11.13723,50.25075 -11.13723,50.25075 0,2e-5 -1.8118,8.25967 -1.8118,8.25967 1e-5,2e-5 -21.74158,0 -21.74158,0 0,2e-5 1.65193,-7.46034 1.65193,-7.46034 0,2e-5 30.96044,-139.82817 30.96044,-139.82817 z m 109.61377,0 c -10e-6,-2e-5 21.74158,0 21.74158,0 2e-5,-2e-5 -24.61914,111.21241 -24.61914,111.21241 2e-5,2e-5 -5.3821,24.29942 -5.3821,24.29942 0,3e-5 52.00926,0 52.00926,0 0.54568,3.98854 1.18299,7.90582 1.86508,11.77668 -2e-5,2e-5 -78.22705,0 -78.22705,0 2e-5,2e-5 6.18143,-27.92301 6.18143,-27.92301 2e-5,0 26.43094,-119.3655 26.43094,-119.3655 z m -90.48332,11.82997 c 2e-5,0 -14.4411,65.11814 -14.4411,65.11814 0,-2e-5 54.19408,0 54.19408,0 -1e-5,-2e-5 14.3878,-65.11814 14.3878,-65.11814 2e-5,0 -54.14078,0 -54.14078,0 z m -45.5614,145.68987 c 0.21267,-0.007 0.42524,0 0.63947,0 2.52373,2e-5 4.72772,0.44336 6.50115,1.27891 1.8928,0.88671 3.24632,2.204 3.99662,3.94333 0.73325,1.68819 0.92508,3.60441 0.53287,5.70184 0,10e-6 -0.15985,0.79933 -0.15985,0.79933 1e-5,-3e-5 -6.23472,0 -6.23472,0 -2e-5,-3e-5 0.0533,-0.74605 0.0533,-0.74605 0.16118,-1.46543 -0.0205,-2.61779 -0.58618,-3.41043 -0.0737,-0.0994 -0.18053,-0.23063 -0.26644,-0.31973 -0.14068,-0.14363 -0.35198,-0.3078 -0.53287,-0.42631 -0.87238,-0.5495 -2.23703,-0.85262 -3.99662,-0.85262 -2.33615,2e-5 -4.08187,0.40712 -5.27552,1.22564 -1.15956,0.80146 -1.8928,1.6967 -2.13153,2.77098 -0.23875,1.09134 0.15346,1.66472 0.42631,1.97166 0.008,0.008 0.0429,0.0438 0.0533,0.0533 0.34552,0.29445 1.54536,0.98476 5.27553,1.86508 3.37632,0.81851 5.61232,1.55389 6.87418,2.18482 1.90987,0.97196 3.24419,2.2317 3.94334,3.7835 0.69911,1.5347 0.8526,3.3315 0.4263,5.27549 -0.4263,1.8928 -1.39189,3.6385 -2.82428,5.2755 -1.41532,1.637 -3.21647,2.933 -5.38211,3.8368 -2.1486,0.8867 -4.50604,1.3854 -6.92746,1.3854 -3.0694,0 -5.53343,-0.4646 -7.46034,-1.3854 -2.01217,-0.955 -3.46374,-2.4619 -4.31634,-4.423 -0.81851,-1.9098 -0.9933,-4.0776 -0.53289,-6.44779 0,0 0.15987,-0.7461 0.15987,-0.7461 0,0 6.12814,0 6.12814,0 0,0 -0.0533,0.7461 -0.0533,0.7461 -0.15348,1.41529 -0.002,2.55779 0.37302,3.41039 0.35809,0.8185 1.04019,1.4963 2.13152,2.025 1.15954,0.5627 2.60898,0.8526 4.26305,0.8526 1.48355,0 2.83921,-0.2494 4.04991,-0.6928 1.19365,-0.4263 2.14218,-0.989 2.82427,-1.7052 0.66502,-0.7162 1.05511,-1.4729 1.22563,-2.2914 0.17052,-0.7332 0.13002,-1.35349 -0.15987,-1.86509 -0.32399,-0.5456 -0.96558,-1.0295 -1.97165,-1.4387 0,-10e-5 -5.22226,-1.5454 -5.22226,-1.5454 -2.91592,-0.7332 -4.87905,-1.43238 -6.02155,-2.13152 -1.55177,-0.92081 -2.67081,-2.10169 -3.25059,-3.51702 -0.57977,-1.39831 -0.64158,-2.94791 -0.26643,-4.63608 0.3922,-1.80753 1.26399,-3.52767 2.61111,-5.06237 1.3642,-1.55177 3.12482,-2.76885 5.22225,-3.57031 1.85443,-0.6954 3.80596,-1.10321 5.86169,-1.17234 z m 55.9526,0.10658 c 0.33725,-0.0263 0.65436,0 1.01247,0 1e-5,0 3.83675,0.4263 3.83675,0.4263 -1e-5,0 1.27891,0.10658 1.27891,0.10658 2e-5,10e-6 -1.86508,4.74264 -1.86508,4.74264 -1e-5,2e-5 -0.37302,0.74604 -0.37302,0.74604 0,-2e-5 -2.93084,-0.26644 -2.93084,-0.26644 -0.86541,0 -1.50113,0.13352 -1.91838,0.4263 -0.0277,0.0209 -0.081,0.0842 -0.10658,0.10658 -0.0559,0.049 -0.14991,0.13458 -0.21315,0.21316 -0.25659,0.33651 -0.56912,0.93786 -0.79932,2.02495 -2e-5,0 -0.11084,0.4604 -0.21315,0.85261 1.34713,10e-6 4.58277,0 4.58277,0 0,10e-6 -1.17233,5.27552 -1.17233,5.27552 0,-10e-6 -3.35076,0 -4.4762,0 -0.34106,1.53469 -4.5295,20.30282 -4.5295,20.30282 -2e-5,-10e-5 -6.18143,0 -6.18143,0 -2e-5,-10e-5 4.01793,-18.03487 4.5295,-20.30282 -1.04021,-10e-6 -3.57031,0 -3.57031,0 0,-10e-6 1.17234,-5.27552 1.17234,-5.27552 1e-5,10e-6 2.54504,0 3.51701,0 0.17052,-0.73324 0.4263,-1.65194 0.4263,-1.65194 0.37516,-1.70522 0.76735,-2.93085 1.27891,-3.78346 0.69917,-1.17659 1.68606,-2.16137 2.93087,-2.87756 1.02527,-0.59575 2.32198,-0.95194 3.78346,-1.06576 z m 14.76082,0.26644 c -2e-5,-10e-6 -1.6157,7.27064 -2.02495,9.11228 1.19364,10e-6 3.99661,0 3.99661,0 0,10e-6 -1.17233,5.27552 -1.17233,5.27552 -2e-5,-10e-6 -2.93939,0 -3.99662,0 -0.32401,1.46647 -2.87756,12.84242 -2.87756,12.84242 2e-5,0 -0.21316,1.3663 -0.21316,1.7585 2.8e-4,0.013 -0.001,0.044 0,0.053 8.4e-4,0 -0.001,0.05 0,0.053 0.002,0 0.0512,0 0.0533,0 0,0 0.63947,0.053 0.63947,0.053 0,0 2.93085,-0.2131 2.93085,-0.2131 0,0 -0.31973,4.7426 -0.31973,4.7426 2e-5,0 0.0533,0.8526 0.0533,0.8526 -2e-5,0 -4.20978,0.4796 -4.20978,0.4796 -1.6711,0 -2.89675,-0.2728 -3.78346,-0.8526 -0.93785,-0.6139 -1.48354,-1.4281 -1.70522,-2.4512 -0.0341,-0.1876 -0.10658,-0.4604 -0.10658,-0.8526 0,-0.7674 0.14495,-2.0655 0.63946,-4.3164 2e-5,0 2.24023,-10.0352 2.7177,-12.14968 -0.80143,-10e-6 -2.93085,0 -2.93085,0 2e-5,-10e-6 1.17233,-5.27552 1.17233,-5.27552 -2e-5,1e-5 2.07824,0 2.93086,0 0.27281,-1.22775 1.22562,-5.4354 1.22562,-5.4354 0,2e-5 4.95581,-2.61112 4.95581,-2.61112 -1e-5,2e-5 2.02495,-1.06576 2.02495,-1.06576 z m -196.36693,0.21315 c 2e-5,0 23.97968,0 23.97968,0 0,0 -1.3322,5.96828 -1.3322,5.96828 0,2e-5 -15.99711,0 -17.53181,0 -0.27282,1.21073 -1.36631,6.11322 -1.75851,7.88665 2.2168,0 15.18713,0 15.18713,0 0,0 -1.33221,5.96825 -1.33221,5.96825 -1e-5,0 -13.65242,0 -15.18713,0 -0.32399,1.4836 -3.25058,14.65429 -3.25058,14.65429 2e-5,-10e-5 -6.44786,0 -6.44786,0 10e-6,-10e-5 7.67349,-34.47747 7.67349,-34.47747 z m 32.13276,8.41954 c 0.24067,-0.0296 0.50358,0 0.74604,0 1.5347,0 2.95217,0.4668 4.31635,1.43877 0,2e-5 0.8526,0.58617 0.8526,0.58617 0,0 -3.30386,5.4354 -3.30386,5.4354 0,-2e-5 -0.90589,-0.63946 -0.90589,-0.63946 -0.66504,-0.42629 -1.38123,-0.63946 -2.13153,-0.63946 -0.64799,2e-5 -1.25121,0.2302 -1.86509,0.63946 -0.64797,0.4263 -1.1894,0.99115 -1.59864,1.75851 -0.7162,1.31304 -1.24056,2.78375 -1.59865,4.36965 0,0 -2.87756,13.10889 -2.87756,13.10889 0,-10e-5 -6.18143,0 -6.18143,0 0,-10e-5 5.70184,-25.57834 5.70184,-25.57834 2e-5,10e-6 5.75512,0 5.75512,0 0,10e-6 -0.19824,0.77588 -0.26645,1.06576 0.27284,-0.20461 0.56059,-0.48599 0.79933,-0.63946 0.82597,-0.4929 1.69837,-0.80035 2.55782,-0.90589 z m 18.33114,0 c 0.37219,-0.0282 0.73859,0 1.11906,0 3.47866,0 6.11108,1.21922 7.833349,3.62359 1.07428,1.55174 1.65195,3.47012 1.65195,5.75512 0,1.26183 -0.15561,2.61963 -0.47959,4.10323 0,0 -0.47961,1.86499 -0.47961,1.86499 0,0 -15.632609,0 -17.371939,0 -0.0341,0.3581 -0.0533,0.7418 -0.0533,1.0658 0,1.3301 0.27283,2.3767 0.85261,3.144 0.2755,0.3751 0.5949,0.713 0.95919,0.9592 0.68678,0.4479 1.57334,0.6927 2.61112,0.6927 1.26188,0 2.37025,-0.3474 3.41044,-1.0124 0.98905,-0.631 1.93544,-1.6392 2.77099,-3.0375 0,0 6.607729,0 6.607729,0 0,0 -0.58616,1.279 -0.58616,1.279 -1.261869,2.5578 -3.022509,4.5529 -5.222249,5.9682 -2.19973,1.4154 -4.82791,2.1848 -7.72679,2.1848 -3.76854,0 -6.57363,-1.2192 -8.31296,-3.6235 -1.72226,-2.3533 -2.09315,-5.606 -1.17233,-9.69849 0.92083,-4.16073 2.7582,-7.48591 5.43539,-9.80502 2.39958,-2.08062 5.12245,-3.23468 8.15309,-3.46372 z m 27.76315,0 c 0.37218,-0.0282 0.73857,0 1.11904,0 3.47867,0 6.1111,1.21922 7.83337,3.62359 1.07429,1.55174 1.65193,3.47012 1.65193,5.75512 0,1.24483 -0.1556,2.58343 -0.4796,4.04993 0,0 -0.47958,1.91829 -0.47958,1.91829 0,0 -15.63263,0 -17.37195,0 -0.0171,0.2387 -0.0362,0.4541 -0.0533,0.6928 -0.0128,0.09 0.006,0.2254 0,0.3197 -5e-4,0.015 0,0.038 0,0.053 0,0.2558 0.0362,0.5073 0.0533,0.7461 0.0852,0.9719 0.33892,1.784 0.79932,2.3979 0.0877,0.1194 0.17008,0.2667 0.26644,0.373 0.78101,0.8356 1.8864,1.279 3.30387,1.279 1.26188,-1e-4 2.38731,-0.3475 3.41045,-1.0125 0.98904,-0.631 1.93542,-1.6392 2.77098,-3.0374 0,-10e-5 6.66102,0 6.66102,0 -1e-5,-10e-5 -0.63946,1.2789 -0.63946,1.2789 -1.26186,2.5578 -3.0225,4.5529 -5.22224,5.9682 -2.19974,1.4154 -4.82791,2.1848 -7.72678,2.1848 -3.76853,0 -6.57363,-1.2192 -8.312963,-3.6235 -1.125448,-1.5348 -1.651938,-3.4893 -1.651938,-5.8084 0,-0.3582 0.0192,-0.744 0.0533,-1.1191 0.0682,-0.8867 0.20463,-1.78199 0.42631,-2.77099 0.920838,-4.14367 2.704911,-7.4859 5.382101,-9.80501 2.39957,-2.08062 5.17575,-3.23468 8.20639,-3.46372 z m 75.61591,0 c 0.38084,-0.0293 0.73112,0 1.11905,0 3.54687,0 6.2731,1.20004 8.04652,3.5703 1.7564,2.37023 2.18269,5.56754 1.27891,9.59184 -0.69913,3.13759 -1.70947,5.67199 -3.0907,7.51369 -1.38126,1.8416 -3.14188,3.3465 -5.22226,4.3696 -2.06328,1.0231 -4.24813,1.5453 -6.44786,1.5453 -3.61507,0 -6.30719,-1.2362 -8.04652,-3.6235 -1.12546,-1.5177 -1.70522,-3.4723 -1.70522,-5.8085 2e-5,-1.2618 0.13856,-2.60259 0.4796,-4.10309 1.02315,-4.57005 3.11202,-8.05082 6.18143,-10.28466 2.25301,-1.62634 4.74114,-2.56606 7.40705,-2.77098 z m 93.62733,0 c 0.4496,-0.0277 0.86593,0 1.3322,0 2.14859,0 3.83675,0.2174 5.11567,0.74602 1.36418,0.54569 2.33189,1.31729 2.87756,2.23811 0.52864,0.86963 0.79933,1.93756 0.79933,3.25057 1e-5,2e-5 -0.63948,3.89004 -0.63948,3.89004 3e-5,0 -1.17232,5.27549 -1.17232,5.27549 -1.00611,4.5018 -1.22776,6.19 -1.27893,6.8209 -0.0512,0.8526 0.0277,1.6839 0.26645,2.4513 2e-5,0 0.4263,1.3855 0.4263,1.3855 2e-5,-10e-5 -6.288,0 -6.288,0 -2e-5,-10e-5 -0.26645,-0.7994 -0.26645,-0.7994 -0.10231,-0.3751 -0.0725,-0.8526 -0.10657,-1.2789 -1.19365,0.7333 -2.38944,1.3834 -3.46373,1.7585 -1.58584,0.5457 -3.23139,0.8526 -4.90251,0.8526 -2.89886,0 -5.04532,-0.7545 -6.3413,-2.2381 -0.98902,-1.0913 -1.43877,-2.4256 -1.43877,-3.9433 -2e-5,-0.5798 0.0767,-1.1809 0.21314,-1.8118 0.28988,-1.2959 0.81638,-2.496 1.65194,-3.5703 0.81851,-1.05729 1.78623,-1.92689 2.87756,-2.55779 1.05726,-0.6309 2.23598,-1.0786 3.46374,-1.3855 -2e-5,0 3.78346,-0.6395 3.78346,-0.6395 2.91594,-0.341 5.09221,-0.76518 6.66102,-1.22559 0.0341,-0.17052 0.10657,-0.37302 0.10657,-0.37302 0.24726,-1.09718 0.21632,-1.92188 -0.0533,-2.34468 -0.0198,-0.0273 -0.0842,-0.0831 -0.10657,-0.10658 -0.0576,-0.0614 -0.14603,-0.15779 -0.21316,-0.21315 -0.64135,-0.50753 -1.73506,-0.74603 -3.19728,-0.74603 -1.65407,0 -2.87756,0.27071 -3.73018,0.79931 -0.83555,0.52863 -1.60931,1.49634 -2.29139,2.87756 -10e-6,-10e-6 -6.44787,0 -6.44787,0 2e-5,-10e-6 0.58617,-1.27891 0.58617,-1.27891 0.76733,-1.77345 1.68178,-3.24418 2.82428,-4.36963 1.1425,-1.12547 2.68572,-1.99724 4.4762,-2.61111 1.37216,-0.45297 2.8705,-0.75354 4.47621,-0.85261 z m 27.01711,0 c 0.24046,-0.0296 0.50356,0 0.74603,0 1.55173,0 3.00545,0.4668 4.36963,1.43877 2e-5,2e-5 0.79932,0.58617 0.79932,0.58617 10e-6,0 -3.30386,5.4354 -3.30386,5.4354 1e-5,-2e-5 -0.9059,-0.63946 -0.9059,-0.63946 -0.66503,-0.42629 -1.34501,-0.63946 -2.07824,-0.63946 -0.64801,2e-5 -1.28744,0.2302 -1.91839,0.63946 -0.64797,0.4263 -1.11904,0.99115 -1.54534,1.75851 -0.69916,1.31304 -1.24056,2.78375 -1.59865,4.36965 -2e-5,0 -2.93085,13.10889 -2.93085,13.10889 2e-5,-10e-5 -6.18142,0 -6.18142,0 0,-10e-5 5.70182,-25.57834 5.70182,-25.57834 -1e-5,10e-6 5.75512,0 5.75512,0 0,10e-6 -0.14494,0.77588 -0.21314,1.06576 0.27282,-0.20461 0.54353,-0.48599 0.79932,-0.63946 0.81263,-0.4929 1.64571,-0.80035 2.50455,-0.90589 z m 18.27783,0 c 0.37185,-0.0282 0.73859,0 1.11906,0 3.47866,0 6.12813,1.21922 7.83337,3.62359 1.09135,1.55174 1.65193,3.47012 1.65193,5.75512 -2e-5,1.26183 -0.2089,2.61963 -0.53289,4.10323 0,0 -0.4263,1.86499 -0.4263,1.86499 -1e-5,0 -15.64968,0 -17.37194,0 -0.0341,0.3581 -0.10659,0.7418 -0.10659,1.0658 0,1.3301 0.28989,2.3767 0.85262,3.144 0.0877,0.1194 0.223,0.2667 0.31972,0.373 0.056,0.06 0.15412,0.1578 0.21316,0.2132 0.76235,0.693 1.79981,1.0657 3.0907,1.0657 1.26189,0 2.37027,-0.3474 3.41045,-1.0124 0.98905,-0.631 1.91839,-1.6392 2.77099,-3.0375 -2e-5,0 6.66102,0 6.66102,0 0,0 -0.63946,1.279 -0.63946,1.279 -1.26187,2.5578 -3.03955,4.5529 -5.22224,5.9682 -2.21677,1.4154 -4.81085,2.1848 -7.72679,2.1848 -3.76851,0 -6.52034,-1.2192 -8.25966,-3.6235 -1.7223,-2.3533 -2.1294,-5.606 -1.22563,-9.69849 0.92081,-4.16073 2.70491,-7.48591 5.38211,-9.80502 2.41475,-2.08062 5.17852,-3.23468 8.20637,-3.46372 z m -93.3076,0.47959 c 2e-5,10e-6 6.34131,0 6.34131,0 2e-5,10e-6 0.78226,15.17864 0.79931,15.40024 0.25578,-0.5435 0.45424,-1.00089 0.47961,-1.06569 1e-5,0 6.98074,-14.33455 6.98074,-14.33455 2e-5,10e-6 5.80841,0 5.80841,0 -1e-5,10e-6 0.53288,14.99524 0.53288,15.08054 0.17055,-0.3069 7.93994,-15.08054 7.93994,-15.08054 -2e-5,10e-6 6.28801,0 6.28801,0 -1e-5,10e-6 -13.85493,25.57834 -13.85493,25.57834 2e-5,-10e-5 -5.70183,0 -5.70183,0 0,-10e-5 -0.55206,-13.86989 -0.58617,-14.65429 -2.35323,4.82579 -7.14063,14.65429 -7.14063,14.65429 0,-10e-5 -5.86168,0 -5.86168,0 0,-10e-5 -2.02497,-25.57834 -2.02497,-25.57834 z M 84.5883,990.35798 c -1.46893,0.062 -2.80295,0.59149 -4.04989,1.59864 -0.98902,0.78441 -1.65621,1.86084 -2.18483,3.03743 0,2e-5 10.49777,0 10.49777,0 0.0171,-0.18756 0.0533,-0.41564 0.0533,-0.58617 -2e-5,-0.97195 -0.17266,-1.72653 -0.47959,-2.2381 -0.75028,-1.22777 -1.86295,-1.8118 -3.51702,-1.8118 -0.0991,0 -0.2218,-0.004 -0.31973,0 z m 27.76313,0 c -1.46892,0.062 -2.80295,0.59149 -4.0499,1.59864 -0.98904,0.78441 -1.63913,1.86084 -2.1848,3.03743 0,2e-5 10.49776,0 10.49776,0 0.017,-0.18756 0.0533,-0.41564 0.0533,-0.58617 -1e-5,-0.97195 -0.1556,-1.72653 -0.4796,-2.2381 -0.14894,-0.24939 -0.35043,-0.49739 -0.53288,-0.69274 -0.71199,-0.73572 -1.6919,-1.11906 -2.98413,-1.11906 -0.0991,0 -0.2218,-0.004 -0.31974,0 z m 214.75136,0 c -1.51056,0.0465 -2.92125,0.55794 -4.20977,1.59864 -0.97198,0.78441 -1.63915,1.86084 -2.18482,3.03743 2e-5,2e-5 10.44449,0 10.44449,0 0.017,-0.18756 0.0533,-0.41564 0.0533,-0.58617 -10e-6,-0.97195 -0.1556,-1.72653 -0.4796,-2.2381 -0.73324,-1.21072 -1.86296,-1.79474 -3.51702,-1.8118 -0.049,5.3e-4 -0.0578,-10e-4 -0.10657,0 z m -139.61502,0.10658 c -1.40963,0.16739 -2.72036,0.81051 -3.94333,1.91837 -1.46648,1.33009 -2.53012,3.41898 -3.14399,6.18138 -0.25579,1.1596 -0.37303,2.15079 -0.37303,3.03749 2e-5,1.2107 0.23233,2.1613 0.69275,2.8775 0.12257,0.1839 0.28516,0.3781 0.42631,0.5329 0.75804,0.8049 1.81659,1.2256 3.144,1.2256 1.72226,0 3.23992,-0.6415 4.68935,-1.9716 1.46652,-1.3472 2.51307,-3.4574 3.144,-6.28799 0.5798,-2.592 0.49878,-4.52738 -0.31972,-5.75514 -0.7844,-1.19366 -1.93116,-1.75851 -3.51701,-1.75851 -0.26911,0 -0.5383,-0.031 -0.79933,0 z m 96.29173,9.32545 c -1.44941,0.39219 -3.07367,0.72259 -5.22224,1.01249 -1.60289,0.2387 -2.74541,0.4902 -3.41045,0.746 -0.57976,0.2387 -1.04658,0.5691 -1.43878,1.0125 -0.37516,0.4262 -0.62666,0.8739 -0.74602,1.3855 -0.0341,0.2046 -0.0533,0.4156 -0.0533,0.5861 0,0.014 -3.1e-4,0.04 0,0.053 0.002,0.041 -0.004,0.1207 0,0.1599 0.0107,0.077 0.0322,0.1944 0.0533,0.2664 0.008,0.024 0.0445,0.083 0.0533,0.1066 0.0187,0.046 0.0301,0.1161 0.0533,0.1599 0.0243,0.043 0.0779,0.1185 0.10658,0.1598 0.0446,0.061 0.1055,0.1556 0.15987,0.2132 0.42631,0.4774 1.27678,0.6927 2.50454,0.6927 1.34715,0 2.6431,-0.2558 3.83675,-0.8526 1.17662,-0.5798 2.12513,-1.4452 2.82427,-2.4512 0.51159,-0.7162 0.92083,-1.8182 1.27892,-3.25059 z" />
    <path
       inkscape:connector-curvature="0"
       id="path2"
       style="fill:none;stroke:#bd0000;stroke-width:8.52610779;stroke-linecap:butt;stroke-linejoin:miter;stroke-miterlimit:4"
       d="m 370.75317,1016.885 c 0.69221,1.7797 1.38445,3.5564 2.1055,5.2941 1.11046,2.3608 2.39396,4.6206 3.93704,6.7305 8.33557,11.3309 22.29546,17.5349 40.01931,19.0795 0,0 19.06506,0 19.06506,0 6.02811,-0.4702 12.34467,-1.347 18.89198,-2.6276 11.29193,-2.2079 23.26167,-5.5998 35.69288,-10.1325 9.41715,-3.4337 19.0939,-7.4962 28.91485,-12.2177 21.38688,-10.2522 43.48041,-23.47509 65.15575,-39.43238 7.13857,-5.25082 13.98872,-10.63863 20.56487,-16.1173 6.02813,-5.01576 11.8111,-10.10942 17.33446,-15.25927 15.41645,-14.85689 27.0545,-29.94597 33.64507,-43.1949 6.86452,-13.7969 8.23461,-25.59358 2.61028,-33.02493 -3.44673,-4.56146 -9.21527,-7.00589 -16.64228,-7.5813 33.45753,-25.10471 52.95528,-55.55833 45.96096,-74.7589 -2.22096,-6.1277 -7.10981,-10.6992 -14.11858,-13.2273 -3.11497,-1.1205 -6.61943,-1.8301 -10.4411,-2.1531 0,0 -10.29683,0 -10.29683,0 -14.37808,1.0369 -35.28664,6.1853 -53.0249,14.8785" />
  </g>
</svg>
