<svg xmlns="http://www.w3.org/2000/svg" xmlns:xlink="http://www.w3.org/1999/xlink" version="1.1" x="0px" y="0px" viewBox="0 0 100 125" enable-background="new 0 0 100 100" xml:space="preserve"><g><polygon points="76.324,26.71 81.404,23.561 84.782,18.115 82.707,16.041 77.262,19.417 74.112,24.496 62.114,36.494    64.302,38.733  "/><path d="M51.795,46.813l-5.894,5.894c-3.897-2.478-9.932-1.307-12.371,1.135L16.56,70.812c-2.717,2.715-1.909,7.931,1.807,11.646   c3.715,3.714,8.927,4.521,11.643,1.804l16.971-16.971c2.441-2.439,3.613-8.473,1.136-12.371l5.92-5.92L51.795,46.813z    M36.61,58.387L20.957,74.04c-0.554,0.556-1.453,0.556-2.008,0c-0.554-0.554-0.554-1.452,0.001-2.007l15.654-15.652   c0.553-0.555,1.451-0.555,2.006,0C37.163,56.936,37.163,57.834,36.61,58.387z"/><path d="M83.735,62.098L62.599,40.437l-2.188-2.239l-7.62-7.811c1.587-4.283,0.671-9.283-2.77-12.725   c-4.711-4.711-12.348-4.711-17.06,0c-1.428,1.43-2.417,3.129-2.979,4.932h9.434c0.436,0,0.872,0.166,1.204,0.499   c0.333,0.333,0.499,0.769,0.499,1.204v3.906c0,0.435-0.166,0.871-0.499,1.203c-0.332,0.332-0.769,0.498-1.204,0.498h-9.394   c0.568,1.762,1.541,3.419,2.938,4.816c3.441,3.441,8.443,4.357,12.727,2.77l7.808,7.621l2.241,2.186l21.66,21.138   c1.751,1.749,4.588,1.749,6.338,0C85.486,66.684,85.486,63.848,83.735,62.098z M80.64,67.232c-1.059,0-1.917-0.858-1.917-1.916   c0-1.057,0.858-1.916,1.917-1.916c1.057,0,1.915,0.859,1.915,1.916C82.555,66.374,81.696,67.232,80.64,67.232z"/></g><text x="0" y="115" fill="#000000" font-size="5px" font-weight="bold" font-family="'Helvetica Neue', Helvetica, Arial-Unicode, Arial, Sans-serif">Created by Fabiano Coelho</text><text x="0" y="120" fill="#000000" font-size="5px" font-weight="bold" font-family="'Helvetica Neue', Helvetica, Arial-Unicode, Arial, Sans-serif">from the Noun Project</text></svg>