<?xml version="1.0" encoding="UTF-8" standalone="no"?>
<!-- Generator: Adobe Illustrator 14.0.0, SVG Export Plug-In . SVG Version: 6.00 Build 43363)  -->

<svg
   xmlns:dc="http://purl.org/dc/elements/1.1/"
   xmlns:cc="http://creativecommons.org/ns#"
   xmlns:rdf="http://www.w3.org/1999/02/22-rdf-syntax-ns#"
   xmlns:svg="http://www.w3.org/2000/svg"
   xmlns="http://www.w3.org/2000/svg"
   xmlns:sodipodi="http://sodipodi.sourceforge.net/DTD/sodipodi-0.dtd"
   xmlns:inkscape="http://www.inkscape.org/namespaces/inkscape"
   version="1.1"
   id="Layer_1"
   x="0px"
   y="0px"
   width="134"
   height="175"
   viewBox="0 0 134 175"
   enable-background="new 0 0 612 792"
   xml:space="preserve"
   inkscape:version="0.91 r13725"
   sodipodi:docname="uca.svg"><metadata
     id="metadata71"><rdf:RDF><cc:Work
         rdf:about=""><dc:format>image/svg+xml</dc:format><dc:type
           rdf:resource="http://purl.org/dc/dcmitype/StillImage" /><dc:title></dc:title></cc:Work></rdf:RDF></metadata><defs
     id="defs69" /><sodipodi:namedview
     pagecolor="#ffffff"
     bordercolor="#666666"
     borderopacity="1"
     objecttolerance="10"
     gridtolerance="10"
     guidetolerance="10"
     inkscape:pageopacity="0"
     inkscape:pageshadow="2"
     inkscape:window-width="1920"
     inkscape:window-height="992"
     id="namedview67"
     showgrid="false"
     inkscape:zoom="0.84281414"
     inkscape:cx="230.47777"
     inkscape:cy="180.58668"
     inkscape:window-x="0"
     inkscape:window-y="32"
     inkscape:window-maximized="1"
     inkscape:current-layer="g3" /><g
     id="g3"
     transform="translate(-141.03611,-410.83999)"><path
       d="m 153.7389,569.3856 -1.549,0 0,4.813 0,0 c -0.735,-1.141 -2.04,-1.467 -3.019,-1.467 -2.855,0 -4.242,2.201 -4.242,4.813 0,2.609 1.387,4.895 4.242,4.895 1.305,0 2.528,-0.408 3.019,-1.469 l 0,0 0,1.305 1.549,0 0,-12.89 0,0 z m -7.178,8.24 c 0,-1.795 0.653,-3.59 2.774,-3.59 2.121,0 2.937,1.713 2.937,3.59 0,1.713 -0.816,3.508 -2.855,3.508 -1.959,0 -2.856,-1.713 -2.856,-3.508 l 0,0 z"
       id="path7"
       inkscape:connector-curvature="0"
       style="clip-rule:evenodd;fill:#77787b;fill-rule:evenodd" /><path
       d="m 162.8769,579.2566 c -0.245,1.225 -1.142,1.877 -2.366,1.877 -2.039,0 -3.018,-1.469 -2.937,-3.1 l 7.016,0 c 0.082,-2.203 -0.979,-5.303 -4.242,-5.303 -2.529,0 -4.405,2.039 -4.405,4.813 0.081,2.855 1.55,4.895 4.486,4.895 2.121,0 3.589,-1.061 3.998,-3.182 l -1.55,0 0,0 z m -5.303,-2.529 c 0.082,-1.469 1.061,-2.691 2.692,-2.691 1.468,0 2.61,1.223 2.692,2.691 l -5.384,0 0,0 z"
       id="path9"
       inkscape:connector-curvature="0"
       style="clip-rule:evenodd;fill:#77787b;fill-rule:evenodd" /><path
       d="m 182.8629,573.2196 c -0.408,-2.691 -2.61,-4.16 -5.302,-4.16 -3.916,0 -6.038,3.018 -6.038,6.771 0,3.752 1.958,6.689 5.956,6.689 3.181,0 5.221,-1.959 5.547,-5.141 l -1.713,0 c -0.164,2.121 -1.468,3.754 -3.752,3.754 -3.019,0 -4.324,-2.447 -4.324,-5.385 0,-2.691 1.305,-5.221 4.324,-5.221 1.794,0 3.263,0.896 3.589,2.691 l 1.713,0 0,0.002 z"
       id="path11"
       inkscape:connector-curvature="0"
       style="clip-rule:evenodd;fill:#77787b;fill-rule:evenodd" /><path
       d="m 187.8389,571.6706 1.142,0 2.366,-2.611 -1.958,0 -1.55,2.611 0,0 z m 3.182,7.342 c 0,0.814 -0.815,2.121 -2.855,2.121 -0.979,0 -1.795,-0.408 -1.795,-1.387 0,-1.143 0.816,-1.469 1.876,-1.713 0.979,-0.164 2.203,-0.164 2.773,-0.572 l 0,1.551 0.001,0 z m 2.447,2.039 c -0.163,0 -0.326,0.082 -0.408,0.082 -0.489,0 -0.489,-0.328 -0.489,-1.061 l 0,-4.814 c 0,-2.201 -1.876,-2.527 -3.508,-2.527 -2.121,0 -3.834,0.814 -3.998,3.1 l 1.55,0 c 0.082,-1.387 1.061,-1.795 2.366,-1.795 0.979,0 2.04,0.244 2.04,1.551 0,1.141 -1.468,1.059 -3.1,1.385 -1.631,0.328 -3.181,0.734 -3.181,2.855 0,1.877 1.387,2.611 3.1,2.611 1.306,0 2.448,-0.408 3.263,-1.387 0,0.979 0.489,1.387 1.305,1.387 0.49,0 0.816,-0.082 1.061,-0.244 l 0,-1.143 -0.001,0 z"
       id="path13"
       inkscape:connector-curvature="0"
       style="clip-rule:evenodd;fill:#77787b;fill-rule:evenodd" /><path
       d="m 203.5839,569.3856 -1.55,0 0,4.813 0,0 c -0.653,-1.141 -2.04,-1.467 -3.019,-1.467 -2.855,0 -4.242,2.201 -4.242,4.813 0,2.609 1.387,4.895 4.323,4.895 1.224,0 2.448,-0.408 2.937,-1.469 l 0,0 0,1.305 1.55,0 0,-12.89 0.001,0 z m -7.179,8.24 c 0,-1.795 0.734,-3.59 2.774,-3.59 2.121,0 2.937,1.713 2.937,3.59 0,1.713 -0.816,3.508 -2.855,3.508 -1.959,0 -2.856,-1.713 -2.856,-3.508 l 0,0 z"
       id="path15"
       inkscape:connector-curvature="0"
       style="clip-rule:evenodd;fill:#77787b;fill-rule:evenodd" /><path
       d="m 206.4389,582.2746 1.469,0 0,-9.381 -1.469,0 0,9.381 0,0 z m 0,-11.012 1.469,0 0,-1.877 -1.469,0 0,1.877 0,0 z"
       id="path17"
       inkscape:connector-curvature="0"
       style="clip-rule:evenodd;fill:#77787b;fill-rule:evenodd" /><polygon
       points="319.817,481.422 319.817,480.035 313.862,480.035 319.572,473.102 319.572,472.041 312.313,472.041 312.313,473.428 317.614,473.428 311.986,480.199 311.986,481.422 311.986,481.422 "
       id="polygon19"
       style="clip-rule:evenodd;fill:#77787b;fill-rule:evenodd"
       transform="translate(-102.0391,100.8526)" /><path
       d="m 155.9419,550.0516 -1.713,0 0,8.158 c 0,2.283 -1.224,3.508 -3.345,3.508 -2.284,0 -3.589,-1.225 -3.589,-3.508 l 0,-8.158 -1.713,0 0,8.158 c 0,3.426 1.958,4.977 5.303,4.977 3.182,0 5.058,-1.713 5.058,-4.977 l 0,-8.158 -0.001,0 z"
       id="path21"
       inkscape:connector-curvature="0"
       style="clip-rule:evenodd;fill:#77787b;fill-rule:evenodd" /><path
       d="m 158.7979,562.8606 1.549,0 0,-5.221 c 0,-1.715 0.897,-2.938 2.774,-2.938 1.142,0 1.876,0.734 1.876,1.877 l 0,6.281 1.55,0 0,-6.119 c 0,-1.957 -0.816,-3.344 -3.263,-3.344 -1.305,0 -2.366,0.488 -3.018,1.631 l 0,0 0,-1.469 -1.468,0 0,9.302 0,0 z"
       id="path23"
       inkscape:connector-curvature="0"
       style="clip-rule:evenodd;fill:#77787b;fill-rule:evenodd" /><path
       d="m 169.2389,562.8606 1.55,0 0,-9.301 -1.55,0 0,9.301 0,0 z m 0,-10.932 1.55,0 0,-1.877 -1.55,0 0,1.877 0,0 z"
       id="path25"
       inkscape:connector-curvature="0"
       style="clip-rule:evenodd;fill:#77787b;fill-rule:evenodd" /><polygon
       points="283.188,452.707 281.557,452.707 279.028,460.457 279.028,460.457 276.418,452.707 274.705,452.707 278.131,462.008 279.763,462.008 283.188,452.707 "
       id="polygon27"
       style="clip-rule:evenodd;fill:#77787b;fill-rule:evenodd"
       transform="translate(-102.0391,100.8526)" /><path
       d="m 189.3079,559.9226 c -0.245,1.225 -1.142,1.795 -2.366,1.795 -2.04,0 -2.937,-1.387 -2.937,-3.02 l 7.016,0 c 0.082,-2.283 -0.979,-5.301 -4.242,-5.301 -2.529,0 -4.405,2.039 -4.405,4.813 0.082,2.855 1.55,4.895 4.487,4.895 2.121,0 3.589,-1.143 3.997,-3.182 l -1.55,0 0,0 z m -5.303,-2.609 c 0.164,-1.389 1.061,-2.611 2.692,-2.611 1.468,0 2.61,1.143 2.692,2.611 l -5.384,0 0,0 z"
       id="path29"
       inkscape:connector-curvature="0"
       style="clip-rule:evenodd;fill:#77787b;fill-rule:evenodd" /><path
       d="m 192.8969,562.8606 1.55,0 0,-4.08 c 0,-2.365 0.897,-3.834 3.345,-3.834 l 0,-1.549 c -1.631,-0.082 -2.692,0.652 -3.426,2.121 l 0,0 0,-1.959 -1.469,0 0,9.301 0,0 z"
       id="path31"
       inkscape:connector-curvature="0"
       style="clip-rule:evenodd;fill:#77787b;fill-rule:evenodd" /><path
       d="m 198.6889,559.9226 c 0.082,2.365 1.876,3.182 3.998,3.182 1.876,0 3.915,-0.734 3.915,-2.938 0,-1.795 -1.468,-2.283 -3.018,-2.609 -1.468,-0.408 -3.018,-0.572 -3.018,-1.633 0,-0.979 1.06,-1.223 1.958,-1.223 0.979,0 2.04,0.408 2.122,1.551 l 1.55,0 c -0.082,-2.203 -1.795,-2.855 -3.834,-2.855 -1.632,0 -3.427,0.734 -3.427,2.609 0,1.795 1.468,2.285 3.019,2.611 1.55,0.326 3.019,0.57 3.019,1.713 0,1.223 -1.306,1.387 -2.203,1.387 -1.305,0 -2.447,-0.408 -2.528,-1.795 l -1.553,0 0,0 z"
       id="path33"
       inkscape:connector-curvature="0"
       style="clip-rule:evenodd;fill:#77787b;fill-rule:evenodd" /><path
       d="m 208.7229,562.8606 1.551,0 0,-9.301 -1.551,0 0,9.301 0,0 z m 0,-10.932 1.551,0 0,-1.877 -1.551,0 0,1.877 0,0 z"
       id="path35"
       inkscape:connector-curvature="0"
       style="clip-rule:evenodd;fill:#77787b;fill-rule:evenodd" /><path
       d="m 221.3669,550.0516 -1.549,0 0,4.732 0,0 c -0.735,-1.061 -2.122,-1.387 -3.02,-1.387 -2.854,0 -4.241,2.201 -4.241,4.813 0,2.612 1.387,4.895 4.241,4.895 1.306,0 2.448,-0.408 3.02,-1.469 l 0,0 0,1.225 1.549,0 0,-12.809 0,0 z m -7.178,8.24 c 0,-1.795 0.653,-3.59 2.774,-3.59 2.12,0 2.937,1.713 2.937,3.508 0,1.795 -0.816,3.508 -2.855,3.508 -1.959,0 -2.856,-1.631 -2.856,-3.426 l 0,0 z"
       id="path37"
       inkscape:connector-curvature="0"
       style="clip-rule:evenodd;fill:#77787b;fill-rule:evenodd" /><path
       d="m 229.8519,559.6786 c 0,0.814 -0.815,2.039 -2.855,2.039 -0.896,0 -1.794,-0.326 -1.794,-1.305 0,-1.143 0.897,-1.551 1.876,-1.715 0.979,-0.162 2.203,-0.162 2.773,-0.652 l 0,1.633 0,0 z m 2.447,1.957 c -0.163,0.082 -0.326,0.082 -0.407,0.082 -0.489,0 -0.489,-0.326 -0.489,-0.979 l 0,-4.814 c 0,-2.201 -1.877,-2.527 -3.508,-2.527 -2.122,0 -3.835,0.734 -3.998,3.1 l 1.55,0 c 0.082,-1.387 1.061,-1.795 2.366,-1.795 0.979,0 2.039,0.244 2.039,1.551 0,1.141 -1.469,1.061 -3.1,1.387 -1.631,0.326 -3.182,0.732 -3.182,2.854 0,1.877 1.387,2.611 3.1,2.611 1.306,0 2.448,-0.408 3.264,-1.469 0,1.061 0.489,1.469 1.305,1.469 0.49,0 0.816,-0.082 1.061,-0.244 l 0,-1.226 -0.001,0 z"
       id="path39"
       inkscape:connector-curvature="0"
       style="clip-rule:evenodd;fill:#77787b;fill-rule:evenodd" /><path
       d="m 242.4149,550.0516 -1.55,0 0,4.732 0,0 c -0.653,-1.061 -2.04,-1.387 -3.019,-1.387 -2.855,0 -4.242,2.201 -4.242,4.813 0,2.612 1.387,4.895 4.323,4.895 1.224,0 2.447,-0.408 2.938,-1.469 l 0,0 0,1.225 1.55,0 0,-12.809 0,0 z m -7.179,8.24 c 0,-1.795 0.733,-3.59 2.773,-3.59 2.121,0 2.937,1.713 2.937,3.508 0,1.795 -0.815,3.508 -2.855,3.508 -1.958,0 -2.855,-1.631 -2.855,-3.426 l 0,0 z"
       id="path41"
       inkscape:connector-curvature="0"
       style="clip-rule:evenodd;fill:#77787b;fill-rule:evenodd" /><path
       d="m 142.6449,500.4526 3.998,0 0,22.189 c 0,8.32 4.568,11.258 12.971,11.258 5.792,0 8.811,-1.223 10.687,-3.344 1.795,-1.877 2.04,-4.568 2.04,-7.18 l 0,-21.047 c 0,-1.061 0.408,-1.877 1.55,-1.877 l 3.1,0 0,-1.549 -10.85,0 0,1.549 2.284,0 c 1.55,0 2.366,0.816 2.366,1.877 l 0,17.213 c 0,4.16 0,8.158 -1.224,9.381 -1.061,1.469 -3.344,3.428 -7.342,3.428 -5.792,-0.082 -6.934,-2.447 -6.934,-7.18 l 0,-24.718 4.242,0 0,-1.549 -16.886,0 0,1.549 -0.002,0 z"
       id="path43"
       inkscape:connector-curvature="0"
       style="clip-rule:evenodd;fill:#f7921e;fill-rule:evenodd" /><path
       d="m 207.9069,509.6706 c -1.061,-7.26 -7.016,-11.176 -14.113,-11.176 -10.605,0 -16.234,8.158 -16.234,18.109 0,9.953 5.139,17.865 15.826,17.865 8.647,0 13.949,-5.221 14.847,-13.785 l -4.568,0 c -0.489,5.711 -3.916,9.951 -9.871,9.951 -8.24,0 -11.666,-6.525 -11.666,-14.357 0,-7.178 3.426,-13.867 11.584,-13.867 4.731,0 8.647,2.447 9.626,7.26 l 4.569,0 0,0 z"
       id="path45"
       inkscape:connector-curvature="0"
       style="clip-rule:evenodd;fill:#00678f;fill-rule:evenodd" /><path
       d="m 211.1709,533.6556 4.73,0 3.835,-10.361 14.521,0 3.753,10.361 5.058,0 -13.46,-34.344 -4.977,0 -13.46,34.344 0,0 z m 15.825,-30.184 0.082,0 5.71,15.988 -11.583,0 5.791,-15.988 0,0 z"
       id="path47"
       inkscape:connector-curvature="0"
       style="clip-rule:evenodd;fill:#00678f;fill-rule:evenodd" /><line
       stroke-miterlimit="2.6131"
       x1="274.06592"
       y1="543.11859"
       x2="145.9079"
       y2="543.11859"
       id="line49"
       style="fill:none;stroke:#f7921e;stroke-width:1.43760002;stroke-miterlimit:2.61310005" /><path
       d="m 172.6659,411.9406 26.676,32.141 c 3.345,4.161 5.303,9.463 5.303,15.256 0,13.297 -10.688,24.146 -23.902,24.146 -8.484,0 -15.745,-4.813 -20.232,-11.339 l -14.194,-17.213 0,-7.423 17.702,22.107 0.164,0.245 c 4.079,4.813 9.626,9.3 16.561,9.3 10.768,0 19.579,-8.892 19.579,-19.823 0,-4.732 -1.632,-9.056 -4.324,-12.482 l -23.331,-27.492 0,-7.423 -0.002,0 z"
       id="path51"
       inkscape:connector-curvature="0"
       style="clip-rule:evenodd;fill:#77787b;fill-rule:evenodd" /><path
       d="m 194.1209,451.1796 c 1.305,2.366 2.04,5.221 2.04,8.239 0,8.729 -6.853,15.826 -15.337,15.826 -5.221,0 -9.871,-2.773 -12.645,-6.934 l -21.863,-26.757 0,-7.424 26.023,31.897 c 2.366,3.345 4.242,3.834 8.321,4.405 5.955,0.897 10.85,-5.058 10.85,-11.258 0,-2.04 -0.163,-3.834 -1.061,-5.466 l -17.784,-21.21 0,-7.424 21.456,26.106 0,0 z"
       id="path53"
       inkscape:connector-curvature="0"
       style="clip-rule:evenodd;fill:#77787b;fill-rule:evenodd" /><path
       d="m 186.6969,454.6876 0.408,2.773 -0.816,4.161 c 0,0 -0.897,4.161 -1.224,4.405 -5.547,3.019 -9.381,-1.387 -9.381,-1.387 0.815,0.571 1.795,0.979 2.937,0.979 2.855,0 5.139,-2.366 5.139,-5.384 0,-1.387 -0.49,-2.611 -1.305,-3.589 l -9.789,-11.584 0,-7.424 14.031,17.05 0,0 z"
       id="path55"
       inkscape:connector-curvature="0"
       style="clip-rule:evenodd;fill:#77787b;fill-rule:evenodd" /><path
       d="m 157.0849,481.2006 -10.769,-13.216 0,-7.424 12.318,15.418 c 0,0 13.46,19.905 37.037,6.852 -3.671,3.917 -10.687,7.016 -18.437,7.016 -9.137,10e-4 -16.642,-4.323 -20.149,-8.646 l 0,0 z"
       id="path57"
       inkscape:connector-curvature="0"
       style="clip-rule:evenodd;fill:#77787b;fill-rule:evenodd" /><path
       d="m 215.8199,411.9406 -26.676,32.141 c -3.345,4.161 -5.303,9.463 -5.303,15.256 0,13.297 10.687,24.146 23.902,24.146 8.484,0 15.744,-4.813 20.231,-11.339 l 14.194,-17.213 0,-7.423 -17.784,22.107 -0.081,0.245 c -4.16,4.813 -9.627,9.3 -16.561,9.3 -10.769,0 -19.579,-8.892 -19.579,-19.823 0,-4.732 1.631,-9.056 4.324,-12.482 l 23.331,-27.492 0,-7.423 0.002,0 z"
       id="path59"
       inkscape:connector-curvature="0"
       style="clip-rule:evenodd;fill:#77787b;fill-rule:evenodd" /><path
       d="m 194.3659,451.1796 c -1.387,2.366 -2.122,5.221 -2.122,8.239 0,8.729 6.935,15.826 15.337,15.826 5.303,0 9.952,-2.773 12.727,-6.934 l 21.862,-26.757 0,-7.424 -26.104,31.897 c -2.284,3.345 -4.161,3.834 -8.239,4.405 -5.956,0.897 -10.932,-5.058 -10.932,-11.258 0,-2.04 0.245,-3.834 1.143,-5.466 l 17.784,-21.21 0,-7.424 -21.456,26.106 0,0 z"
       id="path61"
       inkscape:connector-curvature="0"
       style="clip-rule:evenodd;fill:#77787b;fill-rule:evenodd" /><path
       d="m 201.7889,454.6876 -0.408,2.773 0.816,4.161 c 0,0 0.816,4.161 1.224,4.405 5.547,3.019 9.381,-1.387 9.381,-1.387 -0.815,0.571 -1.876,0.979 -2.937,0.979 -2.855,0 -5.221,-2.366 -5.221,-5.384 0,-1.387 0.57,-2.611 1.387,-3.589 l 9.789,-11.584 0,-7.424 -14.031,17.05 0,0 z"
       id="path63"
       inkscape:connector-curvature="0"
       style="clip-rule:evenodd;fill:#77787b;fill-rule:evenodd" /><path
       d="m 231.3199,481.2006 10.85,-13.216 0,-7.424 -12.318,15.418 c 0,0 -13.46,19.905 -37.118,6.852 3.752,3.917 10.687,7.016 18.518,7.016 9.137,10e-4 16.643,-4.323 20.068,-8.646 l 0,0 z"
       id="path65"
       inkscape:connector-curvature="0"
       style="clip-rule:evenodd;fill:#77787b;fill-rule:evenodd" /></g></svg>