<svg xmlns="http://www.w3.org/2000/svg" width="484" height="234">
         <defs>
            <style type="text/css">
               @namespace "http://www.w3.org/2000/svg";
               .line                 {fill: none; stroke: #262626;}
               .bold-line            {stroke: #0A0A0A; shape-rendering: crispEdges; stroke-width:
               2; }
               .thin-line            {stroke: #0F0F0F; shape-rendering: crispEdges}
               .filled               {fill: #262626; stroke: none;}
               text.terminal         {font-family: Verdana, Sans-serif;
               font-size: 12px;
               fill: #0A0A0A;
               font-weight: bold;
               }
               text.nonterminal      {font-family: Verdana, Sans-serif;
               font-size: 12px;
               fill: #0D0D0D;
               }
               text.regexp           {font-family: Verdana, Sans-serif;
               font-size: 12px;
               fill: #0F0F0F;
               }
               rect, circle, polygon {fill: #262626; stroke: #262626;}
               rect.terminal         {fill: #FFFFFF; stroke: #262626;}
               rect.nonterminal      {fill: #FFFFFF; stroke: #262626;}
               rect.text             {fill: none; stroke: none;}    
               polygon.regexp        {fill: #FFFFFF; stroke: #262626;}
               
            </style>
         </defs>
         <polygon points="9 17 1 13 1 21"/>
         <polygon points="17 17 9 13 9 21"/>
         <rect x="51" y="3" width="56" height="32" rx="10"/>
         <rect x="49" y="1" width="56" height="32" class="terminal" rx="10"/>
         <text class="terminal" x="59" y="21">static</text>
         <a xmlns:xlink="http://www.w3.org/1999/xlink" xlink:href="#function" xlink:title="function">
            <rect x="127" y="3" width="70" height="32"/>
            <rect x="125" y="1" width="70" height="32" class="nonterminal"/>
            <text class="nonterminal" x="135" y="21">function</text>
         </a>
         <a xmlns:xlink="http://www.w3.org/1999/xlink" xlink:href="#class_stmts" xlink:title="class_stmts">
            <rect x="237" y="3" width="94" height="32"/>
            <rect x="235" y="1" width="94" height="32" class="nonterminal"/>
            <text class="nonterminal" x="245" y="21">class_stmts</text>
         </a>
         <rect x="51" y="69" width="66" height="32" rx="10"/>
         <rect x="49" y="67" width="66" height="32" class="terminal" rx="10"/>
         <text class="terminal" x="59" y="87">private</text>
         <a xmlns:xlink="http://www.w3.org/1999/xlink" xlink:href="#function" xlink:title="function">
            <rect x="137" y="69" width="70" height="32"/>
            <rect x="135" y="67" width="70" height="32" class="nonterminal"/>
            <text class="nonterminal" x="145" y="87">function</text>
         </a>
         <a xmlns:xlink="http://www.w3.org/1999/xlink" xlink:href="#class_stmts" xlink:title="class_stmts">
            <rect x="247" y="69" width="94" height="32"/>
            <rect x="245" y="67" width="94" height="32" class="nonterminal"/>
            <text class="nonterminal" x="255" y="87">class_stmts</text>
         </a>
         <rect x="51" y="135" width="66" height="32" rx="10"/>
         <rect x="49" y="133" width="66" height="32" class="terminal" rx="10"/>
         <text class="terminal" x="59" y="153">private</text>
         <rect x="137" y="135" width="56" height="32" rx="10"/>
         <rect x="135" y="133" width="56" height="32" class="terminal" rx="10"/>
         <text class="terminal" x="145" y="153">static</text>
         <a xmlns:xlink="http://www.w3.org/1999/xlink" xlink:href="#function" xlink:title="function">
            <rect x="213" y="135" width="70" height="32"/>
            <rect x="211" y="133" width="70" height="32" class="nonterminal"/>
            <text class="nonterminal" x="221" y="153">function</text>
         </a>
         <a xmlns:xlink="http://www.w3.org/1999/xlink" xlink:href="#class_stmts" xlink:title="class_stmts">
            <rect x="323" y="135" width="94" height="32"/>
            <rect x="321" y="133" width="94" height="32" class="nonterminal"/>
            <text class="nonterminal" x="331" y="153">class_stmts</text>
         </a>
         <a xmlns:xlink="http://www.w3.org/1999/xlink" xlink:href="#stmts" xlink:title="stmts">
            <rect x="51" y="201" width="54" height="32"/>
            <rect x="49" y="199" width="54" height="32" class="nonterminal"/>
            <text class="nonterminal" x="59" y="219">stmts</text>
         </a>
         <svg:path xmlns:svg="http://www.w3.org/2000/svg" class="line" d="m17 17 h2 m20 0 h10 m56 0 h10 m0 0 h10 m70 0 h10 m20 0 h10 m94 0 h10 m-134 0 h20 m114 0 h20 m-154 0 q10 0 10 10 m134 0 q0 -10 10 -10 m-144 10 v14 m134 0 v-14 m-134 14 q0 10 10 10 m114 0 q10 0 10 -10 m-124 10 h10 m0 0 h104 m20 -34 h86 m-426 0 h20 m406 0 h20 m-446 0 q10 0 10 10 m426 0 q0 -10 10 -10 m-436 10 v46 m426 0 v-46 m-426 46 q0 10 10 10 m406 0 q10 0 10 -10 m-416 10 h10 m66 0 h10 m0 0 h10 m70 0 h10 m20 0 h10 m94 0 h10 m-134 0 h20 m114 0 h20 m-154 0 q10 0 10 10 m134 0 q0 -10 10 -10 m-144 10 v14 m134 0 v-14 m-134 14 q0 10 10 10 m114 0 q10 0 10 -10 m-124 10 h10 m0 0 h104 m20 -34 h76 m-416 -10 v20 m426 0 v-20 m-426 20 v46 m426 0 v-46 m-426 46 q0 10 10 10 m406 0 q10 0 10 -10 m-416 10 h10 m66 0 h10 m0 0 h10 m56 0 h10 m0 0 h10 m70 0 h10 m20 0 h10 m94 0 h10 m-134 0 h20 m114 0 h20 m-154 0 q10 0 10 10 m134 0 q0 -10 10 -10 m-144 10 v14 m134 0 v-14 m-134 14 q0 10 10 10 m114 0 q10 0 10 -10 m-124 10 h10 m0 0 h104 m-396 -44 v20 m426 0 v-20 m-426 20 v46 m426 0 v-46 m-426 46 q0 10 10 10 m406 0 q10 0 10 -10 m-416 10 h10 m54 0 h10 m0 0 h332 m23 -198 h-3"/>
         <polygon points="475 17 483 13 483 21"/>
         <polygon points="475 17 467 13 467 21"/>
      </svg>
