<?xml version="1.0" encoding="UTF-8" standalone="no"?>
<!DOCTYPE svg PUBLIC "-//W3C//DTD SVG 1.0//EN" "http://www.w3.org/TR/2001/PR-SVG-20010719/DTD/svg10.dtd">
<svg width="18cm" height="14cm" viewBox="359 165 343 267" xmlns="http://www.w3.org/2000/svg" xmlns:xlink="http://www.w3.org/1999/xlink">
  <g>
    <rect style="fill: #ffffff" x="360" y="186" width="341" height="245"/>
    <rect style="fill: none; fill-opacity:0; stroke-width: 2; stroke: #000000" x="360" y="186" width="341" height="245"/>
    <rect style="fill: #ffffff" x="360" y="166" width="65.6" height="20"/>
    <rect style="fill: none; fill-opacity:0; stroke-width: 2; stroke: #000000" x="360" y="166" width="65.6" height="20"/>
    <text font-size="12.7998" style="fill: #000000;text-anchor:start;font-family:monospace;font-style:normal;font-weight:normal" x="362" y="181"> reduce </text>
  </g>
  <g>
    <rect style="fill: #ffffff" x="433" y="220.8" width="87.4" height="28"/>
    <rect style="fill: none; fill-opacity:0; stroke-width: 2; stroke: #000000" x="433" y="220.8" width="87.4" height="28"/>
    <text font-size="16" style="fill: #000000;text-anchor:middle;font-family:sans-serif;font-style:normal;font-weight:700" x="476.7" y="239.8">runNode</text>
  </g>
  <g>
    <rect style="fill: #ffffff" x="427" y="290.8" width="100.7" height="28"/>
    <rect style="fill: none; fill-opacity:0; stroke-width: 2; stroke: #000000" x="427" y="290.8" width="100.7" height="28"/>
    <text font-size="16" style="fill: #000000;text-anchor:middle;font-family:sans-serif;font-style:normal;font-weight:700" x="477.35" y="309.8">nexpNode</text>
  </g>
  <g>
    <polyline style="fill: none; fill-opacity:0; stroke-width: 2; stroke: #000000" points="476.7,267.036 476.7,277.8 477.35,277.8 477.35,290.8 "/>
    <polygon style="fill: #ffffff" points="484.7,267.036 476.7,251.036 468.7,267.036 "/>
    <polygon style="fill: none; fill-opacity:0; stroke-width: 2; stroke: #000000" points="484.7,267.036 476.7,251.036 468.7,267.036 "/>
  </g>
  <g>
    <rect style="fill: #ffffff" x="392" y="369.8" width="170.4" height="28"/>
    <rect style="fill: none; fill-opacity:0; stroke-width: 2; stroke: #000000" x="392" y="369.8" width="170.4" height="28"/>
    <text font-size="16" style="fill: #000000;text-anchor:middle;font-family:sans-serif;font-style:normal;font-weight:700" x="477.2" y="388.8">arrayReduceNode</text>
  </g>
  <g>
    <polyline style="fill: none; fill-opacity:0; stroke-width: 2; stroke: #000000" points="587.572,383.8 597.4,383.8 597.4,248.8 520.4,248.8 "/>
    <polygon style="fill: #ffffff" points="562.4,383.8 576.4,379 590.4,383.8 576.4,388.6 "/>
    <polygon style="fill: none; fill-opacity:0; stroke-width: 2; stroke: #000000" points="562.4,383.8 576.4,379 590.4,383.8 576.4,388.6 "/>
    <text font-size="12.7998" style="fill: #000000;text-anchor:start;font-family:monospace;font-style:normal;font-weight:normal" x="599.4" y="313.3">array</text>
    <text font-size="12.7998" style="fill: #000000;text-anchor:start;font-family:monospace;font-style:normal;font-weight:normal" x="594.4" y="380.8"/>
    <text font-size="12.7998" style="fill: #000000;text-anchor:start;font-family:monospace;font-style:normal;font-weight:normal" x="524.4" y="245.8">1</text>
  </g>
  <g>
    <polyline style="fill: none; fill-opacity:0; stroke-width: 2; stroke: #000000" points="587.572,397.8 647,397.8 647,234.8 520.4,234.8 "/>
    <polygon style="fill: #ffffff" points="562.4,397.8 576.4,393 590.4,397.8 576.4,402.6 "/>
    <polygon style="fill: none; fill-opacity:0; stroke-width: 2; stroke: #000000" points="562.4,397.8 576.4,393 590.4,397.8 576.4,402.6 "/>
    <text font-size="12.7998" style="fill: #000000;text-anchor:start;font-family:monospace;font-style:normal;font-weight:normal" x="649" y="313.3">func</text>
    <text font-size="12.7998" style="fill: #000000;text-anchor:start;font-family:monospace;font-style:normal;font-weight:normal" x="594.4" y="394.8"/>
    <text font-size="12.7998" style="fill: #000000;text-anchor:start;font-family:monospace;font-style:normal;font-weight:normal" x="524.4" y="231.8">1</text>
  </g>
  <g>
    <polyline style="fill: none; fill-opacity:0; stroke-width: 2; stroke: #000000" points="477.35,337.036 477.35,352.3 477.2,352.3 477.2,369.8 "/>
    <polygon style="fill: #ffffff" points="485.35,337.036 477.35,321.036 469.35,337.036 "/>
    <polygon style="fill: none; fill-opacity:0; stroke-width: 2; stroke: #000000" points="485.35,337.036 477.35,321.036 469.35,337.036 "/>
  </g>
</svg>
