<?xml version="1.0" encoding="UTF-8" standalone="no"?>
<!DOCTYPE svg PUBLIC "-//W3C//DTD SVG 1.0//EN" "http://www.w3.org/TR/2001/PR-SVG-20010719/DTD/svg10.dtd">
<svg width="40cm" height="26cm" viewBox="202 -82 798 504" xmlns="http://www.w3.org/2000/svg" xmlns:xlink="http://www.w3.org/1999/xlink">
  <g>
    <rect style="fill: #ffffff" x="204" y="-61" width="796" height="482"/>
    <rect style="fill: none; fill-opacity:0; stroke-width: 2; stroke: #000000" x="204" y="-61" width="796" height="482"/>
    <rect style="fill: #ffffff" x="204" y="-81" width="57.9" height="20"/>
    <rect style="fill: none; fill-opacity:0; stroke-width: 2; stroke: #000000" x="204" y="-81" width="57.9" height="20"/>
    <text font-size="12.7998" style="fill: #000000;text-anchor:start;font-family:monospace;font-style:normal;font-weight:normal" x="206" y="-66"> class </text>
  </g>
  <g>
    <rect style="fill: #ffffff" x="451" y="252" width="101.5" height="28"/>
    <rect style="fill: none; fill-opacity:0; stroke-width: 2; stroke: #000000" x="451" y="252" width="101.5" height="28"/>
    <text font-size="16" style="fill: #000000;text-anchor:middle;font-family:sans-serif;font-style:normal;font-weight:700" x="501.75" y="271">classNode</text>
  </g>
  <g>
    <rect style="fill: #ffffff" x="458" y="100" width="87.4" height="28"/>
    <rect style="fill: none; fill-opacity:0; stroke-width: 2; stroke: #000000" x="458" y="100" width="87.4" height="28"/>
    <text font-size="16" style="fill: #000000;text-anchor:middle;font-family:sans-serif;font-style:normal;font-weight:700" x="501.7" y="119">runNode</text>
  </g>
  <g>
    <polyline style="fill: none; fill-opacity:0; stroke-width: 2; stroke: #000000" points="501.7,146.236 501.7,197.496 501.75,197.496 501.75,250.993 "/>
    <polygon style="fill: #ffffff" points="509.7,146.236 501.7,130.236 493.7,146.236 "/>
    <polygon style="fill: none; fill-opacity:0; stroke-width: 2; stroke: #000000" points="509.7,146.236 501.7,130.236 493.7,146.236 "/>
  </g>
  <g>
    <rect style="fill: #ffffff" x="704" y="290" width="66.95" height="28"/>
    <rect style="fill: none; fill-opacity:0; stroke-width: 2; stroke: #000000" x="704" y="290" width="66.95" height="28"/>
    <text font-size="16" style="fill: #000000;text-anchor:middle;font-family:sans-serif;font-style:normal;font-weight:700" x="737.475" y="309">sTable</text>
  </g>
  <g>
    <polyline style="fill: none; fill-opacity:0; stroke-width: 2; stroke: #000000" points="425.828,252 398,252 398,128 458,128 "/>
    <polygon style="fill: #ffffff" points="451,252 437,256.8 423,252 437,247.2 "/>
    <polygon style="fill: none; fill-opacity:0; stroke-width: 2; stroke: #000000" points="451,252 437,256.8 423,252 437,247.2 "/>
    <text font-size="12.7998" style="fill: #000000;text-anchor:start;font-family:monospace;font-style:normal;font-weight:normal" x="400" y="187">id</text>
    <text font-size="12.7998" style="fill: #000000;text-anchor:end;font-family:monospace;font-style:normal;font-weight:normal" x="419" y="249"/>
    <text font-size="12.7998" style="fill: #000000;text-anchor:end;font-family:monospace;font-style:normal;font-weight:normal" x="454" y="125">1</text>
  </g>
  <g>
    <polyline style="fill: none; fill-opacity:0; stroke-width: 2; stroke: #000000" points="425.828,266 358,266 358,114 458,114 "/>
    <polygon style="fill: #ffffff" points="451,266 437,270.8 423,266 437,261.2 "/>
    <polygon style="fill: none; fill-opacity:0; stroke-width: 2; stroke: #000000" points="451,266 437,270.8 423,266 437,261.2 "/>
    <text font-size="12.7998" style="fill: #000000;text-anchor:start;font-family:monospace;font-style:normal;font-weight:normal" x="360" y="187">body</text>
    <text font-size="12.7998" style="fill: #000000;text-anchor:end;font-family:monospace;font-style:normal;font-weight:normal" x="419" y="263"/>
    <text font-size="12.7998" style="fill: #000000;text-anchor:end;font-family:monospace;font-style:normal;font-weight:normal" x="454" y="111">1</text>
  </g>
  <g>
    <polyline style="fill: none; fill-opacity:0; stroke-width: 2; stroke: #000000" points="425.828,280 276,280 276,100 458,100 "/>
    <polygon style="fill: #ffffff" points="451,280 437,284.8 423,280 437,275.2 "/>
    <polygon style="fill: none; fill-opacity:0; stroke-width: 2; stroke: #000000" points="451,280 437,284.8 423,280 437,275.2 "/>
    <text font-size="12.7998" style="fill: #000000;text-anchor:start;font-family:monospace;font-style:normal;font-weight:normal" x="278" y="187">extend_id</text>
    <text font-size="12.7998" style="fill: #000000;text-anchor:end;font-family:monospace;font-style:normal;font-weight:normal" x="419" y="277"/>
    <text font-size="12.7998" style="fill: #000000;text-anchor:end;font-family:monospace;font-style:normal;font-weight:normal" x="454" y="97">0,1</text>
  </g>
  <g>
    <polyline style="fill: none; fill-opacity:0; stroke-width: 2; stroke: #000000" points="577.672,252 646,252 646,304 704,304 "/>
    <polygon style="fill: #ffffff" points="552.5,252 566.5,247.2 580.5,252 566.5,256.8 "/>
    <polygon style="fill: none; fill-opacity:0; stroke-width: 2; stroke: #000000" points="552.5,252 566.5,247.2 580.5,252 566.5,256.8 "/>
    <text font-size="12.7998" style="fill: #000000;text-anchor:start;font-family:monospace;font-style:normal;font-weight:normal" x="648" y="275">simbols</text>
    <text font-size="12.7998" style="fill: #000000;text-anchor:start;font-family:monospace;font-style:normal;font-weight:normal" x="584.5" y="249"/>
    <text font-size="12.7998" style="fill: #000000;text-anchor:end;font-family:monospace;font-style:normal;font-weight:normal" x="700" y="301">1</text>
  </g>
  <g>
    <polyline style="fill: none; fill-opacity:0; stroke-width: 2; stroke: #000000" points="577.672,266 614,266 614,311 552.5,311 552.5,280 "/>
    <polygon style="fill: #ffffff" points="552.5,266 566.5,261.2 580.5,266 566.5,270.8 "/>
    <polygon style="fill: none; fill-opacity:0; stroke-width: 2; stroke: #000000" points="552.5,266 566.5,261.2 580.5,266 566.5,270.8 "/>
    <text font-size="12.7998" style="fill: #000000;text-anchor:middle;font-family:monospace;font-style:normal;font-weight:normal" x="583.25" y="308">extend</text>
    <text font-size="12.7998" style="fill: #000000;text-anchor:start;font-family:monospace;font-style:normal;font-weight:normal" x="584.5" y="263"/>
    <text font-size="12.7998" style="fill: #000000;text-anchor:start;font-family:monospace;font-style:normal;font-weight:normal" x="556.5" y="292">0,1</text>
  </g>
  <g>
    <rect style="fill: #ffffff" x="213" y="26" width="121.3" height="28"/>
    <rect style="fill: none; fill-opacity:0; stroke-width: 2; stroke: #000000" x="213" y="26" width="121.3" height="28"/>
    <text font-size="16" style="fill: #000000;text-anchor:middle;font-family:sans-serif;font-style:normal;font-weight:700" x="273.65" y="45">privateNode</text>
  </g>
  <g>
    <polyline style="fill: none; fill-opacity:0; stroke-width: 2; stroke: #000000" points="458,81.7639 458,69 273.65,69 273.65,54 "/>
    <polygon style="fill: #ffffff" points="450,81.7639 458,97.7639 466,81.7639 "/>
    <polygon style="fill: none; fill-opacity:0; stroke-width: 2; stroke: #000000" points="450,81.7639 458,97.7639 466,81.7639 "/>
  </g>
  <g>
    <rect style="fill: #ffffff" x="577" y="33" width="100.7" height="28"/>
    <rect style="fill: none; fill-opacity:0; stroke-width: 2; stroke: #000000" x="577" y="33" width="100.7" height="28"/>
    <text font-size="16" style="fill: #000000;text-anchor:middle;font-family:sans-serif;font-style:normal;font-weight:700" x="627.35" y="52">nexpNode</text>
  </g>
  <g>
    <polyline style="fill: none; fill-opacity:0; stroke-width: 2; stroke: #000000" points="563.636,114 627.35,114 627.35,61 "/>
    <polygon style="fill: #ffffff" points="563.636,106 547.636,114 563.636,122 "/>
    <polygon style="fill: none; fill-opacity:0; stroke-width: 2; stroke: #000000" points="563.636,106 547.636,114 563.636,122 "/>
  </g>
  <g>
    <rect style="fill: #ffffff" x="716" y="33" width="93.75" height="28"/>
    <rect style="fill: none; fill-opacity:0; stroke-width: 2; stroke: #000000" x="716" y="33" width="93.75" height="28"/>
    <text font-size="16" style="fill: #000000;text-anchor:middle;font-family:sans-serif;font-style:normal;font-weight:700" x="762.875" y="52">newNode</text>
  </g>
  <g>
    <polyline style="fill: none; fill-opacity:0; stroke-width: 2; stroke: #000000" points="716,7.82843 716,-4 545.4,-4 545.4,100 "/>
    <polygon style="fill: #ffffff" points="716,33 711.2,19 716,5 720.8,19 "/>
    <polygon style="fill: none; fill-opacity:0; stroke-width: 2; stroke: #000000" points="716,33 711.2,19 716,5 720.8,19 "/>
    <text font-size="12.7998" style="fill: #000000;text-anchor:middle;font-family:monospace;font-style:normal;font-weight:normal" x="630.7" y="-7">id</text>
    <text font-size="12.7998" style="fill: #000000;text-anchor:start;font-family:monospace;font-style:normal;font-weight:normal" x="727" y="29"/>
    <text font-size="12.7998" style="fill: #000000;text-anchor:start;font-family:monospace;font-style:normal;font-weight:normal" x="549.4" y="96">1</text>
  </g>
  <g>
    <polyline style="fill: none; fill-opacity:0; stroke-width: 2; stroke: #000000" points="695.936,47 694.7,47 715,47 716,47 "/>
    <polygon style="fill: #ffffff" points="695.936,39 679.936,47 695.936,55 "/>
    <polygon style="fill: none; fill-opacity:0; stroke-width: 2; stroke: #000000" points="695.936,39 679.936,47 695.936,55 "/>
  </g>
  <g>
    <polyline style="fill: none; fill-opacity:0; stroke-width: 2; stroke: #000000" points="762.874,7.82843 762.874,-33 501.7,-33 501.7,100 "/>
    <polygon style="fill: #ffffff" points="762.874,33 758.074,19 762.874,5 767.674,19 "/>
    <polygon style="fill: none; fill-opacity:0; stroke-width: 2; stroke: #000000" points="762.874,33 758.074,19 762.874,5 767.674,19 "/>
    <text font-size="12.7998" style="fill: #000000;text-anchor:middle;font-family:monospace;font-style:normal;font-weight:normal" x="632.287" y="-36">params</text>
    <text font-size="12.7998" style="fill: #000000;text-anchor:start;font-family:monospace;font-style:normal;font-weight:normal" x="773.874" y="29"/>
    <text font-size="12.7998" style="fill: #000000;text-anchor:start;font-family:monospace;font-style:normal;font-weight:normal" x="505.7" y="96">0,1</text>
  </g>
  <g>
    <rect style="fill: #ffffff" x="717" y="75" width="90.75" height="28"/>
    <rect style="fill: none; fill-opacity:0; stroke-width: 2; stroke: #000000" x="717" y="75" width="90.75" height="28"/>
    <text font-size="16" style="fill: #000000;text-anchor:middle;font-family:sans-serif;font-style:normal;font-weight:700" x="762.375" y="94">thisNode</text>
  </g>
  <g>
    <polyline style="fill: none; fill-opacity:0; stroke-width: 2; stroke: #000000" points="695.936,47 705.35,47 705.35,89 717,89 "/>
    <polygon style="fill: #ffffff" points="695.936,39 679.936,47 695.936,55 "/>
    <polygon style="fill: none; fill-opacity:0; stroke-width: 2; stroke: #000000" points="695.936,39 679.936,47 695.936,55 "/>
  </g>
  <g>
    <rect style="fill: #ffffff" x="789" y="127" width="116.75" height="28"/>
    <rect style="fill: none; fill-opacity:0; stroke-width: 2; stroke: #000000" x="789" y="127" width="116.75" height="28"/>
    <text font-size="16" style="fill: #000000;text-anchor:middle;font-family:sans-serif;font-style:normal;font-weight:700" x="847.375" y="146">parentNode</text>
  </g>
  <g>
    <polyline style="fill: none; fill-opacity:0; stroke-width: 2; stroke: #000000" points="762.375,121.236 762.375,141 789,141 "/>
    <polygon style="fill: #ffffff" points="770.375,121.236 762.375,105.236 754.375,121.236 "/>
    <polygon style="fill: none; fill-opacity:0; stroke-width: 2; stroke: #000000" points="770.375,121.236 762.375,105.236 754.375,121.236 "/>
  </g>
  <g>
    <rect style="fill: #ffffff" x="314" y="-19" width="107.3" height="28"/>
    <rect style="fill: none; fill-opacity:0; stroke-width: 2; stroke: #000000" x="314" y="-19" width="107.3" height="28"/>
    <text font-size="16" style="fill: #000000;text-anchor:middle;font-family:sans-serif;font-style:normal;font-weight:700" x="367.65" y="0">staticNode</text>
  </g>
  <g>
    <polyline style="fill: none; fill-opacity:0; stroke-width: 2; stroke: #000000" points="458,81.7639 458,46.5 367.65,46.5 367.65,9 "/>
    <polygon style="fill: #ffffff" points="450,81.7639 458,97.7639 466,81.7639 "/>
    <polygon style="fill: none; fill-opacity:0; stroke-width: 2; stroke: #000000" points="450,81.7639 458,97.7639 466,81.7639 "/>
  </g>
  <g>
    <polyline style="fill: none; fill-opacity:0; stroke-width: 2; stroke: #000000" points="695.936,47 705,47 705,186 807,186 "/>
    <polygon style="fill: #ffffff" points="695.936,39 679.936,47 695.936,55 "/>
    <polygon style="fill: none; fill-opacity:0; stroke-width: 2; stroke: #000000" points="695.936,39 679.936,47 695.936,55 "/>
  </g>
  <g>
    <rect style="fill: #ffffff" x="807" y="172" width="158.5" height="28"/>
    <rect style="fill: none; fill-opacity:0; stroke-width: 2; stroke: #000000" x="807" y="172" width="158.5" height="28"/>
    <text font-size="16" style="fill: #000000;text-anchor:middle;font-family:sans-serif;font-style:normal;font-weight:700" x="886.25" y="191">namespaceNode</text>
  </g>
  <g>
    <polyline style="fill: none; fill-opacity:0; stroke-width: 2; stroke: #000000" points="781.828,200 669.2,200 669.2,128 545.4,128 "/>
    <polygon style="fill: #ffffff" points="807,200 793,204.8 779,200 793,195.2 "/>
    <polygon style="fill: none; fill-opacity:0; stroke-width: 2; stroke: #000000" points="807,200 793,204.8 779,200 793,195.2 "/>
    <text font-size="12.7998" style="fill: #000000;text-anchor:start;font-family:monospace;font-style:normal;font-weight:normal" x="671.2" y="161">id</text>
    <text font-size="12.7998" style="fill: #000000;text-anchor:end;font-family:monospace;font-style:normal;font-weight:normal" x="775" y="197"/>
    <text font-size="12.7998" style="fill: #000000;text-anchor:start;font-family:monospace;font-style:normal;font-weight:normal" x="549.4" y="125">1</text>
  </g>
  <g>
    <polyline style="fill: none; fill-opacity:0; stroke-width: 2; stroke: #000000" points="886.25,225.172 886.25,235 545.4,235 545.4,128 "/>
    <polygon style="fill: #ffffff" points="886.25,200 891.05,214 886.25,228 881.45,214 "/>
    <polygon style="fill: none; fill-opacity:0; stroke-width: 2; stroke: #000000" points="886.25,200 891.05,214 886.25,228 881.45,214 "/>
    <text font-size="12.7998" style="fill: #000000;text-anchor:middle;font-family:monospace;font-style:normal;font-weight:normal" x="715.825" y="232">key</text>
    <text font-size="12.7998" style="fill: #000000;text-anchor:start;font-family:monospace;font-style:normal;font-weight:normal" x="897.25" y="212"/>
    <text font-size="12.7998" style="fill: #000000;text-anchor:start;font-family:monospace;font-style:normal;font-weight:normal" x="549.4" y="140">1</text>
  </g>
  <g>
    <rect style="fill: #ffffff" x="833" y="-32" width="112.65" height="28"/>
    <rect style="fill: none; fill-opacity:0; stroke-width: 2; stroke: #000000" x="833" y="-32" width="112.65" height="28"/>
    <text font-size="16" style="fill: #000000;text-anchor:middle;font-family:sans-serif;font-style:normal;font-weight:700" x="889.325" y="-13">objectNode</text>
  </g>
  <g>
    <polyline style="fill: none; fill-opacity:0; stroke-width: 2; stroke-dasharray: 8; stroke: #000000" points="809.75,47 889.325,47 889.325,2.70522 "/>
    <polyline style="fill: none; fill-opacity:0; stroke-width: 2; stroke: #000000" points="894.325,15.3526 889.325,-0.647389 884.325,15.3526 "/>
  </g>
</svg>
