<?xml version="1.0" encoding="UTF-8" standalone="no"?>
<!DOCTYPE svg PUBLIC "-//W3C//DTD SVG 1.0//EN" "http://www.w3.org/TR/2001/PR-SVG-20010719/DTD/svg10.dtd">
<svg width="11cm" height="17cm" viewBox="341 165 202 327" xmlns="http://www.w3.org/2000/svg" xmlns:xlink="http://www.w3.org/1999/xlink">
  <g>
    <rect style="fill: #ffffff" x="343" y="186.6" width="199" height="304.4"/>
    <rect style="fill: none; fill-opacity:0; stroke-width: 2; stroke: #000000" x="343" y="186.6" width="199" height="304.4"/>
    <rect style="fill: #ffffff" x="343" y="166.6" width="104.1" height="20"/>
    <rect style="fill: none; fill-opacity:0; stroke-width: 2; stroke: #000000" x="343" y="166.6" width="104.1" height="20"/>
    <text font-size="12.7998" style="fill: #000000;text-anchor:start;font-family:monospace;font-style:normal;font-weight:normal" x="345" y="181.6"> definitions </text>
  </g>
  <g>
    <rect style="fill: #ffffff" x="428" y="220.6" width="89" height="28"/>
    <rect style="fill: none; fill-opacity:0; stroke-width: 2; stroke: #000000" x="428" y="220.6" width="89" height="28"/>
    <rect style="fill: #ffffff" x="428" y="202.6" width="30" height="18"/>
    <rect style="fill: none; fill-opacity:0; stroke-width: 2; stroke: #000000" x="428" y="202.6" width="30" height="18"/>
    <text font-size="12.8" style="fill: #000000;text-anchor:start;font-family:monospace;font-style:normal;font-weight:normal" x="434" y="238.5">
      <tspan x="434" y="238.5"> function </tspan>
    </text>
  </g>
  <g>
    <rect style="fill: #ffffff" x="359" y="278.4" width="65.9" height="28"/>
    <rect style="fill: none; fill-opacity:0; stroke-width: 2; stroke: #000000" x="359" y="278.4" width="65.9" height="28"/>
    <rect style="fill: #ffffff" x="359" y="260.4" width="30" height="18"/>
    <rect style="fill: none; fill-opacity:0; stroke-width: 2; stroke: #000000" x="359" y="260.4" width="30" height="18"/>
    <text font-size="12.8" style="fill: #000000;text-anchor:start;font-family:monospace;font-style:normal;font-weight:normal" x="365" y="296.3">
      <tspan x="365" y="296.3"> class </tspan>
    </text>
  </g>
  <g>
    <rect style="fill: #ffffff" x="446" y="277.6" width="73.6" height="28"/>
    <rect style="fill: none; fill-opacity:0; stroke-width: 2; stroke: #000000" x="446" y="277.6" width="73.6" height="28"/>
    <rect style="fill: #ffffff" x="446" y="259.6" width="30" height="18"/>
    <rect style="fill: none; fill-opacity:0; stroke-width: 2; stroke: #000000" x="446" y="259.6" width="30" height="18"/>
    <text font-size="12.8" style="fill: #000000;text-anchor:start;font-family:monospace;font-style:normal;font-weight:normal" x="452" y="295.5">
      <tspan x="452" y="295.5"> object </tspan>
    </text>
  </g>
  <g>
    <rect style="fill: #ffffff" x="358" y="219.6" width="50.5" height="28"/>
    <rect style="fill: none; fill-opacity:0; stroke-width: 2; stroke: #000000" x="358" y="219.6" width="50.5" height="28"/>
    <rect style="fill: #ffffff" x="358" y="201.6" width="30" height="18"/>
    <rect style="fill: none; fill-opacity:0; stroke-width: 2; stroke: #000000" x="358" y="201.6" width="30" height="18"/>
    <text font-size="12.8" style="fill: #000000;text-anchor:start;font-family:monospace;font-style:normal;font-weight:normal" x="364" y="237.5">
      <tspan x="364" y="237.5"> var </tspan>
    </text>
  </g>
  <g>
    <rect style="fill: #ffffff" x="358.994" y="334.6" width="58.2" height="28"/>
    <rect style="fill: none; fill-opacity:0; stroke-width: 2; stroke: #000000" x="358.994" y="334.6" width="58.2" height="28"/>
    <rect style="fill: #ffffff" x="358.994" y="316.6" width="30" height="18"/>
    <rect style="fill: none; fill-opacity:0; stroke-width: 2; stroke: #000000" x="358.994" y="316.6" width="30" height="18"/>
    <text font-size="12.8" style="fill: #000000;text-anchor:start;font-family:monospace;font-style:normal;font-weight:normal" x="364.994" y="352.5">
      <tspan x="364.994" y="352.5"> list </tspan>
    </text>
  </g>
  <g>
    <rect style="fill: #ffffff" x="444.994" y="333.6" width="50.5" height="28"/>
    <rect style="fill: none; fill-opacity:0; stroke-width: 2; stroke: #000000" x="444.994" y="333.6" width="50.5" height="28"/>
    <rect style="fill: #ffffff" x="444.994" y="315.6" width="30" height="18"/>
    <rect style="fill: none; fill-opacity:0; stroke-width: 2; stroke: #000000" x="444.994" y="315.6" width="30" height="18"/>
    <text font-size="12.8" style="fill: #000000;text-anchor:start;font-family:monospace;font-style:normal;font-weight:normal" x="450.994" y="351.5">
      <tspan x="450.994" y="351.5"> map </tspan>
    </text>
  </g>
  <g>
    <rect style="fill: #ffffff" x="357.994" y="390.6" width="65.9" height="28"/>
    <rect style="fill: none; fill-opacity:0; stroke-width: 2; stroke: #000000" x="357.994" y="390.6" width="65.9" height="28"/>
    <rect style="fill: #ffffff" x="357.994" y="372.6" width="30" height="18"/>
    <rect style="fill: none; fill-opacity:0; stroke-width: 2; stroke: #000000" x="357.994" y="372.6" width="30" height="18"/>
    <text font-size="12.8" style="fill: #000000;text-anchor:start;font-family:monospace;font-style:normal;font-weight:normal" x="363.994" y="408.5">
      <tspan x="363.994" y="408.5"> label </tspan>
    </text>
  </g>
  <g>
    <rect style="fill: #ffffff" x="446.994" y="390.6" width="73.6" height="28"/>
    <rect style="fill: none; fill-opacity:0; stroke-width: 2; stroke: #000000" x="446.994" y="390.6" width="73.6" height="28"/>
    <rect style="fill: #ffffff" x="446.994" y="372.6" width="30" height="18"/>
    <rect style="fill: none; fill-opacity:0; stroke-width: 2; stroke: #000000" x="446.994" y="372.6" width="30" height="18"/>
    <text font-size="12.8" style="fill: #000000;text-anchor:start;font-family:monospace;font-style:normal;font-weight:normal" x="452.994" y="408.5">
      <tspan x="452.994" y="408.5"> global </tspan>
    </text>
  </g>
  <g>
    <rect style="fill: #ffffff" x="358.994" y="445.6" width="96.7" height="28"/>
    <rect style="fill: none; fill-opacity:0; stroke-width: 2; stroke: #000000" x="358.994" y="445.6" width="96.7" height="28"/>
    <rect style="fill: #ffffff" x="358.994" y="427.6" width="30" height="18"/>
    <rect style="fill: none; fill-opacity:0; stroke-width: 2; stroke: #000000" x="358.994" y="427.6" width="30" height="18"/>
    <text font-size="12.8" style="fill: #000000;text-anchor:start;font-family:monospace;font-style:normal;font-weight:normal" x="364.994" y="463.5">
      <tspan x="364.994" y="463.5"> generator </tspan>
    </text>
  </g>
</svg>
