<?xml version="1.0" encoding="UTF-8" standalone="no"?>
<!DOCTYPE svg PUBLIC "-//W3C//DTD SVG 1.0//EN" "http://www.w3.org/TR/2001/PR-SVG-20010719/DTD/svg10.dtd">
<svg width="20cm" height="8cm" viewBox="547 158 384 160" xmlns="http://www.w3.org/2000/svg" xmlns:xlink="http://www.w3.org/1999/xlink">
  <g>
    <rect style="fill: #ffffff" x="548" y="180" width="382" height="137"/>
    <rect style="fill: none; fill-opacity:0; stroke-width: 2; stroke: #000000" x="548" y="180" width="382" height="137"/>
    <rect style="fill: #ffffff" x="548" y="160" width="50.2" height="20"/>
    <rect style="fill: none; fill-opacity:0; stroke-width: 2; stroke: #000000" x="548" y="160" width="50.2" height="20"/>
    <text font-size="12.7998" style="fill: #000000;text-anchor:start;font-family:monospace;font-style:normal;font-weight:normal" x="550" y="175">goto  </text>
  </g>
  <g>
    <ellipse style="fill: #ffffff" cx="628.15" cy="226.6" rx="69.15" ry="32"/>
    <ellipse style="fill: none; fill-opacity:0; stroke-width: 2; stroke: #000000" cx="628.15" cy="226.6" rx="69.15" ry="32"/>
    <text font-size="12.8" style="fill: #000000;text-anchor:middle;font-family:sans-serif;font-style:normal;font-weight:normal" x="628.15" y="222.5">
      <tspan x="628.15" y="222.5">Interpretar</tspan>
      <tspan x="628.15" y="238.5">sentencia</tspan>
    </text>
  </g>
  <line style="fill: none; fill-opacity:0; stroke-width: 2; stroke: #000000" x1="559" y1="226.6" x2="697.3" y2="226.6"/>
  <g>
    <ellipse style="fill: #ffffff" cx="828.25" cy="272.083" rx="72.25" ry="24.0833"/>
    <ellipse style="fill: none; fill-opacity:0; stroke-width: 2; stroke: #000000" cx="828.25" cy="272.083" rx="72.25" ry="24.0833"/>
    <text font-size="12.7998" style="fill: #000000;text-anchor:middle;font-family:sans-serif;font-style:normal;font-weight:normal" x="828.25" y="275.983">
      <tspan x="828.25" y="275.983">Sentencia goto</tspan>
    </text>
  </g>
  <g>
    <polyline style="fill: none; fill-opacity:0; stroke-width: 2; stroke-dasharray: 8; stroke: #000000" points="828.25,248 828.25,226.6 704.005,226.6 "/>
    <polyline style="fill: none; fill-opacity:0; stroke-width: 2; stroke: #000000" points="716.653,221.6 700.653,226.6 716.653,231.6 "/>
    <text font-size="12.7998" style="fill: #000000;text-anchor:middle;font-family:monospace;font-style:normal;font-weight:normal" x="762.775" y="226.6">&lt;&lt;extend&gt;&gt;</text>
  </g>
</svg>
