<?xml version="1.0" encoding="UTF-8" standalone="no"?>
<!DOCTYPE svg PUBLIC "-//W3C//DTD SVG 1.0//EN" "http://www.w3.org/TR/2001/PR-SVG-20010719/DTD/svg10.dtd">
<svg width="12cm" height="11cm" viewBox="200 150 224 219" xmlns="http://www.w3.org/2000/svg" xmlns:xlink="http://www.w3.org/1999/xlink">
  <g>
    <rect style="fill: #ffffff" x="201" y="171" width="222" height="196"/>
    <rect style="fill: none; fill-opacity:0; stroke-width: 2; stroke: #000000" x="201" y="171" width="222" height="196"/>
    <rect style="fill: #ffffff" x="201" y="151" width="42.5" height="20"/>
    <rect style="fill: none; fill-opacity:0; stroke-width: 2; stroke: #000000" x="201" y="151" width="42.5" height="20"/>
    <text font-size="12.7998" style="fill: #000000;text-anchor:start;font-family:monospace;font-style:normal;font-weight:normal" x="203" y="166"> cat </text>
  </g>
  <g>
    <rect style="fill: #ffffff" x="211.9" y="256.6" width="110.1" height="28"/>
    <rect style="fill: none; fill-opacity:0; stroke-width: 2; stroke: #000000" x="211.9" y="256.6" width="110.1" height="28"/>
    <text font-size="16" style="fill: #000000;text-anchor:middle;font-family:sans-serif;font-style:normal;font-weight:700" x="266.95" y="275.6">stringNode</text>
  </g>
  <g>
    <polyline style="fill: none; fill-opacity:0; stroke-width: 2; stroke: #000000" points="266.7,233.836 266.7,244.1 266.95,244.1 266.95,256.6 "/>
    <polygon style="fill: #ffffff" points="274.7,233.836 266.7,217.836 258.7,233.836 "/>
    <polygon style="fill: none; fill-opacity:0; stroke-width: 2; stroke: #000000" points="274.7,233.836 266.7,217.836 258.7,233.836 "/>
  </g>
  <g>
    <rect style="fill: #ffffff" x="223" y="187.6" width="87.4" height="28"/>
    <rect style="fill: none; fill-opacity:0; stroke-width: 2; stroke: #000000" x="223" y="187.6" width="87.4" height="28"/>
    <text font-size="16" style="fill: #000000;text-anchor:middle;font-family:sans-serif;font-style:normal;font-weight:700" x="266.7" y="206.6">runNode</text>
  </g>
  <g>
    <polyline style="fill: none; fill-opacity:0; stroke-width: 2; stroke: #000000" points="334.822,323.8 352,323.8 352,215.6 310.4,215.6 "/>
    <polygon style="fill: #ffffff" points="309.65,323.8 323.65,319 337.65,323.8 323.65,328.6 "/>
    <polygon style="fill: none; fill-opacity:0; stroke-width: 2; stroke: #000000" points="309.65,323.8 323.65,319 337.65,323.8 323.65,328.6 "/>
    <text font-size="12.7998" style="fill: #000000;text-anchor:start;font-family:monospace;font-style:normal;font-weight:normal" x="354" y="266.7">op1</text>
    <text font-size="12.7998" style="fill: #000000;text-anchor:start;font-family:monospace;font-style:normal;font-weight:normal" x="341.65" y="320.8"/>
    <text font-size="12.7998" style="fill: #000000;text-anchor:start;font-family:monospace;font-style:normal;font-weight:normal" x="314.4" y="212.6">1</text>
  </g>
  <g>
    <rect style="fill: #ffffff" x="225" y="323.8" width="84.65" height="28"/>
    <rect style="fill: none; fill-opacity:0; stroke-width: 2; stroke: #000000" x="225" y="323.8" width="84.65" height="28"/>
    <text font-size="16" style="fill: #000000;text-anchor:middle;font-family:sans-serif;font-style:normal;font-weight:700" x="267.325" y="342.8">catNode</text>
  </g>
  <g>
    <polyline style="fill: none; fill-opacity:0; stroke-width: 2; stroke: #000000" points="266.95,302.836 266.95,312.2 267.325,312.2 267.325,323.8 "/>
    <polygon style="fill: #ffffff" points="274.95,302.836 266.95,286.836 258.95,302.836 "/>
    <polygon style="fill: none; fill-opacity:0; stroke-width: 2; stroke: #000000" points="274.95,302.836 266.95,286.836 258.95,302.836 "/>
  </g>
  <g>
    <polyline style="fill: none; fill-opacity:0; stroke-width: 2; stroke: #000000" points="334.822,337.8 388,337.8 388,201.6 310.4,201.6 "/>
    <polygon style="fill: #ffffff" points="309.65,337.8 323.65,333 337.65,337.8 323.65,342.6 "/>
    <polygon style="fill: none; fill-opacity:0; stroke-width: 2; stroke: #000000" points="309.65,337.8 323.65,333 337.65,337.8 323.65,342.6 "/>
    <text font-size="12.7998" style="fill: #000000;text-anchor:start;font-family:monospace;font-style:normal;font-weight:normal" x="390" y="266.7">op2</text>
    <text font-size="12.7998" style="fill: #000000;text-anchor:start;font-family:monospace;font-style:normal;font-weight:normal" x="341.65" y="334.8"/>
    <text font-size="12.7998" style="fill: #000000;text-anchor:start;font-family:monospace;font-style:normal;font-weight:normal" x="314.4" y="198.6">1</text>
  </g>
</svg>
