<?xml version="1.0" encoding="UTF-8" standalone="no"?>
<!DOCTYPE svg PUBLIC "-//W3C//DTD SVG 1.0//EN" "http://www.w3.org/TR/2001/PR-SVG-20010719/DTD/svg10.dtd">
<svg width="12cm" height="5cm" viewBox="171 82 235 98" xmlns="http://www.w3.org/2000/svg" xmlns:xlink="http://www.w3.org/1999/xlink">
  <g>
    <rect style="fill: #ffffff" x="172" y="103.8" width="233" height="75.2"/>
    <rect style="fill: none; fill-opacity:0; stroke-width: 2; stroke: #000000" x="172" y="103.8" width="233" height="75.2"/>
    <rect style="fill: #ffffff" x="172" y="83.8" width="65.6" height="20"/>
    <rect style="fill: none; fill-opacity:0; stroke-width: 2; stroke: #000000" x="172" y="83.8" width="65.6" height="20"/>
    <text font-size="12.7998" style="fill: #000000;text-anchor:start;font-family:monospace;font-style:normal;font-weight:normal" x="174" y="98.8"> condOp </text>
  </g>
  <g>
    <rect style="fill: #ffffff" x="185.54" y="135.112" width="50" height="28"/>
    <rect style="fill: none; fill-opacity:0; stroke-width: 2; stroke: #000000" x="185.54" y="135.112" width="50" height="28"/>
    <rect style="fill: #ffffff" x="185.54" y="117.112" width="30" height="18"/>
    <rect style="fill: none; fill-opacity:0; stroke-width: 2; stroke: #000000" x="185.54" y="117.112" width="30" height="18"/>
    <text font-size="12.8" style="fill: #000000;text-anchor:start;font-family:monospace;font-style:normal;font-weight:normal" x="191.54" y="153.012">
      <tspan x="191.54" y="153.012">tern</tspan>
    </text>
  </g>
  <g>
    <rect style="fill: #ffffff" x="254.84" y="135.671" width="135.2" height="28"/>
    <rect style="fill: none; fill-opacity:0; stroke-width: 2; stroke: #000000" x="254.84" y="135.671" width="135.2" height="28"/>
    <rect style="fill: #ffffff" x="254.84" y="117.671" width="30" height="18"/>
    <rect style="fill: none; fill-opacity:0; stroke-width: 2; stroke: #000000" x="254.84" y="117.671" width="30" height="18"/>
    <text font-size="12.8" style="fill: #000000;text-anchor:start;font-family:monospace;font-style:normal;font-weight:normal" x="260.84" y="153.571">
      <tspan x="260.84" y="153.571"> nullCoalescing </tspan>
    </text>
  </g>
</svg>
