<?xml version="1.0" encoding="UTF-8" standalone="no"?>
<!DOCTYPE svg PUBLIC "-//W3C//DTD SVG 1.0//EN" "http://www.w3.org/TR/2001/PR-SVG-20010719/DTD/svg10.dtd">
<svg width="12cm" height="12cm" viewBox="408 293 238 235" xmlns="http://www.w3.org/2000/svg" xmlns:xlink="http://www.w3.org/1999/xlink">
  <g>
    <rect style="fill: #ffffff" x="409" y="314" width="236" height="213"/>
    <rect style="fill: none; fill-opacity:0; stroke-width: 2; stroke: #000000" x="409" y="314" width="236" height="213"/>
    <rect style="fill: #ffffff" x="409" y="294" width="42.5" height="20"/>
    <rect style="fill: none; fill-opacity:0; stroke-width: 2; stroke: #000000" x="409" y="294" width="42.5" height="20"/>
    <text font-size="12.7998" style="fill: #000000;text-anchor:start;font-family:monospace;font-style:normal;font-weight:normal" x="411" y="309"> get </text>
  </g>
  <g>
    <rect style="fill: #ffffff" x="435" y="337" width="87.4" height="28"/>
    <rect style="fill: none; fill-opacity:0; stroke-width: 2; stroke: #000000" x="435" y="337" width="87.4" height="28"/>
    <text font-size="16" style="fill: #000000;text-anchor:middle;font-family:sans-serif;font-style:normal;font-weight:700" x="478.7" y="356">runNode</text>
  </g>
  <g>
    <rect style="fill: #ffffff" x="429" y="404" width="100.7" height="28"/>
    <rect style="fill: none; fill-opacity:0; stroke-width: 2; stroke: #000000" x="429" y="404" width="100.7" height="28"/>
    <text font-size="16" style="fill: #000000;text-anchor:middle;font-family:sans-serif;font-style:normal;font-weight:700" x="479.35" y="423">nexpNode</text>
  </g>
  <g>
    <polyline style="fill: none; fill-opacity:0; stroke-width: 2; stroke: #000000" points="478.7,383.236 478.7,392.5 479.35,392.5 479.35,404 "/>
    <polygon style="fill: #ffffff" points="486.7,383.236 478.7,367.236 470.7,383.236 "/>
    <polygon style="fill: none; fill-opacity:0; stroke-width: 2; stroke: #000000" points="486.7,383.236 478.7,367.236 470.7,383.236 "/>
  </g>
  <g>
    <rect style="fill: #ffffff" x="436" y="472" width="86.65" height="28"/>
    <rect style="fill: none; fill-opacity:0; stroke-width: 2; stroke: #000000" x="436" y="472" width="86.65" height="28"/>
    <text font-size="16" style="fill: #000000;text-anchor:middle;font-family:sans-serif;font-style:normal;font-weight:700" x="479.325" y="491">getNode</text>
  </g>
  <g>
    <polyline style="fill: none; fill-opacity:0; stroke-width: 2; stroke: #000000" points="479.35,450.236 479.35,460 479.325,460 479.325,472 "/>
    <polygon style="fill: #ffffff" points="487.35,450.236 479.35,434.236 471.35,450.236 "/>
    <polygon style="fill: none; fill-opacity:0; stroke-width: 2; stroke: #000000" points="487.35,450.236 479.35,434.236 471.35,450.236 "/>
  </g>
  <g>
    <polyline style="fill: none; fill-opacity:0; stroke-width: 2; stroke: #000000" points="547.822,486 570,486 570,351 522.4,351 "/>
    <polygon style="fill: #ffffff" points="522.65,486 536.65,481.2 550.65,486 536.65,490.8 "/>
    <polygon style="fill: none; fill-opacity:0; stroke-width: 2; stroke: #000000" points="522.65,486 536.65,481.2 550.65,486 536.65,490.8 "/>
    <text font-size="12.7998" style="fill: #000000;text-anchor:start;font-family:monospace;font-style:normal;font-weight:normal" x="572" y="415.5">obj</text>
    <text font-size="12.7998" style="fill: #000000;text-anchor:start;font-family:monospace;font-style:normal;font-weight:normal" x="554.65" y="483"/>
    <text font-size="12.7998" style="fill: #000000;text-anchor:start;font-family:monospace;font-style:normal;font-weight:normal" x="526.4" y="348">1</text>
  </g>
  <g>
    <polyline style="fill: none; fill-opacity:0; stroke-width: 2; stroke: #000000" points="547.822,500 603,500 603,337 522.4,337 "/>
    <polygon style="fill: #ffffff" points="522.65,500 536.65,495.2 550.65,500 536.65,504.8 "/>
    <polygon style="fill: none; fill-opacity:0; stroke-width: 2; stroke: #000000" points="522.65,500 536.65,495.2 550.65,500 536.65,504.8 "/>
    <text font-size="12.7998" style="fill: #000000;text-anchor:start;font-family:monospace;font-style:normal;font-weight:normal" x="605" y="415.5">key</text>
    <text font-size="12.7998" style="fill: #000000;text-anchor:start;font-family:monospace;font-style:normal;font-weight:normal" x="554.65" y="497"/>
    <text font-size="12.7998" style="fill: #000000;text-anchor:start;font-family:monospace;font-style:normal;font-weight:normal" x="526.4" y="334">1</text>
  </g>
</svg>
