<?xml version="1.0" encoding="UTF-8" standalone="no"?>
<!DOCTYPE svg PUBLIC "-//W3C//DTD SVG 1.0//EN" "http://www.w3.org/TR/2001/PR-SVG-20010719/DTD/svg10.dtd">
<svg width="24cm" height="9cm" viewBox="171 82 479 168" xmlns="http://www.w3.org/2000/svg" xmlns:xlink="http://www.w3.org/1999/xlink">
  <g>
    <rect style="fill: #ffffff" x="172" y="103.8" width="477" height="145.2"/>
    <rect style="fill: none; fill-opacity:0; stroke-width: 2; stroke: #000000" x="172" y="103.8" width="477" height="145.2"/>
    <rect style="fill: #ffffff" x="172" y="83.8" width="81" height="20"/>
    <rect style="fill: none; fill-opacity:0; stroke-width: 2; stroke: #000000" x="172" y="83.8" width="81" height="20"/>
    <text font-size="12.7998" style="fill: #000000;text-anchor:start;font-family:monospace;font-style:normal;font-weight:normal" x="174" y="98.8"> stringOp </text>
  </g>
  <g>
    <rect style="fill: #ffffff" x="189.58" y="137.38" width="50.5" height="28"/>
    <rect style="fill: none; fill-opacity:0; stroke-width: 2; stroke: #000000" x="189.58" y="137.38" width="50.5" height="28"/>
    <rect style="fill: #ffffff" x="189.58" y="119.38" width="30" height="18"/>
    <rect style="fill: none; fill-opacity:0; stroke-width: 2; stroke: #000000" x="189.58" y="119.38" width="30" height="18"/>
    <text font-size="12.8" style="fill: #000000;text-anchor:start;font-family:monospace;font-style:normal;font-weight:normal" x="195.58" y="155.28">
      <tspan x="195.58" y="155.28"> cat </tspan>
    </text>
  </g>
  <g>
    <rect style="fill: #ffffff" x="253.86" y="137.38" width="81.3" height="28"/>
    <rect style="fill: none; fill-opacity:0; stroke-width: 2; stroke: #000000" x="253.86" y="137.38" width="81.3" height="28"/>
    <rect style="fill: #ffffff" x="253.86" y="119.38" width="30" height="18"/>
    <rect style="fill: none; fill-opacity:0; stroke-width: 2; stroke: #000000" x="253.86" y="119.38" width="30" height="18"/>
    <text font-size="12.8" style="fill: #000000;text-anchor:start;font-family:monospace;font-style:normal;font-weight:normal" x="259.86" y="155.28">
      <tspan x="259.86" y="155.28"> explode </tspan>
    </text>
  </g>
  <g>
    <rect style="fill: #ffffff" x="347.86" y="137.38" width="81.3" height="28"/>
    <rect style="fill: none; fill-opacity:0; stroke-width: 2; stroke: #000000" x="347.86" y="137.38" width="81.3" height="28"/>
    <rect style="fill: #ffffff" x="347.86" y="119.38" width="30" height="18"/>
    <rect style="fill: none; fill-opacity:0; stroke-width: 2; stroke: #000000" x="347.86" y="119.38" width="30" height="18"/>
    <text font-size="12.8" style="fill: #000000;text-anchor:start;font-family:monospace;font-style:normal;font-weight:normal" x="353.86" y="155.28">
      <tspan x="353.86" y="155.28"> implode </tspan>
    </text>
  </g>
  <g>
    <rect style="fill: #ffffff" x="443.44" y="137.38" width="81.3" height="28"/>
    <rect style="fill: none; fill-opacity:0; stroke-width: 2; stroke: #000000" x="443.44" y="137.38" width="81.3" height="28"/>
    <rect style="fill: #ffffff" x="443.44" y="119.38" width="30" height="18"/>
    <rect style="fill: none; fill-opacity:0; stroke-width: 2; stroke: #000000" x="443.44" y="119.38" width="30" height="18"/>
    <text font-size="12.8" style="fill: #000000;text-anchor:start;font-family:monospace;font-style:normal;font-weight:normal" x="449.44" y="155.28">
      <tspan x="449.44" y="155.28"> sprintf </tspan>
    </text>
  </g>
  <g>
    <rect style="fill: #ffffff" x="189.72" y="192.896" width="58.2" height="28"/>
    <rect style="fill: none; fill-opacity:0; stroke-width: 2; stroke: #000000" x="189.72" y="192.896" width="58.2" height="28"/>
    <rect style="fill: #ffffff" x="189.72" y="174.896" width="30" height="18"/>
    <rect style="fill: none; fill-opacity:0; stroke-width: 2; stroke: #000000" x="189.72" y="174.896" width="30" height="18"/>
    <text font-size="12.8" style="fill: #000000;text-anchor:start;font-family:monospace;font-style:normal;font-weight:normal" x="195.72" y="210.796">
      <tspan x="195.72" y="210.796"> find </tspan>
    </text>
  </g>
  <g>
    <rect style="fill: #ffffff" x="260.72" y="192.896" width="81.3" height="28"/>
    <rect style="fill: none; fill-opacity:0; stroke-width: 2; stroke: #000000" x="260.72" y="192.896" width="81.3" height="28"/>
    <rect style="fill: #ffffff" x="260.72" y="174.896" width="30" height="18"/>
    <rect style="fill: none; fill-opacity:0; stroke-width: 2; stroke: #000000" x="260.72" y="174.896" width="30" height="18"/>
    <text font-size="12.8" style="fill: #000000;text-anchor:start;font-family:monospace;font-style:normal;font-weight:normal" x="266.72" y="210.796">
      <tspan x="266.72" y="210.796"> replace </tspan>
    </text>
  </g>
  <g>
    <rect style="fill: #ffffff" x="353.3" y="192.896" width="104.4" height="28"/>
    <rect style="fill: none; fill-opacity:0; stroke-width: 2; stroke: #000000" x="353.3" y="192.896" width="104.4" height="28"/>
    <rect style="fill: #ffffff" x="353.3" y="174.896" width="30" height="18"/>
    <rect style="fill: none; fill-opacity:0; stroke-width: 2; stroke: #000000" x="353.3" y="174.896" width="30" height="18"/>
    <text font-size="12.8" style="fill: #000000;text-anchor:start;font-family:monospace;font-style:normal;font-weight:normal" x="359.3" y="210.796">
      <tspan x="359.3" y="210.796"> subreplace </tspan>
    </text>
  </g>
  <g>
    <rect style="fill: #ffffff" x="472.3" y="192.896" width="65.9" height="28"/>
    <rect style="fill: none; fill-opacity:0; stroke-width: 2; stroke: #000000" x="472.3" y="192.896" width="65.9" height="28"/>
    <rect style="fill: #ffffff" x="472.3" y="174.896" width="30" height="18"/>
    <rect style="fill: none; fill-opacity:0; stroke-width: 2; stroke: #000000" x="472.3" y="174.896" width="30" height="18"/>
    <text font-size="12.8" style="fill: #000000;text-anchor:start;font-family:monospace;font-style:normal;font-weight:normal" x="478.3" y="210.796">
      <tspan x="478.3" y="210.796"> upper </tspan>
    </text>
  </g>
  <g>
    <rect style="fill: #ffffff" x="555.48" y="192.896" width="65.9" height="28"/>
    <rect style="fill: none; fill-opacity:0; stroke-width: 2; stroke: #000000" x="555.48" y="192.896" width="65.9" height="28"/>
    <rect style="fill: #ffffff" x="555.48" y="174.896" width="30" height="18"/>
    <rect style="fill: none; fill-opacity:0; stroke-width: 2; stroke: #000000" x="555.48" y="174.896" width="30" height="18"/>
    <text font-size="12.8" style="fill: #000000;text-anchor:start;font-family:monospace;font-style:normal;font-weight:normal" x="561.48" y="210.796">
      <tspan x="561.48" y="210.796"> lower </tspan>
    </text>
  </g>
</svg>
