<?xml version="1.0" encoding="UTF-8" standalone="no"?>
<!DOCTYPE svg PUBLIC "-//W3C//DTD SVG 1.0//EN" "http://www.w3.org/TR/2001/PR-SVG-20010719/DTD/svg10.dtd">
<svg width="12cm" height="14cm" viewBox="275 180 239 261" xmlns="http://www.w3.org/2000/svg" xmlns:xlink="http://www.w3.org/1999/xlink">
  <g>
    <rect style="fill: #ffffff" x="276" y="201" width="236" height="238"/>
    <rect style="fill: none; fill-opacity:0; stroke-width: 2; stroke: #000000" x="276" y="201" width="236" height="238"/>
    <rect style="fill: #ffffff" x="276" y="181" width="50.2" height="20"/>
    <rect style="fill: none; fill-opacity:0; stroke-width: 2; stroke: #000000" x="276" y="181" width="50.2" height="20"/>
    <text font-size="12.7998" style="fill: #000000;text-anchor:start;font-family:monospace;font-style:normal;font-weight:normal" x="278" y="196"> file </text>
  </g>
  <g>
    <rect style="fill: #ffffff" x="296" y="222" width="87.4" height="28"/>
    <rect style="fill: none; fill-opacity:0; stroke-width: 2; stroke: #000000" x="296" y="222" width="87.4" height="28"/>
    <text font-size="16" style="fill: #000000;text-anchor:middle;font-family:sans-serif;font-style:normal;font-weight:700" x="339.7" y="241">runNode</text>
  </g>
  <g>
    <rect style="fill: #ffffff" x="290" y="291" width="99.65" height="28"/>
    <rect style="fill: none; fill-opacity:0; stroke-width: 2; stroke: #000000" x="290" y="291" width="99.65" height="28"/>
    <text font-size="16" style="fill: #000000;text-anchor:middle;font-family:sans-serif;font-style:normal;font-weight:700" x="339.825" y="310">logicNode</text>
  </g>
  <g>
    <polyline style="fill: none; fill-opacity:0; stroke-width: 2; stroke: #000000" points="339.7,268.236 339.7,278.5 339.825,278.5 339.825,291 "/>
    <polygon style="fill: #ffffff" points="347.7,268.236 339.7,252.236 331.7,268.236 "/>
    <polygon style="fill: none; fill-opacity:0; stroke-width: 2; stroke: #000000" points="347.7,268.236 339.7,252.236 331.7,268.236 "/>
  </g>
  <g>
    <rect style="fill: #ffffff" x="298" y="358" width="84.9" height="28"/>
    <rect style="fill: none; fill-opacity:0; stroke-width: 2; stroke: #000000" x="298" y="358" width="84.9" height="28"/>
    <text font-size="16" style="fill: #000000;text-anchor:middle;font-family:sans-serif;font-style:normal;font-weight:700" x="340.45" y="377">fileNode</text>
  </g>
  <g>
    <polyline style="fill: none; fill-opacity:0; stroke-width: 2; stroke: #000000" points="339.825,337.236 339.825,346.5 340.45,346.5 340.45,358 "/>
    <polygon style="fill: #ffffff" points="347.825,337.236 339.825,321.236 331.825,337.236 "/>
    <polygon style="fill: none; fill-opacity:0; stroke-width: 2; stroke: #000000" points="347.825,337.236 339.825,321.236 331.825,337.236 "/>
  </g>
  <g>
    <polyline style="fill: none; fill-opacity:0; stroke-width: 2; stroke: #000000" points="408.072,372 417.9,372 417.9,236 383.4,236 "/>
    <polygon style="fill: #ffffff" points="382.9,372 396.9,367.2 410.9,372 396.9,376.8 "/>
    <polygon style="fill: none; fill-opacity:0; stroke-width: 2; stroke: #000000" points="382.9,372 396.9,367.2 410.9,372 396.9,376.8 "/>
    <text font-size="12.7998" style="fill: #000000;text-anchor:start;font-family:monospace;font-style:normal;font-weight:normal" x="419.9" y="301">file</text>
    <text font-size="12.7998" style="fill: #000000;text-anchor:start;font-family:monospace;font-style:normal;font-weight:normal" x="414.9" y="369"/>
    <text font-size="12.7998" style="fill: #000000;text-anchor:start;font-family:monospace;font-style:normal;font-weight:normal" x="387.4" y="233"> 1</text>
    <text font-size="12.7998" style="fill: #000000;text-anchor:start;font-family:monospace;font-style:normal;font-weight:normal" x="387.4" y="249"/>
  </g>
  <g>
    <polyline style="fill: none; fill-opacity:0; stroke-width: 2; stroke: #000000" points="408.072,386 466,386 466,222 383.4,222 "/>
    <polygon style="fill: #ffffff" points="382.9,386 396.9,381.2 410.9,386 396.9,390.8 "/>
    <polygon style="fill: none; fill-opacity:0; stroke-width: 2; stroke: #000000" points="382.9,386 396.9,381.2 410.9,386 396.9,390.8 "/>
    <text font-size="12.7998" style="fill: #000000;text-anchor:start;font-family:monospace;font-style:normal;font-weight:normal" x="468" y="301">mode</text>
    <text font-size="12.7998" style="fill: #000000;text-anchor:start;font-family:monospace;font-style:normal;font-weight:normal" x="414.9" y="383"/>
    <text font-size="12.7998" style="fill: #000000;text-anchor:start;font-family:monospace;font-style:normal;font-weight:normal" x="387.4" y="219">1</text>
  </g>
</svg>
