<?xml version="1.0" encoding="UTF-8" standalone="no"?>
<!DOCTYPE svg PUBLIC "-//W3C//DTD SVG 1.0//EN" "http://www.w3.org/TR/2001/PR-SVG-20010719/DTD/svg10.dtd">
<svg width="11cm" height="12cm" viewBox="513 248 214 233" xmlns="http://www.w3.org/2000/svg" xmlns:xlink="http://www.w3.org/1999/xlink">
  <g>
    <rect style="fill: #ffffff" x="514" y="269.4" width="212" height="210.6"/>
    <rect style="fill: none; fill-opacity:0; stroke-width: 2; stroke: #000000" x="514" y="269.4" width="212" height="210.6"/>
    <rect style="fill: #ffffff" x="514" y="249.4" width="50.2" height="20"/>
    <rect style="fill: none; fill-opacity:0; stroke-width: 2; stroke: #000000" x="514" y="249.4" width="50.2" height="20"/>
    <text font-size="12.7998" style="fill: #000000;text-anchor:start;font-family:monospace;font-style:normal;font-weight:normal" x="516" y="264.4"> date </text>
  </g>
  <g>
    <rect style="fill: #ffffff" x="547" y="290.4" width="87.4" height="28"/>
    <rect style="fill: none; fill-opacity:0; stroke-width: 2; stroke: #000000" x="547" y="290.4" width="87.4" height="28"/>
    <text font-size="16" style="fill: #000000;text-anchor:middle;font-family:sans-serif;font-style:normal;font-weight:700" x="590.7" y="309.4">runNode</text>
  </g>
  <g>
    <rect style="fill: #ffffff" x="536" y="359.4" width="110.1" height="28"/>
    <rect style="fill: none; fill-opacity:0; stroke-width: 2; stroke: #000000" x="536" y="359.4" width="110.1" height="28"/>
    <text font-size="16" style="fill: #000000;text-anchor:middle;font-family:sans-serif;font-style:normal;font-weight:700" x="591.05" y="378.4">stringNode</text>
  </g>
  <g>
    <polyline style="fill: none; fill-opacity:0; stroke-width: 2; stroke: #000000" points="590.7,336.636 590.7,346.9 591.05,346.9 591.05,359.4 "/>
    <polygon style="fill: #ffffff" points="598.7,336.636 590.7,320.636 582.7,336.636 "/>
    <polygon style="fill: none; fill-opacity:0; stroke-width: 2; stroke: #000000" points="598.7,336.636 590.7,320.636 582.7,336.636 "/>
  </g>
  <g>
    <rect style="fill: #ffffff" x="542" y="426.4" width="97.45" height="28"/>
    <rect style="fill: none; fill-opacity:0; stroke-width: 2; stroke: #000000" x="542" y="426.4" width="97.45" height="28"/>
    <text font-size="16" style="fill: #000000;text-anchor:middle;font-family:sans-serif;font-style:normal;font-weight:700" x="590.725" y="445.4">dateNode</text>
  </g>
  <g>
    <polyline style="fill: none; fill-opacity:0; stroke-width: 2; stroke: #000000" points="591.05,405.636 591.05,414.9 590.725,414.9 590.725,426.4 "/>
    <polygon style="fill: #ffffff" points="599.05,405.636 591.05,389.636 583.05,405.636 "/>
    <polygon style="fill: none; fill-opacity:0; stroke-width: 2; stroke: #000000" points="599.05,405.636 591.05,389.636 583.05,405.636 "/>
  </g>
  <g>
    <polyline style="fill: none; fill-opacity:0; stroke-width: 2; stroke: #000000" points="664.622,440.4 674.45,440.4 674.45,304.4 634.4,304.4 "/>
    <polygon style="fill: #ffffff" points="639.45,440.4 653.45,435.6 667.45,440.4 653.45,445.2 "/>
    <polygon style="fill: none; fill-opacity:0; stroke-width: 2; stroke: #000000" points="639.45,440.4 653.45,435.6 667.45,440.4 653.45,445.2 "/>
    <text font-size="12.7998" style="fill: #000000;text-anchor:start;font-family:monospace;font-style:normal;font-weight:normal" x="676.45" y="369.4">str</text>
    <text font-size="12.7998" style="fill: #000000;text-anchor:start;font-family:monospace;font-style:normal;font-weight:normal" x="671.45" y="437.4"/>
    <text font-size="12.7998" style="fill: #000000;text-anchor:start;font-family:monospace;font-style:normal;font-weight:normal" x="638.4" y="301.4"> 1</text>
    <text font-size="12.7998" style="fill: #000000;text-anchor:start;font-family:monospace;font-style:normal;font-weight:normal" x="638.4" y="317.4"/>
  </g>
</svg>
