<svg xmlns="http://www.w3.org/2000/svg" width="410" height="146">
         <defs>
            <style type="text/css">
               @namespace "http://www.w3.org/2000/svg";
               .line                 {fill: none; stroke: #262626;}
               .bold-line            {stroke: #0A0A0A; shape-rendering: crispEdges; stroke-width:
               2; }
               .thin-line            {stroke: #0F0F0F; shape-rendering: crispEdges}
               .filled               {fill: #262626; stroke: none;}
               text.terminal         {font-family: Verdana, Sans-serif;
               font-size: 12px;
               fill: #0A0A0A;
               font-weight: bold;
               }
               text.nonterminal      {font-family: Verdana, Sans-serif;
               font-size: 12px;
               fill: #0D0D0D;
               }
               text.regexp           {font-family: Verdana, Sans-serif;
               font-size: 12px;
               fill: #0F0F0F;
               }
               rect, circle, polygon {fill: #262626; stroke: #262626;}
               rect.terminal         {fill: #FFFFFF; stroke: #262626;}
               rect.nonterminal      {fill: #FFFFFF; stroke: #262626;}
               rect.text             {fill: none; stroke: none;}    
               polygon.regexp        {fill: #FFFFFF; stroke: #262626;}
               
            </style>
         </defs>
         <polygon points="9 17 1 13 1 21"/>
         <polygon points="17 17 9 13 9 21"/>
         <rect x="31" y="3" width="40" height="32" rx="10"/>
         <rect x="29" y="1" width="40" height="32" class="terminal" rx="10"/>
         <text class="terminal" x="39" y="21">elif</text>
         <a xmlns:xlink="http://www.w3.org/1999/xlink" xlink:href="#exp" xlink:title="exp">
            <rect x="91" y="3" width="42" height="32"/>
            <rect x="89" y="1" width="42" height="32" class="nonterminal"/>
            <text class="nonterminal" x="99" y="21">exp</text>
         </a>
         <rect x="173" y="3" width="28" height="32" rx="10"/>
         <rect x="171" y="1" width="28" height="32" class="terminal" rx="10"/>
         <text class="terminal" x="181" y="21">{</text>
         <a xmlns:xlink="http://www.w3.org/1999/xlink" xlink:href="#stmts" xlink:title="stmts">
            <rect x="241" y="3" width="54" height="32"/>
            <rect x="239" y="1" width="54" height="32" class="nonterminal"/>
            <text class="nonterminal" x="249" y="21">stmts</text>
         </a>
         <rect x="335" y="3" width="28" height="32" rx="10"/>
         <rect x="333" y="1" width="28" height="32" class="terminal" rx="10"/>
         <text class="terminal" x="343" y="21">}</text>
         <a xmlns:xlink="http://www.w3.org/1999/xlink" xlink:href="#stmt" xlink:title="stmt">
            <rect x="173" y="69" width="48" height="32"/>
            <rect x="171" y="67" width="48" height="32" class="nonterminal"/>
            <text class="nonterminal" x="181" y="87">stmt</text>
         </a>
         <rect x="241" y="69" width="24" height="32" rx="10"/>
         <rect x="239" y="67" width="24" height="32" class="terminal" rx="10"/>
         <text class="terminal" x="249" y="87">;</text>
         <a xmlns:xlink="http://www.w3.org/1999/xlink" xlink:href="#stmtb" xlink:title="stmtb">
            <rect x="173" y="113" width="56" height="32"/>
            <rect x="171" y="111" width="56" height="32" class="nonterminal"/>
            <text class="nonterminal" x="181" y="131">stmtb</text>
         </a>
         <svg:path xmlns:svg="http://www.w3.org/2000/svg" class="line" d="m17 17 h2 m0 0 h10 m40 0 h10 m0 0 h10 m42 0 h10 m20 0 h10 m28 0 h10 m20 0 h10 m54 0 h10 m-94 0 h20 m74 0 h20 m-114 0 q10 0 10 10 m94 0 q0 -10 10 -10 m-104 10 v14 m94 0 v-14 m-94 14 q0 10 10 10 m74 0 q10 0 10 -10 m-84 10 h10 m0 0 h64 m20 -34 h10 m28 0 h10 m-230 0 h20 m210 0 h20 m-250 0 q10 0 10 10 m230 0 q0 -10 10 -10 m-240 10 v46 m230 0 v-46 m-230 46 q0 10 10 10 m210 0 q10 0 10 -10 m-220 10 h10 m48 0 h10 m0 0 h10 m24 0 h10 m0 0 h98 m-220 -10 v20 m230 0 v-20 m-230 20 v24 m230 0 v-24 m-230 24 q0 10 10 10 m210 0 q10 0 10 -10 m-220 10 h10 m56 0 h10 m0 0 h134 m23 -110 h-3"/>
         <polygon points="401 17 409 13 409 21"/>
         <polygon points="401 17 393 13 393 21"/>
      </svg>
