<?xml version="1.0" encoding="UTF-8" standalone="no"?>
<!DOCTYPE svg PUBLIC "-//W3C//DTD SVG 1.0//EN" "http://www.w3.org/TR/2001/PR-SVG-20010719/DTD/svg10.dtd">
<svg width="12cm" height="11cm" viewBox="170 140 224 217" xmlns="http://www.w3.org/2000/svg" xmlns:xlink="http://www.w3.org/1999/xlink">
  <g>
    <rect style="fill: #ffffff" x="172" y="162" width="222" height="194.8"/>
    <rect style="fill: none; fill-opacity:0; stroke-width: 2; stroke: #000000" x="172" y="162" width="222" height="194.8"/>
    <rect style="fill: #ffffff" x="172" y="142" width="42.5" height="20"/>
    <rect style="fill: none; fill-opacity:0; stroke-width: 2; stroke: #000000" x="172" y="142" width="42.5" height="20"/>
    <text font-size="12.7998" style="fill: #000000;text-anchor:start;font-family:monospace;font-style:normal;font-weight:normal" x="174" y="157"> mod </text>
  </g>
  <g>
    <rect style="fill: #ffffff" x="182.9" y="246.4" width="99.95" height="28"/>
    <rect style="fill: none; fill-opacity:0; stroke-width: 2; stroke: #000000" x="182.9" y="246.4" width="99.95" height="28"/>
    <text font-size="16" style="fill: #000000;text-anchor:middle;font-family:sans-serif;font-style:normal;font-weight:700" x="232.875" y="265.4">arithNode</text>
  </g>
  <g>
    <polyline style="fill: none; fill-opacity:0; stroke-width: 2; stroke: #000000" points="232.7,224.636 232.7,234.4 232.875,234.4 232.875,246.4 "/>
    <polygon style="fill: #ffffff" points="240.7,224.636 232.7,208.636 224.7,224.636 "/>
    <polygon style="fill: none; fill-opacity:0; stroke-width: 2; stroke: #000000" points="240.7,224.636 232.7,208.636 224.7,224.636 "/>
  </g>
  <g>
    <rect style="fill: #ffffff" x="189" y="178.4" width="87.4" height="28"/>
    <rect style="fill: none; fill-opacity:0; stroke-width: 2; stroke: #000000" x="189" y="178.4" width="87.4" height="28"/>
    <text font-size="16" style="fill: #000000;text-anchor:middle;font-family:sans-serif;font-style:normal;font-weight:700" x="232.7" y="197.4">runNode</text>
  </g>
  <g>
    <polyline style="fill: none; fill-opacity:0; stroke-width: 2; stroke: #000000" points="305.972,313.6 323,313.6 323,206.4 276.4,206.4 "/>
    <polygon style="fill: #ffffff" points="280.8,313.6 294.8,308.8 308.8,313.6 294.8,318.4 "/>
    <polygon style="fill: none; fill-opacity:0; stroke-width: 2; stroke: #000000" points="280.8,313.6 294.8,308.8 308.8,313.6 294.8,318.4 "/>
    <text font-size="12.7998" style="fill: #000000;text-anchor:start;font-family:monospace;font-style:normal;font-weight:normal" x="325" y="257">op1</text>
    <text font-size="12.7998" style="fill: #000000;text-anchor:start;font-family:monospace;font-style:normal;font-weight:normal" x="312.8" y="310.6"/>
    <text font-size="12.7998" style="fill: #000000;text-anchor:start;font-family:monospace;font-style:normal;font-weight:normal" x="280.4" y="203.4">1</text>
  </g>
  <g>
    <rect style="fill: #ffffff" x="185" y="313.6" width="95.8" height="28"/>
    <rect style="fill: none; fill-opacity:0; stroke-width: 2; stroke: #000000" x="185" y="313.6" width="95.8" height="28"/>
    <text font-size="16" style="fill: #000000;text-anchor:middle;font-family:sans-serif;font-style:normal;font-weight:700" x="232.9" y="332.6">modNode</text>
  </g>
  <g>
    <polyline style="fill: none; fill-opacity:0; stroke-width: 2; stroke: #000000" points="232.875,292.636 232.875,302 232.9,302 232.9,313.6 "/>
    <polygon style="fill: #ffffff" points="240.875,292.636 232.875,276.636 224.875,292.636 "/>
    <polygon style="fill: none; fill-opacity:0; stroke-width: 2; stroke: #000000" points="240.875,292.636 232.875,276.636 224.875,292.636 "/>
  </g>
  <g>
    <polyline style="fill: none; fill-opacity:0; stroke-width: 2; stroke: #000000" points="305.972,327.6 359,327.6 359,192.4 276.4,192.4 "/>
    <polygon style="fill: #ffffff" points="280.8,327.6 294.8,322.8 308.8,327.6 294.8,332.4 "/>
    <polygon style="fill: none; fill-opacity:0; stroke-width: 2; stroke: #000000" points="280.8,327.6 294.8,322.8 308.8,327.6 294.8,332.4 "/>
    <text font-size="12.7998" style="fill: #000000;text-anchor:start;font-family:monospace;font-style:normal;font-weight:normal" x="361" y="257">op2</text>
    <text font-size="12.7998" style="fill: #000000;text-anchor:start;font-family:monospace;font-style:normal;font-weight:normal" x="312.8" y="324.6"/>
    <text font-size="12.7998" style="fill: #000000;text-anchor:start;font-family:monospace;font-style:normal;font-weight:normal" x="280.4" y="189.4">1</text>
  </g>
</svg>
