<?xml version="1.0" encoding="UTF-8" standalone="no"?>
<!DOCTYPE svg PUBLIC "-//W3C//DTD SVG 1.0//EN" "http://www.w3.org/TR/2001/PR-SVG-20010719/DTD/svg10.dtd">
<svg width="12cm" height="13cm" viewBox="170 82 238 260" xmlns="http://www.w3.org/2000/svg" xmlns:xlink="http://www.w3.org/1999/xlink">
  <g>
    <rect style="fill: #ffffff" x="172" y="103.8" width="236" height="238"/>
    <rect style="fill: none; fill-opacity:0; stroke-width: 2; stroke: #000000" x="172" y="103.8" width="236" height="238"/>
    <rect style="fill: #ffffff" x="172" y="83.8" width="50.2" height="20"/>
    <rect style="fill: none; fill-opacity:0; stroke-width: 2; stroke: #000000" x="172" y="83.8" width="50.2" height="20"/>
    <text font-size="12.7998" style="fill: #000000;text-anchor:start;font-family:monospace;font-style:normal;font-weight:normal" x="174" y="98.8"> fput </text>
  </g>
  <g>
    <rect style="fill: #ffffff" x="192" y="124.8" width="87.4" height="28"/>
    <rect style="fill: none; fill-opacity:0; stroke-width: 2; stroke: #000000" x="192" y="124.8" width="87.4" height="28"/>
    <text font-size="16" style="fill: #000000;text-anchor:middle;font-family:sans-serif;font-style:normal;font-weight:700" x="235.7" y="143.8">runNode</text>
  </g>
  <g>
    <rect style="fill: #ffffff" x="186" y="193.8" width="99.95" height="28"/>
    <rect style="fill: none; fill-opacity:0; stroke-width: 2; stroke: #000000" x="186" y="193.8" width="99.95" height="28"/>
    <text font-size="16" style="fill: #000000;text-anchor:middle;font-family:sans-serif;font-style:normal;font-weight:700" x="235.975" y="212.8">arithNode</text>
  </g>
  <g>
    <polyline style="fill: none; fill-opacity:0; stroke-width: 2; stroke: #000000" points="235.7,171.036 235.7,181.3 235.975,181.3 235.975,193.8 "/>
    <polygon style="fill: #ffffff" points="243.7,171.036 235.7,155.036 227.7,171.036 "/>
    <polygon style="fill: none; fill-opacity:0; stroke-width: 2; stroke: #000000" points="243.7,171.036 235.7,155.036 227.7,171.036 "/>
  </g>
  <g>
    <rect style="fill: #ffffff" x="189" y="260.8" width="94.15" height="28"/>
    <rect style="fill: none; fill-opacity:0; stroke-width: 2; stroke: #000000" x="189" y="260.8" width="94.15" height="28"/>
    <text font-size="16" style="fill: #000000;text-anchor:middle;font-family:sans-serif;font-style:normal;font-weight:700" x="236.075" y="279.8">fputNode</text>
  </g>
  <g>
    <polyline style="fill: none; fill-opacity:0; stroke-width: 2; stroke: #000000" points="235.975,240.036 235.975,249.3 236.075,249.3 236.075,260.8 "/>
    <polygon style="fill: #ffffff" points="243.975,240.036 235.975,224.036 227.975,240.036 "/>
    <polygon style="fill: none; fill-opacity:0; stroke-width: 2; stroke: #000000" points="243.975,240.036 235.975,224.036 227.975,240.036 "/>
  </g>
  <g>
    <polyline style="fill: none; fill-opacity:0; stroke-width: 2; stroke: #000000" points="308.322,274.8 318.15,274.8 318.15,138.8 279.4,138.8 "/>
    <polygon style="fill: #ffffff" points="283.15,274.8 297.15,270 311.15,274.8 297.15,279.6 "/>
    <polygon style="fill: none; fill-opacity:0; stroke-width: 2; stroke: #000000" points="283.15,274.8 297.15,270 311.15,274.8 297.15,279.6 "/>
    <text font-size="12.7998" style="fill: #000000;text-anchor:start;font-family:monospace;font-style:normal;font-weight:normal" x="320.15" y="203.8">file</text>
    <text font-size="12.7998" style="fill: #000000;text-anchor:start;font-family:monospace;font-style:normal;font-weight:normal" x="315.15" y="271.8"/>
    <text font-size="12.7998" style="fill: #000000;text-anchor:start;font-family:monospace;font-style:normal;font-weight:normal" x="283.4" y="135.8"> 1</text>
    <text font-size="12.7998" style="fill: #000000;text-anchor:start;font-family:monospace;font-style:normal;font-weight:normal" x="283.4" y="151.8"/>
  </g>
  <g>
    <polyline style="fill: none; fill-opacity:0; stroke-width: 2; stroke: #000000" points="308.322,288.8 362,288.8 362,124.8 279.4,124.8 "/>
    <polygon style="fill: #ffffff" points="283.15,288.8 297.15,284 311.15,288.8 297.15,293.6 "/>
    <polygon style="fill: none; fill-opacity:0; stroke-width: 2; stroke: #000000" points="283.15,288.8 297.15,284 311.15,288.8 297.15,293.6 "/>
    <text font-size="12.7998" style="fill: #000000;text-anchor:start;font-family:monospace;font-style:normal;font-weight:normal" x="364" y="203.8">val</text>
    <text font-size="12.7998" style="fill: #000000;text-anchor:start;font-family:monospace;font-style:normal;font-weight:normal" x="315.15" y="285.8"/>
    <text font-size="12.7998" style="fill: #000000;text-anchor:start;font-family:monospace;font-style:normal;font-weight:normal" x="283.4" y="121.8">1</text>
  </g>
</svg>
