<?xml version="1.0" encoding="UTF-8" standalone="no"?>
<!DOCTYPE svg PUBLIC "-//W3C//DTD SVG 1.0//EN" "http://www.w3.org/TR/2001/PR-SVG-20010719/DTD/svg10.dtd">
<svg width="14cm" height="15cm" viewBox="180 82 273 292" xmlns="http://www.w3.org/2000/svg" xmlns:xlink="http://www.w3.org/1999/xlink">
  <g>
    <rect style="fill: #ffffff" x="182" y="103.8" width="271" height="269.2"/>
    <rect style="fill: none; fill-opacity:0; stroke-width: 2; stroke: #000000" x="182" y="103.8" width="271" height="269.2"/>
    <rect style="fill: #ffffff" x="182" y="83.8" width="81" height="20"/>
    <rect style="fill: none; fill-opacity:0; stroke-width: 2; stroke: #000000" x="182" y="83.8" width="81" height="20"/>
    <text font-size="12.7998" style="fill: #000000;text-anchor:start;font-family:monospace;font-style:normal;font-weight:normal" x="184" y="98.8"> assigRef </text>
  </g>
  <g>
    <rect style="fill: #ffffff" x="259" y="187.8" width="100.7" height="28"/>
    <rect style="fill: none; fill-opacity:0; stroke-width: 2; stroke: #000000" x="259" y="187.8" width="100.7" height="28"/>
    <text font-size="16" style="fill: #000000;text-anchor:middle;font-family:sans-serif;font-style:normal;font-weight:700" x="309.35" y="206.8">nexpNode</text>
  </g>
  <g>
    <rect style="fill: #ffffff" x="265" y="120.8" width="87.4" height="28"/>
    <rect style="fill: none; fill-opacity:0; stroke-width: 2; stroke: #000000" x="265" y="120.8" width="87.4" height="28"/>
    <text font-size="16" style="fill: #000000;text-anchor:middle;font-family:sans-serif;font-style:normal;font-weight:700" x="308.7" y="139.8">runNode</text>
  </g>
  <g>
    <polyline style="fill: none; fill-opacity:0; stroke-width: 2; stroke: #000000" points="308.7,167.036 308.7,176.3 309.35,176.3 309.35,187.8 "/>
    <polygon style="fill: #ffffff" points="316.7,167.036 308.7,151.036 300.7,167.036 "/>
    <polygon style="fill: none; fill-opacity:0; stroke-width: 2; stroke: #000000" points="316.7,167.036 308.7,151.036 300.7,167.036 "/>
  </g>
  <g>
    <rect style="fill: #ffffff" x="242" y="262.8" width="133.55" height="28"/>
    <rect style="fill: none; fill-opacity:0; stroke-width: 2; stroke: #000000" x="242" y="262.8" width="133.55" height="28"/>
    <text font-size="16" style="fill: #000000;text-anchor:middle;font-family:sans-serif;font-style:normal;font-weight:700" x="308.775" y="281.8">assigRefNode</text>
  </g>
  <g>
    <polyline style="fill: none; fill-opacity:0; stroke-width: 2; stroke: #000000" points="309.35,234.036 309.35,247.3 308.775,247.3 308.775,262.8 "/>
    <polygon style="fill: #ffffff" points="317.35,234.036 309.35,218.036 301.35,234.036 "/>
    <polygon style="fill: none; fill-opacity:0; stroke-width: 2; stroke: #000000" points="317.35,234.036 309.35,218.036 301.35,234.036 "/>
  </g>
  <g>
    <polyline style="fill: none; fill-opacity:0; stroke-width: 2; stroke: #000000" points="216.828,276.8 201,276.8 201,134.8 265,134.8 "/>
    <polygon style="fill: #ffffff" points="242,276.8 228,281.6 214,276.8 228,272 "/>
    <polygon style="fill: none; fill-opacity:0; stroke-width: 2; stroke: #000000" points="242,276.8 228,281.6 214,276.8 228,272 "/>
    <text font-size="12.7998" style="fill: #000000;text-anchor:start;font-family:monospace;font-style:normal;font-weight:normal" x="203" y="202.8">right</text>
    <text font-size="12.7998" style="fill: #000000;text-anchor:end;font-family:monospace;font-style:normal;font-weight:normal" x="210" y="273.8"/>
    <text font-size="12.7998" style="fill: #000000;text-anchor:end;font-family:monospace;font-style:normal;font-weight:normal" x="261" y="131.8"/>
  </g>
  <g>
    <polyline style="fill: none; fill-opacity:0; stroke-width: 2; stroke: #000000" points="400.722,276.8 410.55,276.8 410.55,134.8 352.4,134.8 "/>
    <polygon style="fill: #ffffff" points="375.55,276.8 389.55,272 403.55,276.8 389.55,281.6 "/>
    <polygon style="fill: none; fill-opacity:0; stroke-width: 2; stroke: #000000" points="375.55,276.8 389.55,272 403.55,276.8 389.55,281.6 "/>
    <text font-size="12.7998" style="fill: #000000;text-anchor:start;font-family:monospace;font-style:normal;font-weight:normal" x="412.55" y="202.8">left</text>
    <text font-size="12.7998" style="fill: #000000;text-anchor:start;font-family:monospace;font-style:normal;font-weight:normal" x="407.55" y="273.8"/>
    <text font-size="12.7998" style="fill: #000000;text-anchor:start;font-family:monospace;font-style:normal;font-weight:normal" x="356.4" y="131.8"/>
  </g>
  <g>
    <rect style="fill: #ffffff" x="305" y="329" width="103.45" height="28"/>
    <rect style="fill: none; fill-opacity:0; stroke-width: 2; stroke: #000000" x="305" y="329" width="103.45" height="28"/>
    <text font-size="16" style="fill: #000000;text-anchor:middle;font-family:sans-serif;font-style:normal;font-weight:700" x="356.725" y="348">assigNode</text>
  </g>
  <g>
    <polyline style="fill: none; fill-opacity:0; stroke-width: 2; stroke-dasharray: 8; stroke: #000000" points="308.775,290.8 308.775,305.9 356.725,305.9 356.725,322.295 "/>
    <polyline style="fill: none; fill-opacity:0; stroke-width: 2; stroke: #000000" points="351.725,309.647 356.725,325.647 361.725,309.647 "/>
  </g>
</svg>
