<?xml version="1.0" encoding="UTF-8" standalone="no"?>
<!DOCTYPE svg PUBLIC "-//W3C//DTD SVG 1.0//EN" "http://www.w3.org/TR/2001/PR-SVG-20010719/DTD/svg10.dtd">
<svg width="13cm" height="18cm" viewBox="170 82 247 350" xmlns="http://www.w3.org/2000/svg" xmlns:xlink="http://www.w3.org/1999/xlink">
  <g>
    <rect style="fill: #ffffff" x="172" y="103.8" width="245" height="328"/>
    <rect style="fill: none; fill-opacity:0; stroke-width: 2; stroke: #000000" x="172" y="103.8" width="245" height="328"/>
    <rect style="fill: #ffffff" x="172" y="83.8" width="81" height="20"/>
    <rect style="fill: none; fill-opacity:0; stroke-width: 2; stroke: #000000" x="172" y="83.8" width="81" height="20"/>
    <text font-size="12.7998" style="fill: #000000;text-anchor:start;font-family:monospace;font-style:normal;font-weight:normal" x="174" y="98.8"> decAssig </text>
  </g>
  <g>
    <rect style="fill: #ffffff" x="211.9" y="189.8" width="100.75" height="28"/>
    <rect style="fill: none; fill-opacity:0; stroke-width: 2; stroke: #000000" x="211.9" y="189.8" width="100.75" height="28"/>
    <text font-size="16" style="fill: #000000;text-anchor:middle;font-family:sans-serif;font-style:normal;font-weight:700" x="262.275" y="208.8">dexpNode</text>
  </g>
  <g>
    <rect style="fill: #ffffff" x="211.9" y="256.6" width="99.95" height="28"/>
    <rect style="fill: none; fill-opacity:0; stroke-width: 2; stroke: #000000" x="211.9" y="256.6" width="99.95" height="28"/>
    <text font-size="16" style="fill: #000000;text-anchor:middle;font-family:sans-serif;font-style:normal;font-weight:700" x="261.875" y="275.6">arithNode</text>
  </g>
  <g>
    <polyline style="fill: none; fill-opacity:0; stroke-width: 2; stroke: #000000" points="262.275,236.036 262.275,245.2 261.875,245.2 261.875,256.6 "/>
    <polygon style="fill: #ffffff" points="270.275,236.036 262.275,220.036 254.275,236.036 "/>
    <polygon style="fill: none; fill-opacity:0; stroke-width: 2; stroke: #000000" points="270.275,236.036 262.275,220.036 254.275,236.036 "/>
  </g>
  <g>
    <rect style="fill: #ffffff" x="218" y="123.6" width="87.4" height="28"/>
    <rect style="fill: none; fill-opacity:0; stroke-width: 2; stroke: #000000" x="218" y="123.6" width="87.4" height="28"/>
    <text font-size="16" style="fill: #000000;text-anchor:middle;font-family:sans-serif;font-style:normal;font-weight:700" x="261.7" y="142.6">runNode</text>
  </g>
  <g>
    <polyline style="fill: none; fill-opacity:0; stroke-width: 2; stroke: #000000" points="261.7,169.836 261.7,178.7 262.275,178.7 262.275,189.8 "/>
    <polygon style="fill: #ffffff" points="269.7,169.836 261.7,153.836 253.7,169.836 "/>
    <polygon style="fill: none; fill-opacity:0; stroke-width: 2; stroke: #000000" points="269.7,169.836 261.7,153.836 253.7,169.836 "/>
  </g>
  <g>
    <polyline style="fill: none; fill-opacity:0; stroke-width: 2; stroke: #000000" points="358.427,337.8 380,337.8 380,137.6 305.4,137.6 "/>
    <polygon style="fill: #ffffff" points="333.256,337.8 347.256,333 361.256,337.8 347.256,342.6 "/>
    <polygon style="fill: none; fill-opacity:0; stroke-width: 2; stroke: #000000" points="333.256,337.8 347.256,333 361.256,337.8 347.256,342.6 "/>
    <text font-size="12.7998" style="fill: #000000;text-anchor:start;font-family:monospace;font-style:normal;font-weight:normal" x="382" y="234.7">exp</text>
    <text font-size="12.7998" style="fill: #000000;text-anchor:start;font-family:monospace;font-style:normal;font-weight:normal" x="365.256" y="334.8"/>
    <text font-size="12.7998" style="fill: #000000;text-anchor:start;font-family:monospace;font-style:normal;font-weight:normal" x="309.4" y="134.6">1</text>
  </g>
  <g>
    <rect style="fill: #ffffff" x="197" y="323.8" width="135.25" height="28"/>
    <rect style="fill: none; fill-opacity:0; stroke-width: 2; stroke: #000000" x="197" y="323.8" width="135.25" height="28"/>
    <text font-size="16" style="fill: #000000;text-anchor:middle;font-family:sans-serif;font-style:normal;font-weight:700" x="264.625" y="342.8">decassigNode</text>
  </g>
  <g>
    <polyline style="fill: none; fill-opacity:0; stroke-width: 2; stroke: #000000" points="261.875,302.836 261.875,312.2 264.625,312.2 264.625,323.8 "/>
    <polygon style="fill: #ffffff" points="269.875,302.836 261.875,286.836 253.875,302.836 "/>
    <polygon style="fill: none; fill-opacity:0; stroke-width: 2; stroke: #000000" points="269.875,302.836 261.875,286.836 253.875,302.836 "/>
  </g>
  <g>
    <rect style="fill: #ffffff" x="256" y="387.8" width="103.45" height="28"/>
    <rect style="fill: none; fill-opacity:0; stroke-width: 2; stroke: #000000" x="256" y="387.8" width="103.45" height="28"/>
    <text font-size="16" style="fill: #000000;text-anchor:middle;font-family:sans-serif;font-style:normal;font-weight:700" x="307.725" y="406.8">assigNode</text>
  </g>
  <g>
    <polyline style="fill: none; fill-opacity:0; stroke-width: 2; stroke-dasharray: 8; stroke: #000000" points="264.625,351.8 264.625,365.8 307.725,365.8 307.725,381.095 "/>
    <polyline style="fill: none; fill-opacity:0; stroke-width: 2; stroke: #000000" points="302.725,368.447 307.725,384.447 312.725,368.447 "/>
  </g>
</svg>
