<?xml version="1.0" encoding="UTF-8" standalone="no"?>
<!DOCTYPE svg PUBLIC "-//W3C//DTD SVG 1.0//EN" "http://www.w3.org/TR/2001/PR-SVG-20010719/DTD/svg10.dtd">
<svg width="11cm" height="10cm" viewBox="305 210 203 200" xmlns="http://www.w3.org/2000/svg" xmlns:xlink="http://www.w3.org/1999/xlink">
  <g>
    <rect style="fill: #ffffff" x="306" y="231" width="200" height="177"/>
    <rect style="fill: none; fill-opacity:0; stroke-width: 2; stroke: #000000" x="306" y="231" width="200" height="177"/>
    <rect style="fill: #ffffff" x="306" y="211" width="65.6" height="20"/>
    <rect style="fill: none; fill-opacity:0; stroke-width: 2; stroke: #000000" x="306" y="211" width="65.6" height="20"/>
    <text font-size="12.7998" style="fill: #000000;text-anchor:start;font-family:monospace;font-style:normal;font-weight:normal" x="308" y="226"> output </text>
  </g>
  <g>
    <rect style="fill: #ffffff" x="334" y="270" width="87.4" height="28"/>
    <rect style="fill: none; fill-opacity:0; stroke-width: 2; stroke: #000000" x="334" y="270" width="87.4" height="28"/>
    <text font-size="16" style="fill: #000000;text-anchor:middle;font-family:sans-serif;font-style:normal;font-weight:700" x="377.7" y="289">runNode</text>
  </g>
  <g>
    <rect style="fill: #ffffff" x="328" y="341" width="100.6" height="28"/>
    <rect style="fill: none; fill-opacity:0; stroke-width: 2; stroke: #000000" x="328" y="341" width="100.6" height="28"/>
    <text font-size="16" style="fill: #000000;text-anchor:middle;font-family:sans-serif;font-style:normal;font-weight:700" x="378.3" y="360">printNode</text>
  </g>
  <g>
    <polyline style="fill: none; fill-opacity:0; stroke-width: 2; stroke: #000000" points="377.7,316.236 377.7,327.5 378.3,327.5 378.3,341 "/>
    <polygon style="fill: #ffffff" points="385.7,316.236 377.7,300.236 369.7,316.236 "/>
    <polygon style="fill: none; fill-opacity:0; stroke-width: 2; stroke: #000000" points="385.7,316.236 377.7,300.236 369.7,316.236 "/>
  </g>
  <g>
    <polyline style="fill: none; fill-opacity:0; stroke-width: 2; stroke: #000000" points="453.772,355 463.6,355 463.6,284 421.4,284 "/>
    <polygon style="fill: #ffffff" points="428.6,355 442.6,350.2 456.6,355 442.6,359.8 "/>
    <polygon style="fill: none; fill-opacity:0; stroke-width: 2; stroke: #000000" points="428.6,355 442.6,350.2 456.6,355 442.6,359.8 "/>
    <text font-size="12.7998" style="fill: #000000;text-anchor:start;font-family:monospace;font-style:normal;font-weight:normal" x="465.6" y="316.5">obj</text>
    <text font-size="12.7998" style="fill: #000000;text-anchor:start;font-family:monospace;font-style:normal;font-weight:normal" x="460.6" y="352"/>
    <text font-size="12.7998" style="fill: #000000;text-anchor:start;font-family:monospace;font-style:normal;font-weight:normal" x="425.4" y="281">1</text>
  </g>
</svg>
