<?xml version="1.0" encoding="UTF-8" standalone="no"?>
<!DOCTYPE svg PUBLIC "-//W3C//DTD SVG 1.0//EN" "http://www.w3.org/TR/2001/PR-SVG-20010719/DTD/svg10.dtd">
<svg width="13cm" height="12cm" viewBox="369 165 245 237" xmlns="http://www.w3.org/2000/svg" xmlns:xlink="http://www.w3.org/1999/xlink">
  <g>
    <rect style="fill: #ffffff" x="370.624" y="186.6" width="242.636" height="214.777"/>
    <rect style="fill: none; fill-opacity:0; stroke-width: 2; stroke: #000000" x="370.624" y="186.6" width="242.636" height="214.777"/>
    <rect style="fill: #ffffff" x="370.624" y="166.6" width="50.2" height="20"/>
    <rect style="fill: none; fill-opacity:0; stroke-width: 2; stroke: #000000" x="370.624" y="166.6" width="50.2" height="20"/>
    <text font-size="12.7998" style="fill: #000000;text-anchor:start;font-family:monospace;font-style:normal;font-weight:normal" x="372.624" y="181.6"> tern </text>
  </g>
  <g>
    <rect style="fill: #ffffff" x="388.648" y="216.6" width="87.4" height="28"/>
    <rect style="fill: none; fill-opacity:0; stroke-width: 2; stroke: #000000" x="388.648" y="216.6" width="87.4" height="28"/>
    <text font-size="16" style="fill: #000000;text-anchor:middle;font-family:sans-serif;font-style:normal;font-weight:700" x="432.348" y="235.6">runNode</text>
  </g>
  <g>
    <rect style="fill: #ffffff" x="382" y="289.6" width="100.7" height="28"/>
    <rect style="fill: none; fill-opacity:0; stroke-width: 2; stroke: #000000" x="382" y="289.6" width="100.7" height="28"/>
    <text font-size="16" style="fill: #000000;text-anchor:middle;font-family:sans-serif;font-style:normal;font-weight:700" x="432.35" y="308.6">nexpNode</text>
  </g>
  <g>
    <polyline style="fill: none; fill-opacity:0; stroke-width: 2; stroke: #000000" points="432.348,262.836 432.348,275.1 432.35,275.1 432.35,289.6 "/>
    <polygon style="fill: #ffffff" points="440.348,262.836 432.348,246.836 424.348,262.836 "/>
    <polygon style="fill: none; fill-opacity:0; stroke-width: 2; stroke: #000000" points="440.348,262.836 432.348,246.836 424.348,262.836 "/>
  </g>
  <g>
    <polyline style="fill: none; fill-opacity:0; stroke-width: 2; stroke: #000000" points="504.968,357 574.292,357 574.292,244.428 476.048,244.428 476.048,244.6 "/>
    <polygon style="fill: #ffffff" points="479.796,357 493.796,352.2 507.796,357 493.796,361.8 "/>
    <polygon style="fill: none; fill-opacity:0; stroke-width: 2; stroke: #000000" points="479.796,357 493.796,352.2 507.796,357 493.796,361.8 "/>
    <text font-size="12.7998" style="fill: #000000;text-anchor:middle;font-family:monospace;font-style:normal;font-weight:normal" x="525.17" y="241.428">else</text>
    <text font-size="12.7998" style="fill: #000000;text-anchor:start;font-family:monospace;font-style:normal;font-weight:normal" x="511.796" y="354"/>
    <text font-size="12.7998" style="fill: #000000;text-anchor:start;font-family:monospace;font-style:normal;font-weight:normal" x="480.048" y="240.6">0,1</text>
  </g>
  <g>
    <polyline style="fill: none; fill-opacity:0; stroke-width: 2; stroke: #000000" points="432.35,335.836 432.35,345.1 432.546,345.1 432.546,357 "/>
    <polygon style="fill: #ffffff" points="440.35,335.836 432.35,319.836 424.35,335.836 "/>
    <polygon style="fill: none; fill-opacity:0; stroke-width: 2; stroke: #000000" points="440.35,335.836 432.35,319.836 424.35,335.836 "/>
  </g>
  <g>
    <rect style="fill: #ffffff" x="385.296" y="357" width="94.5" height="28"/>
    <rect style="fill: none; fill-opacity:0; stroke-width: 2; stroke: #000000" x="385.296" y="357" width="94.5" height="28"/>
    <text font-size="16" style="fill: #000000;text-anchor:middle;font-family:sans-serif;font-style:normal;font-weight:700" x="432.546" y="376">ternNode</text>
  </g>
  <g>
    <polyline style="fill: none; fill-opacity:0; stroke-width: 2; stroke: #000000" points="504.968,371 592.512,371 592.512,230.992 476.572,230.992 476.572,230.6 476.048,230.6 "/>
    <polygon style="fill: #ffffff" points="479.796,371 493.796,366.2 507.796,371 493.796,375.8 "/>
    <polygon style="fill: none; fill-opacity:0; stroke-width: 2; stroke: #000000" points="479.796,371 493.796,366.2 507.796,371 493.796,375.8 "/>
    <text font-size="12.7998" style="fill: #000000;text-anchor:middle;font-family:monospace;font-style:normal;font-weight:normal" x="534.542" y="227.992">then</text>
    <text font-size="12.7998" style="fill: #000000;text-anchor:start;font-family:monospace;font-style:normal;font-weight:normal" x="511.796" y="368"/>
    <text font-size="12.7998" style="fill: #000000;text-anchor:start;font-family:monospace;font-style:normal;font-weight:normal" x="480.048" y="227.6"> 0,1</text>
    <text font-size="12.7998" style="fill: #000000;text-anchor:start;font-family:monospace;font-style:normal;font-weight:normal" x="480.048" y="243.6"/>
  </g>
  <g>
    <polyline style="fill: none; fill-opacity:0; stroke-width: 2; stroke: #000000" points="504.968,385 602.886,385 602.886,216.496 475.148,216.496 475.148,216.496 496.724,216.496 "/>
    <polygon style="fill: #ffffff" points="479.796,385 493.796,380.2 507.796,385 493.796,389.8 "/>
    <polygon style="fill: none; fill-opacity:0; stroke-width: 2; stroke: #000000" points="479.796,385 493.796,380.2 507.796,385 493.796,389.8 "/>
    <text font-size="12.7998" style="fill: #000000;text-anchor:middle;font-family:monospace;font-style:normal;font-weight:normal" x="539.017" y="213.496">cond</text>
    <text font-size="12.7998" style="fill: #000000;text-anchor:start;font-family:monospace;font-style:normal;font-weight:normal" x="511.796" y="382"/>
    <text font-size="12.7998" style="fill: #000000;text-anchor:end;font-family:monospace;font-style:normal;font-weight:normal" x="492.724" y="213.496">1</text>
  </g>
  <line style="fill: none; fill-opacity:0; stroke-width: 2; stroke-dasharray: 4; stroke: #000000" x1="574.484" y1="277.874" x2="593.098" y2="278.308"/>
</svg>
