<?xml version="1.0" encoding="UTF-8" standalone="no"?>
<!DOCTYPE svg PUBLIC "-//W3C//DTD SVG 1.0//EN" "http://www.w3.org/TR/2001/PR-SVG-20010719/DTD/svg10.dtd">
<svg width="15cm" height="5cm" viewBox="171 82 286 99" xmlns="http://www.w3.org/2000/svg" xmlns:xlink="http://www.w3.org/1999/xlink">
  <g>
    <rect style="fill: #ffffff" x="172" y="103.8" width="284" height="76.2"/>
    <rect style="fill: none; fill-opacity:0; stroke-width: 2; stroke: #000000" x="172" y="103.8" width="284" height="76.2"/>
    <rect style="fill: #ffffff" x="172" y="83.8" width="65.6" height="20"/>
    <rect style="fill: none; fill-opacity:0; stroke-width: 2; stroke: #000000" x="172" y="83.8" width="65.6" height="20"/>
    <text font-size="12.7998" style="fill: #000000;text-anchor:start;font-family:monospace;font-style:normal;font-weight:normal" x="174" y="98.8"> infoOp </text>
  </g>
  <g>
    <rect style="fill: #ffffff" x="360.4" y="134.33" width="81.3" height="28"/>
    <rect style="fill: none; fill-opacity:0; stroke-width: 2; stroke: #000000" x="360.4" y="134.33" width="81.3" height="28"/>
    <rect style="fill: #ffffff" x="360.4" y="116.33" width="30" height="18"/>
    <rect style="fill: none; fill-opacity:0; stroke-width: 2; stroke: #000000" x="360.4" y="116.33" width="30" height="18"/>
    <text font-size="12.8" style="fill: #000000;text-anchor:start;font-family:monospace;font-style:normal;font-weight:normal" x="366.4" y="152.23">
      <tspan x="366.4" y="152.23"> datInfo </tspan>
    </text>
  </g>
  <g>
    <rect style="fill: #ffffff" x="187.4" y="131.501" width="73.6" height="28"/>
    <rect style="fill: none; fill-opacity:0; stroke-width: 2; stroke: #000000" x="187.4" y="131.501" width="73.6" height="28"/>
    <rect style="fill: #ffffff" x="187.4" y="113.501" width="30" height="18"/>
    <rect style="fill: none; fill-opacity:0; stroke-width: 2; stroke: #000000" x="187.4" y="113.501" width="30" height="18"/>
    <text font-size="12.8" style="fill: #000000;text-anchor:start;font-family:monospace;font-style:normal;font-weight:normal" x="193.4" y="149.401">
      <tspan x="193.4" y="149.401"> typeOf </tspan>
    </text>
  </g>
  <g>
    <rect style="fill: #ffffff" x="274.4" y="132.562" width="73.6" height="28"/>
    <rect style="fill: none; fill-opacity:0; stroke-width: 2; stroke: #000000" x="274.4" y="132.562" width="73.6" height="28"/>
    <rect style="fill: #ffffff" x="274.4" y="114.562" width="30" height="18"/>
    <rect style="fill: none; fill-opacity:0; stroke-width: 2; stroke: #000000" x="274.4" y="114.562" width="30" height="18"/>
    <text font-size="12.8" style="fill: #000000;text-anchor:start;font-family:monospace;font-style:normal;font-weight:normal" x="280.4" y="150.462">
      <tspan x="280.4" y="150.462"> sizeOf </tspan>
    </text>
  </g>
</svg>
