<svg xmlns="http://www.w3.org/2000/svg" width="392" height="124">
         <defs>
            <style type="text/css">
               @namespace "http://www.w3.org/2000/svg";
               .line                 {fill: none; stroke: #262626;}
               .bold-line            {stroke: #0A0A0A; shape-rendering: crispEdges; stroke-width:
               2; }
               .thin-line            {stroke: #0F0F0F; shape-rendering: crispEdges}
               .filled               {fill: #262626; stroke: none;}
               text.terminal         {font-family: Verdana, Sans-serif;
               font-size: 12px;
               fill: #0A0A0A;
               font-weight: bold;
               }
               text.nonterminal      {font-family: Verdana, Sans-serif;
               font-size: 12px;
               fill: #0D0D0D;
               }
               text.regexp           {font-family: Verdana, Sans-serif;
               font-size: 12px;
               fill: #0F0F0F;
               }
               rect, circle, polygon {fill: #262626; stroke: #262626;}
               rect.terminal         {fill: #FFFFFF; stroke: #262626;}
               rect.nonterminal      {fill: #FFFFFF; stroke: #262626;}
               rect.text             {fill: none; stroke: none;}    
               polygon.regexp        {fill: #FFFFFF; stroke: #262626;}
               
            </style>
         </defs>
         <polygon points="9 17 1 13 1 21"/>
         <polygon points="17 17 9 13 9 21"/>
         <a xmlns:xlink="http://www.w3.org/1999/xlink" xlink:href="#id" xlink:title="id">
            <rect x="51" y="3" width="30" height="32"/>
            <rect x="49" y="1" width="30" height="32" class="nonterminal"/>
            <text class="nonterminal" x="59" y="21">id</text>
         </a>
         <a xmlns:xlink="http://www.w3.org/1999/xlink" xlink:href="#assignation" xlink:title="assignation">
            <rect x="51" y="47" width="92" height="32"/>
            <rect x="49" y="45" width="92" height="32" class="nonterminal"/>
            <text class="nonterminal" x="59" y="65">assignation</text>
         </a>
         <a xmlns:xlink="http://www.w3.org/1999/xlink" xlink:href="#access" xlink:title="access">
            <rect x="51" y="91" width="62" height="32"/>
            <rect x="49" y="89" width="62" height="32" class="nonterminal"/>
            <text class="nonterminal" x="59" y="109">access</text>
         </a>
         <rect x="183" y="3" width="30" height="32" rx="10"/>
         <rect x="181" y="1" width="30" height="32" class="terminal" rx="10"/>
         <text class="terminal" x="191" y="21">=</text>
         <rect x="253" y="3" width="30" height="32" rx="10"/>
         <rect x="251" y="1" width="30" height="32" class="terminal" rx="10"/>
         <text class="terminal" x="261" y="21">&amp;</text>
         <a xmlns:xlink="http://www.w3.org/1999/xlink" xlink:href="#exp" xlink:title="exp">
            <rect x="323" y="3" width="42" height="32"/>
            <rect x="321" y="1" width="42" height="32" class="nonterminal"/>
            <text class="nonterminal" x="331" y="21">exp</text>
         </a>
         <svg:path xmlns:svg="http://www.w3.org/2000/svg" class="line" d="m17 17 h2 m20 0 h10 m30 0 h10 m0 0 h62 m-132 0 h20 m112 0 h20 m-152 0 q10 0 10 10 m132 0 q0 -10 10 -10 m-142 10 v24 m132 0 v-24 m-132 24 q0 10 10 10 m112 0 q10 0 10 -10 m-122 10 h10 m92 0 h10 m-122 -10 v20 m132 0 v-20 m-132 20 v24 m132 0 v-24 m-132 24 q0 10 10 10 m112 0 q10 0 10 -10 m-122 10 h10 m62 0 h10 m0 0 h30 m20 -88 h10 m30 0 h10 m20 0 h10 m30 0 h10 m-70 0 h20 m50 0 h20 m-90 0 q10 0 10 10 m70 0 q0 -10 10 -10 m-80 10 v14 m70 0 v-14 m-70 14 q0 10 10 10 m50 0 q10 0 10 -10 m-60 10 h10 m0 0 h40 m20 -34 h10 m42 0 h10 m3 0 h-3"/>
         <polygon points="383 17 391 13 391 21"/>
         <polygon points="383 17 375 13 375 21"/>
      </svg>
