<svg xmlns="http://www.w3.org/2000/svg" width="450" height="216">
         <defs>
            <style type="text/css">
               @namespace "http://www.w3.org/2000/svg";
               .line                 {fill: none; stroke: #262626;}
               .bold-line            {stroke: #0A0A0A; shape-rendering: crispEdges; stroke-width:
               2; }
               .thin-line            {stroke: #0F0F0F; shape-rendering: crispEdges}
               .filled               {fill: #262626; stroke: none;}
               text.terminal         {font-family: Verdana, Sans-serif;
               font-size: 12px;
               fill: #0A0A0A;
               font-weight: bold;
               }
               text.nonterminal      {font-family: Verdana, Sans-serif;
               font-size: 12px;
               fill: #0D0D0D;
               }
               text.regexp           {font-family: Verdana, Sans-serif;
               font-size: 12px;
               fill: #0F0F0F;
               }
               rect, circle, polygon {fill: #262626; stroke: #262626;}
               rect.terminal         {fill: #FFFFFF; stroke: #262626;}
               rect.nonterminal      {fill: #FFFFFF; stroke: #262626;}
               rect.text             {fill: none; stroke: none;}    
               polygon.regexp        {fill: #FFFFFF; stroke: #262626;}
               
            </style>
         </defs>
         <polygon points="9 33 1 29 1 37"/>
         <polygon points="17 33 9 29 9 37"/>
         <rect x="91" y="19" width="56" height="32" rx="10"/>
         <rect x="89" y="17" width="56" height="32" class="terminal" rx="10"/>
         <text class="terminal" x="99" y="37">static</text>
         <rect x="91" y="63" width="66" height="32" rx="10"/>
         <rect x="89" y="61" width="66" height="32" class="terminal" rx="10"/>
         <text class="terminal" x="99" y="81">private</text>
         <rect x="91" y="107" width="66" height="32" rx="10"/>
         <rect x="89" y="105" width="66" height="32" class="terminal" rx="10"/>
         <text class="terminal" x="99" y="125">private</text>
         <rect x="177" y="107" width="56" height="32" rx="10"/>
         <rect x="175" y="105" width="56" height="32" class="terminal" rx="10"/>
         <text class="terminal" x="185" y="125">static</text>
         <rect x="91" y="151" width="56" height="32" rx="10"/>
         <rect x="89" y="149" width="56" height="32" class="terminal" rx="10"/>
         <text class="terminal" x="99" y="169">static</text>
         <rect x="167" y="151" width="66" height="32" rx="10"/>
         <rect x="165" y="149" width="66" height="32" class="terminal" rx="10"/>
         <text class="terminal" x="175" y="169">private</text>
         <a xmlns:xlink="http://www.w3.org/1999/xlink" xlink:href="#function" xlink:title="function">
            <rect x="293" y="19" width="70" height="32"/>
            <rect x="291" y="17" width="70" height="32" class="nonterminal"/>
            <text class="nonterminal" x="301" y="37">function</text>
         </a>
         <a xmlns:xlink="http://www.w3.org/1999/xlink" xlink:href="#assig" xlink:title="assig">
            <rect x="293" y="63" width="52" height="32"/>
            <rect x="291" y="61" width="52" height="32" class="nonterminal"/>
            <text class="nonterminal" x="301" y="81">assig</text>
         </a>
         <a xmlns:xlink="http://www.w3.org/1999/xlink" xlink:href="#id" xlink:title="id">
            <rect x="293" y="107" width="30" height="32"/>
            <rect x="291" y="105" width="30" height="32" class="nonterminal"/>
            <text class="nonterminal" x="301" y="125">id</text>
         </a>
         <svg:path xmlns:svg="http://www.w3.org/2000/svg" class="line" d="m17 33 h2 m60 0 h10 m56 0 h10 m0 0 h86 m-182 0 h20 m162 0 h20 m-202 0 q10 0 10 10 m182 0 q0 -10 10 -10 m-192 10 v24 m182 0 v-24 m-182 24 q0 10 10 10 m162 0 q10 0 10 -10 m-172 10 h10 m66 0 h10 m0 0 h76 m-172 -10 v20 m182 0 v-20 m-182 20 v24 m182 0 v-24 m-182 24 q0 10 10 10 m162 0 q10 0 10 -10 m-172 10 h10 m66 0 h10 m0 0 h10 m56 0 h10 m-172 -10 v20 m182 0 v-20 m-182 20 v24 m182 0 v-24 m-182 24 q0 10 10 10 m162 0 q10 0 10 -10 m-172 10 h10 m56 0 h10 m0 0 h10 m66 0 h10 m-172 -10 v20 m182 0 v-20 m-182 20 v14 m182 0 v-14 m-182 14 q0 10 10 10 m162 0 q10 0 10 -10 m-172 10 h10 m0 0 h152 m40 -166 h10 m70 0 h10 m-110 0 h20 m90 0 h20 m-130 0 q10 0 10 10 m110 0 q0 -10 10 -10 m-120 10 v24 m110 0 v-24 m-110 24 q0 10 10 10 m90 0 q10 0 10 -10 m-100 10 h10 m52 0 h10 m0 0 h18 m-100 -10 v20 m110 0 v-20 m-110 20 v24 m110 0 v-24 m-110 24 q0 10 10 10 m90 0 q10 0 10 -10 m-100 10 h10 m30 0 h10 m0 0 h40 m-332 -88 l20 0 m-1 0 q-9 0 -9 -10 l0 -12 q0 -10 10 -10 m332 32 l20 0 m-20 0 q10 0 10 -10 l0 -12 q0 -10 -10 -10 m-332 0 h10 m0 0 h322 m-372 32 h20 m372 0 h20 m-412 0 q10 0 10 10 m392 0 q0 -10 10 -10 m-402 10 v162 m392 0 v-162 m-392 162 q0 10 10 10 m372 0 q10 0 10 -10 m-382 10 h10 m0 0 h362 m23 -182 h-3"/>
         <polygon points="441 33 449 29 449 37"/>
         <polygon points="441 33 433 29 433 37"/>
      </svg>
