<svg xmlns="http://www.w3.org/2000/svg" width="452" height="112">
         <defs>
            <style type="text/css">
               @namespace "http://www.w3.org/2000/svg";
               .line                 {fill: none; stroke: #262626;}
               .bold-line            {stroke: #0A0A0A; shape-rendering: crispEdges; stroke-width:
               2; }
               .thin-line            {stroke: #0F0F0F; shape-rendering: crispEdges}
               .filled               {fill: #262626; stroke: none;}
               text.terminal         {font-family: Verdana, Sans-serif;
               font-size: 12px;
               fill: #0A0A0A;
               font-weight: bold;
               }
               text.nonterminal      {font-family: Verdana, Sans-serif;
               font-size: 12px;
               fill: #0D0D0D;
               }
               text.regexp           {font-family: Verdana, Sans-serif;
               font-size: 12px;
               fill: #0F0F0F;
               }
               rect, circle, polygon {fill: #262626; stroke: #262626;}
               rect.terminal         {fill: #FFFFFF; stroke: #262626;}
               rect.nonterminal      {fill: #FFFFFF; stroke: #262626;}
               rect.text             {fill: none; stroke: none;}    
               polygon.regexp        {fill: #FFFFFF; stroke: #262626;}
               
            </style>
         </defs>
         <polygon points="9 33 1 29 1 37"/>
         <polygon points="17 33 9 29 9 37"/>
         <rect x="51" y="19" width="30" height="32" rx="10"/>
         <rect x="49" y="17" width="30" height="32" class="terminal" rx="10"/>
         <text class="terminal" x="59" y="37">+</text>
         <rect x="51" y="63" width="26" height="32" rx="10"/>
         <rect x="49" y="61" width="26" height="32" class="terminal" rx="10"/>
         <text class="terminal" x="59" y="81">-</text>
         <polygon points="141 35 148 19 194 19 201 35 194 51 148 51"/>
         <polygon points="139 33 146 17 192 17 199 33 192 49 146 49" class="regexp"/>
         <text class="regexp" x="154" y="37">[0-9]</text>
         <a xmlns:xlink="http://www.w3.org/1999/xlink" xlink:href="#." xlink:title=".">
            <rect x="261" y="19" width="24" height="32"/>
            <rect x="259" y="17" width="24" height="32" class="nonterminal"/>
            <text class="nonterminal" x="269" y="37">.</text>
         </a>
         <polygon points="325 35 332 19 378 19 385 35 378 51 332 51"/>
         <polygon points="323 33 330 17 376 17 383 33 376 49 330 49" class="regexp"/>
         <text class="regexp" x="338" y="37">[0-9]</text>
         <svg:path xmlns:svg="http://www.w3.org/2000/svg" class="line" d="m17 33 h2 m20 0 h10 m30 0 h10 m-70 0 h20 m50 0 h20 m-90 0 q10 0 10 10 m70 0 q0 -10 10 -10 m-80 10 v24 m70 0 v-24 m-70 24 q0 10 10 10 m50 0 q10 0 10 -10 m-60 10 h10 m26 0 h10 m0 0 h4 m-60 -10 v20 m70 0 v-20 m-70 20 v14 m70 0 v-14 m-70 14 q0 10 10 10 m50 0 q10 0 10 -10 m-60 10 h10 m0 0 h40 m40 -78 h10 m60 0 h10 m-100 0 l20 0 m-1 0 q-9 0 -9 -10 l0 -12 q0 -10 10 -10 m80 32 l20 0 m-20 0 q10 0 10 -10 l0 -12 q0 -10 -10 -10 m-80 0 h10 m0 0 h70 m40 32 h10 m24 0 h10 m20 0 h10 m60 0 h10 m-100 0 l20 0 m-1 0 q-9 0 -9 -10 l0 -12 q0 -10 10 -10 m80 32 l20 0 m-20 0 q10 0 10 -10 l0 -12 q0 -10 -10 -10 m-80 0 h10 m0 0 h70 m-164 32 h20 m164 0 h20 m-204 0 q10 0 10 10 m184 0 q0 -10 10 -10 m-194 10 v14 m184 0 v-14 m-184 14 q0 10 10 10 m164 0 q10 0 10 -10 m-174 10 h10 m0 0 h154 m23 -34 h-3"/>
         <polygon points="443 33 451 29 451 37"/>
         <polygon points="443 33 435 29 435 37"/>
      </svg>
