<svg xmlns="http://www.w3.org/2000/svg" width="168" height="476">
         <defs>
            <style type="text/css">
               @namespace "http://www.w3.org/2000/svg";
               .line                 {fill: none; stroke: #262626;}
               .bold-line            {stroke: #0A0A0A; shape-rendering: crispEdges; stroke-width:
               2; }
               .thin-line            {stroke: #0F0F0F; shape-rendering: crispEdges}
               .filled               {fill: #262626; stroke: none;}
               text.terminal         {font-family: Verdana, Sans-serif;
               font-size: 12px;
               fill: #0A0A0A;
               font-weight: bold;
               }
               text.nonterminal      {font-family: Verdana, Sans-serif;
               font-size: 12px;
               fill: #0D0D0D;
               }
               text.regexp           {font-family: Verdana, Sans-serif;
               font-size: 12px;
               fill: #0F0F0F;
               }
               rect, circle, polygon {fill: #262626; stroke: #262626;}
               rect.terminal         {fill: #FFFFFF; stroke: #262626;}
               rect.nonterminal      {fill: #FFFFFF; stroke: #262626;}
               rect.text             {fill: none; stroke: none;}    
               polygon.regexp        {fill: #FFFFFF; stroke: #262626;}
               
            </style>
         </defs>
         <polygon points="9 17 1 13 1 21"/>
         <polygon points="17 17 9 13 9 21"/>
         <a xmlns:xlink="http://www.w3.org/1999/xlink" xlink:href="#if" xlink:title="if">
            <rect x="51" y="3" width="26" height="32"/>
            <rect x="49" y="1" width="26" height="32" class="nonterminal"/>
            <text class="nonterminal" x="59" y="21">if</text>
         </a>
         <a xmlns:xlink="http://www.w3.org/1999/xlink" xlink:href="#while" xlink:title="while">
            <rect x="51" y="47" width="52" height="32"/>
            <rect x="49" y="45" width="52" height="32" class="nonterminal"/>
            <text class="nonterminal" x="59" y="65">while</text>
         </a>
         <a xmlns:xlink="http://www.w3.org/1999/xlink" xlink:href="#dowhile" xlink:title="dowhile">
            <rect x="51" y="91" width="68" height="32"/>
            <rect x="49" y="89" width="68" height="32" class="nonterminal"/>
            <text class="nonterminal" x="59" y="109">dowhile</text>
         </a>
         <a xmlns:xlink="http://www.w3.org/1999/xlink" xlink:href="#for" xlink:title="for">
            <rect x="51" y="135" width="36" height="32"/>
            <rect x="49" y="133" width="36" height="32" class="nonterminal"/>
            <text class="nonterminal" x="59" y="153">for</text>
         </a>
         <a xmlns:xlink="http://www.w3.org/1999/xlink" xlink:href="#foreach" xlink:title="foreach">
            <rect x="51" y="179" width="66" height="32"/>
            <rect x="49" y="177" width="66" height="32" class="nonterminal"/>
            <text class="nonterminal" x="59" y="197">foreach</text>
         </a>
         <a xmlns:xlink="http://www.w3.org/1999/xlink" xlink:href="#break" xlink:title="break">
            <rect x="51" y="223" width="56" height="32"/>
            <rect x="49" y="221" width="56" height="32" class="nonterminal"/>
            <text class="nonterminal" x="59" y="241">break</text>
         </a>
         <a xmlns:xlink="http://www.w3.org/1999/xlink" xlink:href="#switch" xlink:title="switch">
            <rect x="51" y="267" width="60" height="32"/>
            <rect x="49" y="265" width="60" height="32" class="nonterminal"/>
            <text class="nonterminal" x="59" y="285">switch</text>
         </a>
         <a xmlns:xlink="http://www.w3.org/1999/xlink" xlink:href="#iloop" xlink:title="iloop">
            <rect x="51" y="311" width="50" height="32"/>
            <rect x="49" y="309" width="50" height="32" class="nonterminal"/>
            <text class="nonterminal" x="59" y="329">iloop</text>
         </a>
         <a xmlns:xlink="http://www.w3.org/1999/xlink" xlink:href="#trycatch" xlink:title="trycatch">
            <rect x="51" y="355" width="70" height="32"/>
            <rect x="49" y="353" width="70" height="32" class="nonterminal"/>
            <text class="nonterminal" x="59" y="373">trycatch</text>
         </a>
         <a xmlns:xlink="http://www.w3.org/1999/xlink" xlink:href="#class" xlink:title="class">
            <rect x="51" y="399" width="50" height="32"/>
            <rect x="49" y="397" width="50" height="32" class="nonterminal"/>
            <text class="nonterminal" x="59" y="417">class</text>
         </a>
         <a xmlns:xlink="http://www.w3.org/1999/xlink" xlink:href="#with" xlink:title="with">
            <rect x="51" y="443" width="46" height="32"/>
            <rect x="49" y="441" width="46" height="32" class="nonterminal"/>
            <text class="nonterminal" x="59" y="461">with</text>
         </a>
         <svg:path xmlns:svg="http://www.w3.org/2000/svg" class="line" d="m17 17 h2 m20 0 h10 m26 0 h10 m0 0 h44 m-110 0 h20 m90 0 h20 m-130 0 q10 0 10 10 m110 0 q0 -10 10 -10 m-120 10 v24 m110 0 v-24 m-110 24 q0 10 10 10 m90 0 q10 0 10 -10 m-100 10 h10 m52 0 h10 m0 0 h18 m-100 -10 v20 m110 0 v-20 m-110 20 v24 m110 0 v-24 m-110 24 q0 10 10 10 m90 0 q10 0 10 -10 m-100 10 h10 m68 0 h10 m0 0 h2 m-100 -10 v20 m110 0 v-20 m-110 20 v24 m110 0 v-24 m-110 24 q0 10 10 10 m90 0 q10 0 10 -10 m-100 10 h10 m36 0 h10 m0 0 h34 m-100 -10 v20 m110 0 v-20 m-110 20 v24 m110 0 v-24 m-110 24 q0 10 10 10 m90 0 q10 0 10 -10 m-100 10 h10 m66 0 h10 m0 0 h4 m-100 -10 v20 m110 0 v-20 m-110 20 v24 m110 0 v-24 m-110 24 q0 10 10 10 m90 0 q10 0 10 -10 m-100 10 h10 m56 0 h10 m0 0 h14 m-100 -10 v20 m110 0 v-20 m-110 20 v24 m110 0 v-24 m-110 24 q0 10 10 10 m90 0 q10 0 10 -10 m-100 10 h10 m60 0 h10 m0 0 h10 m-100 -10 v20 m110 0 v-20 m-110 20 v24 m110 0 v-24 m-110 24 q0 10 10 10 m90 0 q10 0 10 -10 m-100 10 h10 m50 0 h10 m0 0 h20 m-100 -10 v20 m110 0 v-20 m-110 20 v24 m110 0 v-24 m-110 24 q0 10 10 10 m90 0 q10 0 10 -10 m-100 10 h10 m70 0 h10 m-100 -10 v20 m110 0 v-20 m-110 20 v24 m110 0 v-24 m-110 24 q0 10 10 10 m90 0 q10 0 10 -10 m-100 10 h10 m50 0 h10 m0 0 h20 m-100 -10 v20 m110 0 v-20 m-110 20 v24 m110 0 v-24 m-110 24 q0 10 10 10 m90 0 q10 0 10 -10 m-100 10 h10 m46 0 h10 m0 0 h24 m23 -440 h-3"/>
         <polygon points="159 17 167 13 167 21"/>
         <polygon points="159 17 151 13 151 21"/>
      </svg>
