<svg xmlns="http://www.w3.org/2000/svg" width="264" height="234">
         <defs>
            <style type="text/css">
               @namespace "http://www.w3.org/2000/svg";
               .line                 {fill: none; stroke: #262626;}
               .bold-line            {stroke: #0A0A0A; shape-rendering: crispEdges; stroke-width:
               2; }
               .thin-line            {stroke: #0F0F0F; shape-rendering: crispEdges}
               .filled               {fill: #262626; stroke: none;}
               text.terminal         {font-family: Verdana, Sans-serif;
               font-size: 12px;
               fill: #0A0A0A;
               font-weight: bold;
               }
               text.nonterminal      {font-family: Verdana, Sans-serif;
               font-size: 12px;
               fill: #0D0D0D;
               }
               text.regexp           {font-family: Verdana, Sans-serif;
               font-size: 12px;
               fill: #0F0F0F;
               }
               rect, circle, polygon {fill: #262626; stroke: #262626;}
               rect.terminal         {fill: #FFFFFF; stroke: #262626;}
               rect.nonterminal      {fill: #FFFFFF; stroke: #262626;}
               rect.text             {fill: none; stroke: none;}    
               polygon.regexp        {fill: #FFFFFF; stroke: #262626;}
               
            </style>
         </defs>
         <polygon points="9 17 1 13 1 21"/>
         <polygon points="17 17 9 13 9 21"/>
         <a xmlns:xlink="http://www.w3.org/1999/xlink" xlink:href="#stmt" xlink:title="stmt">
            <rect x="51" y="3" width="48" height="32"/>
            <rect x="49" y="1" width="48" height="32" class="nonterminal"/>
            <text class="nonterminal" x="59" y="21">stmt</text>
         </a>
         <rect x="139" y="3" width="24" height="32" rx="10"/>
         <rect x="137" y="1" width="24" height="32" class="terminal" rx="10"/>
         <text class="terminal" x="147" y="21">;</text>
         <a xmlns:xlink="http://www.w3.org/1999/xlink" xlink:href="#stmt" xlink:title="stmt">
            <rect x="51" y="69" width="48" height="32"/>
            <rect x="49" y="67" width="48" height="32" class="nonterminal"/>
            <text class="nonterminal" x="59" y="87">stmt</text>
         </a>
         <rect x="119" y="69" width="24" height="32" rx="10"/>
         <rect x="117" y="67" width="24" height="32" class="terminal" rx="10"/>
         <text class="terminal" x="127" y="87">;</text>
         <a xmlns:xlink="http://www.w3.org/1999/xlink" xlink:href="#stmts" xlink:title="stmts">
            <rect x="163" y="69" width="54" height="32"/>
            <rect x="161" y="67" width="54" height="32" class="nonterminal"/>
            <text class="nonterminal" x="171" y="87">stmts</text>
         </a>
         <a xmlns:xlink="http://www.w3.org/1999/xlink" xlink:href="#stmtb" xlink:title="stmtb">
            <rect x="51" y="113" width="56" height="32"/>
            <rect x="49" y="111" width="56" height="32" class="nonterminal"/>
            <text class="nonterminal" x="59" y="131">stmtb</text>
         </a>
         <a xmlns:xlink="http://www.w3.org/1999/xlink" xlink:href="#label" xlink:title="label">
            <rect x="51" y="157" width="50" height="32"/>
            <rect x="49" y="155" width="50" height="32" class="nonterminal"/>
            <text class="nonterminal" x="59" y="175">label</text>
         </a>
         <a xmlns:xlink="http://www.w3.org/1999/xlink" xlink:href="#stmts" xlink:title="stmts">
            <rect x="121" y="157" width="54" height="32"/>
            <rect x="119" y="155" width="54" height="32" class="nonterminal"/>
            <text class="nonterminal" x="129" y="175">stmts</text>
         </a>
         <rect x="51" y="201" width="24" height="32" rx="10"/>
         <rect x="49" y="199" width="24" height="32" class="terminal" rx="10"/>
         <text class="terminal" x="59" y="219">;</text>
         <svg:path xmlns:svg="http://www.w3.org/2000/svg" class="line" d="m17 17 h2 m20 0 h10 m48 0 h10 m20 0 h10 m24 0 h10 m-64 0 h20 m44 0 h20 m-84 0 q10 0 10 10 m64 0 q0 -10 10 -10 m-74 10 v14 m64 0 v-14 m-64 14 q0 10 10 10 m44 0 q10 0 10 -10 m-54 10 h10 m0 0 h34 m20 -34 h34 m-206 0 h20 m186 0 h20 m-226 0 q10 0 10 10 m206 0 q0 -10 10 -10 m-216 10 v46 m206 0 v-46 m-206 46 q0 10 10 10 m186 0 q10 0 10 -10 m-196 10 h10 m48 0 h10 m0 0 h10 m24 0 h10 m0 0 h10 m54 0 h10 m-196 -10 v20 m206 0 v-20 m-206 20 v24 m206 0 v-24 m-206 24 q0 10 10 10 m186 0 q10 0 10 -10 m-196 10 h10 m56 0 h10 m0 0 h110 m-196 -10 v20 m206 0 v-20 m-206 20 v24 m206 0 v-24 m-206 24 q0 10 10 10 m186 0 q10 0 10 -10 m-196 10 h10 m50 0 h10 m0 0 h10 m54 0 h10 m0 0 h42 m-196 -10 v20 m206 0 v-20 m-206 20 v24 m206 0 v-24 m-206 24 q0 10 10 10 m186 0 q10 0 10 -10 m-196 10 h10 m24 0 h10 m0 0 h142 m23 -198 h-3"/>
         <polygon points="255 17 263 13 263 21"/>
         <polygon points="255 17 247 13 247 21"/>
      </svg>
