<svg xmlns="http://www.w3.org/2000/svg" width="156" height="80">
         <defs>
            <style type="text/css">
               @namespace "http://www.w3.org/2000/svg";
               .line                 {fill: none; stroke: #262626;}
               .bold-line            {stroke: #0A0A0A; shape-rendering: crispEdges; stroke-width:
               2; }
               .thin-line            {stroke: #0F0F0F; shape-rendering: crispEdges}
               .filled               {fill: #262626; stroke: none;}
               text.terminal         {font-family: Verdana, Sans-serif;
               font-size: 12px;
               fill: #0A0A0A;
               font-weight: bold;
               }
               text.nonterminal      {font-family: Verdana, Sans-serif;
               font-size: 12px;
               fill: #0D0D0D;
               }
               text.regexp           {font-family: Verdana, Sans-serif;
               font-size: 12px;
               fill: #0F0F0F;
               }
               rect, circle, polygon {fill: #262626; stroke: #262626;}
               rect.terminal         {fill: #FFFFFF; stroke: #262626;}
               rect.nonterminal      {fill: #FFFFFF; stroke: #262626;}
               rect.text             {fill: none; stroke: none;}    
               polygon.regexp        {fill: #FFFFFF; stroke: #262626;}
               
            </style>
         </defs>
         <polygon points="9 17 1 13 1 21"/>
         <polygon points="17 17 9 13 9 21"/>
         <a xmlns:xlink="http://www.w3.org/1999/xlink" xlink:href="#stmts" xlink:title="stmts">
            <rect x="51" y="3" width="54" height="32"/>
            <rect x="49" y="1" width="54" height="32" class="nonterminal"/>
            <text class="nonterminal" x="59" y="21">stmts</text>
         </a>
         <a xmlns:xlink="http://www.w3.org/1999/xlink" xlink:href="#empty" xlink:title="empty">
            <rect x="51" y="47" width="58" height="32"/>
            <rect x="49" y="45" width="58" height="32" class="nonterminal"/>
            <text class="nonterminal" x="59" y="65">empty</text>
         </a>
         <svg:path xmlns:svg="http://www.w3.org/2000/svg" class="line" d="m17 17 h2 m20 0 h10 m54 0 h10 m0 0 h4 m-98 0 h20 m78 0 h20 m-118 0 q10 0 10 10 m98 0 q0 -10 10 -10 m-108 10 v24 m98 0 v-24 m-98 24 q0 10 10 10 m78 0 q10 0 10 -10 m-88 10 h10 m58 0 h10 m23 -44 h-3"/>
         <polygon points="147 17 155 13 155 21"/>
         <polygon points="147 17 139 13 139 21"/>
      </svg>
      
