<?xml version="1.0" encoding="UTF-8" standalone="no"?>
<!DOCTYPE svg PUBLIC "-//W3C//DTD SVG 1.0//EN" "http://www.w3.org/TR/2001/PR-SVG-20010719/DTD/svg10.dtd">
<svg width="15cm" height="5cm" viewBox="171 142 285 100" xmlns="http://www.w3.org/2000/svg" xmlns:xlink="http://www.w3.org/1999/xlink">
  <g>
    <rect style="fill: #ffffff" x="172" y="163" width="283" height="78"/>
    <rect style="fill: none; fill-opacity:0; stroke-width: 2; stroke: #000000" x="172" y="163" width="283" height="78"/>
    <rect style="fill: #ffffff" x="172" y="143" width="81" height="20"/>
    <rect style="fill: none; fill-opacity:0; stroke-width: 2; stroke: #000000" x="172" y="143" width="81" height="20"/>
    <text font-size="12.7998" style="fill: #000000;text-anchor:start;font-family:monospace;font-style:normal;font-weight:normal" x="174" y="158"> accessOp </text>
  </g>
  <g>
    <rect style="fill: #ffffff" x="184.64" y="193.943" width="50" height="28"/>
    <rect style="fill: none; fill-opacity:0; stroke-width: 2; stroke: #000000" x="184.64" y="193.943" width="50" height="28"/>
    <rect style="fill: #ffffff" x="184.64" y="175.943" width="30" height="18"/>
    <rect style="fill: none; fill-opacity:0; stroke-width: 2; stroke: #000000" x="184.64" y="175.943" width="30" height="18"/>
    <text font-size="12.8" style="fill: #000000;text-anchor:start;font-family:monospace;font-style:normal;font-weight:normal" x="190.64" y="211.843">
      <tspan x="190.64" y="211.843"> get</tspan>
    </text>
  </g>
  <g>
    <rect style="fill: #ffffff" x="247.64" y="193.943" width="81.3" height="28"/>
    <rect style="fill: none; fill-opacity:0; stroke-width: 2; stroke: #000000" x="247.64" y="193.943" width="81.3" height="28"/>
    <rect style="fill: #ffffff" x="247.64" y="175.943" width="30" height="18"/>
    <rect style="fill: none; fill-opacity:0; stroke-width: 2; stroke: #000000" x="247.64" y="175.943" width="30" height="18"/>
    <text font-size="12.8" style="fill: #000000;text-anchor:start;font-family:monospace;font-style:normal;font-weight:normal" x="253.64" y="211.843">
      <tspan x="253.64" y="211.843"> getFunc </tspan>
    </text>
  </g>
  <g>
    <rect style="fill: #ffffff" x="342.64" y="193.943" width="96.7" height="28"/>
    <rect style="fill: none; fill-opacity:0; stroke-width: 2; stroke: #000000" x="342.64" y="193.943" width="96.7" height="28"/>
    <rect style="fill: #ffffff" x="342.64" y="175.943" width="30" height="18"/>
    <rect style="fill: none; fill-opacity:0; stroke-width: 2; stroke: #000000" x="342.64" y="175.943" width="30" height="18"/>
    <text font-size="12.8" style="fill: #000000;text-anchor:start;font-family:monospace;font-style:normal;font-weight:normal" x="348.64" y="211.843">
      <tspan x="348.64" y="211.843"> getEnvSys </tspan>
    </text>
  </g>
</svg>
