<?xml version="1.0" encoding="UTF-8" standalone="no"?>
<!DOCTYPE svg PUBLIC "-//W3C//DTD SVG 1.0//EN" "http://www.w3.org/TR/2001/PR-SVG-20010719/DTD/svg10.dtd">
<svg width="26cm" height="11cm" viewBox="171 82 511 217" xmlns="http://www.w3.org/2000/svg" xmlns:xlink="http://www.w3.org/1999/xlink">
  <g>
    <rect style="fill: #ffffff" x="172" y="103.8" width="509" height="194.2"/>
    <rect style="fill: none; fill-opacity:0; stroke-width: 2; stroke: #000000" x="172" y="103.8" width="509" height="194.2"/>
    <rect style="fill: #ffffff" x="172" y="83.8" width="73.3" height="20"/>
    <rect style="fill: none; fill-opacity:0; stroke-width: 2; stroke: #000000" x="172" y="83.8" width="73.3" height="20"/>
    <text font-size="12.7998" style="fill: #000000;text-anchor:start;font-family:monospace;font-style:normal;font-weight:normal" x="174" y="98.8"> arrayOp </text>
  </g>
  <g>
    <rect style="fill: #ffffff" x="186" y="138.3" width="65.9" height="28"/>
    <rect style="fill: none; fill-opacity:0; stroke-width: 2; stroke: #000000" x="186" y="138.3" width="65.9" height="28"/>
    <rect style="fill: #ffffff" x="186" y="120.3" width="30" height="18"/>
    <rect style="fill: none; fill-opacity:0; stroke-width: 2; stroke: #000000" x="186" y="120.3" width="30" height="18"/>
    <text font-size="12.8" style="fill: #000000;text-anchor:start;font-family:monospace;font-style:normal;font-weight:normal" x="192" y="156.2">
      <tspan x="192" y="156.2"> chunk </tspan>
    </text>
  </g>
  <g>
    <rect style="fill: #ffffff" x="266.86" y="138.3" width="73.6" height="28"/>
    <rect style="fill: none; fill-opacity:0; stroke-width: 2; stroke: #000000" x="266.86" y="138.3" width="73.6" height="28"/>
    <rect style="fill: #ffffff" x="266.86" y="120.3" width="30" height="18"/>
    <rect style="fill: none; fill-opacity:0; stroke-width: 2; stroke: #000000" x="266.86" y="120.3" width="30" height="18"/>
    <text font-size="12.8" style="fill: #000000;text-anchor:start;font-family:monospace;font-style:normal;font-weight:normal" x="272.86" y="156.2">
      <tspan x="272.86" y="156.2"> reduce </tspan>
    </text>
  </g>
  <g>
    <rect style="fill: #ffffff" x="512.86" y="138.3" width="73.6" height="28"/>
    <rect style="fill: none; fill-opacity:0; stroke-width: 2; stroke: #000000" x="512.86" y="138.3" width="73.6" height="28"/>
    <rect style="fill: #ffffff" x="512.86" y="120.3" width="30" height="18"/>
    <rect style="fill: none; fill-opacity:0; stroke-width: 2; stroke: #000000" x="512.86" y="120.3" width="30" height="18"/>
    <text font-size="12.8" style="fill: #000000;text-anchor:start;font-family:monospace;font-style:normal;font-weight:normal" x="518.86" y="156.2">
      <tspan x="518.86" y="156.2"> insert </tspan>
    </text>
  </g>
  <g>
    <rect style="fill: #ffffff" x="358.86" y="138.3" width="58.2" height="28"/>
    <rect style="fill: none; fill-opacity:0; stroke-width: 2; stroke: #000000" x="358.86" y="138.3" width="58.2" height="28"/>
    <rect style="fill: #ffffff" x="358.86" y="120.3" width="30" height="18"/>
    <rect style="fill: none; fill-opacity:0; stroke-width: 2; stroke: #000000" x="358.86" y="120.3" width="30" height="18"/>
    <text font-size="12.8" style="fill: #000000;text-anchor:start;font-family:monospace;font-style:normal;font-weight:normal" x="364.86" y="156.2">
      <tspan x="364.86" y="156.2"> back </tspan>
    </text>
  </g>
  <g>
    <rect style="fill: #ffffff" x="430.86" y="138.3" width="65.9" height="28"/>
    <rect style="fill: none; fill-opacity:0; stroke-width: 2; stroke: #000000" x="430.86" y="138.3" width="65.9" height="28"/>
    <rect style="fill: #ffffff" x="430.86" y="120.3" width="30" height="18"/>
    <rect style="fill: none; fill-opacity:0; stroke-width: 2; stroke: #000000" x="430.86" y="120.3" width="30" height="18"/>
    <text font-size="12.8" style="fill: #000000;text-anchor:start;font-family:monospace;font-style:normal;font-weight:normal" x="436.86" y="156.2">
      <tspan x="436.86" y="156.2"> front </tspan>
    </text>
  </g>
  <g>
    <rect style="fill: #ffffff" x="599.86" y="138.3" width="65.9" height="28"/>
    <rect style="fill: none; fill-opacity:0; stroke-width: 2; stroke: #000000" x="599.86" y="138.3" width="65.9" height="28"/>
    <rect style="fill: #ffffff" x="599.86" y="120.3" width="30" height="18"/>
    <rect style="fill: none; fill-opacity:0; stroke-width: 2; stroke: #000000" x="599.86" y="120.3" width="30" height="18"/>
    <text font-size="12.8" style="fill: #000000;text-anchor:start;font-family:monospace;font-style:normal;font-weight:normal" x="605.86" y="156.2">
      <tspan x="605.86" y="156.2"> erase </tspan>
    </text>
  </g>
  <g>
    <rect style="fill: #ffffff" x="185.86" y="194.3" width="96.7" height="28"/>
    <rect style="fill: none; fill-opacity:0; stroke-width: 2; stroke: #000000" x="185.86" y="194.3" width="96.7" height="28"/>
    <rect style="fill: #ffffff" x="185.86" y="176.3" width="30" height="18"/>
    <rect style="fill: none; fill-opacity:0; stroke-width: 2; stroke: #000000" x="185.86" y="176.3" width="30" height="18"/>
    <text font-size="12.8" style="fill: #000000;text-anchor:start;font-family:monospace;font-style:normal;font-weight:normal" x="191.86" y="212.2">
      <tspan x="191.86" y="212.2"> push_back </tspan>
    </text>
  </g>
  <g>
    <rect style="fill: #ffffff" x="296.86" y="194.3" width="104.4" height="28"/>
    <rect style="fill: none; fill-opacity:0; stroke-width: 2; stroke: #000000" x="296.86" y="194.3" width="104.4" height="28"/>
    <rect style="fill: #ffffff" x="296.86" y="176.3" width="30" height="18"/>
    <rect style="fill: none; fill-opacity:0; stroke-width: 2; stroke: #000000" x="296.86" y="176.3" width="30" height="18"/>
    <text font-size="12.8" style="fill: #000000;text-anchor:start;font-family:monospace;font-style:normal;font-weight:normal" x="302.86" y="212.2">
      <tspan x="302.86" y="212.2"> push_front </tspan>
    </text>
  </g>
  <g>
    <rect style="fill: #ffffff" x="414.86" y="194.3" width="73.6" height="28"/>
    <rect style="fill: none; fill-opacity:0; stroke-width: 2; stroke: #000000" x="414.86" y="194.3" width="73.6" height="28"/>
    <rect style="fill: #ffffff" x="414.86" y="176.3" width="30" height="18"/>
    <rect style="fill: none; fill-opacity:0; stroke-width: 2; stroke: #000000" x="414.86" y="176.3" width="30" height="18"/>
    <text font-size="12.8" style="fill: #000000;text-anchor:start;font-family:monospace;font-style:normal;font-weight:normal" x="420.86" y="212.2">
      <tspan x="420.86" y="212.2"> search </tspan>
    </text>
  </g>
  <g>
    <rect style="fill: #ffffff" x="502.3" y="194.3" width="58.2" height="28"/>
    <rect style="fill: none; fill-opacity:0; stroke-width: 2; stroke: #000000" x="502.3" y="194.3" width="58.2" height="28"/>
    <rect style="fill: #ffffff" x="502.3" y="176.3" width="30" height="18"/>
    <rect style="fill: none; fill-opacity:0; stroke-width: 2; stroke: #000000" x="502.3" y="176.3" width="30" height="18"/>
    <text font-size="12.8" style="fill: #000000;text-anchor:start;font-family:monospace;font-style:normal;font-weight:normal" x="508.3" y="212.2">
      <tspan x="508.3" y="212.2"> sort </tspan>
    </text>
  </g>
  <g>
    <rect style="fill: #ffffff" x="575.86" y="194.3" width="89" height="28"/>
    <rect style="fill: none; fill-opacity:0; stroke-width: 2; stroke: #000000" x="575.86" y="194.3" width="89" height="28"/>
    <rect style="fill: #ffffff" x="575.86" y="176.3" width="30" height="18"/>
    <rect style="fill: none; fill-opacity:0; stroke-width: 2; stroke: #000000" x="575.86" y="176.3" width="30" height="18"/>
    <text font-size="12.8" style="fill: #000000;text-anchor:start;font-family:monospace;font-style:normal;font-weight:normal" x="581.86" y="212.2">
      <tspan x="581.86" y="212.2"> in_array </tspan>
    </text>
  </g>
  <g>
    <rect style="fill: #ffffff" x="186.86" y="251.3" width="65.9" height="28"/>
    <rect style="fill: none; fill-opacity:0; stroke-width: 2; stroke: #000000" x="186.86" y="251.3" width="65.9" height="28"/>
    <rect style="fill: #ffffff" x="186.86" y="233.3" width="30" height="18"/>
    <rect style="fill: none; fill-opacity:0; stroke-width: 2; stroke: #000000" x="186.86" y="233.3" width="30" height="18"/>
    <text font-size="12.8" style="fill: #000000;text-anchor:start;font-family:monospace;font-style:normal;font-weight:normal" x="192.86" y="269.2">
      <tspan x="192.86" y="269.2"> range </tspan>
    </text>
  </g>
  <g>
    <rect style="fill: #ffffff" x="266.86" y="251.3" width="81.3" height="28"/>
    <rect style="fill: none; fill-opacity:0; stroke-width: 2; stroke: #000000" x="266.86" y="251.3" width="81.3" height="28"/>
    <rect style="fill: #ffffff" x="266.86" y="233.3" width="30" height="18"/>
    <rect style="fill: none; fill-opacity:0; stroke-width: 2; stroke: #000000" x="266.86" y="233.3" width="30" height="18"/>
    <text font-size="12.8" style="fill: #000000;text-anchor:start;font-family:monospace;font-style:normal;font-weight:normal" x="272.86" y="269.2">
      <tspan x="272.86" y="269.2"> shuffle </tspan>
    </text>
  </g>
  <g>
    <rect style="fill: #ffffff" x="361.86" y="251.3" width="73.6" height="28"/>
    <rect style="fill: none; fill-opacity:0; stroke-width: 2; stroke: #000000" x="361.86" y="251.3" width="73.6" height="28"/>
    <rect style="fill: #ffffff" x="361.86" y="233.3" width="30" height="18"/>
    <rect style="fill: none; fill-opacity:0; stroke-width: 2; stroke: #000000" x="361.86" y="233.3" width="30" height="18"/>
    <text font-size="12.8" style="fill: #000000;text-anchor:start;font-family:monospace;font-style:normal;font-weight:normal" x="367.86" y="269.2">
      <tspan x="367.86" y="269.2"> splice </tspan>
    </text>
  </g>
</svg>
