<?xml version="1.0" encoding="UTF-8" standalone="no"?>
<!DOCTYPE svg PUBLIC "-//W3C//DTD SVG 1.0//EN" "http://www.w3.org/TR/2001/PR-SVG-20010719/DTD/svg10.dtd">
<svg width="17cm" height="11cm" viewBox="171 82 327 210" xmlns="http://www.w3.org/2000/svg" xmlns:xlink="http://www.w3.org/1999/xlink">
  <g>
    <rect style="fill: #ffffff" x="172" y="103.8" width="325" height="187.2"/>
    <rect style="fill: none; fill-opacity:0; stroke-width: 2; stroke: #000000" x="172" y="103.8" width="325" height="187.2"/>
    <rect style="fill: #ffffff" x="172" y="83.8" width="88.7" height="20"/>
    <rect style="fill: none; fill-opacity:0; stroke-width: 2; stroke: #000000" x="172" y="83.8" width="88.7" height="20"/>
    <text font-size="12.7998" style="fill: #000000;text-anchor:start;font-family:monospace;font-style:normal;font-weight:normal" x="174" y="98.8"> mysql-ext </text>
  </g>
  <g>
    <rect style="fill: #ffffff" x="183.4" y="132.764" width="50" height="28"/>
    <rect style="fill: none; fill-opacity:0; stroke-width: 2; stroke: #000000" x="183.4" y="132.764" width="50" height="28"/>
    <rect style="fill: #ffffff" x="183.4" y="114.764" width="30" height="18"/>
    <rect style="fill: none; fill-opacity:0; stroke-width: 2; stroke: #000000" x="183.4" y="114.764" width="30" height="18"/>
    <text font-size="12.8" style="fill: #000000;text-anchor:start;font-family:monospace;font-style:normal;font-weight:normal" x="189.4" y="150.665">
      <tspan x="189.4" y="150.665"> db </tspan>
    </text>
  </g>
  <g>
    <rect style="fill: #ffffff" x="246.4" y="132.764" width="81.3" height="28"/>
    <rect style="fill: none; fill-opacity:0; stroke-width: 2; stroke: #000000" x="246.4" y="132.764" width="81.3" height="28"/>
    <rect style="fill: #ffffff" x="246.4" y="114.764" width="30" height="18"/>
    <rect style="fill: none; fill-opacity:0; stroke-width: 2; stroke: #000000" x="246.4" y="114.764" width="30" height="18"/>
    <text font-size="12.8" style="fill: #000000;text-anchor:start;font-family:monospace;font-style:normal;font-weight:normal" x="252.4" y="150.665">
      <tspan x="252.4" y="150.665"> dbQuery </tspan>
    </text>
  </g>
  <g>
    <rect style="fill: #ffffff" x="183.4" y="188.894" width="89" height="28"/>
    <rect style="fill: none; fill-opacity:0; stroke-width: 2; stroke: #000000" x="183.4" y="188.894" width="89" height="28"/>
    <rect style="fill: #ffffff" x="183.4" y="170.894" width="30" height="18"/>
    <rect style="fill: none; fill-opacity:0; stroke-width: 2; stroke: #000000" x="183.4" y="170.894" width="30" height="18"/>
    <text font-size="12.8" style="fill: #000000;text-anchor:start;font-family:monospace;font-style:normal;font-weight:normal" x="189.4" y="206.794">
      <tspan x="189.4" y="206.794"> dbInsert </tspan>
    </text>
  </g>
  <g>
    <rect style="fill: #ffffff" x="291.48" y="188.894" width="89" height="28"/>
    <rect style="fill: none; fill-opacity:0; stroke-width: 2; stroke: #000000" x="291.48" y="188.894" width="89" height="28"/>
    <rect style="fill: #ffffff" x="291.48" y="170.894" width="30" height="18"/>
    <rect style="fill: none; fill-opacity:0; stroke-width: 2; stroke: #000000" x="291.48" y="170.894" width="30" height="18"/>
    <text font-size="12.8" style="fill: #000000;text-anchor:start;font-family:monospace;font-style:normal;font-weight:normal" x="297.48" y="206.794">
      <tspan x="297.48" y="206.794"> dbSelect </tspan>
    </text>
  </g>
  <g>
    <rect style="fill: #ffffff" x="396.4" y="188.894" width="89" height="28"/>
    <rect style="fill: none; fill-opacity:0; stroke-width: 2; stroke: #000000" x="396.4" y="188.894" width="89" height="28"/>
    <rect style="fill: #ffffff" x="396.4" y="170.894" width="30" height="18"/>
    <rect style="fill: none; fill-opacity:0; stroke-width: 2; stroke: #000000" x="396.4" y="170.894" width="30" height="18"/>
    <text font-size="12.8" style="fill: #000000;text-anchor:start;font-family:monospace;font-style:normal;font-weight:normal" x="402.4" y="206.794">
      <tspan x="402.4" y="206.794"> dbUpdate </tspan>
    </text>
  </g>
  <g>
    <rect style="fill: #ffffff" x="186.4" y="244.487" width="89" height="28"/>
    <rect style="fill: none; fill-opacity:0; stroke-width: 2; stroke: #000000" x="186.4" y="244.487" width="89" height="28"/>
    <rect style="fill: #ffffff" x="186.4" y="226.487" width="30" height="18"/>
    <rect style="fill: none; fill-opacity:0; stroke-width: 2; stroke: #000000" x="186.4" y="226.487" width="30" height="18"/>
    <text font-size="12.8" style="fill: #000000;text-anchor:start;font-family:monospace;font-style:normal;font-weight:normal" x="192.4" y="262.387">
      <tspan x="192.4" y="262.387"> dbDelete </tspan>
    </text>
  </g>
  <g>
    <rect style="fill: #ffffff" x="342.48" y="132.764" width="81.3" height="28"/>
    <rect style="fill: none; fill-opacity:0; stroke-width: 2; stroke: #000000" x="342.48" y="132.764" width="81.3" height="28"/>
    <rect style="fill: #ffffff" x="342.48" y="114.764" width="30" height="18"/>
    <rect style="fill: none; fill-opacity:0; stroke-width: 2; stroke: #000000" x="342.48" y="114.764" width="30" height="18"/>
    <text font-size="12.8" style="fill: #000000;text-anchor:start;font-family:monospace;font-style:normal;font-weight:normal" x="348.48" y="150.665">
      <tspan x="348.48" y="150.665"> dbClose </tspan>
    </text>
  </g>
</svg>
