<?xml version="1.0" encoding="UTF-8" standalone="no"?>
<!DOCTYPE svg PUBLIC "-//W3C//DTD SVG 1.0//EN" "http://www.w3.org/TR/2001/PR-SVG-20010719/DTD/svg10.dtd">
<svg width="16cm" height="15cm" viewBox="150 53 316 289" xmlns="http://www.w3.org/2000/svg" xmlns:xlink="http://www.w3.org/1999/xlink">
  <g>
    <rect style="fill: #ffffff" x="151" y="74" width="314" height="267"/>
    <rect style="fill: none; fill-opacity:0; stroke-width: 2; stroke: #000000" x="151" y="74" width="314" height="267"/>
    <rect style="fill: #ffffff" x="151" y="54" width="40" height="20"/>
    <rect style="fill: none; fill-opacity:0; stroke-width: 2; stroke: #000000" x="151" y="54" width="40" height="20"/>
    <text font-size="12.7998" style="fill: #000000;text-anchor:start;font-family:monospace;font-style:normal;font-weight:normal" x="153" y="69"> id </text>
  </g>
  <g>
    <rect style="fill: #ffffff" x="205" y="83.8" width="87.4" height="28"/>
    <rect style="fill: none; fill-opacity:0; stroke-width: 2; stroke: #000000" x="205" y="83.8" width="87.4" height="28"/>
    <text font-size="16" style="fill: #000000;text-anchor:middle;font-family:sans-serif;font-style:normal;font-weight:700" x="248.7" y="102.8">runNode</text>
  </g>
  <g>
    <rect style="fill: #ffffff" x="179" y="150.8" width="139.2" height="28"/>
    <rect style="fill: none; fill-opacity:0; stroke-width: 2; stroke: #000000" x="179" y="150.8" width="139.2" height="28"/>
    <text font-size="16" style="fill: #000000;text-anchor:middle;font-family:sans-serif;font-style:normal;font-weight:700" x="248.6" y="169.8">printableNode</text>
  </g>
  <g>
    <rect style="fill: #ffffff" x="204" y="221.8" width="89.3" height="28"/>
    <rect style="fill: none; fill-opacity:0; stroke-width: 2; stroke: #000000" x="204" y="221.8" width="89.3" height="28"/>
    <text font-size="16" style="fill: #000000;text-anchor:middle;font-family:sans-serif;font-style:normal;font-weight:700" x="248.65" y="240.8">expNode</text>
  </g>
  <g>
    <polyline style="fill: none; fill-opacity:0; stroke-width: 2; stroke: #000000" points="248.7,130.036 248.7,139.3 248.6,139.3 248.6,150.8 "/>
    <polygon style="fill: #ffffff" points="256.7,130.036 248.7,114.036 240.7,130.036 "/>
    <polygon style="fill: none; fill-opacity:0; stroke-width: 2; stroke: #000000" points="256.7,130.036 248.7,114.036 240.7,130.036 "/>
  </g>
  <g>
    <polyline style="fill: none; fill-opacity:0; stroke-width: 2; stroke: #000000" points="248.6,197.036 248.6,208.3 248.65,208.3 248.65,221.8 "/>
    <polygon style="fill: #ffffff" points="256.6,197.036 248.6,181.036 240.6,197.036 "/>
    <polygon style="fill: none; fill-opacity:0; stroke-width: 2; stroke: #000000" points="256.6,197.036 248.6,181.036 240.6,197.036 "/>
  </g>
  <g>
    <polyline style="fill: none; fill-opacity:0; stroke-width: 2; stroke: #000000" points="248.65,268.036 248.65,276.9 249.35,276.9 249.35,290 "/>
    <polygon style="fill: #ffffff" points="256.65,268.036 248.65,252.036 240.65,268.036 "/>
    <polygon style="fill: none; fill-opacity:0; stroke-width: 2; stroke: #000000" points="256.65,268.036 248.65,252.036 240.65,268.036 "/>
  </g>
  <g>
    <rect style="fill: #ffffff" x="199" y="290" width="100.7" height="28"/>
    <rect style="fill: none; fill-opacity:0; stroke-width: 2; stroke: #000000" x="199" y="290" width="100.7" height="28"/>
    <text font-size="16" style="fill: #000000;text-anchor:middle;font-family:sans-serif;font-style:normal;font-weight:700" x="249.35" y="309">nexpNode</text>
  </g>
  <g>
    <rect style="fill: #ffffff" x="341" y="280" width="110.1" height="28"/>
    <rect style="fill: none; fill-opacity:0; stroke-width: 2; stroke: #000000" x="341" y="280" width="110.1" height="28"/>
    <text font-size="16" style="fill: #000000;text-anchor:middle;font-family:sans-serif;font-style:normal;font-weight:700" x="396.05" y="299">idNode</text>
    <rect style="fill: #ffffff" x="341" y="308" width="110.1" height="20"/>
    <rect style="fill: none; fill-opacity:0; stroke-width: 2; stroke: #000000" x="341" y="308" width="110.1" height="20"/>
    <text font-size="12.8" style="fill: #000000;text-anchor:start;font-family:monospace;font-style:normal;font-weight:normal" x="344" y="322">+name: string</text>
  </g>
  <g>
    <rect style="fill: #ffffff" x="364" y="155" width="66.95" height="28"/>
    <rect style="fill: none; fill-opacity:0; stroke-width: 2; stroke: #000000" x="364" y="155" width="66.95" height="28"/>
    <text font-size="16" style="fill: #000000;text-anchor:middle;font-family:sans-serif;font-style:normal;font-weight:700" x="397.475" y="174">sTable</text>
  </g>
  <g>
    <polyline style="fill: none; fill-opacity:0; stroke-width: 2; stroke-dasharray: 8; stroke: #000000" points="396.05,280 396.05,235.5 397.475,235.5 397.475,189.705 "/>
    <polyline style="fill: none; fill-opacity:0; stroke-width: 2; stroke: #000000" points="402.475,202.353 397.475,186.353 392.475,202.353 "/>
  </g>
  <g>
    <polyline style="fill: none; fill-opacity:0; stroke-width: 2; stroke: #000000" points="318.942,304 317.706,304 338.993,304 339.993,304 "/>
    <polygon style="fill: #ffffff" points="318.942,296 302.942,304 318.942,312 "/>
    <polygon style="fill: none; fill-opacity:0; stroke-width: 2; stroke: #000000" points="318.942,296 302.942,304 318.942,312 "/>
  </g>
</svg>
