<?xml version="1.0" encoding="UTF-8" standalone="no"?>
<!DOCTYPE svg PUBLIC "-//W3C//DTD SVG 1.0//EN" "http://www.w3.org/TR/2001/PR-SVG-20010719/DTD/svg10.dtd">
<svg width="11cm" height="12cm" viewBox="513 248 214 233" xmlns="http://www.w3.org/2000/svg" xmlns:xlink="http://www.w3.org/1999/xlink">
  <g>
    <rect style="fill: #ffffff" x="514" y="269.4" width="212" height="210.6"/>
    <rect style="fill: none; fill-opacity:0; stroke-width: 2; stroke: #000000" x="514" y="269.4" width="212" height="210.6"/>
    <rect style="fill: #ffffff" x="514" y="249.4" width="127.2" height="20"/>
    <rect style="fill: none; fill-opacity:0; stroke-width: 2; stroke: #000000" x="514" y="249.4" width="127.2" height="20"/>
    <text font-size="12.7998" style="fill: #000000;text-anchor:start;font-family:monospace;font-style:normal;font-weight:normal" x="516" y="264.4"> errorException </text>
  </g>
  <g>
    <rect style="fill: #ffffff" x="547" y="290.4" width="139.9" height="28"/>
    <rect style="fill: none; fill-opacity:0; stroke-width: 2; stroke: #000000" x="547" y="290.4" width="139.9" height="28"/>
    <text font-size="16" style="fill: #000000;text-anchor:middle;font-family:sans-serif;font-style:normal;font-weight:700" x="616.95" y="309.4">std::exception</text>
  </g>
  <g>
    <rect style="fill: #ffffff" x="539" y="362.4" width="156.3" height="28"/>
    <rect style="fill: none; fill-opacity:0; stroke-width: 2; stroke: #000000" x="539" y="362.4" width="156.3" height="28"/>
    <text font-size="16" style="fill: #000000;text-anchor:middle;font-family:sans-serif;font-style:normal;font-weight:700" x="617.15" y="381.4">errorException</text>
    <rect style="fill: #ffffff" x="539" y="390.4" width="156.3" height="68"/>
    <rect style="fill: none; fill-opacity:0; stroke-width: 2; stroke: #000000" x="539" y="390.4" width="156.3" height="68"/>
    <text font-size="12.8" style="fill: #000000;text-anchor:start;font-family:monospace;font-style:normal;font-weight:normal" x="542" y="404.4">+msg: string</text>
    <text font-size="12.8" style="fill: #000000;text-anchor:start;font-family:monospace;font-style:normal;font-weight:normal" x="542" y="420.4">+debug: string</text>
    <text font-size="12.8" style="fill: #000000;text-anchor:start;font-family:monospace;font-style:normal;font-weight:normal" x="542" y="436.4">+code: unsigned int</text>
    <text font-size="12.8" style="fill: #000000;text-anchor:start;font-family:monospace;font-style:normal;font-weight:normal" x="542" y="452.4">+exit: bool</text>
  </g>
  <g>
    <polyline style="fill: none; fill-opacity:0; stroke-width: 2; stroke: #000000" points="616.95,336.636 616.95,348.4 617.15,348.4 617.15,362.4 "/>
    <polygon style="fill: #ffffff" points="624.95,336.636 616.95,320.636 608.95,336.636 "/>
    <polygon style="fill: none; fill-opacity:0; stroke-width: 2; stroke: #000000" points="624.95,336.636 616.95,320.636 608.95,336.636 "/>
  </g>
</svg>
