<?xml version="1.0" encoding="UTF-8" standalone="no"?>
<!-- Created with Inkscape (http://www.inkscape.org/) -->

<svg
   xmlns:dc="http://purl.org/dc/elements/1.1/"
   xmlns:cc="http://creativecommons.org/ns#"
   xmlns:rdf="http://www.w3.org/1999/02/22-rdf-syntax-ns#"
   xmlns:svg="http://www.w3.org/2000/svg"
   xmlns="http://www.w3.org/2000/svg"
   xmlns:sodipodi="http://sodipodi.sourceforge.net/DTD/sodipodi-0.dtd"
   xmlns:inkscape="http://www.inkscape.org/namespaces/inkscape"
   width="175mm"
   height="100mm"
   viewBox="0 0 620.07874 354.33071"
   id="svg3813"
   version="1.1"
   inkscape:version="0.91 r13725"
   sodipodi:docname="logo-doc.svg">
  <defs
     id="defs3815" />
  <sodipodi:namedview
     id="base"
     pagecolor="#ffffff"
     bordercolor="#666666"
     borderopacity="1.0"
     inkscape:pageopacity="0.0"
     inkscape:pageshadow="2"
     inkscape:zoom="0.35"
     inkscape:cx="375"
     inkscape:cy="520"
     inkscape:document-units="px"
     inkscape:current-layer="layer1"
     showgrid="false"
     inkscape:window-width="1920"
     inkscape:window-height="992"
     inkscape:window-x="0"
     inkscape:window-y="32"
     inkscape:window-maximized="1" />
  <metadata
     id="metadata3818">
    <rdf:RDF>
      <cc:Work
         rdf:about="">
        <dc:format>image/svg+xml</dc:format>
        <dc:type
           rdf:resource="http://purl.org/dc/dcmitype/StillImage" />
        <dc:title></dc:title>
      </cc:Work>
    </rdf:RDF>
  </metadata>
  <g
     inkscape:label="Capa 1"
     inkscape:groupmode="layer"
     id="layer1"
     transform="translate(0,-698.0315)">
    <text
       y="908.70837"
       x="224.16629"
       style="font-size:190.22523499px;font-family:Dosis-Bold"
       id="text3691">OMI</text>
    <text
       y="982.99188"
       x="6.7623973"
       style="font-size:47.55630875px;font-family:Dosis-Medium"
       id="text3693">Open Modular Interpreter</text>
    <path
       inkscape:connector-curvature="0"
       style="fill:#e50647"
       d="m 70.280078,841.28355 c 0,9.11496 -7.529749,17.04101 -17.041011,17.04101 l 0,0 c -9.114959,0 -17.04101,-7.52975 -17.04101,-17.04101 l 0,-67.37144 c 0,-9.11496 7.529749,-17.04101 17.04101,-17.04101 l 0,0 c 9.114959,0 17.041011,7.52975 17.041011,17.04101 l 0,67.37144 z"
       id="path3695" />
    <circle
       style="fill:#575756"
       cx="53.635372"
       cy="892.01044"
       r="17.041012"
       id="circle3697" />
    <path
       inkscape:connector-curvature="0"
       style="fill:#1199d6"
       d="m 138.04782,824.63884 c 0,-9.11496 7.52975,-17.04101 17.04101,-17.04101 l 0,0 c 9.11496,0 17.04101,7.52975 17.04101,17.04101 l 0,67.37144 c 0,9.11496 -7.52975,17.04101 -17.04101,17.04101 l 0,0 c -9.11496,0 -17.04101,-7.52975 -17.04101,-17.04101 l 0,-67.37144 z"
       id="path3699" />
    <circle
       style="fill:#575756"
       cx="154.69254"
       cy="773.91205"
       r="17.041012"
       id="circle3701" />
    <path
       inkscape:connector-curvature="0"
       style="fill:#ffde00"
       d="m 121.00681,892.01028 c 0,9.11496 -7.52975,17.04101 -17.04101,17.04101 l 0,0 c -9.114963,0 -17.041014,-7.52975 -17.041014,-17.04101 l 0,-33.68572 c 0,-9.11496 7.529748,-17.04101 17.041014,-17.04101 l 0,0 c 9.11495,0 17.04101,7.52975 17.04101,17.04101 l 0,33.68572 z"
       id="path3703" />
    <path
       inkscape:connector-curvature="0"
       style="fill:#d0c83d"
       d="m 121.00681,807.59783 c 0,9.11496 -7.52975,17.04101 -17.04101,17.04101 l 0,0 c -9.114963,0 -17.041014,-7.52975 -17.041014,-17.04101 l 0,-33.68572 c 0,-9.11496 7.529748,-17.04101 17.041014,-17.04101 l 0,0 c 9.11495,0 17.04101,7.52975 17.04101,17.04101 l 0,33.68572 z"
       id="path3705" />
  </g>
</svg>
