<?xml version="1.0" encoding="UTF-8" standalone="no"?>
<!DOCTYPE svg PUBLIC "-//W3C//DTD SVG 1.0//EN" "http://www.w3.org/TR/2001/PR-SVG-20010719/DTD/svg10.dtd">
<svg width="10cm" height="5cm" viewBox="171 82 184 97" xmlns="http://www.w3.org/2000/svg" xmlns:xlink="http://www.w3.org/1999/xlink">
  <g>
    <rect style="fill: #ffffff" x="172" y="103.8" width="182" height="74.2"/>
    <rect style="fill: none; fill-opacity:0; stroke-width: 2; stroke: #000000" x="172" y="103.8" width="182" height="74.2"/>
    <rect style="fill: #ffffff" x="172" y="83.8" width="40" height="20"/>
    <rect style="fill: none; fill-opacity:0; stroke-width: 2; stroke: #000000" x="172" y="83.8" width="40" height="20"/>
    <text font-size="12.7998" style="fill: #000000;text-anchor:start;font-family:monospace;font-style:normal;font-weight:normal" x="174" y="98.8">ioOp</text>
  </g>
  <g>
    <rect style="fill: #ffffff" x="184.7" y="135.122" width="73.6" height="28"/>
    <rect style="fill: none; fill-opacity:0; stroke-width: 2; stroke: #000000" x="184.7" y="135.122" width="73.6" height="28"/>
    <rect style="fill: #ffffff" x="184.7" y="117.122" width="30" height="18"/>
    <rect style="fill: none; fill-opacity:0; stroke-width: 2; stroke: #000000" x="184.7" y="117.122" width="30" height="18"/>
    <text font-size="12.8" style="fill: #000000;text-anchor:start;font-family:monospace;font-style:normal;font-weight:normal" x="190.7" y="153.022">
      <tspan x="190.7" y="153.022"> output </tspan>
    </text>
  </g>
  <g>
    <rect style="fill: #ffffff" x="271.7" y="136.667" width="65.9" height="28"/>
    <rect style="fill: none; fill-opacity:0; stroke-width: 2; stroke: #000000" x="271.7" y="136.667" width="65.9" height="28"/>
    <rect style="fill: #ffffff" x="271.7" y="118.667" width="30" height="18"/>
    <rect style="fill: none; fill-opacity:0; stroke-width: 2; stroke: #000000" x="271.7" y="118.667" width="30" height="18"/>
    <text font-size="12.8" style="fill: #000000;text-anchor:start;font-family:monospace;font-style:normal;font-weight:normal" x="277.7" y="154.567">
      <tspan x="277.7" y="154.567"> input </tspan>
    </text>
  </g>
</svg>
