<?xml version="1.0" encoding="UTF-8" standalone="no"?>
<!DOCTYPE svg PUBLIC "-//W3C//DTD SVG 1.0//EN" "http://www.w3.org/TR/2001/PR-SVG-20010719/DTD/svg10.dtd">
<svg width="16cm" height="15cm" viewBox="405 126 319 299" xmlns="http://www.w3.org/2000/svg" xmlns:xlink="http://www.w3.org/1999/xlink">
  <g>
    <rect style="fill: #ffffff" x="406" y="147" width="317" height="276"/>
    <rect style="fill: none; fill-opacity:0; stroke-width: 2; stroke: #000000" x="406" y="147" width="317" height="276"/>
    <rect style="fill: #ffffff" x="406" y="127" width="127.2" height="20"/>
    <rect style="fill: none; fill-opacity:0; stroke-width: 2; stroke: #000000" x="406" y="127" width="127.2" height="20"/>
    <text font-size="12.7998" style="fill: #000000;text-anchor:start;font-family:monospace;font-style:normal;font-weight:normal" x="408" y="142"> nullCoalescing </text>
  </g>
  <g>
    <rect style="fill: #ffffff" x="486" y="176" width="87.4" height="28"/>
    <rect style="fill: none; fill-opacity:0; stroke-width: 2; stroke: #000000" x="486" y="176" width="87.4" height="28"/>
    <text font-size="16" style="fill: #000000;text-anchor:middle;font-family:sans-serif;font-style:normal;font-weight:700" x="529.7" y="195">runNode</text>
  </g>
  <g>
    <rect style="fill: #ffffff" x="480" y="244" width="100.7" height="28"/>
    <rect style="fill: none; fill-opacity:0; stroke-width: 2; stroke: #000000" x="480" y="244" width="100.7" height="28"/>
    <text font-size="16" style="fill: #000000;text-anchor:middle;font-family:sans-serif;font-style:normal;font-weight:700" x="530.35" y="263">nexpNode</text>
  </g>
  <g>
    <polyline style="fill: none; fill-opacity:0; stroke-width: 2; stroke: #000000" points="529.7,222.236 529.7,232 530.35,232 530.35,244 "/>
    <polygon style="fill: #ffffff" points="537.7,222.236 529.7,206.236 521.7,222.236 "/>
    <polygon style="fill: none; fill-opacity:0; stroke-width: 2; stroke: #000000" points="537.7,222.236 529.7,206.236 521.7,222.236 "/>
  </g>
  <g>
    <rect style="fill: #ffffff" x="436" y="321" width="187.75" height="28"/>
    <rect style="fill: none; fill-opacity:0; stroke-width: 2; stroke: #000000" x="436" y="321" width="187.75" height="28"/>
    <text font-size="16" style="fill: #000000;text-anchor:middle;font-family:sans-serif;font-style:normal;font-weight:700" x="529.875" y="340">nullCoalescingNode</text>
  </g>
  <g>
    <polyline style="fill: none; fill-opacity:0; stroke-width: 2; stroke: #000000" points="530.35,290.236 530.35,304.5 529.875,304.5 529.875,321 "/>
    <polygon style="fill: #ffffff" points="538.35,290.236 530.35,274.236 522.35,290.236 "/>
    <polygon style="fill: none; fill-opacity:0; stroke-width: 2; stroke: #000000" points="538.35,290.236 530.35,274.236 522.35,290.236 "/>
  </g>
  <g>
    <polyline style="fill: none; fill-opacity:0; stroke-width: 2; stroke: #000000" points="648.922,335 658.75,335 658.75,190 573.4,190 "/>
    <polygon style="fill: #ffffff" points="623.75,335 637.75,330.2 651.75,335 637.75,339.8 "/>
    <polygon style="fill: none; fill-opacity:0; stroke-width: 2; stroke: #000000" points="623.75,335 637.75,330.2 651.75,335 637.75,339.8 "/>
    <text font-size="12.7998" style="fill: #000000;text-anchor:start;font-family:monospace;font-style:normal;font-weight:normal" x="660.75" y="259.5">list</text>
    <text font-size="12.7998" style="fill: #000000;text-anchor:start;font-family:monospace;font-style:normal;font-weight:normal" x="655.75" y="332"/>
    <text font-size="12.7998" style="fill: #000000;text-anchor:start;font-family:monospace;font-style:normal;font-weight:normal" x="577.4" y="187">1</text>
  </g>
</svg>
